%TF.GenerationSoftware,KiCad,Pcbnew,(7.0.0)*%
%TF.CreationDate,2024-03-05T12:29:29-03:00*%
%TF.ProjectId,pcb_peau_v1,7063625f-7065-4617-955f-76312e6b6963,rev?*%
%TF.SameCoordinates,Original*%
%TF.FileFunction,Paste,Top*%
%TF.FilePolarity,Positive*%
%FSLAX46Y46*%
G04 Gerber Fmt 4.6, Leading zero omitted, Abs format (unit mm)*
G04 Created by KiCad (PCBNEW (7.0.0)) date 2024-03-05 12:29:29*
%MOMM*%
%LPD*%
G01*
G04 APERTURE LIST*
G04 Aperture macros list*
%AMRoundRect*
0 Rectangle with rounded corners*
0 $1 Rounding radius*
0 $2 $3 $4 $5 $6 $7 $8 $9 X,Y pos of 4 corners*
0 Add a 4 corners polygon primitive as box body*
4,1,4,$2,$3,$4,$5,$6,$7,$8,$9,$2,$3,0*
0 Add four circle primitives for the rounded corners*
1,1,$1+$1,$2,$3*
1,1,$1+$1,$4,$5*
1,1,$1+$1,$6,$7*
1,1,$1+$1,$8,$9*
0 Add four rect primitives between the rounded corners*
20,1,$1+$1,$2,$3,$4,$5,0*
20,1,$1+$1,$4,$5,$6,$7,0*
20,1,$1+$1,$6,$7,$8,$9,0*
20,1,$1+$1,$8,$9,$2,$3,0*%
G04 Aperture macros list end*
%ADD10R,0.450000X1.750000*%
%ADD11RoundRect,0.237500X-0.237500X0.250000X-0.237500X-0.250000X0.237500X-0.250000X0.237500X0.250000X0*%
%ADD12R,0.600000X2.200000*%
%ADD13RoundRect,0.237500X0.250000X0.237500X-0.250000X0.237500X-0.250000X-0.237500X0.250000X-0.237500X0*%
%ADD14RoundRect,0.237500X-0.250000X-0.237500X0.250000X-0.237500X0.250000X0.237500X-0.250000X0.237500X0*%
%ADD15RoundRect,0.237500X0.237500X-0.250000X0.237500X0.250000X-0.237500X0.250000X-0.237500X-0.250000X0*%
G04 APERTURE END LIST*
D10*
%TO.C,U5*%
X222751999Y-87343999D03*
X223401999Y-87343999D03*
X224051999Y-87343999D03*
X224701999Y-87343999D03*
X225351999Y-87343999D03*
X226001999Y-87343999D03*
X226651999Y-87343999D03*
X227301999Y-87343999D03*
X227951999Y-87343999D03*
X228601999Y-87343999D03*
X229251999Y-87343999D03*
X229901999Y-87343999D03*
X229901999Y-80143999D03*
X229251999Y-80143999D03*
X228601999Y-80143999D03*
X227951999Y-80143999D03*
X227301999Y-80143999D03*
X226651999Y-80143999D03*
X226001999Y-80143999D03*
X225351999Y-80143999D03*
X224701999Y-80143999D03*
X224051999Y-80143999D03*
X223401999Y-80143999D03*
X222751999Y-80143999D03*
%TD*%
%TO.C,U6*%
X184416999Y-80441999D03*
X185066999Y-80441999D03*
X185716999Y-80441999D03*
X186366999Y-80441999D03*
X187016999Y-80441999D03*
X187666999Y-80441999D03*
X188316999Y-80441999D03*
X188966999Y-80441999D03*
X189616999Y-80441999D03*
X190266999Y-80441999D03*
X190916999Y-80441999D03*
X191566999Y-80441999D03*
X191566999Y-87641999D03*
X190916999Y-87641999D03*
X190266999Y-87641999D03*
X189616999Y-87641999D03*
X188966999Y-87641999D03*
X188316999Y-87641999D03*
X187666999Y-87641999D03*
X187016999Y-87641999D03*
X186366999Y-87641999D03*
X185716999Y-87641999D03*
X185066999Y-87641999D03*
X184416999Y-87641999D03*
%TD*%
D11*
%TO.C,R10*%
X187940000Y-113699000D03*
X187940000Y-115524000D03*
%TD*%
D10*
%TO.C,U3*%
X220866999Y-58209999D03*
X221516999Y-58209999D03*
X222166999Y-58209999D03*
X222816999Y-58209999D03*
X223466999Y-58209999D03*
X224116999Y-58209999D03*
X224766999Y-58209999D03*
X225416999Y-58209999D03*
X226066999Y-58209999D03*
X226716999Y-58209999D03*
X227366999Y-58209999D03*
X228016999Y-58209999D03*
X228016999Y-51009999D03*
X227366999Y-51009999D03*
X226716999Y-51009999D03*
X226066999Y-51009999D03*
X225416999Y-51009999D03*
X224766999Y-51009999D03*
X224116999Y-51009999D03*
X223466999Y-51009999D03*
X222816999Y-51009999D03*
X222166999Y-51009999D03*
X221516999Y-51009999D03*
X220866999Y-51009999D03*
%TD*%
D12*
%TO.C,U7*%
X183387999Y-98237999D03*
X182117999Y-98237999D03*
X180847999Y-98237999D03*
X179577999Y-98237999D03*
X178307999Y-98237999D03*
X177037999Y-98237999D03*
X175767999Y-98237999D03*
X175767999Y-103437999D03*
X177037999Y-103437999D03*
X178307999Y-103437999D03*
X179577999Y-103437999D03*
X180847999Y-103437999D03*
X182117999Y-103437999D03*
X183387999Y-103437999D03*
%TD*%
%TO.C,U8*%
X194309999Y-103437999D03*
X195579999Y-103437999D03*
X196849999Y-103437999D03*
X198119999Y-103437999D03*
X199389999Y-103437999D03*
X200659999Y-103437999D03*
X201929999Y-103437999D03*
X201929999Y-98237999D03*
X200659999Y-98237999D03*
X199389999Y-98237999D03*
X198119999Y-98237999D03*
X196849999Y-98237999D03*
X195579999Y-98237999D03*
X194309999Y-98237999D03*
%TD*%
D13*
%TO.C,R22*%
X206632500Y-116286000D03*
X204807500Y-116286000D03*
%TD*%
D12*
%TO.C,U2*%
X213105999Y-103437999D03*
X214375999Y-103437999D03*
X215645999Y-103437999D03*
X216915999Y-103437999D03*
X218185999Y-103437999D03*
X219455999Y-103437999D03*
X220725999Y-103437999D03*
X220725999Y-98237999D03*
X219455999Y-98237999D03*
X218185999Y-98237999D03*
X216915999Y-98237999D03*
X215645999Y-98237999D03*
X214375999Y-98237999D03*
X213105999Y-98237999D03*
%TD*%
D14*
%TO.C,R4*%
X211157500Y-116286000D03*
X212982500Y-116286000D03*
%TD*%
D12*
%TO.C,U9*%
X239775999Y-98237999D03*
X238505999Y-98237999D03*
X237235999Y-98237999D03*
X235965999Y-98237999D03*
X234695999Y-98237999D03*
X233425999Y-98237999D03*
X232155999Y-98237999D03*
X232155999Y-103437999D03*
X233425999Y-103437999D03*
X234695999Y-103437999D03*
X235965999Y-103437999D03*
X237235999Y-103437999D03*
X238505999Y-103437999D03*
X239775999Y-103437999D03*
%TD*%
D11*
%TO.C,R9*%
X211054000Y-111817500D03*
X211054000Y-113642500D03*
%TD*%
%TO.C,R8*%
X192512000Y-114715000D03*
X192512000Y-116540000D03*
%TD*%
%TO.C,R21*%
X217404000Y-111714000D03*
X217404000Y-113539000D03*
%TD*%
D15*
%TO.C,R23*%
X214610000Y-113642500D03*
X214610000Y-111817500D03*
%TD*%
D10*
%TO.C,U4*%
X187846999Y-58209999D03*
X188496999Y-58209999D03*
X189146999Y-58209999D03*
X189796999Y-58209999D03*
X190446999Y-58209999D03*
X191096999Y-58209999D03*
X191746999Y-58209999D03*
X192396999Y-58209999D03*
X193046999Y-58209999D03*
X193696999Y-58209999D03*
X194346999Y-58209999D03*
X194996999Y-58209999D03*
X194996999Y-51009999D03*
X194346999Y-51009999D03*
X193696999Y-51009999D03*
X193046999Y-51009999D03*
X192396999Y-51009999D03*
X191746999Y-51009999D03*
X191096999Y-51009999D03*
X190446999Y-51009999D03*
X189796999Y-51009999D03*
X189146999Y-51009999D03*
X188496999Y-51009999D03*
X187846999Y-51009999D03*
%TD*%
D15*
%TO.C,R11*%
X206736000Y-113689500D03*
X206736000Y-111864500D03*
%TD*%
D14*
%TO.C,R20*%
X199219500Y-114254000D03*
X201044500Y-114254000D03*
%TD*%
D13*
%TO.C,R25*%
X200957000Y-115716500D03*
X199132000Y-115716500D03*
%TD*%
M02*
