%TF.GenerationSoftware,KiCad,Pcbnew,(7.0.0)*%
%TF.CreationDate,2024-02-13T04:28:46-03:00*%
%TF.ProjectId,pcb_peau_v1,7063625f-7065-4617-955f-76312e6b6963,rev?*%
%TF.SameCoordinates,Original*%
%TF.FileFunction,Legend,Top*%
%TF.FilePolarity,Positive*%
%FSLAX46Y46*%
G04 Gerber Fmt 4.6, Leading zero omitted, Abs format (unit mm)*
G04 Created by KiCad (PCBNEW (7.0.0)) date 2024-02-13 04:28:46*
%MOMM*%
%LPD*%
G01*
G04 APERTURE LIST*
%ADD10C,0.150000*%
%ADD11C,0.120000*%
G04 APERTURE END LIST*
D10*
%TO.C,U5*%
X214008192Y-78498211D02*
X214817716Y-78498211D01*
X214817716Y-78498211D02*
X214912954Y-78450592D01*
X214912954Y-78450592D02*
X214960573Y-78402973D01*
X214960573Y-78402973D02*
X215008192Y-78307735D01*
X215008192Y-78307735D02*
X215008192Y-78117259D01*
X215008192Y-78117259D02*
X214960573Y-78022021D01*
X214960573Y-78022021D02*
X214912954Y-77974402D01*
X214912954Y-77974402D02*
X214817716Y-77926783D01*
X214817716Y-77926783D02*
X214008192Y-77926783D01*
X214008192Y-76974402D02*
X214008192Y-77450592D01*
X214008192Y-77450592D02*
X214484383Y-77498211D01*
X214484383Y-77498211D02*
X214436764Y-77450592D01*
X214436764Y-77450592D02*
X214389145Y-77355354D01*
X214389145Y-77355354D02*
X214389145Y-77117259D01*
X214389145Y-77117259D02*
X214436764Y-77022021D01*
X214436764Y-77022021D02*
X214484383Y-76974402D01*
X214484383Y-76974402D02*
X214579621Y-76926783D01*
X214579621Y-76926783D02*
X214817716Y-76926783D01*
X214817716Y-76926783D02*
X214912954Y-76974402D01*
X214912954Y-76974402D02*
X214960573Y-77022021D01*
X214960573Y-77022021D02*
X215008192Y-77117259D01*
X215008192Y-77117259D02*
X215008192Y-77355354D01*
X215008192Y-77355354D02*
X214960573Y-77450592D01*
X214960573Y-77450592D02*
X214912954Y-77498211D01*
%TO.C,U6*%
X182316276Y-78274404D02*
X183125800Y-78274404D01*
X183125800Y-78274404D02*
X183221038Y-78226785D01*
X183221038Y-78226785D02*
X183268657Y-78179166D01*
X183268657Y-78179166D02*
X183316276Y-78083928D01*
X183316276Y-78083928D02*
X183316276Y-77893452D01*
X183316276Y-77893452D02*
X183268657Y-77798214D01*
X183268657Y-77798214D02*
X183221038Y-77750595D01*
X183221038Y-77750595D02*
X183125800Y-77702976D01*
X183125800Y-77702976D02*
X182316276Y-77702976D01*
X182316276Y-76798214D02*
X182316276Y-76988690D01*
X182316276Y-76988690D02*
X182363896Y-77083928D01*
X182363896Y-77083928D02*
X182411515Y-77131547D01*
X182411515Y-77131547D02*
X182554372Y-77226785D01*
X182554372Y-77226785D02*
X182744848Y-77274404D01*
X182744848Y-77274404D02*
X183125800Y-77274404D01*
X183125800Y-77274404D02*
X183221038Y-77226785D01*
X183221038Y-77226785D02*
X183268657Y-77179166D01*
X183268657Y-77179166D02*
X183316276Y-77083928D01*
X183316276Y-77083928D02*
X183316276Y-76893452D01*
X183316276Y-76893452D02*
X183268657Y-76798214D01*
X183268657Y-76798214D02*
X183221038Y-76750595D01*
X183221038Y-76750595D02*
X183125800Y-76702976D01*
X183125800Y-76702976D02*
X182887705Y-76702976D01*
X182887705Y-76702976D02*
X182792467Y-76750595D01*
X182792467Y-76750595D02*
X182744848Y-76798214D01*
X182744848Y-76798214D02*
X182697229Y-76893452D01*
X182697229Y-76893452D02*
X182697229Y-77083928D01*
X182697229Y-77083928D02*
X182744848Y-77179166D01*
X182744848Y-77179166D02*
X182792467Y-77226785D01*
X182792467Y-77226785D02*
X182887705Y-77274404D01*
%TO.C,R10*%
X183397380Y-99565357D02*
X182921190Y-99898690D01*
X183397380Y-100136785D02*
X182397380Y-100136785D01*
X182397380Y-100136785D02*
X182397380Y-99755833D01*
X182397380Y-99755833D02*
X182445000Y-99660595D01*
X182445000Y-99660595D02*
X182492619Y-99612976D01*
X182492619Y-99612976D02*
X182587857Y-99565357D01*
X182587857Y-99565357D02*
X182730714Y-99565357D01*
X182730714Y-99565357D02*
X182825952Y-99612976D01*
X182825952Y-99612976D02*
X182873571Y-99660595D01*
X182873571Y-99660595D02*
X182921190Y-99755833D01*
X182921190Y-99755833D02*
X182921190Y-100136785D01*
X183397380Y-98612976D02*
X183397380Y-99184404D01*
X183397380Y-98898690D02*
X182397380Y-98898690D01*
X182397380Y-98898690D02*
X182540238Y-98993928D01*
X182540238Y-98993928D02*
X182635476Y-99089166D01*
X182635476Y-99089166D02*
X182683095Y-99184404D01*
X182397380Y-97993928D02*
X182397380Y-97898690D01*
X182397380Y-97898690D02*
X182445000Y-97803452D01*
X182445000Y-97803452D02*
X182492619Y-97755833D01*
X182492619Y-97755833D02*
X182587857Y-97708214D01*
X182587857Y-97708214D02*
X182778333Y-97660595D01*
X182778333Y-97660595D02*
X183016428Y-97660595D01*
X183016428Y-97660595D02*
X183206904Y-97708214D01*
X183206904Y-97708214D02*
X183302142Y-97755833D01*
X183302142Y-97755833D02*
X183349761Y-97803452D01*
X183349761Y-97803452D02*
X183397380Y-97898690D01*
X183397380Y-97898690D02*
X183397380Y-97993928D01*
X183397380Y-97993928D02*
X183349761Y-98089166D01*
X183349761Y-98089166D02*
X183302142Y-98136785D01*
X183302142Y-98136785D02*
X183206904Y-98184404D01*
X183206904Y-98184404D02*
X183016428Y-98232023D01*
X183016428Y-98232023D02*
X182778333Y-98232023D01*
X182778333Y-98232023D02*
X182587857Y-98184404D01*
X182587857Y-98184404D02*
X182492619Y-98136785D01*
X182492619Y-98136785D02*
X182445000Y-98089166D01*
X182445000Y-98089166D02*
X182397380Y-97993928D01*
%TO.C,U3*%
X222433192Y-62898211D02*
X223242716Y-62898211D01*
X223242716Y-62898211D02*
X223337954Y-62850592D01*
X223337954Y-62850592D02*
X223385573Y-62802973D01*
X223385573Y-62802973D02*
X223433192Y-62707735D01*
X223433192Y-62707735D02*
X223433192Y-62517259D01*
X223433192Y-62517259D02*
X223385573Y-62422021D01*
X223385573Y-62422021D02*
X223337954Y-62374402D01*
X223337954Y-62374402D02*
X223242716Y-62326783D01*
X223242716Y-62326783D02*
X222433192Y-62326783D01*
X222433192Y-61945830D02*
X222433192Y-61326783D01*
X222433192Y-61326783D02*
X222814145Y-61660116D01*
X222814145Y-61660116D02*
X222814145Y-61517259D01*
X222814145Y-61517259D02*
X222861764Y-61422021D01*
X222861764Y-61422021D02*
X222909383Y-61374402D01*
X222909383Y-61374402D02*
X223004621Y-61326783D01*
X223004621Y-61326783D02*
X223242716Y-61326783D01*
X223242716Y-61326783D02*
X223337954Y-61374402D01*
X223337954Y-61374402D02*
X223385573Y-61422021D01*
X223385573Y-61422021D02*
X223433192Y-61517259D01*
X223433192Y-61517259D02*
X223433192Y-61802973D01*
X223433192Y-61802973D02*
X223385573Y-61898211D01*
X223385573Y-61898211D02*
X223337954Y-61945830D01*
%TO.C,U7*%
X206985095Y-106499880D02*
X206985095Y-107309404D01*
X206985095Y-107309404D02*
X207032714Y-107404642D01*
X207032714Y-107404642D02*
X207080333Y-107452261D01*
X207080333Y-107452261D02*
X207175571Y-107499880D01*
X207175571Y-107499880D02*
X207366047Y-107499880D01*
X207366047Y-107499880D02*
X207461285Y-107452261D01*
X207461285Y-107452261D02*
X207508904Y-107404642D01*
X207508904Y-107404642D02*
X207556523Y-107309404D01*
X207556523Y-107309404D02*
X207556523Y-106499880D01*
X207937476Y-106499880D02*
X208604142Y-106499880D01*
X208604142Y-106499880D02*
X208175571Y-107499880D01*
%TO.C,U8*%
X190237380Y-94477404D02*
X191046904Y-94477404D01*
X191046904Y-94477404D02*
X191142142Y-94429785D01*
X191142142Y-94429785D02*
X191189761Y-94382166D01*
X191189761Y-94382166D02*
X191237380Y-94286928D01*
X191237380Y-94286928D02*
X191237380Y-94096452D01*
X191237380Y-94096452D02*
X191189761Y-94001214D01*
X191189761Y-94001214D02*
X191142142Y-93953595D01*
X191142142Y-93953595D02*
X191046904Y-93905976D01*
X191046904Y-93905976D02*
X190237380Y-93905976D01*
X190665952Y-93286928D02*
X190618333Y-93382166D01*
X190618333Y-93382166D02*
X190570714Y-93429785D01*
X190570714Y-93429785D02*
X190475476Y-93477404D01*
X190475476Y-93477404D02*
X190427857Y-93477404D01*
X190427857Y-93477404D02*
X190332619Y-93429785D01*
X190332619Y-93429785D02*
X190285000Y-93382166D01*
X190285000Y-93382166D02*
X190237380Y-93286928D01*
X190237380Y-93286928D02*
X190237380Y-93096452D01*
X190237380Y-93096452D02*
X190285000Y-93001214D01*
X190285000Y-93001214D02*
X190332619Y-92953595D01*
X190332619Y-92953595D02*
X190427857Y-92905976D01*
X190427857Y-92905976D02*
X190475476Y-92905976D01*
X190475476Y-92905976D02*
X190570714Y-92953595D01*
X190570714Y-92953595D02*
X190618333Y-93001214D01*
X190618333Y-93001214D02*
X190665952Y-93096452D01*
X190665952Y-93096452D02*
X190665952Y-93286928D01*
X190665952Y-93286928D02*
X190713571Y-93382166D01*
X190713571Y-93382166D02*
X190761190Y-93429785D01*
X190761190Y-93429785D02*
X190856428Y-93477404D01*
X190856428Y-93477404D02*
X191046904Y-93477404D01*
X191046904Y-93477404D02*
X191142142Y-93429785D01*
X191142142Y-93429785D02*
X191189761Y-93382166D01*
X191189761Y-93382166D02*
X191237380Y-93286928D01*
X191237380Y-93286928D02*
X191237380Y-93096452D01*
X191237380Y-93096452D02*
X191189761Y-93001214D01*
X191189761Y-93001214D02*
X191142142Y-92953595D01*
X191142142Y-92953595D02*
X191046904Y-92905976D01*
X191046904Y-92905976D02*
X190856428Y-92905976D01*
X190856428Y-92905976D02*
X190761190Y-92953595D01*
X190761190Y-92953595D02*
X190713571Y-93001214D01*
X190713571Y-93001214D02*
X190665952Y-93096452D01*
%TO.C,H1*%
X177238095Y-49567380D02*
X177238095Y-48567380D01*
X177238095Y-49043571D02*
X177809523Y-49043571D01*
X177809523Y-49567380D02*
X177809523Y-48567380D01*
X178809523Y-49567380D02*
X178238095Y-49567380D01*
X178523809Y-49567380D02*
X178523809Y-48567380D01*
X178523809Y-48567380D02*
X178428571Y-48710238D01*
X178428571Y-48710238D02*
X178333333Y-48805476D01*
X178333333Y-48805476D02*
X178238095Y-48853095D01*
%TO.C,H3*%
X235238095Y-108029880D02*
X235238095Y-107029880D01*
X235238095Y-107506071D02*
X235809523Y-107506071D01*
X235809523Y-108029880D02*
X235809523Y-107029880D01*
X236190476Y-107029880D02*
X236809523Y-107029880D01*
X236809523Y-107029880D02*
X236476190Y-107410833D01*
X236476190Y-107410833D02*
X236619047Y-107410833D01*
X236619047Y-107410833D02*
X236714285Y-107458452D01*
X236714285Y-107458452D02*
X236761904Y-107506071D01*
X236761904Y-107506071D02*
X236809523Y-107601309D01*
X236809523Y-107601309D02*
X236809523Y-107839404D01*
X236809523Y-107839404D02*
X236761904Y-107934642D01*
X236761904Y-107934642D02*
X236714285Y-107982261D01*
X236714285Y-107982261D02*
X236619047Y-108029880D01*
X236619047Y-108029880D02*
X236333333Y-108029880D01*
X236333333Y-108029880D02*
X236238095Y-107982261D01*
X236238095Y-107982261D02*
X236190476Y-107934642D01*
%TO.C,R22*%
X209444642Y-108259880D02*
X209111309Y-107783690D01*
X208873214Y-108259880D02*
X208873214Y-107259880D01*
X208873214Y-107259880D02*
X209254166Y-107259880D01*
X209254166Y-107259880D02*
X209349404Y-107307500D01*
X209349404Y-107307500D02*
X209397023Y-107355119D01*
X209397023Y-107355119D02*
X209444642Y-107450357D01*
X209444642Y-107450357D02*
X209444642Y-107593214D01*
X209444642Y-107593214D02*
X209397023Y-107688452D01*
X209397023Y-107688452D02*
X209349404Y-107736071D01*
X209349404Y-107736071D02*
X209254166Y-107783690D01*
X209254166Y-107783690D02*
X208873214Y-107783690D01*
X209825595Y-107355119D02*
X209873214Y-107307500D01*
X209873214Y-107307500D02*
X209968452Y-107259880D01*
X209968452Y-107259880D02*
X210206547Y-107259880D01*
X210206547Y-107259880D02*
X210301785Y-107307500D01*
X210301785Y-107307500D02*
X210349404Y-107355119D01*
X210349404Y-107355119D02*
X210397023Y-107450357D01*
X210397023Y-107450357D02*
X210397023Y-107545595D01*
X210397023Y-107545595D02*
X210349404Y-107688452D01*
X210349404Y-107688452D02*
X209777976Y-108259880D01*
X209777976Y-108259880D02*
X210397023Y-108259880D01*
X210777976Y-107355119D02*
X210825595Y-107307500D01*
X210825595Y-107307500D02*
X210920833Y-107259880D01*
X210920833Y-107259880D02*
X211158928Y-107259880D01*
X211158928Y-107259880D02*
X211254166Y-107307500D01*
X211254166Y-107307500D02*
X211301785Y-107355119D01*
X211301785Y-107355119D02*
X211349404Y-107450357D01*
X211349404Y-107450357D02*
X211349404Y-107545595D01*
X211349404Y-107545595D02*
X211301785Y-107688452D01*
X211301785Y-107688452D02*
X210730357Y-108259880D01*
X210730357Y-108259880D02*
X211349404Y-108259880D01*
%TO.C,U2*%
X197031095Y-94559880D02*
X197031095Y-95369404D01*
X197031095Y-95369404D02*
X197078714Y-95464642D01*
X197078714Y-95464642D02*
X197126333Y-95512261D01*
X197126333Y-95512261D02*
X197221571Y-95559880D01*
X197221571Y-95559880D02*
X197412047Y-95559880D01*
X197412047Y-95559880D02*
X197507285Y-95512261D01*
X197507285Y-95512261D02*
X197554904Y-95464642D01*
X197554904Y-95464642D02*
X197602523Y-95369404D01*
X197602523Y-95369404D02*
X197602523Y-94559880D01*
X198031095Y-94655119D02*
X198078714Y-94607500D01*
X198078714Y-94607500D02*
X198173952Y-94559880D01*
X198173952Y-94559880D02*
X198412047Y-94559880D01*
X198412047Y-94559880D02*
X198507285Y-94607500D01*
X198507285Y-94607500D02*
X198554904Y-94655119D01*
X198554904Y-94655119D02*
X198602523Y-94750357D01*
X198602523Y-94750357D02*
X198602523Y-94845595D01*
X198602523Y-94845595D02*
X198554904Y-94988452D01*
X198554904Y-94988452D02*
X197983476Y-95559880D01*
X197983476Y-95559880D02*
X198602523Y-95559880D01*
%TO.C,H4*%
X190238095Y-127717380D02*
X190238095Y-126717380D01*
X190238095Y-127193571D02*
X190809523Y-127193571D01*
X190809523Y-127717380D02*
X190809523Y-126717380D01*
X191714285Y-127050714D02*
X191714285Y-127717380D01*
X191476190Y-126669761D02*
X191238095Y-127384047D01*
X191238095Y-127384047D02*
X191857142Y-127384047D01*
%TO.C,R4*%
X213112380Y-106629166D02*
X212636190Y-106962499D01*
X213112380Y-107200594D02*
X212112380Y-107200594D01*
X212112380Y-107200594D02*
X212112380Y-106819642D01*
X212112380Y-106819642D02*
X212160000Y-106724404D01*
X212160000Y-106724404D02*
X212207619Y-106676785D01*
X212207619Y-106676785D02*
X212302857Y-106629166D01*
X212302857Y-106629166D02*
X212445714Y-106629166D01*
X212445714Y-106629166D02*
X212540952Y-106676785D01*
X212540952Y-106676785D02*
X212588571Y-106724404D01*
X212588571Y-106724404D02*
X212636190Y-106819642D01*
X212636190Y-106819642D02*
X212636190Y-107200594D01*
X212445714Y-105772023D02*
X213112380Y-105772023D01*
X212064761Y-106010118D02*
X212779047Y-106248213D01*
X212779047Y-106248213D02*
X212779047Y-105629166D01*
%TO.C,U9*%
X236445095Y-93099880D02*
X236445095Y-93909404D01*
X236445095Y-93909404D02*
X236492714Y-94004642D01*
X236492714Y-94004642D02*
X236540333Y-94052261D01*
X236540333Y-94052261D02*
X236635571Y-94099880D01*
X236635571Y-94099880D02*
X236826047Y-94099880D01*
X236826047Y-94099880D02*
X236921285Y-94052261D01*
X236921285Y-94052261D02*
X236968904Y-94004642D01*
X236968904Y-94004642D02*
X237016523Y-93909404D01*
X237016523Y-93909404D02*
X237016523Y-93099880D01*
X237540333Y-94099880D02*
X237730809Y-94099880D01*
X237730809Y-94099880D02*
X237826047Y-94052261D01*
X237826047Y-94052261D02*
X237873666Y-94004642D01*
X237873666Y-94004642D02*
X237968904Y-93861785D01*
X237968904Y-93861785D02*
X238016523Y-93671309D01*
X238016523Y-93671309D02*
X238016523Y-93290357D01*
X238016523Y-93290357D02*
X237968904Y-93195119D01*
X237968904Y-93195119D02*
X237921285Y-93147500D01*
X237921285Y-93147500D02*
X237826047Y-93099880D01*
X237826047Y-93099880D02*
X237635571Y-93099880D01*
X237635571Y-93099880D02*
X237540333Y-93147500D01*
X237540333Y-93147500D02*
X237492714Y-93195119D01*
X237492714Y-93195119D02*
X237445095Y-93290357D01*
X237445095Y-93290357D02*
X237445095Y-93528452D01*
X237445095Y-93528452D02*
X237492714Y-93623690D01*
X237492714Y-93623690D02*
X237540333Y-93671309D01*
X237540333Y-93671309D02*
X237635571Y-93718928D01*
X237635571Y-93718928D02*
X237826047Y-93718928D01*
X237826047Y-93718928D02*
X237921285Y-93671309D01*
X237921285Y-93671309D02*
X237968904Y-93623690D01*
X237968904Y-93623690D02*
X238016523Y-93528452D01*
%TO.C,H2*%
X235238095Y-49567380D02*
X235238095Y-48567380D01*
X235238095Y-49043571D02*
X235809523Y-49043571D01*
X235809523Y-49567380D02*
X235809523Y-48567380D01*
X236238095Y-48662619D02*
X236285714Y-48615000D01*
X236285714Y-48615000D02*
X236380952Y-48567380D01*
X236380952Y-48567380D02*
X236619047Y-48567380D01*
X236619047Y-48567380D02*
X236714285Y-48615000D01*
X236714285Y-48615000D02*
X236761904Y-48662619D01*
X236761904Y-48662619D02*
X236809523Y-48757857D01*
X236809523Y-48757857D02*
X236809523Y-48853095D01*
X236809523Y-48853095D02*
X236761904Y-48995952D01*
X236761904Y-48995952D02*
X236190476Y-49567380D01*
X236190476Y-49567380D02*
X236809523Y-49567380D01*
%TO.C,R9*%
X215972380Y-102541666D02*
X215496190Y-102874999D01*
X215972380Y-103113094D02*
X214972380Y-103113094D01*
X214972380Y-103113094D02*
X214972380Y-102732142D01*
X214972380Y-102732142D02*
X215020000Y-102636904D01*
X215020000Y-102636904D02*
X215067619Y-102589285D01*
X215067619Y-102589285D02*
X215162857Y-102541666D01*
X215162857Y-102541666D02*
X215305714Y-102541666D01*
X215305714Y-102541666D02*
X215400952Y-102589285D01*
X215400952Y-102589285D02*
X215448571Y-102636904D01*
X215448571Y-102636904D02*
X215496190Y-102732142D01*
X215496190Y-102732142D02*
X215496190Y-103113094D01*
X215972380Y-102065475D02*
X215972380Y-101874999D01*
X215972380Y-101874999D02*
X215924761Y-101779761D01*
X215924761Y-101779761D02*
X215877142Y-101732142D01*
X215877142Y-101732142D02*
X215734285Y-101636904D01*
X215734285Y-101636904D02*
X215543809Y-101589285D01*
X215543809Y-101589285D02*
X215162857Y-101589285D01*
X215162857Y-101589285D02*
X215067619Y-101636904D01*
X215067619Y-101636904D02*
X215020000Y-101684523D01*
X215020000Y-101684523D02*
X214972380Y-101779761D01*
X214972380Y-101779761D02*
X214972380Y-101970237D01*
X214972380Y-101970237D02*
X215020000Y-102065475D01*
X215020000Y-102065475D02*
X215067619Y-102113094D01*
X215067619Y-102113094D02*
X215162857Y-102160713D01*
X215162857Y-102160713D02*
X215400952Y-102160713D01*
X215400952Y-102160713D02*
X215496190Y-102113094D01*
X215496190Y-102113094D02*
X215543809Y-102065475D01*
X215543809Y-102065475D02*
X215591428Y-101970237D01*
X215591428Y-101970237D02*
X215591428Y-101779761D01*
X215591428Y-101779761D02*
X215543809Y-101684523D01*
X215543809Y-101684523D02*
X215496190Y-101636904D01*
X215496190Y-101636904D02*
X215400952Y-101589285D01*
%TO.C,R8*%
X183397380Y-103089166D02*
X182921190Y-103422499D01*
X183397380Y-103660594D02*
X182397380Y-103660594D01*
X182397380Y-103660594D02*
X182397380Y-103279642D01*
X182397380Y-103279642D02*
X182445000Y-103184404D01*
X182445000Y-103184404D02*
X182492619Y-103136785D01*
X182492619Y-103136785D02*
X182587857Y-103089166D01*
X182587857Y-103089166D02*
X182730714Y-103089166D01*
X182730714Y-103089166D02*
X182825952Y-103136785D01*
X182825952Y-103136785D02*
X182873571Y-103184404D01*
X182873571Y-103184404D02*
X182921190Y-103279642D01*
X182921190Y-103279642D02*
X182921190Y-103660594D01*
X182825952Y-102517737D02*
X182778333Y-102612975D01*
X182778333Y-102612975D02*
X182730714Y-102660594D01*
X182730714Y-102660594D02*
X182635476Y-102708213D01*
X182635476Y-102708213D02*
X182587857Y-102708213D01*
X182587857Y-102708213D02*
X182492619Y-102660594D01*
X182492619Y-102660594D02*
X182445000Y-102612975D01*
X182445000Y-102612975D02*
X182397380Y-102517737D01*
X182397380Y-102517737D02*
X182397380Y-102327261D01*
X182397380Y-102327261D02*
X182445000Y-102232023D01*
X182445000Y-102232023D02*
X182492619Y-102184404D01*
X182492619Y-102184404D02*
X182587857Y-102136785D01*
X182587857Y-102136785D02*
X182635476Y-102136785D01*
X182635476Y-102136785D02*
X182730714Y-102184404D01*
X182730714Y-102184404D02*
X182778333Y-102232023D01*
X182778333Y-102232023D02*
X182825952Y-102327261D01*
X182825952Y-102327261D02*
X182825952Y-102517737D01*
X182825952Y-102517737D02*
X182873571Y-102612975D01*
X182873571Y-102612975D02*
X182921190Y-102660594D01*
X182921190Y-102660594D02*
X183016428Y-102708213D01*
X183016428Y-102708213D02*
X183206904Y-102708213D01*
X183206904Y-102708213D02*
X183302142Y-102660594D01*
X183302142Y-102660594D02*
X183349761Y-102612975D01*
X183349761Y-102612975D02*
X183397380Y-102517737D01*
X183397380Y-102517737D02*
X183397380Y-102327261D01*
X183397380Y-102327261D02*
X183349761Y-102232023D01*
X183349761Y-102232023D02*
X183302142Y-102184404D01*
X183302142Y-102184404D02*
X183206904Y-102136785D01*
X183206904Y-102136785D02*
X183016428Y-102136785D01*
X183016428Y-102136785D02*
X182921190Y-102184404D01*
X182921190Y-102184404D02*
X182873571Y-102232023D01*
X182873571Y-102232023D02*
X182825952Y-102327261D01*
%TO.C,R21*%
X221707142Y-100312380D02*
X221373809Y-99836190D01*
X221135714Y-100312380D02*
X221135714Y-99312380D01*
X221135714Y-99312380D02*
X221516666Y-99312380D01*
X221516666Y-99312380D02*
X221611904Y-99360000D01*
X221611904Y-99360000D02*
X221659523Y-99407619D01*
X221659523Y-99407619D02*
X221707142Y-99502857D01*
X221707142Y-99502857D02*
X221707142Y-99645714D01*
X221707142Y-99645714D02*
X221659523Y-99740952D01*
X221659523Y-99740952D02*
X221611904Y-99788571D01*
X221611904Y-99788571D02*
X221516666Y-99836190D01*
X221516666Y-99836190D02*
X221135714Y-99836190D01*
X222088095Y-99407619D02*
X222135714Y-99360000D01*
X222135714Y-99360000D02*
X222230952Y-99312380D01*
X222230952Y-99312380D02*
X222469047Y-99312380D01*
X222469047Y-99312380D02*
X222564285Y-99360000D01*
X222564285Y-99360000D02*
X222611904Y-99407619D01*
X222611904Y-99407619D02*
X222659523Y-99502857D01*
X222659523Y-99502857D02*
X222659523Y-99598095D01*
X222659523Y-99598095D02*
X222611904Y-99740952D01*
X222611904Y-99740952D02*
X222040476Y-100312380D01*
X222040476Y-100312380D02*
X222659523Y-100312380D01*
X223611904Y-100312380D02*
X223040476Y-100312380D01*
X223326190Y-100312380D02*
X223326190Y-99312380D01*
X223326190Y-99312380D02*
X223230952Y-99455238D01*
X223230952Y-99455238D02*
X223135714Y-99550476D01*
X223135714Y-99550476D02*
X223040476Y-99598095D01*
%TO.C,J2*%
X233567380Y-77295833D02*
X234281666Y-77295833D01*
X234281666Y-77295833D02*
X234424523Y-77343452D01*
X234424523Y-77343452D02*
X234519761Y-77438690D01*
X234519761Y-77438690D02*
X234567380Y-77581547D01*
X234567380Y-77581547D02*
X234567380Y-77676785D01*
X233662619Y-76867261D02*
X233615000Y-76819642D01*
X233615000Y-76819642D02*
X233567380Y-76724404D01*
X233567380Y-76724404D02*
X233567380Y-76486309D01*
X233567380Y-76486309D02*
X233615000Y-76391071D01*
X233615000Y-76391071D02*
X233662619Y-76343452D01*
X233662619Y-76343452D02*
X233757857Y-76295833D01*
X233757857Y-76295833D02*
X233853095Y-76295833D01*
X233853095Y-76295833D02*
X233995952Y-76343452D01*
X233995952Y-76343452D02*
X234567380Y-76914880D01*
X234567380Y-76914880D02*
X234567380Y-76295833D01*
%TO.C,J4*%
X204667380Y-70795833D02*
X205381666Y-70795833D01*
X205381666Y-70795833D02*
X205524523Y-70843452D01*
X205524523Y-70843452D02*
X205619761Y-70938690D01*
X205619761Y-70938690D02*
X205667380Y-71081547D01*
X205667380Y-71081547D02*
X205667380Y-71176785D01*
X205000714Y-69891071D02*
X205667380Y-69891071D01*
X204619761Y-70129166D02*
X205334047Y-70367261D01*
X205334047Y-70367261D02*
X205334047Y-69748214D01*
%TO.C,J1*%
X180167380Y-77295833D02*
X180881666Y-77295833D01*
X180881666Y-77295833D02*
X181024523Y-77343452D01*
X181024523Y-77343452D02*
X181119761Y-77438690D01*
X181119761Y-77438690D02*
X181167380Y-77581547D01*
X181167380Y-77581547D02*
X181167380Y-77676785D01*
X181167380Y-76295833D02*
X181167380Y-76867261D01*
X181167380Y-76581547D02*
X180167380Y-76581547D01*
X180167380Y-76581547D02*
X180310238Y-76676785D01*
X180310238Y-76676785D02*
X180405476Y-76772023D01*
X180405476Y-76772023D02*
X180453095Y-76867261D01*
%TO.C,R23*%
X217287380Y-103017857D02*
X216811190Y-103351190D01*
X217287380Y-103589285D02*
X216287380Y-103589285D01*
X216287380Y-103589285D02*
X216287380Y-103208333D01*
X216287380Y-103208333D02*
X216335000Y-103113095D01*
X216335000Y-103113095D02*
X216382619Y-103065476D01*
X216382619Y-103065476D02*
X216477857Y-103017857D01*
X216477857Y-103017857D02*
X216620714Y-103017857D01*
X216620714Y-103017857D02*
X216715952Y-103065476D01*
X216715952Y-103065476D02*
X216763571Y-103113095D01*
X216763571Y-103113095D02*
X216811190Y-103208333D01*
X216811190Y-103208333D02*
X216811190Y-103589285D01*
X216382619Y-102636904D02*
X216335000Y-102589285D01*
X216335000Y-102589285D02*
X216287380Y-102494047D01*
X216287380Y-102494047D02*
X216287380Y-102255952D01*
X216287380Y-102255952D02*
X216335000Y-102160714D01*
X216335000Y-102160714D02*
X216382619Y-102113095D01*
X216382619Y-102113095D02*
X216477857Y-102065476D01*
X216477857Y-102065476D02*
X216573095Y-102065476D01*
X216573095Y-102065476D02*
X216715952Y-102113095D01*
X216715952Y-102113095D02*
X217287380Y-102684523D01*
X217287380Y-102684523D02*
X217287380Y-102065476D01*
X216287380Y-101732142D02*
X216287380Y-101113095D01*
X216287380Y-101113095D02*
X216668333Y-101446428D01*
X216668333Y-101446428D02*
X216668333Y-101303571D01*
X216668333Y-101303571D02*
X216715952Y-101208333D01*
X216715952Y-101208333D02*
X216763571Y-101160714D01*
X216763571Y-101160714D02*
X216858809Y-101113095D01*
X216858809Y-101113095D02*
X217096904Y-101113095D01*
X217096904Y-101113095D02*
X217192142Y-101160714D01*
X217192142Y-101160714D02*
X217239761Y-101208333D01*
X217239761Y-101208333D02*
X217287380Y-101303571D01*
X217287380Y-101303571D02*
X217287380Y-101589285D01*
X217287380Y-101589285D02*
X217239761Y-101684523D01*
X217239761Y-101684523D02*
X217192142Y-101732142D01*
%TO.C,U4*%
X193391276Y-64674404D02*
X194200800Y-64674404D01*
X194200800Y-64674404D02*
X194296038Y-64626785D01*
X194296038Y-64626785D02*
X194343657Y-64579166D01*
X194343657Y-64579166D02*
X194391276Y-64483928D01*
X194391276Y-64483928D02*
X194391276Y-64293452D01*
X194391276Y-64293452D02*
X194343657Y-64198214D01*
X194343657Y-64198214D02*
X194296038Y-64150595D01*
X194296038Y-64150595D02*
X194200800Y-64102976D01*
X194200800Y-64102976D02*
X193391276Y-64102976D01*
X193724610Y-63198214D02*
X194391276Y-63198214D01*
X193343657Y-63436309D02*
X194057943Y-63674404D01*
X194057943Y-63674404D02*
X194057943Y-63055357D01*
%TO.C,R11*%
X209112380Y-102930357D02*
X208636190Y-103263690D01*
X209112380Y-103501785D02*
X208112380Y-103501785D01*
X208112380Y-103501785D02*
X208112380Y-103120833D01*
X208112380Y-103120833D02*
X208160000Y-103025595D01*
X208160000Y-103025595D02*
X208207619Y-102977976D01*
X208207619Y-102977976D02*
X208302857Y-102930357D01*
X208302857Y-102930357D02*
X208445714Y-102930357D01*
X208445714Y-102930357D02*
X208540952Y-102977976D01*
X208540952Y-102977976D02*
X208588571Y-103025595D01*
X208588571Y-103025595D02*
X208636190Y-103120833D01*
X208636190Y-103120833D02*
X208636190Y-103501785D01*
X209112380Y-101977976D02*
X209112380Y-102549404D01*
X209112380Y-102263690D02*
X208112380Y-102263690D01*
X208112380Y-102263690D02*
X208255238Y-102358928D01*
X208255238Y-102358928D02*
X208350476Y-102454166D01*
X208350476Y-102454166D02*
X208398095Y-102549404D01*
X209112380Y-101025595D02*
X209112380Y-101597023D01*
X209112380Y-101311309D02*
X208112380Y-101311309D01*
X208112380Y-101311309D02*
X208255238Y-101406547D01*
X208255238Y-101406547D02*
X208350476Y-101501785D01*
X208350476Y-101501785D02*
X208398095Y-101597023D01*
%TO.C,J5*%
X204666666Y-92529880D02*
X204666666Y-93244166D01*
X204666666Y-93244166D02*
X204619047Y-93387023D01*
X204619047Y-93387023D02*
X204523809Y-93482261D01*
X204523809Y-93482261D02*
X204380952Y-93529880D01*
X204380952Y-93529880D02*
X204285714Y-93529880D01*
X205619047Y-92529880D02*
X205142857Y-92529880D01*
X205142857Y-92529880D02*
X205095238Y-93006071D01*
X205095238Y-93006071D02*
X205142857Y-92958452D01*
X205142857Y-92958452D02*
X205238095Y-92910833D01*
X205238095Y-92910833D02*
X205476190Y-92910833D01*
X205476190Y-92910833D02*
X205571428Y-92958452D01*
X205571428Y-92958452D02*
X205619047Y-93006071D01*
X205619047Y-93006071D02*
X205666666Y-93101309D01*
X205666666Y-93101309D02*
X205666666Y-93339404D01*
X205666666Y-93339404D02*
X205619047Y-93434642D01*
X205619047Y-93434642D02*
X205571428Y-93482261D01*
X205571428Y-93482261D02*
X205476190Y-93529880D01*
X205476190Y-93529880D02*
X205238095Y-93529880D01*
X205238095Y-93529880D02*
X205142857Y-93482261D01*
X205142857Y-93482261D02*
X205095238Y-93434642D01*
%TO.C,R20*%
X195444642Y-98937380D02*
X195111309Y-98461190D01*
X194873214Y-98937380D02*
X194873214Y-97937380D01*
X194873214Y-97937380D02*
X195254166Y-97937380D01*
X195254166Y-97937380D02*
X195349404Y-97985000D01*
X195349404Y-97985000D02*
X195397023Y-98032619D01*
X195397023Y-98032619D02*
X195444642Y-98127857D01*
X195444642Y-98127857D02*
X195444642Y-98270714D01*
X195444642Y-98270714D02*
X195397023Y-98365952D01*
X195397023Y-98365952D02*
X195349404Y-98413571D01*
X195349404Y-98413571D02*
X195254166Y-98461190D01*
X195254166Y-98461190D02*
X194873214Y-98461190D01*
X195825595Y-98032619D02*
X195873214Y-97985000D01*
X195873214Y-97985000D02*
X195968452Y-97937380D01*
X195968452Y-97937380D02*
X196206547Y-97937380D01*
X196206547Y-97937380D02*
X196301785Y-97985000D01*
X196301785Y-97985000D02*
X196349404Y-98032619D01*
X196349404Y-98032619D02*
X196397023Y-98127857D01*
X196397023Y-98127857D02*
X196397023Y-98223095D01*
X196397023Y-98223095D02*
X196349404Y-98365952D01*
X196349404Y-98365952D02*
X195777976Y-98937380D01*
X195777976Y-98937380D02*
X196397023Y-98937380D01*
X197016071Y-97937380D02*
X197111309Y-97937380D01*
X197111309Y-97937380D02*
X197206547Y-97985000D01*
X197206547Y-97985000D02*
X197254166Y-98032619D01*
X197254166Y-98032619D02*
X197301785Y-98127857D01*
X197301785Y-98127857D02*
X197349404Y-98318333D01*
X197349404Y-98318333D02*
X197349404Y-98556428D01*
X197349404Y-98556428D02*
X197301785Y-98746904D01*
X197301785Y-98746904D02*
X197254166Y-98842142D01*
X197254166Y-98842142D02*
X197206547Y-98889761D01*
X197206547Y-98889761D02*
X197111309Y-98937380D01*
X197111309Y-98937380D02*
X197016071Y-98937380D01*
X197016071Y-98937380D02*
X196920833Y-98889761D01*
X196920833Y-98889761D02*
X196873214Y-98842142D01*
X196873214Y-98842142D02*
X196825595Y-98746904D01*
X196825595Y-98746904D02*
X196777976Y-98556428D01*
X196777976Y-98556428D02*
X196777976Y-98318333D01*
X196777976Y-98318333D02*
X196825595Y-98127857D01*
X196825595Y-98127857D02*
X196873214Y-98032619D01*
X196873214Y-98032619D02*
X196920833Y-97985000D01*
X196920833Y-97985000D02*
X197016071Y-97937380D01*
%TO.C,R25*%
X195357142Y-103259880D02*
X195023809Y-102783690D01*
X194785714Y-103259880D02*
X194785714Y-102259880D01*
X194785714Y-102259880D02*
X195166666Y-102259880D01*
X195166666Y-102259880D02*
X195261904Y-102307500D01*
X195261904Y-102307500D02*
X195309523Y-102355119D01*
X195309523Y-102355119D02*
X195357142Y-102450357D01*
X195357142Y-102450357D02*
X195357142Y-102593214D01*
X195357142Y-102593214D02*
X195309523Y-102688452D01*
X195309523Y-102688452D02*
X195261904Y-102736071D01*
X195261904Y-102736071D02*
X195166666Y-102783690D01*
X195166666Y-102783690D02*
X194785714Y-102783690D01*
X195738095Y-102355119D02*
X195785714Y-102307500D01*
X195785714Y-102307500D02*
X195880952Y-102259880D01*
X195880952Y-102259880D02*
X196119047Y-102259880D01*
X196119047Y-102259880D02*
X196214285Y-102307500D01*
X196214285Y-102307500D02*
X196261904Y-102355119D01*
X196261904Y-102355119D02*
X196309523Y-102450357D01*
X196309523Y-102450357D02*
X196309523Y-102545595D01*
X196309523Y-102545595D02*
X196261904Y-102688452D01*
X196261904Y-102688452D02*
X195690476Y-103259880D01*
X195690476Y-103259880D02*
X196309523Y-103259880D01*
X197214285Y-102259880D02*
X196738095Y-102259880D01*
X196738095Y-102259880D02*
X196690476Y-102736071D01*
X196690476Y-102736071D02*
X196738095Y-102688452D01*
X196738095Y-102688452D02*
X196833333Y-102640833D01*
X196833333Y-102640833D02*
X197071428Y-102640833D01*
X197071428Y-102640833D02*
X197166666Y-102688452D01*
X197166666Y-102688452D02*
X197214285Y-102736071D01*
X197214285Y-102736071D02*
X197261904Y-102831309D01*
X197261904Y-102831309D02*
X197261904Y-103069404D01*
X197261904Y-103069404D02*
X197214285Y-103164642D01*
X197214285Y-103164642D02*
X197166666Y-103212261D01*
X197166666Y-103212261D02*
X197071428Y-103259880D01*
X197071428Y-103259880D02*
X196833333Y-103259880D01*
X196833333Y-103259880D02*
X196738095Y-103212261D01*
X196738095Y-103212261D02*
X196690476Y-103164642D01*
%TO.C,U5*%
X215565812Y-80611307D02*
X215790812Y-80611307D01*
X215565812Y-80611307D02*
X215565812Y-74861307D01*
X215790812Y-80611307D02*
X215790812Y-82211307D01*
X224215812Y-80611307D02*
X223915812Y-80611307D01*
X224215812Y-80611307D02*
X224215812Y-74861307D01*
X215565812Y-74861307D02*
X215865812Y-74861307D01*
X224215812Y-74861307D02*
X223915812Y-74861307D01*
%TO.C,U6*%
X183873896Y-80387500D02*
X184098896Y-80387500D01*
X183873896Y-80387500D02*
X183873896Y-74637500D01*
X184098896Y-80387500D02*
X184098896Y-81987500D01*
X192523896Y-80387500D02*
X192223896Y-80387500D01*
X192523896Y-80387500D02*
X192523896Y-74637500D01*
X183873896Y-74637500D02*
X184173896Y-74637500D01*
X192523896Y-74637500D02*
X192223896Y-74637500D01*
D11*
%TO.C,R10*%
X182122500Y-98667776D02*
X182122500Y-99177224D01*
X181077500Y-98667776D02*
X181077500Y-99177224D01*
D10*
%TO.C,U3*%
X223990812Y-65011307D02*
X224215812Y-65011307D01*
X223990812Y-65011307D02*
X223990812Y-59261307D01*
X224215812Y-65011307D02*
X224215812Y-66611307D01*
X232640812Y-65011307D02*
X232340812Y-65011307D01*
X232640812Y-65011307D02*
X232640812Y-59261307D01*
X223990812Y-59261307D02*
X224290812Y-59261307D01*
X232640812Y-59261307D02*
X232340812Y-59261307D01*
D11*
%TO.C,R22*%
X210342224Y-106985000D02*
X209832776Y-106985000D01*
X210342224Y-105940000D02*
X209832776Y-105940000D01*
%TO.C,R4*%
X213652500Y-106717224D02*
X213652500Y-106207776D01*
X214697500Y-106717224D02*
X214697500Y-106207776D01*
%TO.C,R9*%
X214697500Y-102120276D02*
X214697500Y-102629724D01*
X213652500Y-102120276D02*
X213652500Y-102629724D01*
%TO.C,R8*%
X182122500Y-102667776D02*
X182122500Y-103177224D01*
X181077500Y-102667776D02*
X181077500Y-103177224D01*
%TO.C,R21*%
X222095276Y-100852500D02*
X222604724Y-100852500D01*
X222095276Y-101897500D02*
X222604724Y-101897500D01*
%TO.C,J2*%
X237110000Y-84872500D02*
X239610000Y-84872500D01*
X239610000Y-84872500D02*
X239610000Y-82372500D01*
X235290000Y-84572500D02*
X239310000Y-84572500D01*
X237000000Y-84572500D02*
X237000000Y-84072500D01*
X237810000Y-84572500D02*
X237810000Y-83572500D01*
X239310000Y-84572500D02*
X239310000Y-69352500D01*
X235790000Y-84072500D02*
X235790000Y-69852500D01*
X237000000Y-84072500D02*
X235790000Y-84072500D01*
X237810000Y-83572500D02*
X239310000Y-83572500D01*
X237810000Y-70352500D02*
X239310000Y-70352500D01*
X235790000Y-69852500D02*
X237000000Y-69852500D01*
X237000000Y-69852500D02*
X237000000Y-69352500D01*
X235290000Y-69352500D02*
X235290000Y-84572500D01*
X237810000Y-69352500D02*
X237810000Y-70352500D01*
X239310000Y-69352500D02*
X235290000Y-69352500D01*
%TO.C,J4*%
X207700000Y-80322500D02*
X208000000Y-79722500D01*
X208300000Y-80322500D02*
X207700000Y-80322500D01*
X208000000Y-79722500D02*
X208300000Y-80322500D01*
X206390000Y-79522500D02*
X211610000Y-79522500D01*
X209100000Y-79522500D02*
X209100000Y-78662500D01*
X209900000Y-79522500D02*
X209900000Y-78662500D01*
X211610000Y-79522500D02*
X211610000Y-61402500D01*
X206900000Y-78662500D02*
X211100000Y-78662500D01*
X211100000Y-78662500D02*
X211100000Y-62262500D01*
X211610000Y-77492500D02*
X211100000Y-77492500D01*
X206390000Y-76932500D02*
X206900000Y-76932500D01*
X206390000Y-75992500D02*
X206900000Y-75992500D01*
X211610000Y-75992500D02*
X211100000Y-75992500D01*
X206390000Y-64932500D02*
X206900000Y-64932500D01*
X211610000Y-64932500D02*
X211100000Y-64932500D01*
X206390000Y-63992500D02*
X206900000Y-63992500D01*
X211610000Y-63432500D02*
X211100000Y-63432500D01*
X206900000Y-62262500D02*
X206900000Y-78662500D01*
X211100000Y-62262500D02*
X206900000Y-62262500D01*
X206390000Y-61402500D02*
X206390000Y-79522500D01*
X209100000Y-61402500D02*
X209100000Y-62262500D01*
X209900000Y-61402500D02*
X209900000Y-62262500D01*
X211610000Y-61402500D02*
X206390000Y-61402500D01*
%TO.C,J1*%
X177890000Y-69052500D02*
X175390000Y-69052500D01*
X175390000Y-69052500D02*
X175390000Y-71552500D01*
X179710000Y-69352500D02*
X175690000Y-69352500D01*
X178000000Y-69352500D02*
X178000000Y-69852500D01*
X177190000Y-69352500D02*
X177190000Y-70352500D01*
X175690000Y-69352500D02*
X175690000Y-84572500D01*
X179210000Y-69852500D02*
X179210000Y-84072500D01*
X178000000Y-69852500D02*
X179210000Y-69852500D01*
X177190000Y-70352500D02*
X175690000Y-70352500D01*
X177190000Y-83572500D02*
X175690000Y-83572500D01*
X179210000Y-84072500D02*
X178000000Y-84072500D01*
X178000000Y-84072500D02*
X178000000Y-84572500D01*
X179710000Y-84572500D02*
X179710000Y-69352500D01*
X177190000Y-84572500D02*
X177190000Y-83572500D01*
X175690000Y-84572500D02*
X179710000Y-84572500D01*
%TO.C,R23*%
X217827500Y-102629724D02*
X217827500Y-102120276D01*
X218872500Y-102629724D02*
X218872500Y-102120276D01*
D10*
%TO.C,U4*%
X194948896Y-66787500D02*
X195173896Y-66787500D01*
X194948896Y-66787500D02*
X194948896Y-61037500D01*
X195173896Y-66787500D02*
X195173896Y-68387500D01*
X203598896Y-66787500D02*
X203298896Y-66787500D01*
X203598896Y-66787500D02*
X203598896Y-61037500D01*
X194948896Y-61037500D02*
X195248896Y-61037500D01*
X203598896Y-61037500D02*
X203298896Y-61037500D01*
D11*
%TO.C,R11*%
X209652500Y-102542224D02*
X209652500Y-102032776D01*
X210697500Y-102542224D02*
X210697500Y-102032776D01*
%TO.C,J5*%
X218860000Y-90762500D02*
X218260000Y-90462500D01*
X218860000Y-90162500D02*
X218860000Y-90762500D01*
X218260000Y-90462500D02*
X218860000Y-90162500D01*
X218060000Y-92072500D02*
X218060000Y-86852500D01*
X218060000Y-89362500D02*
X217200000Y-89362500D01*
X218060000Y-88562500D02*
X217200000Y-88562500D01*
X218060000Y-86852500D02*
X191940000Y-86852500D01*
X217200000Y-91562500D02*
X217200000Y-87362500D01*
X217200000Y-87362500D02*
X192800000Y-87362500D01*
X216030000Y-86852500D02*
X216030000Y-87362500D01*
X215470000Y-92072500D02*
X215470000Y-91562500D01*
X214530000Y-92072500D02*
X214530000Y-91562500D01*
X214530000Y-86852500D02*
X214530000Y-87362500D01*
X195470000Y-92072500D02*
X195470000Y-91562500D01*
X195470000Y-86852500D02*
X195470000Y-87362500D01*
X194530000Y-92072500D02*
X194530000Y-91562500D01*
X193970000Y-86852500D02*
X193970000Y-87362500D01*
X192800000Y-91562500D02*
X217200000Y-91562500D01*
X192800000Y-87362500D02*
X192800000Y-91562500D01*
X191940000Y-92072500D02*
X218060000Y-92072500D01*
X191940000Y-89362500D02*
X192800000Y-89362500D01*
X191940000Y-88562500D02*
X192800000Y-88562500D01*
X191940000Y-86852500D02*
X191940000Y-92072500D01*
%TO.C,R20*%
X195832776Y-99477500D02*
X196342224Y-99477500D01*
X195832776Y-100522500D02*
X196342224Y-100522500D01*
%TO.C,R25*%
X196254724Y-101985000D02*
X195745276Y-101985000D01*
X196254724Y-100940000D02*
X195745276Y-100940000D01*
%TD*%
M02*
