%TF.GenerationSoftware,KiCad,Pcbnew,(7.0.0)*%
%TF.CreationDate,2024-02-13T04:28:46-03:00*%
%TF.ProjectId,pcb_peau_v1,7063625f-7065-4617-955f-76312e6b6963,rev?*%
%TF.SameCoordinates,Original*%
%TF.FileFunction,Soldermask,Top*%
%TF.FilePolarity,Negative*%
%FSLAX46Y46*%
G04 Gerber Fmt 4.6, Leading zero omitted, Abs format (unit mm)*
G04 Created by KiCad (PCBNEW (7.0.0)) date 2024-02-13 04:28:46*
%MOMM*%
%LPD*%
G01*
G04 APERTURE LIST*
G04 Aperture macros list*
%AMRoundRect*
0 Rectangle with rounded corners*
0 $1 Rounding radius*
0 $2 $3 $4 $5 $6 $7 $8 $9 X,Y pos of 4 corners*
0 Add a 4 corners polygon primitive as box body*
4,1,4,$2,$3,$4,$5,$6,$7,$8,$9,$2,$3,0*
0 Add four circle primitives for the rounded corners*
1,1,$1+$1,$2,$3*
1,1,$1+$1,$4,$5*
1,1,$1+$1,$6,$7*
1,1,$1+$1,$8,$9*
0 Add four rect primitives between the rounded corners*
20,1,$1+$1,$2,$3,$4,$5,0*
20,1,$1+$1,$4,$5,$6,$7,0*
20,1,$1+$1,$6,$7,$8,$9,0*
20,1,$1+$1,$8,$9,$2,$3,0*%
G04 Aperture macros list end*
%ADD10R,0.450000X1.750000*%
%ADD11RoundRect,0.237500X-0.237500X0.250000X-0.237500X-0.250000X0.237500X-0.250000X0.237500X0.250000X0*%
%ADD12RoundRect,0.102000X0.300000X1.100000X-0.300000X1.100000X-0.300000X-1.100000X0.300000X-1.100000X0*%
%ADD13RoundRect,0.102000X-1.100000X0.300000X-1.100000X-0.300000X1.100000X-0.300000X1.100000X0.300000X0*%
%ADD14C,5.600000*%
%ADD15RoundRect,0.237500X0.250000X0.237500X-0.250000X0.237500X-0.250000X-0.237500X0.250000X-0.237500X0*%
%ADD16RoundRect,0.102000X-0.300000X-1.100000X0.300000X-1.100000X0.300000X1.100000X-0.300000X1.100000X0*%
%ADD17RoundRect,0.237500X0.237500X-0.250000X0.237500X0.250000X-0.237500X0.250000X-0.237500X-0.250000X0*%
%ADD18RoundRect,0.237500X-0.250000X-0.237500X0.250000X-0.237500X0.250000X0.237500X-0.250000X0.237500X0*%
%ADD19RoundRect,0.250000X0.725000X-0.600000X0.725000X0.600000X-0.725000X0.600000X-0.725000X-0.600000X0*%
%ADD20O,1.950000X1.700000*%
%ADD21RoundRect,0.250000X0.350000X-0.350000X0.350000X0.350000X-0.350000X0.350000X-0.350000X-0.350000X0*%
%ADD22C,1.200000*%
%ADD23RoundRect,0.250000X-0.725000X0.600000X-0.725000X-0.600000X0.725000X-0.600000X0.725000X0.600000X0*%
%ADD24RoundRect,0.250000X0.350000X0.350000X-0.350000X0.350000X-0.350000X-0.350000X0.350000X-0.350000X0*%
G04 APERTURE END LIST*
D10*
%TO.C,U5*%
X216315811Y-81336306D03*
X216965811Y-81336306D03*
X217615811Y-81336306D03*
X218265811Y-81336306D03*
X218915811Y-81336306D03*
X219565811Y-81336306D03*
X220215811Y-81336306D03*
X220865811Y-81336306D03*
X221515811Y-81336306D03*
X222165811Y-81336306D03*
X222815811Y-81336306D03*
X223465811Y-81336306D03*
X223465811Y-74136306D03*
X222815811Y-74136306D03*
X222165811Y-74136306D03*
X221515811Y-74136306D03*
X220865811Y-74136306D03*
X220215811Y-74136306D03*
X219565811Y-74136306D03*
X218915811Y-74136306D03*
X218265811Y-74136306D03*
X217615811Y-74136306D03*
X216965811Y-74136306D03*
X216315811Y-74136306D03*
%TD*%
%TO.C,U6*%
X184623895Y-81112499D03*
X185273895Y-81112499D03*
X185923895Y-81112499D03*
X186573895Y-81112499D03*
X187223895Y-81112499D03*
X187873895Y-81112499D03*
X188523895Y-81112499D03*
X189173895Y-81112499D03*
X189823895Y-81112499D03*
X190473895Y-81112499D03*
X191123895Y-81112499D03*
X191773895Y-81112499D03*
X191773895Y-73912499D03*
X191123895Y-73912499D03*
X190473895Y-73912499D03*
X189823895Y-73912499D03*
X189173895Y-73912499D03*
X188523895Y-73912499D03*
X187873895Y-73912499D03*
X187223895Y-73912499D03*
X186573895Y-73912499D03*
X185923895Y-73912499D03*
X185273895Y-73912499D03*
X184623895Y-73912499D03*
%TD*%
D11*
%TO.C,R10*%
X181600000Y-98010000D03*
X181600000Y-99835000D03*
%TD*%
D10*
%TO.C,U3*%
X224740811Y-65736306D03*
X225390811Y-65736306D03*
X226040811Y-65736306D03*
X226690811Y-65736306D03*
X227340811Y-65736306D03*
X227990811Y-65736306D03*
X228640811Y-65736306D03*
X229290811Y-65736306D03*
X229940811Y-65736306D03*
X230590811Y-65736306D03*
X231240811Y-65736306D03*
X231890811Y-65736306D03*
X231890811Y-58536306D03*
X231240811Y-58536306D03*
X230590811Y-58536306D03*
X229940811Y-58536306D03*
X229290811Y-58536306D03*
X228640811Y-58536306D03*
X227990811Y-58536306D03*
X227340811Y-58536306D03*
X226690811Y-58536306D03*
X226040811Y-58536306D03*
X225390811Y-58536306D03*
X224740811Y-58536306D03*
%TD*%
D12*
%TO.C,U7*%
X206350000Y-103262500D03*
X205080000Y-103262500D03*
X203810000Y-103262500D03*
X202540000Y-103262500D03*
X201270000Y-103262500D03*
X200000000Y-103262500D03*
X198730000Y-103262500D03*
X198730000Y-108462500D03*
X200000000Y-108462500D03*
X201270000Y-108462500D03*
X202540000Y-108462500D03*
X203810000Y-108462500D03*
X205080000Y-108462500D03*
X206350000Y-108462500D03*
%TD*%
D13*
%TO.C,U8*%
X187000000Y-95112500D03*
X187000000Y-96382500D03*
X187000000Y-97652500D03*
X187000000Y-98922500D03*
X187000000Y-100192500D03*
X187000000Y-101462500D03*
X187000000Y-102732500D03*
X192200000Y-102732500D03*
X192200000Y-101462500D03*
X192200000Y-100192500D03*
X192200000Y-98922500D03*
X192200000Y-97652500D03*
X192200000Y-96382500D03*
X192200000Y-95112500D03*
%TD*%
D14*
%TO.C,H1*%
X178000000Y-53000000D03*
%TD*%
%TO.C,H3*%
X236000000Y-111000000D03*
%TD*%
D15*
%TO.C,R22*%
X211000000Y-106462500D03*
X209175000Y-106462500D03*
%TD*%
D16*
%TO.C,U2*%
X199190000Y-99062500D03*
X200460000Y-99062500D03*
X201730000Y-99062500D03*
X203000000Y-99062500D03*
X204270000Y-99062500D03*
X205540000Y-99062500D03*
X206810000Y-99062500D03*
X206810000Y-93862500D03*
X205540000Y-93862500D03*
X204270000Y-93862500D03*
X203000000Y-93862500D03*
X201730000Y-93862500D03*
X200460000Y-93862500D03*
X199190000Y-93862500D03*
%TD*%
D14*
%TO.C,H4*%
X178000000Y-111000000D03*
%TD*%
D17*
%TO.C,R4*%
X214175000Y-107375000D03*
X214175000Y-105550000D03*
%TD*%
D12*
%TO.C,U9*%
X235810000Y-89862500D03*
X234540000Y-89862500D03*
X233270000Y-89862500D03*
X232000000Y-89862500D03*
X230730000Y-89862500D03*
X229460000Y-89862500D03*
X228190000Y-89862500D03*
X228190000Y-95062500D03*
X229460000Y-95062500D03*
X230730000Y-95062500D03*
X232000000Y-95062500D03*
X233270000Y-95062500D03*
X234540000Y-95062500D03*
X235810000Y-95062500D03*
%TD*%
D14*
%TO.C,H2*%
X236000000Y-53000000D03*
%TD*%
D11*
%TO.C,R9*%
X214175000Y-101462500D03*
X214175000Y-103287500D03*
%TD*%
%TO.C,R8*%
X181600000Y-102010000D03*
X181600000Y-103835000D03*
%TD*%
D18*
%TO.C,R21*%
X221437500Y-101375000D03*
X223262500Y-101375000D03*
%TD*%
D19*
%TO.C,J2*%
X237000000Y-81962500D03*
D20*
X236999999Y-79462499D03*
X236999999Y-76962499D03*
X236999999Y-74462499D03*
X236999999Y-71962499D03*
%TD*%
D21*
%TO.C,J4*%
X208000000Y-77462500D03*
D22*
X210000000Y-77462500D03*
X208000000Y-75462500D03*
X210000000Y-75462500D03*
X208000000Y-73462500D03*
X210000000Y-73462500D03*
X208000000Y-71462500D03*
X210000000Y-71462500D03*
X208000000Y-69462500D03*
X210000000Y-69462500D03*
X208000000Y-67462500D03*
X210000000Y-67462500D03*
X208000000Y-65462500D03*
X210000000Y-65462500D03*
X208000000Y-63462500D03*
X210000000Y-63462500D03*
%TD*%
D23*
%TO.C,J1*%
X178000000Y-71962500D03*
D20*
X177999999Y-74462499D03*
X177999999Y-76962499D03*
X177999999Y-79462499D03*
X177999999Y-81962499D03*
%TD*%
D17*
%TO.C,R23*%
X218350000Y-103287500D03*
X218350000Y-101462500D03*
%TD*%
D10*
%TO.C,U4*%
X195698895Y-67512499D03*
X196348895Y-67512499D03*
X196998895Y-67512499D03*
X197648895Y-67512499D03*
X198298895Y-67512499D03*
X198948895Y-67512499D03*
X199598895Y-67512499D03*
X200248895Y-67512499D03*
X200898895Y-67512499D03*
X201548895Y-67512499D03*
X202198895Y-67512499D03*
X202848895Y-67512499D03*
X202848895Y-60312499D03*
X202198895Y-60312499D03*
X201548895Y-60312499D03*
X200898895Y-60312499D03*
X200248895Y-60312499D03*
X199598895Y-60312499D03*
X198948895Y-60312499D03*
X198298895Y-60312499D03*
X197648895Y-60312499D03*
X196998895Y-60312499D03*
X196348895Y-60312499D03*
X195698895Y-60312499D03*
%TD*%
D17*
%TO.C,R11*%
X210175000Y-103200000D03*
X210175000Y-101375000D03*
%TD*%
D24*
%TO.C,J5*%
X216000000Y-90462500D03*
D22*
X216000000Y-88462500D03*
X214000000Y-90462500D03*
X214000000Y-88462500D03*
X212000000Y-90462500D03*
X212000000Y-88462500D03*
X210000000Y-90462500D03*
X210000000Y-88462500D03*
X208000000Y-90462500D03*
X208000000Y-88462500D03*
X206000000Y-90462500D03*
X206000000Y-88462500D03*
X204000000Y-90462500D03*
X204000000Y-88462500D03*
X202000000Y-90462500D03*
X202000000Y-88462500D03*
X200000000Y-90462500D03*
X200000000Y-88462500D03*
X198000000Y-90462500D03*
X198000000Y-88462500D03*
X196000000Y-90462500D03*
X196000000Y-88462500D03*
X194000000Y-90462500D03*
X194000000Y-88462500D03*
%TD*%
D18*
%TO.C,R20*%
X195175000Y-100000000D03*
X197000000Y-100000000D03*
%TD*%
D15*
%TO.C,R25*%
X196912500Y-101462500D03*
X195087500Y-101462500D03*
%TD*%
M02*
