%TF.GenerationSoftware,KiCad,Pcbnew,(7.0.0)*%
%TF.CreationDate,2024-02-13T04:28:46-03:00*%
%TF.ProjectId,pcb_peau_v1,7063625f-7065-4617-955f-76312e6b6963,rev?*%
%TF.SameCoordinates,Original*%
%TF.FileFunction,Paste,Top*%
%TF.FilePolarity,Positive*%
%FSLAX46Y46*%
G04 Gerber Fmt 4.6, Leading zero omitted, Abs format (unit mm)*
G04 Created by KiCad (PCBNEW (7.0.0)) date 2024-02-13 04:28:46*
%MOMM*%
%LPD*%
G01*
G04 APERTURE LIST*
G04 Aperture macros list*
%AMRoundRect*
0 Rectangle with rounded corners*
0 $1 Rounding radius*
0 $2 $3 $4 $5 $6 $7 $8 $9 X,Y pos of 4 corners*
0 Add a 4 corners polygon primitive as box body*
4,1,4,$2,$3,$4,$5,$6,$7,$8,$9,$2,$3,0*
0 Add four circle primitives for the rounded corners*
1,1,$1+$1,$2,$3*
1,1,$1+$1,$4,$5*
1,1,$1+$1,$6,$7*
1,1,$1+$1,$8,$9*
0 Add four rect primitives between the rounded corners*
20,1,$1+$1,$2,$3,$4,$5,0*
20,1,$1+$1,$4,$5,$6,$7,0*
20,1,$1+$1,$6,$7,$8,$9,0*
20,1,$1+$1,$8,$9,$2,$3,0*%
G04 Aperture macros list end*
%ADD10R,0.450000X1.750000*%
%ADD11RoundRect,0.237500X-0.237500X0.250000X-0.237500X-0.250000X0.237500X-0.250000X0.237500X0.250000X0*%
%ADD12R,0.600000X2.200000*%
%ADD13R,2.200000X0.600000*%
%ADD14RoundRect,0.237500X0.250000X0.237500X-0.250000X0.237500X-0.250000X-0.237500X0.250000X-0.237500X0*%
%ADD15RoundRect,0.237500X0.237500X-0.250000X0.237500X0.250000X-0.237500X0.250000X-0.237500X-0.250000X0*%
%ADD16RoundRect,0.237500X-0.250000X-0.237500X0.250000X-0.237500X0.250000X0.237500X-0.250000X0.237500X0*%
G04 APERTURE END LIST*
D10*
%TO.C,U5*%
X216315811Y-81336306D03*
X216965811Y-81336306D03*
X217615811Y-81336306D03*
X218265811Y-81336306D03*
X218915811Y-81336306D03*
X219565811Y-81336306D03*
X220215811Y-81336306D03*
X220865811Y-81336306D03*
X221515811Y-81336306D03*
X222165811Y-81336306D03*
X222815811Y-81336306D03*
X223465811Y-81336306D03*
X223465811Y-74136306D03*
X222815811Y-74136306D03*
X222165811Y-74136306D03*
X221515811Y-74136306D03*
X220865811Y-74136306D03*
X220215811Y-74136306D03*
X219565811Y-74136306D03*
X218915811Y-74136306D03*
X218265811Y-74136306D03*
X217615811Y-74136306D03*
X216965811Y-74136306D03*
X216315811Y-74136306D03*
%TD*%
%TO.C,U6*%
X184623895Y-81112499D03*
X185273895Y-81112499D03*
X185923895Y-81112499D03*
X186573895Y-81112499D03*
X187223895Y-81112499D03*
X187873895Y-81112499D03*
X188523895Y-81112499D03*
X189173895Y-81112499D03*
X189823895Y-81112499D03*
X190473895Y-81112499D03*
X191123895Y-81112499D03*
X191773895Y-81112499D03*
X191773895Y-73912499D03*
X191123895Y-73912499D03*
X190473895Y-73912499D03*
X189823895Y-73912499D03*
X189173895Y-73912499D03*
X188523895Y-73912499D03*
X187873895Y-73912499D03*
X187223895Y-73912499D03*
X186573895Y-73912499D03*
X185923895Y-73912499D03*
X185273895Y-73912499D03*
X184623895Y-73912499D03*
%TD*%
D11*
%TO.C,R10*%
X181600000Y-98010000D03*
X181600000Y-99835000D03*
%TD*%
D10*
%TO.C,U3*%
X224740811Y-65736306D03*
X225390811Y-65736306D03*
X226040811Y-65736306D03*
X226690811Y-65736306D03*
X227340811Y-65736306D03*
X227990811Y-65736306D03*
X228640811Y-65736306D03*
X229290811Y-65736306D03*
X229940811Y-65736306D03*
X230590811Y-65736306D03*
X231240811Y-65736306D03*
X231890811Y-65736306D03*
X231890811Y-58536306D03*
X231240811Y-58536306D03*
X230590811Y-58536306D03*
X229940811Y-58536306D03*
X229290811Y-58536306D03*
X228640811Y-58536306D03*
X227990811Y-58536306D03*
X227340811Y-58536306D03*
X226690811Y-58536306D03*
X226040811Y-58536306D03*
X225390811Y-58536306D03*
X224740811Y-58536306D03*
%TD*%
D12*
%TO.C,U7*%
X206349999Y-103262499D03*
X205079999Y-103262499D03*
X203809999Y-103262499D03*
X202539999Y-103262499D03*
X201269999Y-103262499D03*
X199999999Y-103262499D03*
X198729999Y-103262499D03*
X198729999Y-108462499D03*
X199999999Y-108462499D03*
X201269999Y-108462499D03*
X202539999Y-108462499D03*
X203809999Y-108462499D03*
X205079999Y-108462499D03*
X206349999Y-108462499D03*
%TD*%
D13*
%TO.C,U8*%
X186999999Y-95112499D03*
X186999999Y-96382499D03*
X186999999Y-97652499D03*
X186999999Y-98922499D03*
X186999999Y-100192499D03*
X186999999Y-101462499D03*
X186999999Y-102732499D03*
X192199999Y-102732499D03*
X192199999Y-101462499D03*
X192199999Y-100192499D03*
X192199999Y-98922499D03*
X192199999Y-97652499D03*
X192199999Y-96382499D03*
X192199999Y-95112499D03*
%TD*%
D14*
%TO.C,R22*%
X211000000Y-106462500D03*
X209175000Y-106462500D03*
%TD*%
D12*
%TO.C,U2*%
X199189999Y-99062499D03*
X200459999Y-99062499D03*
X201729999Y-99062499D03*
X202999999Y-99062499D03*
X204269999Y-99062499D03*
X205539999Y-99062499D03*
X206809999Y-99062499D03*
X206809999Y-93862499D03*
X205539999Y-93862499D03*
X204269999Y-93862499D03*
X202999999Y-93862499D03*
X201729999Y-93862499D03*
X200459999Y-93862499D03*
X199189999Y-93862499D03*
%TD*%
D15*
%TO.C,R4*%
X214175000Y-107375000D03*
X214175000Y-105550000D03*
%TD*%
D12*
%TO.C,U9*%
X235809999Y-89862499D03*
X234539999Y-89862499D03*
X233269999Y-89862499D03*
X231999999Y-89862499D03*
X230729999Y-89862499D03*
X229459999Y-89862499D03*
X228189999Y-89862499D03*
X228189999Y-95062499D03*
X229459999Y-95062499D03*
X230729999Y-95062499D03*
X231999999Y-95062499D03*
X233269999Y-95062499D03*
X234539999Y-95062499D03*
X235809999Y-95062499D03*
%TD*%
D11*
%TO.C,R9*%
X214175000Y-101462500D03*
X214175000Y-103287500D03*
%TD*%
%TO.C,R8*%
X181600000Y-102010000D03*
X181600000Y-103835000D03*
%TD*%
D16*
%TO.C,R21*%
X221437500Y-101375000D03*
X223262500Y-101375000D03*
%TD*%
D15*
%TO.C,R23*%
X218350000Y-103287500D03*
X218350000Y-101462500D03*
%TD*%
D10*
%TO.C,U4*%
X195698895Y-67512499D03*
X196348895Y-67512499D03*
X196998895Y-67512499D03*
X197648895Y-67512499D03*
X198298895Y-67512499D03*
X198948895Y-67512499D03*
X199598895Y-67512499D03*
X200248895Y-67512499D03*
X200898895Y-67512499D03*
X201548895Y-67512499D03*
X202198895Y-67512499D03*
X202848895Y-67512499D03*
X202848895Y-60312499D03*
X202198895Y-60312499D03*
X201548895Y-60312499D03*
X200898895Y-60312499D03*
X200248895Y-60312499D03*
X199598895Y-60312499D03*
X198948895Y-60312499D03*
X198298895Y-60312499D03*
X197648895Y-60312499D03*
X196998895Y-60312499D03*
X196348895Y-60312499D03*
X195698895Y-60312499D03*
%TD*%
D15*
%TO.C,R11*%
X210175000Y-103200000D03*
X210175000Y-101375000D03*
%TD*%
D16*
%TO.C,R20*%
X195175000Y-100000000D03*
X197000000Y-100000000D03*
%TD*%
D14*
%TO.C,R25*%
X196912500Y-101462500D03*
X195087500Y-101462500D03*
%TD*%
M02*
