M48
; DRILL file {KiCad (7.0.0)} date Tue Feb 13 04:28:21 2024
; FORMAT={-:-/ absolute / inch / decimal}
; #@! TF.CreationDate,2024-02-13T04:28:21-03:00
; #@! TF.GenerationSoftware,Kicad,Pcbnew,(7.0.0)
; #@! TF.FileFunction,Plated,1,2,PTH
FMAT,2
INCH
; #@! TA.AperFunction,Plated,PTH,ViaDrill
T1C0.0157
; #@! TA.AperFunction,Plated,PTH,ComponentDrill
T2C0.0295
; #@! TA.AperFunction,Plated,PTH,ComponentDrill
T3C0.0374
; #@! TA.AperFunction,Plated,PTH,ComponentDrill
T4C0.1260
%
G90
G05
T1
X7.2047Y-3.2466
X7.2047Y-4.1521
X7.2441Y-3.9158
X7.2805Y-3.0153
X7.2839Y-3.6801
X7.3228Y-3.2859
X7.3228Y-4.3489
X7.3336Y-3.0281
X7.3622Y-3.5615
X7.3984Y-3.288
X7.4409Y-3.3647
X7.4409Y-3.9158
X7.4793Y-3.289
X7.4803Y-3.6796
X7.4911Y-3.2515
X7.5453Y-2.7741
X7.563Y-2.839
X7.5984Y-2.3017
X7.5991Y-3.2866
X7.6093Y-2.714
X7.6378Y-2.8922
X7.6378Y-3.937
X7.6486Y-2.7918
X7.6712Y-2.7288
X7.7165Y-3.3253
X7.7177Y-3.2084
X7.75Y-2.2279
X7.7552Y-2.1827
X7.7559Y-3.7977
X7.7844Y-2.3017
X7.7853Y-2.1541
X7.7948Y-2.2637
X7.7983Y-2.117
X7.8322Y-2.2515
X7.8342Y-3.1673
X7.8346Y-3.9661
X7.8373Y-2.5799
X7.8689Y-2.5489
X7.8714Y-2.2546
X7.8745Y-3.0108
X7.8838Y-2.2968
X7.8876Y-3.1745
X7.8967Y-2.5204
X7.9134Y-2.7741
X7.921Y-3.0179
X7.9528Y-4.1521
X7.9568Y-3.0016
X7.9635Y-2.28
X7.9715Y-2.5052
X7.9715Y-2.5822
X7.9833Y-2.5447
X7.9921Y-2.7347
X7.9921Y-2.8135
X7.9921Y-2.9134
X7.9921Y-3.157
X8.0207Y-3.0035
X8.0207Y-3.3858
X8.031Y-2.4405
X8.0359Y-2.1398
X8.0495Y-2.74
X8.0709Y-2.8346
X8.1009Y-2.5797
X8.1034Y-2.7557
X8.1102Y-4.1521
X8.126Y-4.3489
X8.189Y-3.7584
X8.2283Y-4.1339
X8.2677Y-3.9158
X8.3071Y-4.1127
X8.3465Y-2.341
X8.4646Y-2.8135
X8.5039Y-3.1284
X8.5044Y-2.5384
X8.5784Y-3.0211
X8.6614Y-3.5433
X8.7008Y-2.7741
X8.7008Y-3.8765
X8.7359Y-3.2967
X8.7402Y-3.404
X8.8131Y-2.746
X8.8226Y-2.8172
X8.854Y-2.7062
X8.8584Y-3.2073
X8.8976Y-3.2859
X8.9764Y-3.1496
X9.0546Y-3.1885
X9.0551Y-2.5197
X9.0551Y-3.8371
X9.0902Y-2.1943
X9.1339Y-3.189
X9.1343Y-3.031
X9.1732Y-3.1102
X9.2126Y-3.189
T2
X7.6378Y-3.4828
X7.6378Y-3.5615
X7.7165Y-3.4828
X7.7165Y-3.5615
X7.7953Y-3.4828
X7.7953Y-3.5615
X7.874Y-3.4828
X7.874Y-3.5615
X7.9528Y-3.4828
X7.9528Y-3.5615
X8.0315Y-3.4828
X8.0315Y-3.5615
X8.1102Y-3.4828
X8.1102Y-3.5615
X8.189Y-2.4985
X8.189Y-2.5773
X8.189Y-2.656
X8.189Y-2.7347
X8.189Y-2.8135
X8.189Y-2.8922
X8.189Y-2.971
X8.189Y-3.0497
X8.189Y-3.4828
X8.189Y-3.5615
X8.2677Y-2.4985
X8.2677Y-2.5773
X8.2677Y-2.656
X8.2677Y-2.7347
X8.2677Y-2.8135
X8.2677Y-2.8922
X8.2677Y-2.971
X8.2677Y-3.0497
X8.2677Y-3.4828
X8.2677Y-3.5615
X8.3465Y-3.4828
X8.3465Y-3.5615
X8.4252Y-3.4828
X8.4252Y-3.5615
X8.5039Y-3.4828
X8.5039Y-3.5615
T3
X7.0079Y-2.8332
X7.0079Y-2.9316
X7.0079Y-3.03
X7.0079Y-3.1284
X7.0079Y-3.2269
X9.3307Y-2.8332
X9.3307Y-2.9316
X9.3307Y-3.03
X9.3307Y-3.1284
X9.3307Y-3.2269
T4
X7.0079Y-2.0866
X7.0079Y-4.3701
X9.2913Y-2.0866
X9.2913Y-4.3701
T0
M30
