%TF.GenerationSoftware,KiCad,Pcbnew,(7.0.0)*%
%TF.CreationDate,2024-02-13T04:28:46-03:00*%
%TF.ProjectId,pcb_peau_v1,7063625f-7065-4617-955f-76312e6b6963,rev?*%
%TF.SameCoordinates,Original*%
%TF.FileFunction,Copper,L1,Top*%
%TF.FilePolarity,Positive*%
%FSLAX46Y46*%
G04 Gerber Fmt 4.6, Leading zero omitted, Abs format (unit mm)*
G04 Created by KiCad (PCBNEW (7.0.0)) date 2024-02-13 04:28:46*
%MOMM*%
%LPD*%
G01*
G04 APERTURE LIST*
G04 Aperture macros list*
%AMRoundRect*
0 Rectangle with rounded corners*
0 $1 Rounding radius*
0 $2 $3 $4 $5 $6 $7 $8 $9 X,Y pos of 4 corners*
0 Add a 4 corners polygon primitive as box body*
4,1,4,$2,$3,$4,$5,$6,$7,$8,$9,$2,$3,0*
0 Add four circle primitives for the rounded corners*
1,1,$1+$1,$2,$3*
1,1,$1+$1,$4,$5*
1,1,$1+$1,$6,$7*
1,1,$1+$1,$8,$9*
0 Add four rect primitives between the rounded corners*
20,1,$1+$1,$2,$3,$4,$5,0*
20,1,$1+$1,$4,$5,$6,$7,0*
20,1,$1+$1,$6,$7,$8,$9,0*
20,1,$1+$1,$8,$9,$2,$3,0*%
G04 Aperture macros list end*
%TA.AperFunction,SMDPad,CuDef*%
%ADD10R,0.450000X1.750000*%
%TD*%
%TA.AperFunction,SMDPad,CuDef*%
%ADD11RoundRect,0.237500X-0.237500X0.250000X-0.237500X-0.250000X0.237500X-0.250000X0.237500X0.250000X0*%
%TD*%
%TA.AperFunction,SMDPad,CuDef*%
%ADD12R,0.600000X2.200000*%
%TD*%
%TA.AperFunction,SMDPad,CuDef*%
%ADD13R,2.200000X0.600000*%
%TD*%
%TA.AperFunction,ComponentPad*%
%ADD14C,5.600000*%
%TD*%
%TA.AperFunction,SMDPad,CuDef*%
%ADD15RoundRect,0.237500X0.250000X0.237500X-0.250000X0.237500X-0.250000X-0.237500X0.250000X-0.237500X0*%
%TD*%
%TA.AperFunction,SMDPad,CuDef*%
%ADD16RoundRect,0.237500X0.237500X-0.250000X0.237500X0.250000X-0.237500X0.250000X-0.237500X-0.250000X0*%
%TD*%
%TA.AperFunction,SMDPad,CuDef*%
%ADD17RoundRect,0.237500X-0.250000X-0.237500X0.250000X-0.237500X0.250000X0.237500X-0.250000X0.237500X0*%
%TD*%
%TA.AperFunction,ComponentPad*%
%ADD18RoundRect,0.250000X0.725000X-0.600000X0.725000X0.600000X-0.725000X0.600000X-0.725000X-0.600000X0*%
%TD*%
%TA.AperFunction,ComponentPad*%
%ADD19O,1.950000X1.700000*%
%TD*%
%TA.AperFunction,ComponentPad*%
%ADD20RoundRect,0.250000X0.350000X-0.350000X0.350000X0.350000X-0.350000X0.350000X-0.350000X-0.350000X0*%
%TD*%
%TA.AperFunction,ComponentPad*%
%ADD21C,1.200000*%
%TD*%
%TA.AperFunction,ComponentPad*%
%ADD22RoundRect,0.250000X-0.725000X0.600000X-0.725000X-0.600000X0.725000X-0.600000X0.725000X0.600000X0*%
%TD*%
%TA.AperFunction,ComponentPad*%
%ADD23RoundRect,0.250000X0.350000X0.350000X-0.350000X0.350000X-0.350000X-0.350000X0.350000X-0.350000X0*%
%TD*%
%TA.AperFunction,ViaPad*%
%ADD24C,0.800000*%
%TD*%
%TA.AperFunction,Conductor*%
%ADD25C,0.250000*%
%TD*%
G04 APERTURE END LIST*
D10*
%TO.P,U5,1,COM*%
%TO.N,1-ENTREE*%
X216315811Y-81336306D03*
%TO.P,U5,2,I7*%
%TO.N,Net-(J4-Pin_8)*%
X216965811Y-81336306D03*
%TO.P,U5,3,I6*%
%TO.N,Net-(J4-Pin_7)*%
X217615811Y-81336306D03*
%TO.P,U5,4,I5*%
%TO.N,Net-(J4-Pin_6)*%
X218265811Y-81336306D03*
%TO.P,U5,5,I4*%
%TO.N,Net-(J4-Pin_5)*%
X218915811Y-81336306D03*
%TO.P,U5,6,I3*%
%TO.N,Net-(J4-Pin_4)*%
X219565811Y-81336306D03*
%TO.P,U5,7,I2*%
%TO.N,Net-(J4-Pin_3)*%
X220215811Y-81336306D03*
%TO.P,U5,8,I1*%
%TO.N,Net-(J4-Pin_2)*%
X220865811Y-81336306D03*
%TO.P,U5,9,I0*%
%TO.N,Net-(J4-Pin_1)*%
X221515811Y-81336306D03*
%TO.P,U5,10,S0*%
%TO.N,A1*%
X222165811Y-81336306D03*
%TO.P,U5,11,S1*%
%TO.N,B1*%
X222815811Y-81336306D03*
%TO.P,U5,12,GND*%
%TO.N,0*%
X223465811Y-81336306D03*
%TO.P,U5,13,S3*%
%TO.N,D1*%
X223465811Y-74136306D03*
%TO.P,U5,14,S2*%
%TO.N,C1*%
X222815811Y-74136306D03*
%TO.P,U5,15,~{E}*%
%TO.N,NE1*%
X222165811Y-74136306D03*
%TO.P,U5,16,I15*%
%TO.N,Net-(J4-Pin_16)*%
X221515811Y-74136306D03*
%TO.P,U5,17,I14*%
%TO.N,Net-(J4-Pin_15)*%
X220865811Y-74136306D03*
%TO.P,U5,18,I13*%
%TO.N,Net-(J4-Pin_14)*%
X220215811Y-74136306D03*
%TO.P,U5,19,I12*%
%TO.N,Net-(J4-Pin_13)*%
X219565811Y-74136306D03*
%TO.P,U5,20,I11*%
%TO.N,Net-(J4-Pin_12)*%
X218915811Y-74136306D03*
%TO.P,U5,21,I10*%
%TO.N,Net-(J4-Pin_11)*%
X218265811Y-74136306D03*
%TO.P,U5,22,I9*%
%TO.N,Net-(J4-Pin_10)*%
X217615811Y-74136306D03*
%TO.P,U5,23,I8*%
%TO.N,Net-(J4-Pin_9)*%
X216965811Y-74136306D03*
%TO.P,U5,24,VCC*%
%TO.N,+5V*%
X216315811Y-74136306D03*
%TD*%
%TO.P,U6,1,COM*%
%TO.N,AOP2*%
X184623895Y-81112499D03*
%TO.P,U6,2,I7*%
%TO.N,Net-(J4-Pin_8)*%
X185273895Y-81112499D03*
%TO.P,U6,3,I6*%
%TO.N,Net-(J4-Pin_7)*%
X185923895Y-81112499D03*
%TO.P,U6,4,I5*%
%TO.N,Net-(J4-Pin_6)*%
X186573895Y-81112499D03*
%TO.P,U6,5,I4*%
%TO.N,Net-(J4-Pin_5)*%
X187223895Y-81112499D03*
%TO.P,U6,6,I3*%
%TO.N,Net-(J4-Pin_4)*%
X187873895Y-81112499D03*
%TO.P,U6,7,I2*%
%TO.N,Net-(J4-Pin_3)*%
X188523895Y-81112499D03*
%TO.P,U6,8,I1*%
%TO.N,Net-(J4-Pin_2)*%
X189173895Y-81112499D03*
%TO.P,U6,9,I0*%
%TO.N,Net-(J4-Pin_1)*%
X189823895Y-81112499D03*
%TO.P,U6,10,S0*%
%TO.N,A2*%
X190473895Y-81112499D03*
%TO.P,U6,11,S1*%
%TO.N,B2*%
X191123895Y-81112499D03*
%TO.P,U6,12,GND*%
%TO.N,0*%
X191773895Y-81112499D03*
%TO.P,U6,13,S3*%
%TO.N,D2*%
X191773895Y-73912499D03*
%TO.P,U6,14,S2*%
%TO.N,C2*%
X191123895Y-73912499D03*
%TO.P,U6,15,~{E}*%
%TO.N,NE2*%
X190473895Y-73912499D03*
%TO.P,U6,16,I15*%
%TO.N,Net-(J4-Pin_16)*%
X189823895Y-73912499D03*
%TO.P,U6,17,I14*%
%TO.N,Net-(J4-Pin_15)*%
X189173895Y-73912499D03*
%TO.P,U6,18,I13*%
%TO.N,Net-(J4-Pin_14)*%
X188523895Y-73912499D03*
%TO.P,U6,19,I12*%
%TO.N,Net-(J4-Pin_13)*%
X187873895Y-73912499D03*
%TO.P,U6,20,I11*%
%TO.N,Net-(J4-Pin_12)*%
X187223895Y-73912499D03*
%TO.P,U6,21,I10*%
%TO.N,Net-(J4-Pin_11)*%
X186573895Y-73912499D03*
%TO.P,U6,22,I9*%
%TO.N,Net-(J4-Pin_10)*%
X185923895Y-73912499D03*
%TO.P,U6,23,I8*%
%TO.N,Net-(J4-Pin_9)*%
X185273895Y-73912499D03*
%TO.P,U6,24,VCC*%
%TO.N,+5V*%
X184623895Y-73912499D03*
%TD*%
D11*
%TO.P,R10,1*%
%TO.N,TRIOAOP1*%
X181600000Y-98010000D03*
%TO.P,R10,2*%
%TO.N,Net-(U8A-+)*%
X181600000Y-99835000D03*
%TD*%
D10*
%TO.P,U3,1,COM*%
%TO.N,2-ENTREE*%
X224740811Y-65736306D03*
%TO.P,U3,2,I7*%
%TO.N,Net-(J4-Pin_9)*%
X225390811Y-65736306D03*
%TO.P,U3,3,I6*%
%TO.N,Net-(J4-Pin_8)*%
X226040811Y-65736306D03*
%TO.P,U3,4,I5*%
%TO.N,Net-(J4-Pin_7)*%
X226690811Y-65736306D03*
%TO.P,U3,5,I4*%
%TO.N,Net-(J4-Pin_6)*%
X227340811Y-65736306D03*
%TO.P,U3,6,I3*%
%TO.N,Net-(J4-Pin_5)*%
X227990811Y-65736306D03*
%TO.P,U3,7,I2*%
%TO.N,Net-(J4-Pin_4)*%
X228640811Y-65736306D03*
%TO.P,U3,8,I1*%
%TO.N,Net-(J4-Pin_3)*%
X229290811Y-65736306D03*
%TO.P,U3,9,I0*%
%TO.N,Net-(J4-Pin_2)*%
X229940811Y-65736306D03*
%TO.P,U3,10,S0*%
%TO.N,A3*%
X230590811Y-65736306D03*
%TO.P,U3,11,S1*%
%TO.N,B3*%
X231240811Y-65736306D03*
%TO.P,U3,12,GND*%
%TO.N,0*%
X231890811Y-65736306D03*
%TO.P,U3,13,S3*%
%TO.N,D3*%
X231890811Y-58536306D03*
%TO.P,U3,14,S2*%
%TO.N,C3*%
X231240811Y-58536306D03*
%TO.P,U3,15,~{E}*%
%TO.N,NE1*%
X230590811Y-58536306D03*
%TO.P,U3,16,I15*%
%TO.N,Net-(J4-Pin_1)*%
X229940811Y-58536306D03*
%TO.P,U3,17,I14*%
%TO.N,Net-(J4-Pin_16)*%
X229290811Y-58536306D03*
%TO.P,U3,18,I13*%
%TO.N,Net-(J4-Pin_15)*%
X228640811Y-58536306D03*
%TO.P,U3,19,I12*%
%TO.N,Net-(J4-Pin_14)*%
X227990811Y-58536306D03*
%TO.P,U3,20,I11*%
%TO.N,Net-(J4-Pin_13)*%
X227340811Y-58536306D03*
%TO.P,U3,21,I10*%
%TO.N,Net-(J4-Pin_12)*%
X226690811Y-58536306D03*
%TO.P,U3,22,I9*%
%TO.N,Net-(J4-Pin_11)*%
X226040811Y-58536306D03*
%TO.P,U3,23,I8*%
%TO.N,Net-(J4-Pin_10)*%
X225390811Y-58536306D03*
%TO.P,U3,24,VCC*%
%TO.N,+5V*%
X224740811Y-58536306D03*
%TD*%
D12*
%TO.P,U7,1*%
%TO.N,Net-(U7A-+)*%
X206349999Y-103262499D03*
%TO.P,U7,2,-*%
%TO.N,AOP1*%
X205079999Y-103262499D03*
%TO.P,U7,3,+*%
%TO.N,Net-(U7A-+)*%
X203809999Y-103262499D03*
%TO.P,U7,4,V+*%
%TO.N,+5V*%
X202539999Y-103262499D03*
%TO.P,U7,5*%
%TO.N,N/C*%
X201269999Y-103262499D03*
%TO.P,U7,6*%
X199999999Y-103262499D03*
%TO.P,U7,7*%
X198729999Y-103262499D03*
%TO.P,U7,8*%
X198729999Y-108462499D03*
%TO.P,U7,9*%
X199999999Y-108462499D03*
%TO.P,U7,10*%
X201269999Y-108462499D03*
%TO.P,U7,11,V-*%
%TO.N,-5V*%
X202539999Y-108462499D03*
%TO.P,U7,12*%
%TO.N,N/C*%
X203809999Y-108462499D03*
%TO.P,U7,13*%
X205079999Y-108462499D03*
%TO.P,U7,14*%
X206349999Y-108462499D03*
%TD*%
D13*
%TO.P,U8,1*%
%TO.N,TRIOAOP1*%
X186999999Y-95112499D03*
%TO.P,U8,2,-*%
%TO.N,Net-(U8A--)*%
X186999999Y-96382499D03*
%TO.P,U8,3,+*%
%TO.N,Net-(U8A-+)*%
X186999999Y-97652499D03*
%TO.P,U8,4,V+*%
%TO.N,+5V*%
X186999999Y-98922499D03*
%TO.P,U8,5*%
%TO.N,N/C*%
X186999999Y-100192499D03*
%TO.P,U8,6*%
X186999999Y-101462499D03*
%TO.P,U8,7*%
X186999999Y-102732499D03*
%TO.P,U8,8*%
X192199999Y-102732499D03*
%TO.P,U8,9*%
X192199999Y-101462499D03*
%TO.P,U8,10*%
X192199999Y-100192499D03*
%TO.P,U8,11,V-*%
%TO.N,-5V*%
X192199999Y-98922499D03*
%TO.P,U8,12*%
%TO.N,N/C*%
X192199999Y-97652499D03*
%TO.P,U8,13*%
X192199999Y-96382499D03*
%TO.P,U8,14*%
X192199999Y-95112499D03*
%TD*%
D14*
%TO.P,H1,1,1*%
%TO.N,0*%
X178000000Y-53000000D03*
%TD*%
%TO.P,H3,1,1*%
%TO.N,0*%
X236000000Y-111000000D03*
%TD*%
D15*
%TO.P,R22,1*%
%TO.N,Net-(R22-Pad1)*%
X211000000Y-106462500D03*
%TO.P,R22,2*%
%TO.N,Net-(R20-Pad1)*%
X209175000Y-106462500D03*
%TD*%
D12*
%TO.P,U2,1*%
%TO.N,Net-(R22-Pad1)*%
X199189999Y-99062499D03*
%TO.P,U2,2,-*%
%TO.N,AOP0IN+*%
X200459999Y-99062499D03*
%TO.P,U2,3,+*%
%TO.N,Net-(U2A-+)*%
X201729999Y-99062499D03*
%TO.P,U2,4,V+*%
%TO.N,+5V*%
X202999999Y-99062499D03*
%TO.P,U2,5*%
%TO.N,N/C*%
X204269999Y-99062499D03*
%TO.P,U2,6*%
X205539999Y-99062499D03*
%TO.P,U2,7*%
X206809999Y-99062499D03*
%TO.P,U2,8*%
X206809999Y-93862499D03*
%TO.P,U2,9*%
X205539999Y-93862499D03*
%TO.P,U2,10*%
X204269999Y-93862499D03*
%TO.P,U2,11,V-*%
%TO.N,-5V*%
X202999999Y-93862499D03*
%TO.P,U2,12*%
%TO.N,N/C*%
X201729999Y-93862499D03*
%TO.P,U2,13*%
X200459999Y-93862499D03*
%TO.P,U2,14*%
X199189999Y-93862499D03*
%TD*%
D14*
%TO.P,H4,1,1*%
%TO.N,0*%
X178000000Y-111000000D03*
%TD*%
D16*
%TO.P,R4,1*%
%TO.N,Net-(R22-Pad1)*%
X214175000Y-107375000D03*
%TO.P,R4,2*%
%TO.N,Net-(R23-Pad1)*%
X214175000Y-105550000D03*
%TD*%
D12*
%TO.P,U9,1*%
%TO.N,Net-(U9A-+)*%
X235809999Y-89862499D03*
%TO.P,U9,2,-*%
%TO.N,AOP2*%
X234539999Y-89862499D03*
%TO.P,U9,3,+*%
%TO.N,Net-(U9A-+)*%
X233269999Y-89862499D03*
%TO.P,U9,4,V+*%
%TO.N,+5V*%
X231999999Y-89862499D03*
%TO.P,U9,5*%
%TO.N,N/C*%
X230729999Y-89862499D03*
%TO.P,U9,6*%
X229459999Y-89862499D03*
%TO.P,U9,7*%
X228189999Y-89862499D03*
%TO.P,U9,8*%
X228189999Y-95062499D03*
%TO.P,U9,9*%
X229459999Y-95062499D03*
%TO.P,U9,10*%
X230729999Y-95062499D03*
%TO.P,U9,11,V-*%
%TO.N,-5V*%
X231999999Y-95062499D03*
%TO.P,U9,12*%
%TO.N,N/C*%
X233269999Y-95062499D03*
%TO.P,U9,13*%
X234539999Y-95062499D03*
%TO.P,U9,14*%
X235809999Y-95062499D03*
%TD*%
D14*
%TO.P,H2,1,1*%
%TO.N,0*%
X236000000Y-53000000D03*
%TD*%
D11*
%TO.P,R9,1*%
%TO.N,Net-(U8A--)*%
X214175000Y-101462500D03*
%TO.P,R9,2*%
%TO.N,Net-(U9A-+)*%
X214175000Y-103287500D03*
%TD*%
%TO.P,R8,1*%
%TO.N,Net-(U8A-+)*%
X181600000Y-102010000D03*
%TO.P,R8,2*%
%TO.N,Net-(U7A-+)*%
X181600000Y-103835000D03*
%TD*%
D17*
%TO.P,R21,1*%
%TO.N,AOP0IN+*%
X221437500Y-101375000D03*
%TO.P,R21,2*%
%TO.N,+12V*%
X223262500Y-101375000D03*
%TD*%
D18*
%TO.P,J2,1,Pin_1*%
%TO.N,1-ENTREE*%
X237000000Y-81962500D03*
D19*
%TO.P,J2,2,Pin_2*%
%TO.N,AOP0IN+*%
X236999999Y-79462499D03*
%TO.P,J2,3,Pin_3*%
%TO.N,2-ENTREE*%
X236999999Y-76962499D03*
%TO.P,J2,4,Pin_4*%
%TO.N,unconnected-(J2-Pin_4-Pad4)*%
X236999999Y-74462499D03*
%TO.P,J2,5,Pin_5*%
%TO.N,unconnected-(J2-Pin_5-Pad5)*%
X236999999Y-71962499D03*
%TD*%
D20*
%TO.P,J4,1,Pin_1*%
%TO.N,Net-(J4-Pin_1)*%
X208000000Y-77462500D03*
D21*
%TO.P,J4,2,Pin_2*%
%TO.N,Net-(J4-Pin_2)*%
X210000000Y-77462500D03*
%TO.P,J4,3,Pin_3*%
%TO.N,Net-(J4-Pin_3)*%
X208000000Y-75462500D03*
%TO.P,J4,4,Pin_4*%
%TO.N,Net-(J4-Pin_4)*%
X210000000Y-75462500D03*
%TO.P,J4,5,Pin_5*%
%TO.N,Net-(J4-Pin_5)*%
X208000000Y-73462500D03*
%TO.P,J4,6,Pin_6*%
%TO.N,Net-(J4-Pin_6)*%
X210000000Y-73462500D03*
%TO.P,J4,7,Pin_7*%
%TO.N,Net-(J4-Pin_7)*%
X208000000Y-71462500D03*
%TO.P,J4,8,Pin_8*%
%TO.N,Net-(J4-Pin_8)*%
X210000000Y-71462500D03*
%TO.P,J4,9,Pin_9*%
%TO.N,Net-(J4-Pin_9)*%
X208000000Y-69462500D03*
%TO.P,J4,10,Pin_10*%
%TO.N,Net-(J4-Pin_10)*%
X210000000Y-69462500D03*
%TO.P,J4,11,Pin_11*%
%TO.N,Net-(J4-Pin_11)*%
X208000000Y-67462500D03*
%TO.P,J4,12,Pin_12*%
%TO.N,Net-(J4-Pin_12)*%
X210000000Y-67462500D03*
%TO.P,J4,13,Pin_13*%
%TO.N,Net-(J4-Pin_13)*%
X208000000Y-65462500D03*
%TO.P,J4,14,Pin_14*%
%TO.N,Net-(J4-Pin_14)*%
X210000000Y-65462500D03*
%TO.P,J4,15,Pin_15*%
%TO.N,Net-(J4-Pin_15)*%
X208000000Y-63462500D03*
%TO.P,J4,16,Pin_16*%
%TO.N,Net-(J4-Pin_16)*%
X210000000Y-63462500D03*
%TD*%
D22*
%TO.P,J1,1,Pin_1*%
%TO.N,+5V*%
X178000000Y-71962500D03*
D19*
%TO.P,J1,2,Pin_2*%
%TO.N,0*%
X177999999Y-74462499D03*
%TO.P,J1,3,Pin_3*%
%TO.N,+5V*%
X177999999Y-76962499D03*
%TO.P,J1,4,Pin_4*%
%TO.N,+12V*%
X177999999Y-79462499D03*
%TO.P,J1,5,Pin_5*%
%TO.N,0*%
X177999999Y-81962499D03*
%TD*%
D16*
%TO.P,R23,1*%
%TO.N,Net-(R23-Pad1)*%
X218350000Y-103287500D03*
%TO.P,R23,2*%
%TO.N,AOP0IN+*%
X218350000Y-101462500D03*
%TD*%
D10*
%TO.P,U4,1,COM*%
%TO.N,AOP1*%
X195698895Y-67512499D03*
%TO.P,U4,2,I7*%
%TO.N,Net-(J4-Pin_9)*%
X196348895Y-67512499D03*
%TO.P,U4,3,I6*%
%TO.N,Net-(J4-Pin_8)*%
X196998895Y-67512499D03*
%TO.P,U4,4,I5*%
%TO.N,Net-(J4-Pin_7)*%
X197648895Y-67512499D03*
%TO.P,U4,5,I4*%
%TO.N,Net-(J4-Pin_6)*%
X198298895Y-67512499D03*
%TO.P,U4,6,I3*%
%TO.N,Net-(J4-Pin_5)*%
X198948895Y-67512499D03*
%TO.P,U4,7,I2*%
%TO.N,Net-(J4-Pin_4)*%
X199598895Y-67512499D03*
%TO.P,U4,8,I1*%
%TO.N,Net-(J4-Pin_3)*%
X200248895Y-67512499D03*
%TO.P,U4,9,I0*%
%TO.N,Net-(J4-Pin_2)*%
X200898895Y-67512499D03*
%TO.P,U4,10,S0*%
%TO.N,A4*%
X201548895Y-67512499D03*
%TO.P,U4,11,S1*%
%TO.N,B4*%
X202198895Y-67512499D03*
%TO.P,U4,12,GND*%
%TO.N,0*%
X202848895Y-67512499D03*
%TO.P,U4,13,S3*%
%TO.N,D4*%
X202848895Y-60312499D03*
%TO.P,U4,14,S2*%
%TO.N,C4*%
X202198895Y-60312499D03*
%TO.P,U4,15,~{E}*%
%TO.N,NE2*%
X201548895Y-60312499D03*
%TO.P,U4,16,I15*%
%TO.N,Net-(J4-Pin_1)*%
X200898895Y-60312499D03*
%TO.P,U4,17,I14*%
%TO.N,Net-(J4-Pin_16)*%
X200248895Y-60312499D03*
%TO.P,U4,18,I13*%
%TO.N,Net-(J4-Pin_15)*%
X199598895Y-60312499D03*
%TO.P,U4,19,I12*%
%TO.N,Net-(J4-Pin_14)*%
X198948895Y-60312499D03*
%TO.P,U4,20,I11*%
%TO.N,Net-(J4-Pin_13)*%
X198298895Y-60312499D03*
%TO.P,U4,21,I10*%
%TO.N,Net-(J4-Pin_12)*%
X197648895Y-60312499D03*
%TO.P,U4,22,I9*%
%TO.N,Net-(J4-Pin_11)*%
X196998895Y-60312499D03*
%TO.P,U4,23,I8*%
%TO.N,Net-(J4-Pin_10)*%
X196348895Y-60312499D03*
%TO.P,U4,24,VCC*%
%TO.N,+5V*%
X195698895Y-60312499D03*
%TD*%
D16*
%TO.P,R11,1*%
%TO.N,0*%
X210175000Y-103200000D03*
%TO.P,R11,2*%
%TO.N,Net-(U8A--)*%
X210175000Y-101375000D03*
%TD*%
D23*
%TO.P,J5,1,Pin_1*%
%TO.N,unconnected-(J5-Pin_1-Pad1)*%
X216000000Y-90462500D03*
D21*
%TO.P,J5,2,Pin_2*%
%TO.N,A1*%
X216000000Y-88462500D03*
%TO.P,J5,3,Pin_3*%
%TO.N,B1*%
X214000000Y-90462500D03*
%TO.P,J5,4,Pin_4*%
%TO.N,C1*%
X214000000Y-88462500D03*
%TO.P,J5,5,Pin_5*%
%TO.N,D1*%
X212000000Y-90462500D03*
%TO.P,J5,6,Pin_6*%
%TO.N,NE1*%
X212000000Y-88462500D03*
%TO.P,J5,7,Pin_7*%
%TO.N,unconnected-(J5-Pin_7-Pad7)*%
X210000000Y-90462500D03*
%TO.P,J5,8,Pin_8*%
%TO.N,A3*%
X210000000Y-88462500D03*
%TO.P,J5,9,Pin_9*%
%TO.N,B3*%
X208000000Y-90462500D03*
%TO.P,J5,10,Pin_10*%
%TO.N,C3*%
X208000000Y-88462500D03*
%TO.P,J5,11,Pin_11*%
%TO.N,D3*%
X206000000Y-90462500D03*
%TO.P,J5,12,Pin_12*%
%TO.N,unconnected-(J5-Pin_12-Pad12)*%
X206000000Y-88462500D03*
%TO.P,J5,13,Pin_13*%
%TO.N,A4*%
X204000000Y-90462500D03*
%TO.P,J5,14,Pin_14*%
%TO.N,B4*%
X204000000Y-88462500D03*
%TO.P,J5,15,Pin_15*%
%TO.N,C4*%
X202000000Y-90462500D03*
%TO.P,J5,16,Pin_16*%
%TO.N,D4*%
X202000000Y-88462500D03*
%TO.P,J5,17,Pin_17*%
%TO.N,NE2*%
X200000000Y-90462500D03*
%TO.P,J5,18,Pin_18*%
%TO.N,A2*%
X200000000Y-88462500D03*
%TO.P,J5,19,Pin_19*%
%TO.N,B2*%
X198000000Y-90462500D03*
%TO.P,J5,20,Pin_20*%
%TO.N,C2*%
X198000000Y-88462500D03*
%TO.P,J5,21,Pin_21*%
%TO.N,D2*%
X196000000Y-90462500D03*
%TO.P,J5,22,Pin_22*%
%TO.N,TRIOAOP1*%
X196000000Y-88462500D03*
%TO.P,J5,23,Pin_23*%
%TO.N,0*%
X194000000Y-90462500D03*
%TO.P,J5,24,Pin_24*%
X194000000Y-88462500D03*
%TD*%
D17*
%TO.P,R20,1*%
%TO.N,Net-(R20-Pad1)*%
X195175000Y-100000000D03*
%TO.P,R20,2*%
%TO.N,Net-(U2A-+)*%
X197000000Y-100000000D03*
%TD*%
D15*
%TO.P,R25,1*%
%TO.N,Net-(U2A-+)*%
X196912500Y-101462500D03*
%TO.P,R25,2*%
%TO.N,0*%
X195087500Y-101462500D03*
%TD*%
D24*
%TO.N,0*%
X228000000Y-80000000D03*
X232012299Y-76987701D03*
X196030097Y-81492597D03*
X198987701Y-80450201D03*
X200012299Y-76474799D03*
X203000000Y-69462500D03*
%TO.N,+5V*%
X212000000Y-59462500D03*
X226000000Y-83462500D03*
X184000000Y-99462500D03*
X215000000Y-71462500D03*
X216012299Y-64474799D03*
X202000000Y-105462500D03*
X189000000Y-99462500D03*
%TO.N,+12V*%
X185012299Y-93474799D03*
%TO.N,1-ENTREE*%
X225003797Y-81466297D03*
X216000000Y-79462500D03*
%TO.N,AOP0IN+*%
X221000000Y-98462500D03*
%TO.N,2-ENTREE*%
X230000000Y-64000000D03*
%TO.N,Net-(J4-Pin_1)*%
X230890812Y-55736307D03*
X221890812Y-83736307D03*
X190273896Y-82587002D03*
X202273896Y-57912500D03*
%TO.N,Net-(J4-Pin_2)*%
X189975469Y-83540913D03*
%TO.N,Net-(J4-Pin_3)*%
X193017798Y-83480298D03*
%TO.N,Net-(J4-Pin_4)*%
X187920327Y-83515401D03*
%TO.N,Net-(J4-Pin_5)*%
X201192445Y-76654945D03*
X196000000Y-84462500D03*
X200344100Y-80631302D03*
%TO.N,Net-(J4-Pin_7)*%
X202476935Y-65588000D03*
X199066341Y-65528841D03*
X186000000Y-83462500D03*
%TO.N,Net-(J4-Pin_8)*%
X193275500Y-68935494D03*
X202775483Y-64634127D03*
X199870680Y-64742247D03*
%TO.N,Net-(J4-Pin_9)*%
X186273896Y-76912500D03*
X200577435Y-64017747D03*
X217890812Y-76736307D03*
X224890812Y-68736307D03*
X202476935Y-63632804D03*
X194273896Y-70912500D03*
%TO.N,Net-(J4-Pin_10)*%
X203987701Y-61987701D03*
X205764055Y-65523945D03*
X193000000Y-58462500D03*
%TO.N,Net-(J4-Pin_12)*%
X196849475Y-56588427D03*
X197723396Y-58462500D03*
%TO.N,Net-(J4-Pin_13)*%
X197988344Y-57498755D03*
X196982146Y-55439416D03*
%TO.N,Net-(J4-Pin_14)*%
X197747584Y-54714916D03*
X198937983Y-57187000D03*
%TO.N,Net-(J4-Pin_15)*%
X198076425Y-53771057D03*
X199934329Y-57266360D03*
%TO.N,Net-(J4-Pin_16)*%
X204110996Y-54351504D03*
X200247266Y-58339207D03*
%TO.N,C1*%
X223853561Y-69748959D03*
%TO.N,D1*%
X224094609Y-71557109D03*
%TO.N,NE1*%
X221000000Y-70462500D03*
%TO.N,A3*%
X220000000Y-90000000D03*
X229987701Y-80987701D03*
%TO.N,B3*%
X233000000Y-79000000D03*
%TO.N,C3*%
X232000000Y-81000000D03*
%TO.N,D3*%
X234000000Y-81000000D03*
%TO.N,C4*%
X204456242Y-69596045D03*
X205000000Y-72000000D03*
%TO.N,D4*%
X203725500Y-86000000D03*
X203000000Y-74000000D03*
X205825500Y-69996038D03*
X203000000Y-80187000D03*
%TO.N,NE2*%
X183000000Y-82462500D03*
X184924381Y-76587583D03*
X191651000Y-70462500D03*
%TO.N,A2*%
X203725500Y-76288000D03*
X201000000Y-70462500D03*
%TO.N,B2*%
X202102412Y-76241465D03*
X203000000Y-71462500D03*
%TO.N,C2*%
X192101000Y-72109994D03*
%TO.N,D2*%
X194000000Y-73462500D03*
%TO.N,TRIOAOP1*%
X190000000Y-93462500D03*
%TO.N,Net-(R22-Pad1)*%
X211000000Y-104462500D03*
X199000000Y-100738000D03*
%TO.N,Net-(U7A-+)*%
X183000000Y-105462500D03*
X206000000Y-105462500D03*
%TO.N,Net-(U8A--)*%
X210000000Y-99462500D03*
X197000000Y-96462500D03*
%TO.N,Net-(R20-Pad1)*%
X209000000Y-105000000D03*
X194000000Y-100000000D03*
%TO.N,-5V*%
X230000000Y-97462500D03*
X208000000Y-95462500D03*
%TO.N,AOP1*%
X186000000Y-110462500D03*
X187000000Y-90462500D03*
X194849649Y-69312149D03*
X206400000Y-110462500D03*
%TO.N,AOP2*%
X222000000Y-86462500D03*
X189000000Y-85462500D03*
%TD*%
D25*
%TO.N,0*%
X203000000Y-69462500D02*
X202848896Y-69311396D01*
X202848896Y-69311396D02*
X202848896Y-67512500D01*
X195650000Y-81112500D02*
X196000000Y-81462500D01*
X231890812Y-76866214D02*
X232012299Y-76987701D01*
X198987701Y-80450201D02*
X200012299Y-79425603D01*
X231890812Y-65736307D02*
X231890812Y-76866214D01*
X191773896Y-81112500D02*
X195650000Y-81112500D01*
X196000000Y-81462500D02*
X196030097Y-81492597D01*
X224802119Y-80000000D02*
X223465812Y-81336307D01*
X200012299Y-79425603D02*
X200012299Y-76474799D01*
X228000000Y-80000000D02*
X224802119Y-80000000D01*
%TO.N,+5V*%
X179500000Y-73462500D02*
X184173896Y-73462500D01*
X197391138Y-53046057D02*
X205583557Y-53046057D01*
X215315812Y-71462500D02*
X216315812Y-72462500D01*
X215000000Y-71462500D02*
X215315812Y-71462500D01*
X216315812Y-64778312D02*
X216315812Y-66462500D01*
X202540000Y-104922500D02*
X202000000Y-105462500D01*
X232000000Y-89862500D02*
X232000000Y-89062500D01*
X187540000Y-99462500D02*
X187000000Y-98922500D01*
X223090812Y-58536307D02*
X224740812Y-58536307D01*
X216315812Y-72462500D02*
X216315812Y-66462500D01*
X192275000Y-58762805D02*
X192275000Y-58162195D01*
X226400000Y-83462500D02*
X226000000Y-83462500D01*
X192275000Y-58162195D02*
X197391138Y-53046057D01*
X203000000Y-102802500D02*
X202540000Y-103262500D01*
X184173896Y-73462500D02*
X184623896Y-73912500D01*
X202540000Y-103262500D02*
X202540000Y-104922500D01*
X178000000Y-76912500D02*
X178450000Y-76462500D01*
X203000000Y-99062500D02*
X203000000Y-102802500D01*
X187000000Y-98922500D02*
X184540000Y-98922500D01*
X178000000Y-71962500D02*
X179500000Y-73462500D01*
X184540000Y-98922500D02*
X184000000Y-99462500D01*
X205583557Y-53046057D02*
X212000000Y-59462500D01*
X216315812Y-65311307D02*
X223090812Y-58536307D01*
X178000000Y-76962500D02*
X178000000Y-76912500D01*
X189000000Y-99462500D02*
X187540000Y-99462500D01*
X195698896Y-60312500D02*
X193824695Y-60312500D01*
X232000000Y-89062500D02*
X226400000Y-83462500D01*
X216315812Y-74136307D02*
X216315812Y-72462500D01*
X216012299Y-64474799D02*
X216315812Y-64778312D01*
X184623896Y-69562500D02*
X193873896Y-60312500D01*
X193824695Y-60312500D02*
X192275000Y-58762805D01*
X184623896Y-73912500D02*
X184623896Y-69562500D01*
X216315812Y-66462500D02*
X216315812Y-65311307D01*
X193873896Y-60312500D02*
X195698896Y-60312500D01*
%TO.N,+12V*%
X220750305Y-97187500D02*
X211187500Y-97187500D01*
X188737701Y-93474799D02*
X185012299Y-93474799D01*
X207435000Y-93435000D02*
X207435000Y-92437500D01*
X190375000Y-91837500D02*
X188737701Y-93474799D01*
X211187500Y-97187500D02*
X207435000Y-93435000D01*
X206835000Y-91837500D02*
X190375000Y-91837500D01*
X223262500Y-101375000D02*
X223262500Y-99699695D01*
X223262500Y-99699695D02*
X220750305Y-97187500D01*
X207435000Y-92437500D02*
X206835000Y-91837500D01*
%TO.N,1-ENTREE*%
X216000000Y-81020495D02*
X216315812Y-81336307D01*
X237000000Y-81962500D02*
X225500000Y-81962500D01*
X216000000Y-79462500D02*
X216000000Y-81020495D01*
X225500000Y-81962500D02*
X225003797Y-81466297D01*
%TO.N,AOP0IN+*%
X214525000Y-97637500D02*
X218350000Y-101462500D01*
X200460000Y-99062500D02*
X200460000Y-98262500D01*
X200460000Y-98262500D02*
X201085000Y-97637500D01*
X221000000Y-100937500D02*
X221000000Y-98462500D01*
X221437500Y-101375000D02*
X221000000Y-100937500D01*
X221437500Y-101375000D02*
X218437500Y-101375000D01*
X218437500Y-101375000D02*
X218350000Y-101462500D01*
X201085000Y-97637500D02*
X214525000Y-97637500D01*
%TO.N,2-ENTREE*%
X225000000Y-64462500D02*
X224740812Y-64721688D01*
X230000000Y-64000000D02*
X229537500Y-64462500D01*
X229537500Y-64462500D02*
X225000000Y-64462500D01*
X224740812Y-64721688D02*
X224740812Y-65736307D01*
%TO.N,Net-(J4-Pin_1)*%
X202273896Y-57912500D02*
X200898896Y-59287500D01*
X189823896Y-82137002D02*
X189823896Y-81112500D01*
X208000000Y-77462500D02*
X208000000Y-80462500D01*
X230890812Y-55736307D02*
X229940812Y-56686307D01*
X208000000Y-80462500D02*
X213000000Y-85462500D01*
X190273896Y-82587002D02*
X189823896Y-82137002D01*
X221515812Y-81336307D02*
X221515812Y-83361307D01*
X229940812Y-56686307D02*
X229940812Y-58536307D01*
X200898896Y-59287500D02*
X200898896Y-60312500D01*
X213000000Y-85462500D02*
X220164619Y-85462500D01*
X220164619Y-85462500D02*
X221890812Y-83736307D01*
X221515812Y-83361307D02*
X221890812Y-83736307D01*
%TO.N,Net-(J4-Pin_2)*%
X225350000Y-78186307D02*
X229940812Y-73595495D01*
X191248896Y-77912500D02*
X195550000Y-77912500D01*
X229940812Y-73595495D02*
X229940812Y-65736307D01*
X195550000Y-77912500D02*
X200073896Y-73388604D01*
X189173896Y-82739340D02*
X189173896Y-81112500D01*
X200073896Y-73388604D02*
X200073896Y-69271688D01*
X189173896Y-79987500D02*
X191248896Y-77912500D01*
X219450000Y-85012500D02*
X220865812Y-83596688D01*
X210000000Y-77462500D02*
X210000000Y-81826104D01*
X220865812Y-80397703D02*
X223077208Y-78186307D01*
X189173896Y-81112500D02*
X189173896Y-79987500D01*
X213186396Y-85012500D02*
X219450000Y-85012500D01*
X223077208Y-78186307D02*
X225350000Y-78186307D01*
X210000000Y-81826104D02*
X213186396Y-85012500D01*
X200898896Y-68446688D02*
X200898896Y-67512500D01*
X220865812Y-81336307D02*
X220865812Y-80397703D01*
X200073896Y-69271688D02*
X200898896Y-68446688D01*
X220865812Y-83596688D02*
X220865812Y-81336307D01*
X189975469Y-83540913D02*
X189173896Y-82739340D01*
%TO.N,Net-(J4-Pin_3)*%
X220215812Y-80411307D02*
X222890812Y-77736307D01*
X192556879Y-83941217D02*
X193017798Y-83480298D01*
X209075000Y-76537500D02*
X210383148Y-76537500D01*
X222890812Y-77736307D02*
X225163604Y-77736307D01*
X192556879Y-84265913D02*
X189675164Y-84265913D01*
X192556879Y-84265913D02*
X192556879Y-83941217D01*
X220215812Y-81336307D02*
X220215812Y-80411307D01*
X199623896Y-73200552D02*
X199623896Y-69085292D01*
X189000000Y-79497792D02*
X191035292Y-77462500D01*
X200248896Y-68460292D02*
X200248896Y-67512500D01*
X188523896Y-83114645D02*
X188523896Y-81112500D01*
X189000000Y-79525000D02*
X189000000Y-79497792D01*
X188523896Y-81112500D02*
X188523896Y-80001104D01*
X219363604Y-84462500D02*
X220215812Y-83610292D01*
X210383148Y-76537500D02*
X211000000Y-77154352D01*
X213272792Y-84462500D02*
X219363604Y-84462500D01*
X211000000Y-77154352D02*
X211000000Y-82189708D01*
X225163604Y-77736307D02*
X229290812Y-73609099D01*
X199623896Y-69085292D02*
X200248896Y-68460292D01*
X220215812Y-83610292D02*
X220215812Y-81336307D01*
X211000000Y-82189708D02*
X213272792Y-84462500D01*
X189675164Y-84265913D02*
X188523896Y-83114645D01*
X229290812Y-73609099D02*
X229290812Y-65736307D01*
X191035292Y-77462500D02*
X195361948Y-77462500D01*
X195361948Y-77462500D02*
X199623896Y-73200552D01*
X208000000Y-75462500D02*
X209075000Y-76537500D01*
X188523896Y-80001104D02*
X189000000Y-79525000D01*
%TO.N,Net-(J4-Pin_4)*%
X190948896Y-76912500D02*
X195273896Y-76912500D01*
X228440812Y-72736307D02*
X228640812Y-72536307D01*
X199173896Y-68898896D02*
X199598896Y-68473896D01*
X199598896Y-68473896D02*
X199598896Y-67512500D01*
X222713604Y-77186307D02*
X225077208Y-77186307D01*
X187920327Y-83515401D02*
X187920327Y-81158931D01*
X225077208Y-77186307D02*
X228440812Y-73822703D01*
X210000000Y-75462500D02*
X211450000Y-76912500D01*
X211450000Y-76912500D02*
X211450000Y-82003312D01*
X213459188Y-84012500D02*
X219177208Y-84012500D01*
X211450000Y-82003312D02*
X213459188Y-84012500D01*
X187920327Y-81158931D02*
X187873896Y-81112500D01*
X219177208Y-84012500D02*
X219565812Y-83623896D01*
X195273896Y-76912500D02*
X199173896Y-73012500D01*
X187873896Y-79987500D02*
X190948896Y-76912500D01*
X219565812Y-83623896D02*
X219565812Y-81336307D01*
X228440812Y-73822703D02*
X228440812Y-72736307D01*
X199173896Y-73012500D02*
X199173896Y-68898896D01*
X219565812Y-80334099D02*
X222713604Y-77186307D01*
X219565812Y-81336307D02*
X219565812Y-80334099D01*
X187873896Y-81112500D02*
X187873896Y-79987500D01*
X228640812Y-72536307D02*
X228640812Y-65736307D01*
%TO.N,Net-(J4-Pin_5)*%
X187223896Y-82238604D02*
X187223896Y-81112500D01*
X222527208Y-76736307D02*
X224890812Y-76736307D01*
X218915812Y-82546688D02*
X218915812Y-81336307D01*
X210383148Y-74537500D02*
X211900000Y-76054352D01*
X201192445Y-79270055D02*
X201192445Y-76654945D01*
X195087500Y-76462500D02*
X198723896Y-72826104D01*
X198723896Y-72826104D02*
X198723896Y-68712500D01*
X227990812Y-73636307D02*
X227990812Y-65736307D01*
X208000000Y-73462500D02*
X209075000Y-74537500D01*
X190748896Y-76462500D02*
X195087500Y-76462500D01*
X187223896Y-79987500D02*
X190748896Y-76462500D01*
X200344100Y-80118400D02*
X201192445Y-79270055D01*
X213645584Y-83562500D02*
X217900000Y-83562500D01*
X198723896Y-68712500D02*
X198948896Y-68487500D01*
X217900000Y-83562500D02*
X218915812Y-82546688D01*
X211900000Y-76054352D02*
X211900000Y-81816916D01*
X187000000Y-82462500D02*
X187223896Y-82238604D01*
X187223896Y-81112500D02*
X187223896Y-79987500D01*
X209075000Y-74537500D02*
X210383148Y-74537500D01*
X224890812Y-76736307D02*
X227990812Y-73636307D01*
X200344100Y-80631302D02*
X200344100Y-80118400D01*
X211900000Y-81816916D02*
X213645584Y-83562500D01*
X196000000Y-84462500D02*
X195746587Y-84715913D01*
X187000000Y-83620379D02*
X187000000Y-82462500D01*
X195746587Y-84715913D02*
X188095534Y-84715913D01*
X198948896Y-68487500D02*
X198948896Y-67512500D01*
X218915812Y-81336307D02*
X218915812Y-80347703D01*
X188095534Y-84715913D02*
X187000000Y-83620379D01*
X218915812Y-80347703D02*
X222527208Y-76736307D01*
%TO.N,Net-(J4-Pin_6)*%
X209363604Y-73462500D02*
X208288604Y-72387500D01*
X218265812Y-81336307D02*
X218265812Y-80361307D01*
X227340812Y-72636307D02*
X227340812Y-65736307D01*
X203661701Y-69826104D02*
X203725000Y-69762805D01*
X206024805Y-71275000D02*
X205110597Y-71275000D01*
X203197837Y-66312500D02*
X198398896Y-66312500D01*
X212350000Y-81630520D02*
X213831980Y-83112500D01*
X208288604Y-72387500D02*
X206362305Y-72387500D01*
X203398896Y-68712500D02*
X203398896Y-66111441D01*
X206449500Y-72300305D02*
X206449500Y-71699695D01*
X217713604Y-83112500D02*
X218265812Y-82560292D01*
X194901104Y-76012500D02*
X198273896Y-72639708D01*
X198398896Y-66312500D02*
X198298896Y-66412500D01*
X224345406Y-76279505D02*
X227240812Y-73384099D01*
X206362305Y-72387500D02*
X206449500Y-72300305D01*
X190548896Y-76012500D02*
X194901104Y-76012500D01*
X212350000Y-75812500D02*
X212350000Y-81630520D01*
X198273896Y-67537500D02*
X198298896Y-67512500D01*
X198298896Y-66412500D02*
X198298896Y-67512500D01*
X222347614Y-76279505D02*
X224345406Y-76279505D01*
X218265812Y-80361307D02*
X222347614Y-76279505D01*
X203398896Y-66111441D02*
X203197837Y-66312500D01*
X218265812Y-82560292D02*
X218265812Y-81336307D01*
X210000000Y-73462500D02*
X209363604Y-73462500D01*
X213831980Y-83112500D02*
X217713604Y-83112500D01*
X203725000Y-69762805D02*
X203725000Y-69038604D01*
X205110597Y-71275000D02*
X203661701Y-69826104D01*
X203725000Y-69038604D02*
X203398896Y-68712500D01*
X186573896Y-81112500D02*
X186573896Y-79987500D01*
X198273896Y-72639708D02*
X198273896Y-67537500D01*
X227240812Y-72736307D02*
X227340812Y-72636307D01*
X210000000Y-73462500D02*
X212350000Y-75812500D01*
X227240812Y-73384099D02*
X227240812Y-72736307D01*
X206449500Y-71699695D02*
X206024805Y-71275000D01*
X186573896Y-79987500D02*
X190548896Y-76012500D01*
%TO.N,Net-(J4-Pin_7)*%
X194623896Y-75562500D02*
X197648896Y-72537500D01*
X208000000Y-71462500D02*
X209075000Y-72537500D01*
X202412000Y-65588000D02*
X202137500Y-65862500D01*
X217615812Y-80197703D02*
X221984010Y-75829505D01*
X185923896Y-80001104D02*
X190362500Y-75562500D01*
X202476935Y-65588000D02*
X202412000Y-65588000D01*
X224159010Y-75829505D02*
X226790812Y-73197703D01*
X226790812Y-73197703D02*
X226790812Y-65736307D01*
X212800000Y-74954352D02*
X212800000Y-81262500D01*
X185923896Y-81112500D02*
X185923896Y-80001104D01*
X226790812Y-65736307D02*
X226690812Y-65736307D01*
X201862500Y-65862500D02*
X201467247Y-65467247D01*
X201467247Y-65467247D02*
X199004747Y-65467247D01*
X210383148Y-72537500D02*
X212800000Y-74954352D01*
X209075000Y-72537500D02*
X210383148Y-72537500D01*
X190362500Y-75562500D02*
X194623896Y-75562500D01*
X185923896Y-83386396D02*
X185923896Y-81112500D01*
X202137500Y-65862500D02*
X201862500Y-65862500D01*
X199004747Y-65467247D02*
X199066341Y-65528841D01*
X197648896Y-72537500D02*
X197648896Y-67512500D01*
X217615812Y-81336307D02*
X217615812Y-80197703D01*
X217615812Y-82461307D02*
X217615812Y-81336307D01*
X221984010Y-75829505D02*
X224159010Y-75829505D01*
X212800000Y-81262500D02*
X214073807Y-82536307D01*
X214073807Y-82536307D02*
X217540812Y-82536307D01*
X186000000Y-83462500D02*
X185923896Y-83386396D01*
X217540812Y-82536307D02*
X217615812Y-82461307D01*
%TO.N,Net-(J4-Pin_8)*%
X190148896Y-75112500D02*
X194437500Y-75112500D01*
X210000000Y-71462500D02*
X216965812Y-78428312D01*
X224890812Y-74461307D02*
X224890812Y-73736307D01*
X196998896Y-70462500D02*
X196998896Y-67512500D01*
X202667363Y-64742247D02*
X199870680Y-64742247D01*
X185273896Y-79987500D02*
X190148896Y-75112500D01*
X216965812Y-78428312D02*
X216965812Y-80211307D01*
X226040812Y-72586307D02*
X226040812Y-65736307D01*
X216965812Y-81336307D02*
X216965812Y-80211307D01*
X195823896Y-71637500D02*
X196998896Y-70462500D01*
X193275500Y-68935494D02*
X193275500Y-70939409D01*
X194437500Y-75112500D02*
X196998896Y-72551104D01*
X224890812Y-73736307D02*
X226040812Y-72586307D01*
X185273896Y-81112500D02*
X185273896Y-79987500D01*
X193275500Y-70939409D02*
X193973591Y-71637500D01*
X196998896Y-72551104D02*
X196998896Y-70462500D01*
X216965812Y-80211307D02*
X221840812Y-75336307D01*
X193973591Y-71637500D02*
X195823896Y-71637500D01*
X224015812Y-75336307D02*
X224890812Y-74461307D01*
X202775483Y-64634127D02*
X202667363Y-64742247D01*
X221840812Y-75336307D02*
X224015812Y-75336307D01*
%TO.N,Net-(J4-Pin_9)*%
X209075000Y-70537500D02*
X211075000Y-70537500D01*
X202476935Y-63632804D02*
X202091992Y-64017747D01*
X196273896Y-68912500D02*
X196273896Y-67587500D01*
X216965812Y-75811307D02*
X217890812Y-76736307D01*
X216965812Y-74136307D02*
X216965812Y-75462500D01*
X211075000Y-70537500D02*
X215873807Y-75336307D01*
X196273896Y-67587500D02*
X196348896Y-67512500D01*
X194273896Y-70912500D02*
X196273896Y-68912500D01*
X216865812Y-75336307D02*
X216965812Y-75236307D01*
X216965812Y-75236307D02*
X216965812Y-75462500D01*
X208000000Y-69462500D02*
X209075000Y-70537500D01*
X216965812Y-75462500D02*
X216965812Y-75811307D01*
X185273896Y-75912500D02*
X186273896Y-76912500D01*
X225390812Y-68236307D02*
X225390812Y-65736307D01*
X215873807Y-75336307D02*
X216865812Y-75336307D01*
X185273896Y-73912500D02*
X185273896Y-75912500D01*
X202091992Y-64017747D02*
X200577435Y-64017747D01*
X224890812Y-68736307D02*
X225390812Y-68236307D01*
%TO.N,Net-(J4-Pin_10)*%
X203987701Y-61987701D02*
X204550000Y-62550000D01*
X217615812Y-74136307D02*
X217615812Y-73036307D01*
X196348896Y-59212500D02*
X196348896Y-60312500D01*
X205764055Y-65135743D02*
X205764055Y-65523945D01*
X195598896Y-58462500D02*
X196348896Y-59212500D01*
X204550000Y-62550000D02*
X204550000Y-63921688D01*
X225390812Y-59636307D02*
X225390812Y-58536307D01*
X192910292Y-61912500D02*
X195848896Y-61912500D01*
X208288604Y-68387500D02*
X207616852Y-68387500D01*
X210000000Y-69462500D02*
X209363604Y-69462500D01*
X185923896Y-68898896D02*
X192910292Y-61912500D01*
X185923896Y-73912500D02*
X185923896Y-68898896D01*
X205764055Y-66534703D02*
X205764055Y-65523945D01*
X222709010Y-59736307D02*
X225290812Y-59736307D01*
X217000000Y-65445317D02*
X222709010Y-59736307D01*
X193000000Y-58462500D02*
X195598896Y-58462500D01*
X209363604Y-69462500D02*
X208288604Y-68387500D01*
X195848896Y-61912500D02*
X196348896Y-61412500D01*
X217000000Y-72420495D02*
X217000000Y-65445317D01*
X196348896Y-61412500D02*
X196348896Y-60312500D01*
X217615812Y-73036307D02*
X217000000Y-72420495D01*
X225390812Y-57436307D02*
X225390812Y-58536307D01*
X210000000Y-69462500D02*
X222126193Y-57336307D01*
X207616852Y-68387500D02*
X205764055Y-66534703D01*
X225290812Y-57336307D02*
X225390812Y-57436307D01*
X222126193Y-57336307D02*
X225290812Y-57336307D01*
X204550000Y-63921688D02*
X205764055Y-65135743D01*
X225290812Y-59736307D02*
X225390812Y-59636307D01*
%TO.N,Net-(J4-Pin_11)*%
X205000000Y-63735292D02*
X205000000Y-58856097D01*
X186373896Y-72587500D02*
X186373896Y-69085292D01*
X196073896Y-62362500D02*
X196998896Y-61437500D01*
X208000000Y-67462500D02*
X209075000Y-68537500D01*
X210288604Y-68537500D02*
X221939797Y-56886307D01*
X209075000Y-68537500D02*
X210288604Y-68537500D01*
X218265812Y-73049911D02*
X217450000Y-72234099D01*
X221939797Y-56886307D02*
X225477208Y-56886307D01*
X217450000Y-72234099D02*
X217450000Y-65631713D01*
X196998896Y-57463604D02*
X196998896Y-60312500D01*
X206550000Y-66012500D02*
X206550000Y-65285292D01*
X225477208Y-56886307D02*
X226040812Y-57449911D01*
X226040812Y-57449911D02*
X226040812Y-58536307D01*
X222895406Y-60186307D02*
X225502208Y-60186307D01*
X196998896Y-61437500D02*
X196998896Y-60312500D01*
X186373896Y-69085292D02*
X193096688Y-62362500D01*
X205000000Y-58856097D02*
X202606403Y-56462500D01*
X208000000Y-67462500D02*
X206550000Y-66012500D01*
X202606403Y-56462500D02*
X198000000Y-56462500D01*
X186573896Y-72787500D02*
X186373896Y-72587500D01*
X198000000Y-56462500D02*
X196998896Y-57463604D01*
X186573896Y-73912500D02*
X186573896Y-72787500D01*
X193096688Y-62362500D02*
X196073896Y-62362500D01*
X217450000Y-65631713D02*
X222895406Y-60186307D01*
X225502208Y-60186307D02*
X226040812Y-59647703D01*
X218265812Y-74136307D02*
X218265812Y-73049911D01*
X226040812Y-59647703D02*
X226040812Y-58536307D01*
X206550000Y-65285292D02*
X205000000Y-63735292D01*
%TO.N,Net-(J4-Pin_12)*%
X197723396Y-60238000D02*
X197648896Y-60312500D01*
X223081802Y-60636307D02*
X225688604Y-60636307D01*
X218000000Y-65718109D02*
X223081802Y-60636307D01*
X193273896Y-62912500D02*
X196173896Y-62912500D01*
X225663604Y-56436307D02*
X226690812Y-57463515D01*
X210000000Y-67462500D02*
X221026193Y-56436307D01*
X208233148Y-66387500D02*
X207616852Y-66387500D01*
X207000000Y-65770648D02*
X207000000Y-65098896D01*
X218000000Y-72147703D02*
X218000000Y-65718109D01*
X207616852Y-66387500D02*
X207000000Y-65770648D01*
X225688604Y-60636307D02*
X226690812Y-59634099D01*
X221026193Y-56436307D02*
X225663604Y-56436307D01*
X202792799Y-56012500D02*
X197425402Y-56012500D01*
X207000000Y-65098896D02*
X205550000Y-63648896D01*
X187223896Y-68962500D02*
X193273896Y-62912500D01*
X210000000Y-67462500D02*
X209308148Y-67462500D01*
X187223896Y-73912500D02*
X187223896Y-68962500D01*
X197723396Y-58462500D02*
X197723396Y-60238000D01*
X226690812Y-57463515D02*
X226690812Y-58536307D01*
X226690812Y-59634099D02*
X226690812Y-58536307D01*
X197425402Y-56012500D02*
X196849475Y-56588427D01*
X218915812Y-74136307D02*
X218915812Y-73063515D01*
X218915812Y-73063515D02*
X218000000Y-72147703D01*
X196173896Y-62912500D02*
X197648896Y-61437500D01*
X205550000Y-63648896D02*
X205550000Y-58769701D01*
X209308148Y-67462500D02*
X208233148Y-66387500D01*
X205550000Y-58769701D02*
X202792799Y-56012500D01*
X197648896Y-61437500D02*
X197648896Y-60312500D01*
%TO.N,Net-(J4-Pin_13)*%
X208000000Y-65462500D02*
X209000000Y-66462500D01*
X227340812Y-59636307D02*
X227340812Y-58536307D01*
X206000000Y-63462500D02*
X206000000Y-58537899D01*
X193823896Y-63362500D02*
X196360292Y-63362500D01*
X198448396Y-57958807D02*
X198448396Y-58762805D01*
X197988344Y-57498755D02*
X198448396Y-57958807D01*
X225890812Y-61086307D02*
X227340812Y-59636307D01*
X219565812Y-74136307D02*
X219565812Y-73077119D01*
X210363604Y-66462500D02*
X220839797Y-55986307D01*
X198273896Y-60337500D02*
X198298896Y-60312500D01*
X198448396Y-58762805D02*
X198298896Y-58912305D01*
X225850000Y-55986307D02*
X227340812Y-57477119D01*
X202901517Y-55439416D02*
X196982146Y-55439416D01*
X219565812Y-73077119D02*
X218450000Y-71961307D01*
X198298896Y-58912305D02*
X198298896Y-60312500D01*
X218450000Y-71961307D02*
X218450000Y-65904505D01*
X209000000Y-66462500D02*
X210363604Y-66462500D01*
X198273896Y-61448896D02*
X198273896Y-60337500D01*
X187873896Y-69312500D02*
X193823896Y-63362500D01*
X218450000Y-65904505D02*
X223268198Y-61086307D01*
X206000000Y-58537899D02*
X202901517Y-55439416D01*
X227340812Y-57477119D02*
X227340812Y-58536307D01*
X223268198Y-61086307D02*
X225890812Y-61086307D01*
X187873896Y-73912500D02*
X187873896Y-69312500D01*
X208000000Y-65462500D02*
X206000000Y-63462500D01*
X196360292Y-63362500D02*
X198273896Y-61448896D01*
X220839797Y-55986307D02*
X225850000Y-55986307D01*
%TO.N,Net-(J4-Pin_14)*%
X226073807Y-55536307D02*
X227990812Y-57453312D01*
X188523896Y-69298896D02*
X193910292Y-63912500D01*
X227990812Y-57453312D02*
X227990812Y-58536307D01*
X220215812Y-74136307D02*
X220215812Y-73090723D01*
X223454594Y-61536307D02*
X226090812Y-61536307D01*
X198937983Y-57187000D02*
X198948896Y-57197913D01*
X219926193Y-55536307D02*
X226073807Y-55536307D01*
X210000000Y-65462500D02*
X209363604Y-65462500D01*
X219000000Y-65990901D02*
X223454594Y-61536307D01*
X219000000Y-71874911D02*
X219000000Y-65990901D01*
X196473896Y-63912500D02*
X198948896Y-61437500D01*
X202813413Y-54714916D02*
X197747584Y-54714916D01*
X220215812Y-73090723D02*
X219000000Y-71874911D01*
X198948896Y-61437500D02*
X198948896Y-60312500D01*
X209363604Y-65462500D02*
X208363604Y-64462500D01*
X208363604Y-64462500D02*
X207636396Y-64462500D01*
X188523896Y-73912500D02*
X188523896Y-69298896D01*
X198948896Y-57197913D02*
X198948896Y-60312500D01*
X210000000Y-65462500D02*
X219926193Y-55536307D01*
X207636396Y-64462500D02*
X206550000Y-63376104D01*
X206550000Y-58451503D02*
X202813413Y-54714916D01*
X227990812Y-59636307D02*
X227990812Y-58536307D01*
X226090812Y-61536307D02*
X227990812Y-59636307D01*
X193910292Y-63912500D02*
X196473896Y-63912500D01*
X206550000Y-63376104D02*
X206550000Y-58451503D01*
%TO.N,Net-(J4-Pin_15)*%
X219450000Y-66177119D02*
X223640812Y-61986307D01*
X202505950Y-53771057D02*
X198076425Y-53771057D01*
X189173896Y-69285292D02*
X194096688Y-64362500D01*
X199398896Y-58462500D02*
X199598896Y-58662500D01*
X207000000Y-58265107D02*
X202505950Y-53771057D01*
X210363604Y-64462500D02*
X219739797Y-55086307D01*
X226315812Y-61986307D02*
X228640812Y-59661307D01*
X223640812Y-61986307D02*
X226315812Y-61986307D01*
X199598896Y-61423896D02*
X199598896Y-60312500D01*
X220865812Y-74136307D02*
X220865812Y-73104327D01*
X199398896Y-57801793D02*
X199398896Y-58462500D01*
X199934329Y-57266360D02*
X199398896Y-57801793D01*
X199598896Y-58662500D02*
X199598896Y-60312500D01*
X207000000Y-62462500D02*
X207000000Y-58265107D01*
X208000000Y-63462500D02*
X209000000Y-64462500D01*
X228640812Y-59661307D02*
X228640812Y-58536307D01*
X220865812Y-73104327D02*
X219450000Y-71688515D01*
X226750000Y-55086307D02*
X228640812Y-56977119D01*
X208000000Y-63462500D02*
X207000000Y-62462500D01*
X219739797Y-55086307D02*
X226750000Y-55086307D01*
X189173896Y-73912500D02*
X189173896Y-69285292D01*
X209000000Y-64462500D02*
X210363604Y-64462500D01*
X228640812Y-56977119D02*
X228640812Y-58536307D01*
X194096688Y-64362500D02*
X196660292Y-64362500D01*
X196660292Y-64362500D02*
X199598896Y-61423896D01*
X219450000Y-71688515D02*
X219450000Y-66177119D01*
%TO.N,Net-(J4-Pin_16)*%
X196748896Y-64912500D02*
X200248896Y-61412500D01*
X221515812Y-74136307D02*
X221515812Y-73117931D01*
X229290812Y-56990723D02*
X229290812Y-58536307D01*
X200247266Y-60310870D02*
X200248896Y-60312500D01*
X220000000Y-71602119D02*
X220000000Y-66263515D01*
X200248896Y-61412500D02*
X200248896Y-60312500D01*
X220000000Y-66263515D02*
X223827208Y-62436307D01*
X194273896Y-64912500D02*
X196748896Y-64912500D01*
X226936396Y-54636307D02*
X229290812Y-56990723D01*
X223827208Y-62436307D02*
X226502208Y-62436307D01*
X189823896Y-73912500D02*
X189823896Y-69362500D01*
X218826193Y-54636307D02*
X226936396Y-54636307D01*
X226502208Y-62436307D02*
X229290812Y-59647703D01*
X221515812Y-73117931D02*
X220000000Y-71602119D01*
X229290812Y-59647703D02*
X229290812Y-58536307D01*
X210000000Y-60240508D02*
X204110996Y-54351504D01*
X210000000Y-63462500D02*
X210000000Y-60240508D01*
X189823896Y-69362500D02*
X194273896Y-64912500D01*
X200247266Y-58339207D02*
X200247266Y-60310870D01*
X210000000Y-63462500D02*
X218826193Y-54636307D01*
%TO.N,A1*%
X222165812Y-82628312D02*
X222165812Y-81336307D01*
X222615812Y-84036612D02*
X222615812Y-83078312D01*
X218189924Y-88462500D02*
X222615812Y-84036612D01*
X216000000Y-88462500D02*
X218189924Y-88462500D01*
X222615812Y-83078312D02*
X222165812Y-82628312D01*
%TO.N,B1*%
X223065812Y-82686307D02*
X222815812Y-82436307D01*
X214925000Y-89537500D02*
X217751320Y-89537500D01*
X223065812Y-84223008D02*
X223065812Y-82686307D01*
X217751320Y-89537500D02*
X223065812Y-84223008D01*
X222815812Y-82436307D02*
X222815812Y-81336307D01*
X214000000Y-90462500D02*
X214925000Y-89537500D01*
%TO.N,C1*%
X223529353Y-69748959D02*
X222815812Y-70462500D01*
X222815812Y-74136307D02*
X222815812Y-70462500D01*
X223853561Y-69748959D02*
X223529353Y-69748959D01*
%TO.N,D1*%
X223465812Y-72185906D02*
X224094609Y-71557109D01*
X223465812Y-74136307D02*
X223465812Y-72185906D01*
%TO.N,NE1*%
X228838604Y-60736307D02*
X228890812Y-60736307D01*
X230590812Y-59636307D02*
X230590812Y-58536307D01*
X228890812Y-60736307D02*
X229890812Y-59736307D01*
X226688604Y-62886307D02*
X228838604Y-60736307D01*
X222165812Y-74136307D02*
X222165812Y-68462500D01*
X229890812Y-59736307D02*
X230490812Y-59736307D01*
X222165812Y-69296688D02*
X222165812Y-68462500D01*
X222165812Y-68462500D02*
X221000000Y-67296688D01*
X221000000Y-70462500D02*
X222165812Y-69296688D01*
X221000000Y-67296688D02*
X221000000Y-65899911D01*
X230490812Y-59736307D02*
X230590812Y-59636307D01*
X221000000Y-65899911D02*
X224013604Y-62886307D01*
X224013604Y-62886307D02*
X226688604Y-62886307D01*
%TO.N,A3*%
X211616852Y-91387500D02*
X211000000Y-90770648D01*
X211000000Y-89462500D02*
X210000000Y-88462500D01*
X230590812Y-65736307D02*
X230590812Y-73581891D01*
X229987701Y-74185002D02*
X229987701Y-80987701D01*
X211000000Y-90770648D02*
X211000000Y-89462500D01*
X230590812Y-73581891D02*
X229987701Y-74185002D01*
X220000000Y-90000000D02*
X218612500Y-91387500D01*
X218612500Y-91387500D02*
X211616852Y-91387500D01*
%TO.N,B3*%
X233000000Y-79000000D02*
X231240812Y-77240812D01*
X231240812Y-77240812D02*
X231240812Y-65736307D01*
%TO.N,C3*%
X232025305Y-81000000D02*
X232000000Y-81000000D01*
X231240812Y-58536307D02*
X231240812Y-63336307D01*
X233725000Y-79300305D02*
X232025305Y-81000000D01*
X233725000Y-65820495D02*
X233725000Y-79300305D01*
X231240812Y-63336307D02*
X233725000Y-65820495D01*
%TO.N,D3*%
X234725000Y-61370495D02*
X234725000Y-80275000D01*
X234725000Y-80275000D02*
X234000000Y-81000000D01*
X231890812Y-58536307D02*
X234725000Y-61370495D01*
%TO.N,A4*%
X204450000Y-86704352D02*
X203075000Y-88079352D01*
X203075000Y-88079352D02*
X203075000Y-89537500D01*
X203300305Y-70737500D02*
X203725000Y-71162195D01*
X201548896Y-67512500D02*
X201548896Y-69673097D01*
X201548896Y-69673097D02*
X202613299Y-70737500D01*
X203075000Y-89537500D02*
X204000000Y-90462500D01*
X202613299Y-70737500D02*
X203300305Y-70737500D01*
X204450000Y-75450000D02*
X204450000Y-86704352D01*
X203725000Y-74725000D02*
X204450000Y-75450000D01*
X203725000Y-71162195D02*
X203725000Y-74725000D01*
%TO.N,B4*%
X204175000Y-74538604D02*
X204900000Y-75263604D01*
X202198896Y-67512500D02*
X202198896Y-69686701D01*
X203402723Y-70203522D02*
X204175000Y-70975799D01*
X204000000Y-87790748D02*
X204000000Y-88462500D01*
X204900000Y-86890748D02*
X204000000Y-87790748D01*
X204175000Y-70975799D02*
X204175000Y-74538604D01*
X204900000Y-75263604D02*
X204900000Y-86890748D01*
X202198896Y-69686701D02*
X202715717Y-70203522D01*
X202715717Y-70203522D02*
X203402723Y-70203522D01*
%TO.N,C4*%
X203650000Y-64294480D02*
X203650000Y-63311701D01*
X204383148Y-91387500D02*
X202925000Y-91387500D01*
X205000000Y-74727208D02*
X205350000Y-75077208D01*
X204456242Y-69596045D02*
X204456242Y-65100722D01*
X205000000Y-72000000D02*
X205000000Y-74727208D01*
X205350000Y-87748896D02*
X204925000Y-88173896D01*
X204925000Y-88173896D02*
X204925000Y-90845648D01*
X204456242Y-65100722D02*
X203650000Y-64294480D01*
X202925000Y-91387500D02*
X202000000Y-90462500D01*
X205350000Y-75077208D02*
X205350000Y-87748896D01*
X204925000Y-90845648D02*
X204383148Y-91387500D01*
X202198896Y-61860597D02*
X202198896Y-60312500D01*
X203650000Y-63311701D02*
X202198896Y-61860597D01*
%TO.N,D4*%
X204100000Y-63104042D02*
X203708659Y-62712701D01*
X205039055Y-65824250D02*
X205039055Y-65047139D01*
X205181242Y-69351780D02*
X205181242Y-65966437D01*
X203708659Y-62712701D02*
X203687396Y-62712701D01*
X203725500Y-86737000D02*
X203725500Y-86000000D01*
X203000000Y-80187000D02*
X203000000Y-74000000D01*
X203687396Y-62712701D02*
X202848896Y-61874201D01*
X204100000Y-64108084D02*
X204100000Y-63104042D01*
X202000000Y-88462500D02*
X203725500Y-86737000D01*
X205039055Y-65047139D02*
X204100000Y-64108084D01*
X205181242Y-65966437D02*
X205039055Y-65824250D01*
X205825500Y-69996038D02*
X205181242Y-69351780D01*
X202848896Y-61874201D02*
X202848896Y-60312500D01*
%TO.N,NE2*%
X194460292Y-65362500D02*
X196935292Y-65362500D01*
X196935292Y-65362500D02*
X200329594Y-61968198D01*
X183000000Y-82487805D02*
X183000000Y-78511964D01*
X183000000Y-78511964D02*
X184924381Y-76587583D01*
X191680146Y-68142646D02*
X194460292Y-65362500D01*
X199075000Y-91387500D02*
X191899695Y-91387500D01*
X183000000Y-82487805D02*
X183000000Y-82462500D01*
X191650500Y-70462000D02*
X191650500Y-68172292D01*
X190473896Y-73912500D02*
X190473896Y-69348896D01*
X200000000Y-90462500D02*
X199075000Y-91387500D01*
X191651000Y-70462500D02*
X191650500Y-70462000D01*
X201548896Y-61412500D02*
X201548896Y-60312500D01*
X191650500Y-68172292D02*
X191680146Y-68142646D01*
X190473896Y-69348896D02*
X191680146Y-68142646D01*
X200993198Y-61968198D02*
X201548896Y-61412500D01*
X200329594Y-61968198D02*
X200993198Y-61968198D01*
%TO.N,A2*%
X191638052Y-79012500D02*
X190473896Y-80176656D01*
X201000000Y-70462500D02*
X201000000Y-70713604D01*
X195086396Y-79012500D02*
X201748896Y-72350000D01*
X201748896Y-72350000D02*
X201748896Y-71462500D01*
X203725500Y-76288000D02*
X204000000Y-76562500D01*
X204000000Y-76562500D02*
X204000000Y-84462500D01*
X201000000Y-70713604D02*
X201748896Y-71462500D01*
X190473896Y-80176656D02*
X190473896Y-81112500D01*
X191638052Y-79012500D02*
X195086396Y-79012500D01*
X204000000Y-84462500D02*
X200000000Y-88462500D01*
%TO.N,B2*%
X198925000Y-89537500D02*
X198000000Y-90462500D01*
X202102412Y-76241465D02*
X202102412Y-79897588D01*
X203000000Y-71735292D02*
X195272792Y-79462500D01*
X195272792Y-79462500D02*
X191824448Y-79462500D01*
X199462500Y-82000000D02*
X198925000Y-82537500D01*
X191824448Y-79462500D02*
X191123896Y-80163052D01*
X198925000Y-82537500D02*
X198925000Y-89537500D01*
X191123896Y-80163052D02*
X191123896Y-81112500D01*
X202102412Y-79897588D02*
X200000000Y-82000000D01*
X203000000Y-71462500D02*
X203000000Y-71735292D01*
X200000000Y-82000000D02*
X199462500Y-82000000D01*
%TO.N,C2*%
X191123896Y-72876104D02*
X191123896Y-73912500D01*
X192101000Y-72109994D02*
X191890006Y-72109994D01*
X191890006Y-72109994D02*
X191123896Y-72876104D01*
%TO.N,D2*%
X194000000Y-73462500D02*
X192223896Y-73462500D01*
X192223896Y-73462500D02*
X191773896Y-73912500D01*
%TO.N,TRIOAOP1*%
X184497500Y-95112500D02*
X187000000Y-95112500D01*
X181600000Y-98010000D02*
X184497500Y-95112500D01*
X187000000Y-95112500D02*
X188350000Y-95112500D01*
X188350000Y-95112500D02*
X190000000Y-93462500D01*
%TO.N,Net-(R22-Pad1)*%
X211000000Y-106462500D02*
X211912500Y-107375000D01*
X199190000Y-100548000D02*
X199190000Y-99062500D01*
X199000000Y-100738000D02*
X199190000Y-100548000D01*
X211000000Y-104462500D02*
X211000000Y-106462500D01*
X211912500Y-107375000D02*
X214175000Y-107375000D01*
%TO.N,Net-(R23-Pad1)*%
X215625000Y-104100000D02*
X214175000Y-105550000D01*
X217537500Y-104100000D02*
X215625000Y-104100000D01*
X218350000Y-103287500D02*
X217537500Y-104100000D01*
%TO.N,Net-(U8A-+)*%
X183782500Y-97652500D02*
X187000000Y-97652500D01*
X181600000Y-102010000D02*
X181600000Y-99835000D01*
X181600000Y-99835000D02*
X183782500Y-97652500D01*
%TO.N,Net-(U7A-+)*%
X206350000Y-103262500D02*
X206350000Y-105112500D01*
X203810000Y-103262500D02*
X203810000Y-104062500D01*
X206350000Y-104462500D02*
X206350000Y-103262500D01*
X183000000Y-105235000D02*
X181600000Y-103835000D01*
X204435000Y-104687500D02*
X206125000Y-104687500D01*
X203810000Y-104062500D02*
X204435000Y-104687500D01*
X183000000Y-105462500D02*
X183000000Y-105235000D01*
X206350000Y-105112500D02*
X206000000Y-105462500D01*
X206125000Y-104687500D02*
X206350000Y-104462500D01*
%TO.N,Net-(U8A--)*%
X196295000Y-95757500D02*
X197000000Y-96462500D01*
X210175000Y-101375000D02*
X214087500Y-101375000D01*
X187625000Y-95757500D02*
X196295000Y-95757500D01*
X214087500Y-101375000D02*
X214175000Y-101462500D01*
X210000000Y-101200000D02*
X210175000Y-101375000D01*
X210000000Y-99462500D02*
X210000000Y-101200000D01*
X187000000Y-96382500D02*
X187625000Y-95757500D01*
%TO.N,Net-(U9A-+)*%
X234000000Y-91462500D02*
X233270000Y-90732500D01*
X235810000Y-89862500D02*
X235810000Y-90662500D01*
X232645000Y-90487500D02*
X233270000Y-89862500D01*
X226837500Y-102275000D02*
X232645000Y-96467500D01*
X214175000Y-103287500D02*
X217067005Y-103287500D01*
X233270000Y-90732500D02*
X233270000Y-89862500D01*
X235810000Y-90662500D02*
X235010000Y-91462500D01*
X235010000Y-91462500D02*
X234000000Y-91462500D01*
X233270000Y-89082500D02*
X233270000Y-89862500D01*
X232645000Y-96467500D02*
X232645000Y-90487500D01*
X217067005Y-103287500D02*
X218079505Y-102275000D01*
X218079505Y-102275000D02*
X226837500Y-102275000D01*
%TO.N,Net-(R20-Pad1)*%
X209000000Y-106287500D02*
X209175000Y-106462500D01*
X209000000Y-105000000D02*
X209000000Y-106287500D01*
X194000000Y-100000000D02*
X195175000Y-100000000D01*
%TO.N,Net-(U2A-+)*%
X197000000Y-100000000D02*
X197000000Y-101375000D01*
X201730000Y-99862500D02*
X201730000Y-99062500D01*
X200130000Y-101462500D02*
X201730000Y-99862500D01*
X196912500Y-101462500D02*
X200130000Y-101462500D01*
X197000000Y-101375000D02*
X196912500Y-101462500D01*
%TO.N,-5V*%
X203000000Y-94662500D02*
X200025000Y-97637500D01*
X197462500Y-105462500D02*
X196000000Y-104000000D01*
X200025000Y-97637500D02*
X198565000Y-97637500D01*
X196000000Y-98922500D02*
X192200000Y-98922500D01*
X203000000Y-93862500D02*
X203000000Y-94662500D01*
X198565000Y-97637500D02*
X197280000Y-98922500D01*
X196000000Y-104000000D02*
X196000000Y-98922500D01*
X197280000Y-98922500D02*
X196000000Y-98922500D01*
X232000000Y-95862500D02*
X232000000Y-95062500D01*
X203800000Y-95462500D02*
X208000000Y-95462500D01*
X230000000Y-97462500D02*
X230400000Y-97462500D01*
X230400000Y-97462500D02*
X232000000Y-95862500D01*
X202540000Y-108462500D02*
X202540000Y-107662500D01*
X200340000Y-105462500D02*
X197462500Y-105462500D01*
X203000000Y-94662500D02*
X203800000Y-95462500D01*
X202540000Y-107662500D02*
X200340000Y-105462500D01*
%TO.N,AOP1*%
X195698896Y-67512500D02*
X195698896Y-68462902D01*
X187000000Y-90462500D02*
X180800000Y-96662500D01*
X205080000Y-102462500D02*
X205080000Y-103262500D01*
X206400000Y-110462500D02*
X206975000Y-109887500D01*
X195698896Y-68462902D02*
X194849649Y-69312149D01*
X206975000Y-101837500D02*
X206600000Y-101462500D01*
X206975000Y-109887500D02*
X206975000Y-101837500D01*
X180800000Y-96662500D02*
X180800000Y-105262500D01*
X206600000Y-101462500D02*
X206080000Y-101462500D01*
X206080000Y-101462500D02*
X205080000Y-102462500D01*
X180800000Y-105262500D02*
X186000000Y-110462500D01*
%TO.N,AOP2*%
X235000000Y-88542500D02*
X235000000Y-87462500D01*
X189000000Y-85462500D02*
X186974695Y-85462500D01*
X230275000Y-82737500D02*
X225238173Y-82737500D01*
X184623896Y-83111701D02*
X184623896Y-81112500D01*
X225238173Y-82737500D02*
X222000000Y-85975673D01*
X235000000Y-87462500D02*
X230275000Y-82737500D01*
X186974695Y-85462500D02*
X184623896Y-83111701D01*
X234540000Y-89862500D02*
X234540000Y-89002500D01*
X222000000Y-85975673D02*
X222000000Y-86462500D01*
X234540000Y-89002500D02*
X235000000Y-88542500D01*
%TD*%
%TA.AperFunction,Conductor*%
%TO.N,0*%
G36*
X229311086Y-75257740D02*
G01*
X229348686Y-75301763D01*
X229362201Y-75358058D01*
X229362201Y-80289014D01*
X229353965Y-80333452D01*
X229330351Y-80371986D01*
X229259514Y-80450657D01*
X229259509Y-80450663D01*
X229255168Y-80455485D01*
X229251923Y-80461105D01*
X229251919Y-80461111D01*
X229163770Y-80613790D01*
X229163767Y-80613795D01*
X229160522Y-80619417D01*
X229158516Y-80625589D01*
X229158514Y-80625595D01*
X229104034Y-80793265D01*
X229104032Y-80793274D01*
X229102027Y-80799445D01*
X229101349Y-80805895D01*
X229101347Y-80805905D01*
X229086663Y-80945628D01*
X229082241Y-80987701D01*
X229082920Y-80994161D01*
X229101347Y-81169496D01*
X229101348Y-81169504D01*
X229102027Y-81175957D01*
X229104034Y-81182134D01*
X229105115Y-81187218D01*
X229104399Y-81241946D01*
X229080191Y-81291035D01*
X229037209Y-81324920D01*
X228983825Y-81337000D01*
X225998719Y-81337000D01*
X225948284Y-81326280D01*
X225906569Y-81295972D01*
X225880788Y-81251318D01*
X225870720Y-81220332D01*
X225830976Y-81098013D01*
X225736330Y-80934081D01*
X225728740Y-80925652D01*
X225614017Y-80798239D01*
X225614016Y-80798238D01*
X225609668Y-80793409D01*
X225604409Y-80789588D01*
X225604408Y-80789587D01*
X225461785Y-80685966D01*
X225461784Y-80685965D01*
X225456527Y-80682146D01*
X225446510Y-80677686D01*
X225289542Y-80607798D01*
X225289537Y-80607796D01*
X225283600Y-80605153D01*
X225277241Y-80603801D01*
X225277237Y-80603800D01*
X225104805Y-80567149D01*
X225104802Y-80567148D01*
X225098443Y-80565797D01*
X224909151Y-80565797D01*
X224902792Y-80567148D01*
X224902788Y-80567149D01*
X224730356Y-80603800D01*
X224730349Y-80603802D01*
X224723994Y-80605153D01*
X224718059Y-80607795D01*
X224718051Y-80607798D01*
X224557004Y-80679502D01*
X224556999Y-80679504D01*
X224551067Y-80682146D01*
X224545813Y-80685962D01*
X224545808Y-80685966D01*
X224403185Y-80789588D01*
X224397926Y-80793409D01*
X224396206Y-80795318D01*
X224348157Y-80821733D01*
X224291576Y-80824104D01*
X224239841Y-80801070D01*
X224203744Y-80757435D01*
X224190812Y-80702301D01*
X224190812Y-80416789D01*
X224190458Y-80410192D01*
X224185238Y-80361639D01*
X224181700Y-80346665D01*
X224137264Y-80227529D01*
X224128849Y-80212117D01*
X224053313Y-80111214D01*
X224040904Y-80098805D01*
X223940001Y-80023269D01*
X223924589Y-80014854D01*
X223805453Y-79970418D01*
X223790479Y-79966880D01*
X223741926Y-79961660D01*
X223735330Y-79961307D01*
X223707138Y-79961307D01*
X223694262Y-79964757D01*
X223690812Y-79977633D01*
X223690812Y-80121872D01*
X223675644Y-80181299D01*
X223633852Y-80226187D01*
X223575658Y-80245556D01*
X223515301Y-80234667D01*
X223467545Y-80196183D01*
X223432972Y-80150000D01*
X223398358Y-80103761D01*
X223385670Y-80094263D01*
X223283143Y-80017511D01*
X223283855Y-80016558D01*
X223255082Y-79992216D01*
X223244394Y-79970864D01*
X223238625Y-79965095D01*
X223224486Y-79961307D01*
X223196295Y-79961307D01*
X223189691Y-79961660D01*
X223156411Y-79965238D01*
X223129906Y-79965238D01*
X223091975Y-79961160D01*
X223091961Y-79961159D01*
X223088685Y-79960807D01*
X223085374Y-79960807D01*
X222546251Y-79960807D01*
X222546232Y-79960807D01*
X222542940Y-79960808D01*
X222539665Y-79961159D01*
X222539646Y-79961161D01*
X222504065Y-79964986D01*
X222477560Y-79964986D01*
X222469393Y-79964108D01*
X222405706Y-79938060D01*
X222365710Y-79882071D01*
X222361721Y-79813380D01*
X222394964Y-79753140D01*
X223299979Y-78848126D01*
X223340208Y-78821246D01*
X223387661Y-78811807D01*
X225272225Y-78811807D01*
X225283280Y-78812328D01*
X225290667Y-78813980D01*
X225357872Y-78811868D01*
X225361768Y-78811807D01*
X225385448Y-78811807D01*
X225389350Y-78811807D01*
X225393313Y-78811306D01*
X225404963Y-78810387D01*
X225448627Y-78809016D01*
X225467861Y-78803426D01*
X225486917Y-78799481D01*
X225506792Y-78796971D01*
X225547395Y-78780894D01*
X225558450Y-78777109D01*
X225600390Y-78764925D01*
X225617629Y-78754729D01*
X225635103Y-78746169D01*
X225646474Y-78741667D01*
X225646476Y-78741665D01*
X225653732Y-78738793D01*
X225689069Y-78713118D01*
X225698824Y-78706710D01*
X225736420Y-78684477D01*
X225750584Y-78670312D01*
X225765379Y-78657675D01*
X225781587Y-78645901D01*
X225809428Y-78612245D01*
X225817279Y-78603616D01*
X229150519Y-75270377D01*
X229199883Y-75240127D01*
X229257599Y-75235585D01*
X229311086Y-75257740D01*
G37*
%TD.AperFunction*%
%TA.AperFunction,Conductor*%
G36*
X232778130Y-65777329D02*
G01*
X232827493Y-65807579D01*
X233063181Y-66043267D01*
X233090061Y-66083495D01*
X233099500Y-66130948D01*
X233099500Y-77915548D01*
X233085985Y-77971843D01*
X233048385Y-78015866D01*
X232994898Y-78038021D01*
X232937182Y-78033479D01*
X232887819Y-78003229D01*
X232408992Y-77524402D01*
X231902631Y-77018040D01*
X231875751Y-76977812D01*
X231866312Y-76930359D01*
X231866312Y-67235307D01*
X231882925Y-67173307D01*
X231928312Y-67127920D01*
X231990312Y-67111307D01*
X232160330Y-67111307D01*
X232166926Y-67110953D01*
X232215479Y-67105733D01*
X232230453Y-67102195D01*
X232349589Y-67057759D01*
X232365001Y-67049344D01*
X232465904Y-66973808D01*
X232478313Y-66961399D01*
X232553849Y-66860496D01*
X232562264Y-66845084D01*
X232606700Y-66725948D01*
X232610238Y-66710974D01*
X232615458Y-66662421D01*
X232615812Y-66655825D01*
X232615812Y-65895260D01*
X232629327Y-65838965D01*
X232666927Y-65794942D01*
X232720414Y-65772787D01*
X232778130Y-65777329D01*
G37*
%TD.AperFunction*%
%TA.AperFunction,Conductor*%
G36*
X236002442Y-47000596D02*
G01*
X236008703Y-47000841D01*
X236241171Y-47009975D01*
X236241419Y-47010051D01*
X236241420Y-47009985D01*
X236241531Y-47009989D01*
X236472173Y-47019529D01*
X236481571Y-47020278D01*
X236723187Y-47048876D01*
X236952341Y-47077440D01*
X236961183Y-47078870D01*
X237199560Y-47126286D01*
X237200339Y-47126445D01*
X237426298Y-47173824D01*
X237434444Y-47175824D01*
X237668182Y-47241745D01*
X237669753Y-47242200D01*
X237890895Y-47308037D01*
X237898400Y-47310535D01*
X238126259Y-47394597D01*
X238128273Y-47395362D01*
X238343145Y-47479205D01*
X238349963Y-47482104D01*
X238570464Y-47583756D01*
X238572903Y-47584914D01*
X238780180Y-47686245D01*
X238786241Y-47689421D01*
X238998057Y-47808044D01*
X239000853Y-47809659D01*
X239199040Y-47927753D01*
X239204420Y-47931150D01*
X239406284Y-48066031D01*
X239409373Y-48068166D01*
X239597098Y-48202199D01*
X239601768Y-48205704D01*
X239680682Y-48267914D01*
X239792387Y-48355976D01*
X239795748Y-48358722D01*
X239971759Y-48507796D01*
X239975764Y-48511341D01*
X240153973Y-48676076D01*
X240157483Y-48679451D01*
X240320547Y-48842515D01*
X240323922Y-48846025D01*
X240488657Y-49024234D01*
X240492208Y-49028246D01*
X240641266Y-49204238D01*
X240644022Y-49207611D01*
X240794285Y-49398218D01*
X240797810Y-49402915D01*
X240931814Y-49590599D01*
X240933982Y-49593737D01*
X241068845Y-49795574D01*
X241072259Y-49800980D01*
X241149905Y-49931287D01*
X241190298Y-49999074D01*
X241191964Y-50001959D01*
X241310559Y-50213724D01*
X241313771Y-50219853D01*
X241415059Y-50427042D01*
X241416268Y-50429589D01*
X241517890Y-50650026D01*
X241520797Y-50656864D01*
X241604608Y-50871653D01*
X241605427Y-50873809D01*
X241689457Y-51101582D01*
X241691966Y-51109119D01*
X241757777Y-51330173D01*
X241758276Y-51331896D01*
X241824166Y-51565524D01*
X241826183Y-51573736D01*
X241873506Y-51799430D01*
X241873762Y-51800686D01*
X241921127Y-52038810D01*
X241922558Y-52047663D01*
X241951103Y-52276658D01*
X241951195Y-52277421D01*
X241979717Y-52518401D01*
X241980471Y-52527852D01*
X241990014Y-52758577D01*
X241990024Y-52758833D01*
X241999404Y-52997557D01*
X241999500Y-53002425D01*
X241999500Y-110997575D01*
X241999404Y-111002444D01*
X241990024Y-111241167D01*
X241990014Y-111241422D01*
X241980471Y-111472146D01*
X241979717Y-111481597D01*
X241951195Y-111722577D01*
X241951103Y-111723340D01*
X241922558Y-111952335D01*
X241921127Y-111961188D01*
X241873762Y-112199312D01*
X241873506Y-112200568D01*
X241826183Y-112426262D01*
X241824166Y-112434474D01*
X241758276Y-112668102D01*
X241757777Y-112669825D01*
X241691966Y-112890879D01*
X241689457Y-112898416D01*
X241605427Y-113126189D01*
X241604608Y-113128345D01*
X241520797Y-113343134D01*
X241517890Y-113349972D01*
X241416268Y-113570409D01*
X241415059Y-113572956D01*
X241313771Y-113780145D01*
X241310559Y-113786274D01*
X241191964Y-113998039D01*
X241190298Y-114000924D01*
X241072266Y-114199007D01*
X241068845Y-114204424D01*
X240933982Y-114406261D01*
X240931797Y-114409424D01*
X240797823Y-114597066D01*
X240794285Y-114601780D01*
X240644022Y-114792387D01*
X240641266Y-114795760D01*
X240492224Y-114971734D01*
X240488657Y-114975764D01*
X240323922Y-115153973D01*
X240320547Y-115157483D01*
X240157483Y-115320547D01*
X240153973Y-115323922D01*
X239975764Y-115488657D01*
X239971734Y-115492224D01*
X239795760Y-115641266D01*
X239792387Y-115644022D01*
X239601780Y-115794285D01*
X239597066Y-115797823D01*
X239409424Y-115931797D01*
X239406261Y-115933982D01*
X239204424Y-116068845D01*
X239199007Y-116072266D01*
X239000924Y-116190298D01*
X238998039Y-116191964D01*
X238786274Y-116310559D01*
X238780145Y-116313771D01*
X238572956Y-116415059D01*
X238570409Y-116416268D01*
X238349972Y-116517890D01*
X238343134Y-116520797D01*
X238128345Y-116604608D01*
X238126189Y-116605427D01*
X237898416Y-116689457D01*
X237890879Y-116691966D01*
X237669825Y-116757777D01*
X237668102Y-116758276D01*
X237434474Y-116824166D01*
X237426262Y-116826183D01*
X237200568Y-116873506D01*
X237199312Y-116873762D01*
X236961188Y-116921127D01*
X236952335Y-116922558D01*
X236723340Y-116951103D01*
X236722577Y-116951195D01*
X236481597Y-116979717D01*
X236472146Y-116980471D01*
X236241422Y-116990014D01*
X236241167Y-116990024D01*
X236009467Y-116999128D01*
X236002442Y-116999404D01*
X235997575Y-116999500D01*
X178002425Y-116999500D01*
X177997557Y-116999404D01*
X177758832Y-116990024D01*
X177758579Y-116989946D01*
X177758577Y-116990014D01*
X177527852Y-116980471D01*
X177518401Y-116979717D01*
X177277421Y-116951195D01*
X177276658Y-116951103D01*
X177047663Y-116922558D01*
X177038810Y-116921127D01*
X176800686Y-116873762D01*
X176799430Y-116873506D01*
X176573736Y-116826183D01*
X176565524Y-116824166D01*
X176331896Y-116758276D01*
X176330173Y-116757777D01*
X176109119Y-116691966D01*
X176101582Y-116689457D01*
X175873809Y-116605427D01*
X175871653Y-116604608D01*
X175656864Y-116520797D01*
X175650026Y-116517890D01*
X175429589Y-116416268D01*
X175427042Y-116415059D01*
X175219853Y-116313771D01*
X175213732Y-116310563D01*
X175086754Y-116239452D01*
X175001959Y-116191964D01*
X174999100Y-116190313D01*
X174800980Y-116072259D01*
X174795574Y-116068845D01*
X174593737Y-115933982D01*
X174590599Y-115931814D01*
X174402915Y-115797810D01*
X174398218Y-115794285D01*
X174207611Y-115644022D01*
X174204238Y-115641266D01*
X174028246Y-115492208D01*
X174024234Y-115488657D01*
X173846025Y-115323922D01*
X173842515Y-115320547D01*
X173679451Y-115157483D01*
X173676076Y-115153973D01*
X173511341Y-114975764D01*
X173507796Y-114971759D01*
X173358722Y-114795748D01*
X173355976Y-114792387D01*
X173205713Y-114601780D01*
X173202199Y-114597098D01*
X173068166Y-114409373D01*
X173066031Y-114406284D01*
X172931150Y-114204420D01*
X172927753Y-114199040D01*
X172809659Y-114000853D01*
X172808034Y-113998039D01*
X172689421Y-113786241D01*
X172686245Y-113780180D01*
X172584914Y-113572903D01*
X172583756Y-113570464D01*
X172554142Y-113506226D01*
X175852329Y-113506226D01*
X175859159Y-113517462D01*
X175863157Y-113520858D01*
X176142694Y-113733357D01*
X176148240Y-113737117D01*
X176449099Y-113918137D01*
X176455038Y-113921285D01*
X176773695Y-114068712D01*
X176779937Y-114071199D01*
X177112684Y-114183315D01*
X177119129Y-114185104D01*
X177462053Y-114260588D01*
X177468677Y-114261674D01*
X177817740Y-114299636D01*
X177824437Y-114300000D01*
X178175563Y-114300000D01*
X178182259Y-114299636D01*
X178531322Y-114261674D01*
X178537946Y-114260588D01*
X178880870Y-114185104D01*
X178887315Y-114183315D01*
X179220062Y-114071199D01*
X179226304Y-114068712D01*
X179544961Y-113921285D01*
X179550900Y-113918137D01*
X179851759Y-113737117D01*
X179857305Y-113733357D01*
X180136846Y-113520856D01*
X180140841Y-113517462D01*
X180147669Y-113506228D01*
X180147668Y-113506226D01*
X233852329Y-113506226D01*
X233859159Y-113517462D01*
X233863157Y-113520858D01*
X234142694Y-113733357D01*
X234148240Y-113737117D01*
X234449099Y-113918137D01*
X234455038Y-113921285D01*
X234773695Y-114068712D01*
X234779937Y-114071199D01*
X235112684Y-114183315D01*
X235119129Y-114185104D01*
X235462053Y-114260588D01*
X235468677Y-114261674D01*
X235817740Y-114299636D01*
X235824437Y-114300000D01*
X236175563Y-114300000D01*
X236182259Y-114299636D01*
X236531322Y-114261674D01*
X236537946Y-114260588D01*
X236880870Y-114185104D01*
X236887315Y-114183315D01*
X237220062Y-114071199D01*
X237226304Y-114068712D01*
X237544961Y-113921285D01*
X237550900Y-113918137D01*
X237851759Y-113737117D01*
X237857305Y-113733357D01*
X238136846Y-113520856D01*
X238140841Y-113517462D01*
X238147669Y-113506228D01*
X238140996Y-113494549D01*
X236011542Y-111365095D01*
X236000000Y-111358431D01*
X235988457Y-111365095D01*
X233859000Y-113494551D01*
X233852329Y-113506226D01*
X180147668Y-113506226D01*
X180140996Y-113494549D01*
X178011542Y-111365095D01*
X178000000Y-111358431D01*
X177988457Y-111365095D01*
X175859000Y-113494551D01*
X175852329Y-113506226D01*
X172554142Y-113506226D01*
X172482104Y-113349963D01*
X172479201Y-113343134D01*
X172395362Y-113128273D01*
X172394597Y-113126259D01*
X172310535Y-112898400D01*
X172308037Y-112890895D01*
X172242200Y-112669753D01*
X172241745Y-112668182D01*
X172175824Y-112434444D01*
X172173824Y-112426298D01*
X172126445Y-112200339D01*
X172126286Y-112199560D01*
X172078870Y-111961183D01*
X172077440Y-111952335D01*
X172048876Y-111723187D01*
X172020278Y-111481571D01*
X172019529Y-111472173D01*
X172009975Y-111241166D01*
X172000632Y-111003357D01*
X174695335Y-111003357D01*
X174714343Y-111353958D01*
X174715069Y-111360630D01*
X174771874Y-111707130D01*
X174773317Y-111713684D01*
X174867251Y-112052001D01*
X174869396Y-112058368D01*
X174999360Y-112384552D01*
X175002169Y-112390626D01*
X175166649Y-112700868D01*
X175170102Y-112706606D01*
X175367147Y-112997225D01*
X175371207Y-113002566D01*
X175485320Y-113136910D01*
X175496664Y-113144527D01*
X175508590Y-113137855D01*
X177634904Y-111011542D01*
X177641567Y-111000000D01*
X178358431Y-111000000D01*
X178365095Y-111011542D01*
X180491409Y-113137856D01*
X180503334Y-113144527D01*
X180514679Y-113136910D01*
X180628792Y-113002566D01*
X180632852Y-112997225D01*
X180829897Y-112706606D01*
X180833350Y-112700868D01*
X180997830Y-112390626D01*
X181000639Y-112384552D01*
X181130603Y-112058368D01*
X181132748Y-112052001D01*
X181226682Y-111713684D01*
X181228125Y-111707130D01*
X181284930Y-111360630D01*
X181285656Y-111353958D01*
X181304665Y-111003357D01*
X181304665Y-110996643D01*
X181285656Y-110646041D01*
X181284930Y-110639369D01*
X181228125Y-110292869D01*
X181226682Y-110286315D01*
X181132748Y-109947998D01*
X181130603Y-109941631D01*
X181000639Y-109615447D01*
X180997830Y-109609373D01*
X180833350Y-109299131D01*
X180829897Y-109293393D01*
X180632852Y-109002774D01*
X180628792Y-108997433D01*
X180514678Y-108863088D01*
X180503334Y-108855471D01*
X180491408Y-108862143D01*
X178365095Y-110988457D01*
X178358431Y-111000000D01*
X177641567Y-111000000D01*
X177641568Y-110999999D01*
X177634904Y-110988457D01*
X175508590Y-108862143D01*
X175496664Y-108855471D01*
X175485320Y-108863088D01*
X175371207Y-108997433D01*
X175367147Y-109002774D01*
X175170102Y-109293393D01*
X175166649Y-109299131D01*
X175002169Y-109609373D01*
X174999360Y-109615447D01*
X174869396Y-109941631D01*
X174867251Y-109947998D01*
X174773317Y-110286315D01*
X174771874Y-110292869D01*
X174715069Y-110639369D01*
X174714343Y-110646041D01*
X174695335Y-110996643D01*
X174695335Y-111003357D01*
X172000632Y-111003357D01*
X172000596Y-111002443D01*
X172000500Y-110997575D01*
X172000500Y-108493771D01*
X175852329Y-108493771D01*
X175859001Y-108505448D01*
X177988457Y-110634904D01*
X178000000Y-110641568D01*
X178011542Y-110634904D01*
X180140998Y-108505447D01*
X180147669Y-108493772D01*
X180140839Y-108482536D01*
X180136842Y-108479141D01*
X179857305Y-108266642D01*
X179851759Y-108262882D01*
X179550900Y-108081862D01*
X179544961Y-108078714D01*
X179226304Y-107931287D01*
X179220062Y-107928800D01*
X178887315Y-107816684D01*
X178880870Y-107814895D01*
X178537946Y-107739411D01*
X178531322Y-107738325D01*
X178182259Y-107700363D01*
X178175563Y-107700000D01*
X177824437Y-107700000D01*
X177817740Y-107700363D01*
X177468677Y-107738325D01*
X177462053Y-107739411D01*
X177119129Y-107814895D01*
X177112684Y-107816684D01*
X176779937Y-107928800D01*
X176773695Y-107931287D01*
X176455038Y-108078714D01*
X176449099Y-108081862D01*
X176148240Y-108262882D01*
X176142694Y-108266642D01*
X175863149Y-108479146D01*
X175859159Y-108482536D01*
X175852329Y-108493771D01*
X172000500Y-108493771D01*
X172000500Y-89527875D01*
X193422768Y-89527875D01*
X193429228Y-89538175D01*
X193988457Y-90097404D01*
X194000000Y-90104068D01*
X194011542Y-90097404D01*
X194570770Y-89538175D01*
X194577230Y-89527876D01*
X194568742Y-89503937D01*
X194561613Y-89462499D01*
X194568742Y-89421060D01*
X194577229Y-89397121D01*
X194570771Y-89386824D01*
X194011542Y-88827595D01*
X194000000Y-88820931D01*
X193988456Y-88827596D01*
X193429228Y-89386823D01*
X193422768Y-89397122D01*
X193431257Y-89421064D01*
X193438385Y-89462501D01*
X193431256Y-89503938D01*
X193422768Y-89527875D01*
X172000500Y-89527875D01*
X172000500Y-88468209D01*
X192895816Y-88468209D01*
X192913568Y-88659782D01*
X192915666Y-88671004D01*
X192968314Y-88856045D01*
X192972445Y-88866708D01*
X193056645Y-89035805D01*
X193062944Y-89040488D01*
X193075111Y-89033834D01*
X193634904Y-88474042D01*
X193641568Y-88462500D01*
X193634904Y-88450957D01*
X193075112Y-87891165D01*
X193062945Y-87884511D01*
X193056643Y-87889198D01*
X192972445Y-88058291D01*
X192968314Y-88068954D01*
X192915666Y-88253995D01*
X192913568Y-88265217D01*
X192895816Y-88456791D01*
X192895816Y-88468209D01*
X172000500Y-88468209D01*
X172000500Y-87528720D01*
X193423298Y-87528720D01*
X193429228Y-87538175D01*
X193988457Y-88097404D01*
X194000000Y-88104068D01*
X194011542Y-88097404D01*
X194570770Y-87538175D01*
X194576700Y-87528720D01*
X194568763Y-87520874D01*
X194497287Y-87476619D01*
X194487070Y-87471531D01*
X194307666Y-87402030D01*
X194296681Y-87398905D01*
X194107559Y-87363552D01*
X194096201Y-87362500D01*
X193903799Y-87362500D01*
X193892440Y-87363552D01*
X193703318Y-87398905D01*
X193692333Y-87402030D01*
X193512927Y-87471532D01*
X193502718Y-87476615D01*
X193431233Y-87520876D01*
X193423298Y-87528720D01*
X172000500Y-87528720D01*
X172000500Y-82215051D01*
X176547688Y-82215051D01*
X176548056Y-82226280D01*
X176600168Y-82420763D01*
X176603856Y-82430897D01*
X176699110Y-82635167D01*
X176704508Y-82644517D01*
X176833784Y-82829142D01*
X176840719Y-82837407D01*
X177000092Y-82996780D01*
X177008357Y-83003715D01*
X177192982Y-83132991D01*
X177202332Y-83138389D01*
X177406602Y-83233643D01*
X177416736Y-83237331D01*
X177634446Y-83295666D01*
X177645078Y-83297541D01*
X177732823Y-83305218D01*
X177746265Y-83302646D01*
X177750000Y-83289478D01*
X178250000Y-83289478D01*
X178253734Y-83302646D01*
X178267176Y-83305218D01*
X178354921Y-83297541D01*
X178365553Y-83295666D01*
X178583263Y-83237331D01*
X178593397Y-83233643D01*
X178797667Y-83138389D01*
X178807017Y-83132991D01*
X178991642Y-83003715D01*
X178999907Y-82996780D01*
X179159278Y-82837409D01*
X179166215Y-82829143D01*
X179295498Y-82644508D01*
X179300886Y-82635176D01*
X179396143Y-82430897D01*
X179399831Y-82420763D01*
X179451943Y-82226280D01*
X179452311Y-82215051D01*
X179441369Y-82212500D01*
X178266326Y-82212500D01*
X178253450Y-82215950D01*
X178250000Y-82228826D01*
X178250000Y-83289478D01*
X177750000Y-83289478D01*
X177750000Y-82228826D01*
X177746549Y-82215950D01*
X177733674Y-82212500D01*
X176558631Y-82212500D01*
X176547688Y-82215051D01*
X172000500Y-82215051D01*
X172000500Y-79462500D01*
X176519341Y-79462500D01*
X176519813Y-79467895D01*
X176538756Y-79684416D01*
X176539937Y-79697908D01*
X176541336Y-79703130D01*
X176541337Y-79703134D01*
X176599694Y-79920930D01*
X176599697Y-79920938D01*
X176601097Y-79926163D01*
X176603385Y-79931070D01*
X176603386Y-79931072D01*
X176625098Y-79977633D01*
X176700965Y-80140329D01*
X176704072Y-80144766D01*
X176704073Y-80144768D01*
X176770565Y-80239728D01*
X176836505Y-80333901D01*
X177003599Y-80500995D01*
X177161032Y-80611230D01*
X177199898Y-80655548D01*
X177213909Y-80712805D01*
X177199898Y-80770062D01*
X177161033Y-80814380D01*
X177008352Y-80921288D01*
X177000092Y-80928219D01*
X176840721Y-81087590D01*
X176833784Y-81095856D01*
X176704501Y-81280491D01*
X176699113Y-81289823D01*
X176603856Y-81494102D01*
X176600168Y-81504236D01*
X176548056Y-81698719D01*
X176547688Y-81709948D01*
X176558631Y-81712500D01*
X179441369Y-81712500D01*
X179452311Y-81709948D01*
X179451943Y-81698719D01*
X179399831Y-81504236D01*
X179396143Y-81494102D01*
X179300889Y-81289832D01*
X179295491Y-81280482D01*
X179166215Y-81095857D01*
X179159280Y-81087592D01*
X178999907Y-80928219D01*
X178991642Y-80921284D01*
X178838967Y-80814380D01*
X178800101Y-80770062D01*
X178786090Y-80712805D01*
X178800101Y-80655548D01*
X178838964Y-80611232D01*
X178996401Y-80500995D01*
X179163495Y-80333901D01*
X179299035Y-80140330D01*
X179398903Y-79926163D01*
X179460063Y-79697908D01*
X179480659Y-79462500D01*
X179460063Y-79227092D01*
X179398903Y-78998837D01*
X179299035Y-78784671D01*
X179163495Y-78591099D01*
X178996401Y-78424005D01*
X178839403Y-78314074D01*
X178800538Y-78269757D01*
X178786527Y-78212500D01*
X178800538Y-78155243D01*
X178839404Y-78110925D01*
X178847462Y-78105283D01*
X178996401Y-78000995D01*
X179163495Y-77833901D01*
X179299035Y-77640330D01*
X179398903Y-77426163D01*
X179460063Y-77197908D01*
X179480659Y-76962500D01*
X179460063Y-76727092D01*
X179398903Y-76498837D01*
X179299035Y-76284671D01*
X179163495Y-76091099D01*
X178996401Y-75924005D01*
X178838966Y-75813768D01*
X178800101Y-75769451D01*
X178786090Y-75712194D01*
X178800101Y-75654937D01*
X178838967Y-75610619D01*
X178991642Y-75503715D01*
X178999907Y-75496780D01*
X179159278Y-75337409D01*
X179166215Y-75329143D01*
X179295498Y-75144508D01*
X179300886Y-75135176D01*
X179396143Y-74930897D01*
X179399831Y-74920763D01*
X179451943Y-74726280D01*
X179452311Y-74715051D01*
X179441369Y-74712500D01*
X176558631Y-74712500D01*
X176547688Y-74715051D01*
X176548056Y-74726280D01*
X176600168Y-74920763D01*
X176603856Y-74930897D01*
X176699110Y-75135167D01*
X176704508Y-75144517D01*
X176833784Y-75329142D01*
X176840719Y-75337407D01*
X177000092Y-75496780D01*
X177008357Y-75503715D01*
X177161032Y-75610619D01*
X177199898Y-75654937D01*
X177213909Y-75712194D01*
X177199898Y-75769451D01*
X177161033Y-75813769D01*
X177022354Y-75910873D01*
X177003599Y-75924005D01*
X176999775Y-75927828D01*
X176999769Y-75927834D01*
X176840336Y-76087267D01*
X176840330Y-76087273D01*
X176836505Y-76091099D01*
X176833406Y-76095523D01*
X176833399Y-76095533D01*
X176704066Y-76280240D01*
X176704061Y-76280247D01*
X176700965Y-76284670D01*
X176698683Y-76289561D01*
X176698678Y-76289572D01*
X176603386Y-76493927D01*
X176603383Y-76493932D01*
X176601097Y-76498837D01*
X176599698Y-76504057D01*
X176599694Y-76504069D01*
X176541337Y-76721865D01*
X176541335Y-76721871D01*
X176539937Y-76727092D01*
X176539465Y-76732477D01*
X176539465Y-76732482D01*
X176520148Y-76953274D01*
X176519341Y-76962500D01*
X176519813Y-76967895D01*
X176538996Y-77187161D01*
X176539937Y-77197908D01*
X176541336Y-77203130D01*
X176541337Y-77203134D01*
X176599694Y-77420930D01*
X176599697Y-77420938D01*
X176601097Y-77426163D01*
X176700965Y-77640329D01*
X176704072Y-77644766D01*
X176704073Y-77644768D01*
X176749379Y-77709472D01*
X176836505Y-77833901D01*
X177003599Y-78000995D01*
X177152538Y-78105283D01*
X177160596Y-78110925D01*
X177199461Y-78155243D01*
X177213472Y-78212500D01*
X177199461Y-78269757D01*
X177160596Y-78314075D01*
X177064933Y-78381059D01*
X177003599Y-78424005D01*
X176999775Y-78427828D01*
X176999769Y-78427834D01*
X176840336Y-78587267D01*
X176840330Y-78587273D01*
X176836505Y-78591099D01*
X176833406Y-78595523D01*
X176833399Y-78595533D01*
X176704066Y-78780240D01*
X176704061Y-78780247D01*
X176700965Y-78784670D01*
X176698683Y-78789561D01*
X176698678Y-78789572D01*
X176603386Y-78993927D01*
X176603383Y-78993932D01*
X176601097Y-78998837D01*
X176599698Y-79004057D01*
X176599694Y-79004069D01*
X176541337Y-79221865D01*
X176541335Y-79221871D01*
X176539937Y-79227092D01*
X176539465Y-79232477D01*
X176539465Y-79232482D01*
X176527584Y-79368284D01*
X176519341Y-79462500D01*
X172000500Y-79462500D01*
X172000500Y-72609378D01*
X176524500Y-72609378D01*
X176524501Y-72612508D01*
X176524820Y-72615640D01*
X176524821Y-72615641D01*
X176534312Y-72708561D01*
X176534313Y-72708569D01*
X176535001Y-72715297D01*
X176537129Y-72721719D01*
X176537130Y-72721723D01*
X176575329Y-72837000D01*
X176590186Y-72881834D01*
X176593977Y-72887980D01*
X176678497Y-73025011D01*
X176678500Y-73025015D01*
X176682288Y-73031156D01*
X176806344Y-73155212D01*
X176812485Y-73159000D01*
X176812488Y-73159002D01*
X176955666Y-73247314D01*
X176955187Y-73248089D01*
X176995438Y-73280390D01*
X177019182Y-73334345D01*
X177015329Y-73393167D01*
X176984749Y-73443563D01*
X176840716Y-73587596D01*
X176833784Y-73595856D01*
X176704501Y-73780491D01*
X176699113Y-73789823D01*
X176603856Y-73994102D01*
X176600168Y-74004236D01*
X176548056Y-74198719D01*
X176547688Y-74209948D01*
X176558631Y-74212500D01*
X179441369Y-74212500D01*
X179453345Y-74209707D01*
X179454789Y-74206519D01*
X179467731Y-74152357D01*
X179513278Y-74105295D01*
X179576445Y-74088000D01*
X183774397Y-74088000D01*
X183836397Y-74104613D01*
X183881784Y-74150000D01*
X183898397Y-74212000D01*
X183898397Y-74835372D01*
X183898749Y-74838650D01*
X183898750Y-74838661D01*
X183903975Y-74887268D01*
X183903976Y-74887273D01*
X183904805Y-74894983D01*
X183907515Y-74902249D01*
X183907516Y-74902253D01*
X183916434Y-74926163D01*
X183955100Y-75029831D01*
X183960414Y-75036930D01*
X183960415Y-75036931D01*
X184033954Y-75135167D01*
X184041350Y-75145046D01*
X184156565Y-75231296D01*
X184291413Y-75281591D01*
X184351023Y-75288000D01*
X184524396Y-75287999D01*
X184586396Y-75304612D01*
X184631783Y-75349999D01*
X184648396Y-75411999D01*
X184648396Y-75644213D01*
X184639367Y-75690664D01*
X184613595Y-75730350D01*
X184574832Y-75757492D01*
X184480509Y-75799488D01*
X184471651Y-75803432D01*
X184466397Y-75807248D01*
X184466392Y-75807252D01*
X184323769Y-75910873D01*
X184323762Y-75910878D01*
X184318510Y-75914695D01*
X184314165Y-75919520D01*
X184314160Y-75919525D01*
X184196194Y-76050539D01*
X184196189Y-76050545D01*
X184191848Y-76055367D01*
X184188603Y-76060987D01*
X184188599Y-76060993D01*
X184100450Y-76213672D01*
X184100447Y-76213677D01*
X184097202Y-76219299D01*
X184095196Y-76225471D01*
X184095194Y-76225477D01*
X184040714Y-76393147D01*
X184040712Y-76393156D01*
X184038707Y-76399327D01*
X184038028Y-76405786D01*
X184038028Y-76405787D01*
X184021059Y-76567233D01*
X184009659Y-76607655D01*
X183985419Y-76641952D01*
X182612696Y-78014675D01*
X182604511Y-78022123D01*
X182598123Y-78026178D01*
X182592788Y-78031858D01*
X182592783Y-78031863D01*
X182552096Y-78075189D01*
X182549392Y-78077980D01*
X182532628Y-78094744D01*
X182532621Y-78094751D01*
X182529880Y-78097493D01*
X182527500Y-78100560D01*
X182527489Y-78100573D01*
X182527400Y-78100689D01*
X182519842Y-78109534D01*
X182495280Y-78135691D01*
X182495273Y-78135700D01*
X182489938Y-78141382D01*
X182486182Y-78148213D01*
X182486179Y-78148218D01*
X182480285Y-78158939D01*
X182469609Y-78175191D01*
X182462109Y-78184860D01*
X182462101Y-78184871D01*
X182457327Y-78191028D01*
X182454234Y-78198172D01*
X182454229Y-78198183D01*
X182439974Y-78231124D01*
X182434838Y-78241607D01*
X182418394Y-78271520D01*
X182413803Y-78279872D01*
X182411864Y-78287420D01*
X182411863Y-78287425D01*
X182408822Y-78299271D01*
X182402521Y-78317675D01*
X182397658Y-78328912D01*
X182397656Y-78328916D01*
X182394562Y-78336068D01*
X182393342Y-78343767D01*
X182393342Y-78343769D01*
X182387729Y-78379205D01*
X182385361Y-78390640D01*
X182376438Y-78425392D01*
X182376436Y-78425400D01*
X182374500Y-78432945D01*
X182374500Y-78440741D01*
X182374500Y-78452981D01*
X182372974Y-78472366D01*
X182369840Y-78492160D01*
X182370574Y-78499925D01*
X182370574Y-78499928D01*
X182373950Y-78535640D01*
X182374500Y-78547309D01*
X182374500Y-81763813D01*
X182366264Y-81808251D01*
X182342650Y-81846785D01*
X182271813Y-81925456D01*
X182271808Y-81925462D01*
X182267467Y-81930284D01*
X182264222Y-81935904D01*
X182264218Y-81935910D01*
X182176069Y-82088589D01*
X182176066Y-82088594D01*
X182172821Y-82094216D01*
X182170815Y-82100388D01*
X182170813Y-82100394D01*
X182116333Y-82268064D01*
X182116331Y-82268073D01*
X182114326Y-82274244D01*
X182113648Y-82280694D01*
X182113646Y-82280704D01*
X182097719Y-82432249D01*
X182094540Y-82462500D01*
X182095219Y-82468960D01*
X182113646Y-82644295D01*
X182113647Y-82644303D01*
X182114326Y-82650756D01*
X182116331Y-82656928D01*
X182116333Y-82656935D01*
X182170813Y-82824605D01*
X182172821Y-82830784D01*
X182176068Y-82836408D01*
X182176069Y-82836410D01*
X182241134Y-82949107D01*
X182267467Y-82994716D01*
X182271811Y-82999541D01*
X182271813Y-82999543D01*
X182379569Y-83119218D01*
X182394129Y-83135388D01*
X182399387Y-83139208D01*
X182399388Y-83139209D01*
X182423467Y-83156703D01*
X182547270Y-83246651D01*
X182720197Y-83323644D01*
X182905354Y-83363000D01*
X183088143Y-83363000D01*
X183094646Y-83363000D01*
X183279803Y-83323644D01*
X183452730Y-83246651D01*
X183605871Y-83135388D01*
X183732533Y-82994716D01*
X183767008Y-82935002D01*
X183812396Y-82889615D01*
X183874396Y-82873002D01*
X183936396Y-82889615D01*
X183981783Y-82935002D01*
X183998396Y-82997002D01*
X183998396Y-83033926D01*
X183997874Y-83044981D01*
X183996223Y-83052368D01*
X183996467Y-83060154D01*
X183996467Y-83060162D01*
X183998335Y-83119574D01*
X183998396Y-83123469D01*
X183998396Y-83151051D01*
X183998884Y-83154920D01*
X183998885Y-83154926D01*
X183998900Y-83155044D01*
X183999814Y-83166667D01*
X184000941Y-83202531D01*
X184000942Y-83202538D01*
X184001187Y-83210328D01*
X184003363Y-83217820D01*
X184003364Y-83217822D01*
X184006775Y-83229563D01*
X184010721Y-83248616D01*
X184013232Y-83268493D01*
X184016102Y-83275743D01*
X184016104Y-83275749D01*
X184029310Y-83309105D01*
X184033093Y-83320152D01*
X184045278Y-83362091D01*
X184049249Y-83368806D01*
X184049250Y-83368808D01*
X184055477Y-83379338D01*
X184064032Y-83396800D01*
X184068538Y-83408181D01*
X184068539Y-83408184D01*
X184071410Y-83415433D01*
X184093336Y-83445613D01*
X184097077Y-83450761D01*
X184103489Y-83460523D01*
X184121752Y-83491403D01*
X184121755Y-83491408D01*
X184125726Y-83498121D01*
X184131241Y-83503635D01*
X184131241Y-83503636D01*
X184139886Y-83512281D01*
X184152522Y-83527075D01*
X184159715Y-83536976D01*
X184159719Y-83536980D01*
X184164302Y-83543288D01*
X184170311Y-83548259D01*
X184170312Y-83548260D01*
X184197954Y-83571127D01*
X184206595Y-83578990D01*
X186477402Y-85849798D01*
X186484854Y-85857987D01*
X186488909Y-85864377D01*
X186537918Y-85910400D01*
X186540714Y-85913110D01*
X186560224Y-85932620D01*
X186563404Y-85935087D01*
X186572266Y-85942655D01*
X186585715Y-85955285D01*
X186598427Y-85967223D01*
X186598429Y-85967224D01*
X186604113Y-85972562D01*
X186610946Y-85976318D01*
X186610947Y-85976319D01*
X186621668Y-85982213D01*
X186637929Y-85992894D01*
X186653759Y-86005173D01*
X186693849Y-86022521D01*
X186704326Y-86027654D01*
X186742603Y-86048697D01*
X186759652Y-86053074D01*
X186762000Y-86053677D01*
X186780414Y-86059981D01*
X186798799Y-86067938D01*
X186841960Y-86074773D01*
X186853359Y-86077134D01*
X186895676Y-86088000D01*
X186915712Y-86088000D01*
X186935097Y-86089525D01*
X186954891Y-86092660D01*
X186992971Y-86089060D01*
X186998371Y-86088550D01*
X187010040Y-86088000D01*
X188296252Y-86088000D01*
X188346685Y-86098719D01*
X188384781Y-86126395D01*
X188384950Y-86126209D01*
X188386728Y-86127810D01*
X188388398Y-86129023D01*
X188394129Y-86135388D01*
X188547270Y-86246651D01*
X188720197Y-86323644D01*
X188905354Y-86363000D01*
X189088143Y-86363000D01*
X189094646Y-86363000D01*
X189279803Y-86323644D01*
X189452730Y-86246651D01*
X189605871Y-86135388D01*
X189732533Y-85994716D01*
X189827179Y-85830784D01*
X189885674Y-85650756D01*
X189905460Y-85462500D01*
X189905558Y-85462510D01*
X189921394Y-85403413D01*
X189966781Y-85358026D01*
X190028781Y-85341413D01*
X195668812Y-85341413D01*
X195679867Y-85341934D01*
X195687254Y-85343586D01*
X195754459Y-85341474D01*
X195758355Y-85341413D01*
X195785937Y-85341413D01*
X195785937Y-85341724D01*
X195815438Y-85343887D01*
X195905354Y-85363000D01*
X196088143Y-85363000D01*
X196094646Y-85363000D01*
X196279803Y-85323644D01*
X196452730Y-85246651D01*
X196605871Y-85135388D01*
X196732533Y-84994716D01*
X196827179Y-84830784D01*
X196885674Y-84650756D01*
X196905460Y-84462500D01*
X196885674Y-84274244D01*
X196827179Y-84094216D01*
X196732533Y-83930284D01*
X196637229Y-83824439D01*
X196610220Y-83794442D01*
X196610219Y-83794441D01*
X196605871Y-83789612D01*
X196600613Y-83785792D01*
X196600611Y-83785790D01*
X196457988Y-83682169D01*
X196457987Y-83682168D01*
X196452730Y-83678349D01*
X196446792Y-83675705D01*
X196285745Y-83604001D01*
X196285740Y-83603999D01*
X196279803Y-83601356D01*
X196273444Y-83600004D01*
X196273440Y-83600003D01*
X196101008Y-83563352D01*
X196101005Y-83563351D01*
X196094646Y-83562000D01*
X195905354Y-83562000D01*
X195898995Y-83563351D01*
X195898991Y-83563352D01*
X195726559Y-83600003D01*
X195726552Y-83600005D01*
X195720197Y-83601356D01*
X195714262Y-83603998D01*
X195714254Y-83604001D01*
X195553207Y-83675705D01*
X195553202Y-83675707D01*
X195547270Y-83678349D01*
X195542016Y-83682165D01*
X195542011Y-83682169D01*
X195399388Y-83785790D01*
X195399381Y-83785795D01*
X195394129Y-83789612D01*
X195389784Y-83794437D01*
X195389779Y-83794442D01*
X195271813Y-83925456D01*
X195271808Y-83925462D01*
X195267467Y-83930284D01*
X195264222Y-83935903D01*
X195264220Y-83935907D01*
X195246608Y-83966413D01*
X195210813Y-84028413D01*
X195165426Y-84073800D01*
X195103426Y-84090413D01*
X193920130Y-84090413D01*
X193858130Y-84073800D01*
X193812743Y-84028413D01*
X193796130Y-83966413D01*
X193812743Y-83904413D01*
X193844977Y-83848582D01*
X193903472Y-83668554D01*
X193923258Y-83480298D01*
X193904643Y-83303187D01*
X193904151Y-83298502D01*
X193904150Y-83298501D01*
X193903472Y-83292042D01*
X193844977Y-83112014D01*
X193750331Y-82948082D01*
X193682728Y-82873002D01*
X193628018Y-82812240D01*
X193628017Y-82812239D01*
X193623669Y-82807410D01*
X193618411Y-82803590D01*
X193618409Y-82803588D01*
X193475786Y-82699967D01*
X193475785Y-82699966D01*
X193470528Y-82696147D01*
X193462566Y-82692602D01*
X193303543Y-82621799D01*
X193303538Y-82621797D01*
X193297601Y-82619154D01*
X193291242Y-82617802D01*
X193291238Y-82617801D01*
X193118806Y-82581150D01*
X193118803Y-82581149D01*
X193112444Y-82579798D01*
X192923152Y-82579798D01*
X192916793Y-82581149D01*
X192916789Y-82581150D01*
X192744357Y-82617801D01*
X192744350Y-82617803D01*
X192737995Y-82619154D01*
X192732060Y-82621796D01*
X192732052Y-82621799D01*
X192571005Y-82693503D01*
X192571000Y-82693505D01*
X192565068Y-82696147D01*
X192559814Y-82699963D01*
X192559809Y-82699967D01*
X192417186Y-82803588D01*
X192417179Y-82803593D01*
X192411927Y-82807410D01*
X192407582Y-82812235D01*
X192407577Y-82812240D01*
X192289611Y-82943254D01*
X192289606Y-82943260D01*
X192285265Y-82948082D01*
X192282020Y-82953702D01*
X192282016Y-82953708D01*
X192193867Y-83106387D01*
X192193864Y-83106392D01*
X192190619Y-83112014D01*
X192188613Y-83118186D01*
X192188611Y-83118192D01*
X192134131Y-83285862D01*
X192134129Y-83285871D01*
X192132124Y-83292042D01*
X192131446Y-83298492D01*
X192131444Y-83298502D01*
X192114350Y-83461154D01*
X192104572Y-83498032D01*
X192086400Y-83526503D01*
X192086741Y-83526768D01*
X192086504Y-83527075D01*
X192084279Y-83529942D01*
X192076721Y-83538787D01*
X192052159Y-83564944D01*
X192052152Y-83564953D01*
X192046817Y-83570635D01*
X192043059Y-83577468D01*
X192038475Y-83583780D01*
X192037252Y-83582891D01*
X191998244Y-83623145D01*
X191935123Y-83640413D01*
X191003037Y-83640413D01*
X190944822Y-83625898D01*
X190900236Y-83585753D01*
X190879716Y-83529374D01*
X190861143Y-83352657D01*
X190861430Y-83352626D01*
X190862837Y-83298889D01*
X190890459Y-83248015D01*
X191006429Y-83119218D01*
X191101075Y-82955286D01*
X191159570Y-82775258D01*
X191178090Y-82599038D01*
X191198611Y-82542659D01*
X191243197Y-82502514D01*
X191301412Y-82487999D01*
X191393458Y-82487999D01*
X191396768Y-82487999D01*
X191400069Y-82487644D01*
X191400071Y-82487644D01*
X191437990Y-82483568D01*
X191464502Y-82483568D01*
X191497763Y-82487144D01*
X191504392Y-82487500D01*
X191532570Y-82487500D01*
X191546709Y-82483711D01*
X191552480Y-82477940D01*
X191563171Y-82456583D01*
X191591940Y-82432249D01*
X191591227Y-82431296D01*
X191611232Y-82416320D01*
X191706442Y-82345046D01*
X191775629Y-82252623D01*
X191823385Y-82214140D01*
X191883742Y-82203251D01*
X191941936Y-82222620D01*
X191983728Y-82267508D01*
X191998896Y-82326935D01*
X191998896Y-82471174D01*
X192002346Y-82484049D01*
X192015222Y-82487500D01*
X192043414Y-82487500D01*
X192050010Y-82487146D01*
X192098563Y-82481926D01*
X192113537Y-82478388D01*
X192232673Y-82433952D01*
X192248085Y-82425537D01*
X192348988Y-82350001D01*
X192361397Y-82337592D01*
X192436933Y-82236689D01*
X192445348Y-82221277D01*
X192489784Y-82102141D01*
X192493322Y-82087167D01*
X192498542Y-82038614D01*
X192498896Y-82032018D01*
X192498896Y-81353826D01*
X192495445Y-81340950D01*
X192482570Y-81337500D01*
X192015219Y-81337500D01*
X192005484Y-81340108D01*
X191949201Y-81341949D01*
X191897907Y-81318706D01*
X191862182Y-81275175D01*
X191849395Y-81220334D01*
X191849395Y-81011498D01*
X191866008Y-80949500D01*
X191911395Y-80904113D01*
X191973395Y-80887500D01*
X192482570Y-80887500D01*
X192495445Y-80884049D01*
X192498896Y-80871174D01*
X192498896Y-80212000D01*
X192515509Y-80150000D01*
X192560896Y-80104613D01*
X192622896Y-80088000D01*
X195195017Y-80088000D01*
X195206072Y-80088521D01*
X195213459Y-80090173D01*
X195280664Y-80088061D01*
X195284560Y-80088000D01*
X195308240Y-80088000D01*
X195312142Y-80088000D01*
X195316105Y-80087499D01*
X195327755Y-80086580D01*
X195371419Y-80085209D01*
X195390653Y-80079619D01*
X195409709Y-80075674D01*
X195429584Y-80073164D01*
X195470187Y-80057087D01*
X195481242Y-80053302D01*
X195523182Y-80041118D01*
X195540421Y-80030922D01*
X195557895Y-80022362D01*
X195569266Y-80017860D01*
X195569268Y-80017858D01*
X195576524Y-80014986D01*
X195611861Y-79989311D01*
X195621616Y-79982903D01*
X195659212Y-79960670D01*
X195673376Y-79946505D01*
X195688171Y-79933868D01*
X195704379Y-79922094D01*
X195732220Y-79888438D01*
X195740071Y-79879809D01*
X201902684Y-73717197D01*
X201954524Y-73686172D01*
X202014873Y-73683326D01*
X202069404Y-73709336D01*
X202105172Y-73758027D01*
X202113685Y-73817841D01*
X202094540Y-74000000D01*
X202095219Y-74006460D01*
X202113646Y-74181795D01*
X202113647Y-74181803D01*
X202114326Y-74188256D01*
X202116331Y-74194428D01*
X202116333Y-74194435D01*
X202170813Y-74362105D01*
X202172821Y-74368284D01*
X202176068Y-74373908D01*
X202176069Y-74373910D01*
X202262052Y-74522838D01*
X202267467Y-74532216D01*
X202271811Y-74537041D01*
X202271813Y-74537043D01*
X202342650Y-74615715D01*
X202366264Y-74654249D01*
X202374500Y-74698687D01*
X202374500Y-75225554D01*
X202362421Y-75278937D01*
X202328537Y-75321919D01*
X202279449Y-75346127D01*
X202224721Y-75346844D01*
X202197058Y-75340965D01*
X202007766Y-75340965D01*
X202001407Y-75342316D01*
X202001403Y-75342317D01*
X201828971Y-75378968D01*
X201828964Y-75378970D01*
X201822609Y-75380321D01*
X201816674Y-75382963D01*
X201816666Y-75382966D01*
X201655619Y-75454670D01*
X201655614Y-75454672D01*
X201649682Y-75457314D01*
X201644428Y-75461130D01*
X201644423Y-75461134D01*
X201501800Y-75564755D01*
X201501793Y-75564760D01*
X201496541Y-75568577D01*
X201492196Y-75573402D01*
X201492191Y-75573407D01*
X201369879Y-75709249D01*
X201369007Y-75708464D01*
X201330998Y-75740929D01*
X201274701Y-75754445D01*
X201097799Y-75754445D01*
X201091440Y-75755796D01*
X201091436Y-75755797D01*
X200919004Y-75792448D01*
X200918997Y-75792450D01*
X200912642Y-75793801D01*
X200906707Y-75796443D01*
X200906699Y-75796446D01*
X200745652Y-75868150D01*
X200745647Y-75868152D01*
X200739715Y-75870794D01*
X200734461Y-75874610D01*
X200734456Y-75874614D01*
X200591833Y-75978235D01*
X200591826Y-75978240D01*
X200586574Y-75982057D01*
X200582229Y-75986882D01*
X200582224Y-75986887D01*
X200464258Y-76117901D01*
X200464253Y-76117907D01*
X200459912Y-76122729D01*
X200456667Y-76128349D01*
X200456663Y-76128355D01*
X200368514Y-76281034D01*
X200368511Y-76281039D01*
X200365266Y-76286661D01*
X200363260Y-76292833D01*
X200363258Y-76292839D01*
X200308778Y-76460509D01*
X200308776Y-76460518D01*
X200306771Y-76466689D01*
X200306093Y-76473139D01*
X200306091Y-76473149D01*
X200291168Y-76615143D01*
X200286985Y-76654945D01*
X200287664Y-76661405D01*
X200306091Y-76836740D01*
X200306092Y-76836748D01*
X200306771Y-76843201D01*
X200308776Y-76849373D01*
X200308778Y-76849380D01*
X200363258Y-77017050D01*
X200365266Y-77023229D01*
X200368513Y-77028853D01*
X200368514Y-77028855D01*
X200456471Y-77181202D01*
X200459912Y-77187161D01*
X200464256Y-77191986D01*
X200464258Y-77191988D01*
X200535095Y-77270660D01*
X200558709Y-77309194D01*
X200566945Y-77353632D01*
X200566945Y-78959603D01*
X200557506Y-79007056D01*
X200530626Y-79047284D01*
X199956796Y-79621111D01*
X199948611Y-79628559D01*
X199942223Y-79632614D01*
X199936888Y-79638294D01*
X199936883Y-79638299D01*
X199896196Y-79681625D01*
X199893492Y-79684416D01*
X199876728Y-79701180D01*
X199876721Y-79701187D01*
X199873980Y-79703929D01*
X199871600Y-79706996D01*
X199871589Y-79707009D01*
X199871500Y-79707125D01*
X199863942Y-79715970D01*
X199839380Y-79742127D01*
X199839373Y-79742136D01*
X199834038Y-79747818D01*
X199830282Y-79754649D01*
X199830279Y-79754654D01*
X199824385Y-79765375D01*
X199813709Y-79781627D01*
X199806209Y-79791296D01*
X199806201Y-79791307D01*
X199801427Y-79797464D01*
X199798334Y-79804608D01*
X199798329Y-79804619D01*
X199784074Y-79837560D01*
X199778938Y-79848043D01*
X199763823Y-79875539D01*
X199757903Y-79886308D01*
X199755964Y-79893856D01*
X199755963Y-79893861D01*
X199752922Y-79905707D01*
X199746621Y-79924111D01*
X199741757Y-79935349D01*
X199741754Y-79935357D01*
X199740825Y-79937503D01*
X199740825Y-79937505D01*
X199738663Y-79942502D01*
X199738163Y-79942286D01*
X199714544Y-79984717D01*
X199611567Y-80099086D01*
X199608322Y-80104706D01*
X199608318Y-80104712D01*
X199520169Y-80257391D01*
X199520166Y-80257396D01*
X199516921Y-80263018D01*
X199514915Y-80269190D01*
X199514913Y-80269196D01*
X199460433Y-80436866D01*
X199460431Y-80436875D01*
X199458426Y-80443046D01*
X199457748Y-80449496D01*
X199457746Y-80449506D01*
X199441388Y-80605153D01*
X199438640Y-80631302D01*
X199440141Y-80645582D01*
X199457746Y-80813097D01*
X199457747Y-80813105D01*
X199458426Y-80819558D01*
X199460431Y-80825730D01*
X199460433Y-80825737D01*
X199510533Y-80979926D01*
X199516921Y-80999586D01*
X199520168Y-81005210D01*
X199520169Y-81005212D01*
X199608040Y-81157410D01*
X199611567Y-81163518D01*
X199615913Y-81168345D01*
X199619735Y-81173605D01*
X199618342Y-81174616D01*
X199641462Y-81217630D01*
X199642264Y-81276526D01*
X199615800Y-81329146D01*
X199568041Y-81363620D01*
X199521772Y-81370406D01*
X199521833Y-81372327D01*
X199454627Y-81374439D01*
X199450732Y-81374500D01*
X199423150Y-81374500D01*
X199419305Y-81374985D01*
X199419280Y-81374987D01*
X199419153Y-81375004D01*
X199407534Y-81375918D01*
X199371672Y-81377045D01*
X199371665Y-81377046D01*
X199363873Y-81377291D01*
X199356388Y-81379465D01*
X199356372Y-81379468D01*
X199344626Y-81382881D01*
X199325583Y-81386825D01*
X199313449Y-81388358D01*
X199313448Y-81388358D01*
X199305708Y-81389336D01*
X199298458Y-81392205D01*
X199298451Y-81392208D01*
X199265098Y-81405413D01*
X199254054Y-81409194D01*
X199219601Y-81419204D01*
X199219590Y-81419208D01*
X199212110Y-81421382D01*
X199205398Y-81425351D01*
X199205396Y-81425352D01*
X199194864Y-81431580D01*
X199177404Y-81440134D01*
X199166019Y-81444642D01*
X199166013Y-81444644D01*
X199158768Y-81447514D01*
X199152463Y-81452094D01*
X199152455Y-81452099D01*
X199123432Y-81473185D01*
X199113674Y-81479595D01*
X199082796Y-81497857D01*
X199082790Y-81497861D01*
X199076080Y-81501830D01*
X199070567Y-81507341D01*
X199070560Y-81507348D01*
X199061910Y-81515998D01*
X199047127Y-81528624D01*
X199037226Y-81535817D01*
X199037216Y-81535826D01*
X199030913Y-81540406D01*
X199025944Y-81546411D01*
X199025941Y-81546415D01*
X199003072Y-81574059D01*
X198995211Y-81582697D01*
X198537696Y-82040211D01*
X198529511Y-82047659D01*
X198523123Y-82051714D01*
X198517788Y-82057394D01*
X198517783Y-82057399D01*
X198477096Y-82100725D01*
X198474392Y-82103516D01*
X198457628Y-82120280D01*
X198457621Y-82120287D01*
X198454880Y-82123029D01*
X198452500Y-82126096D01*
X198452489Y-82126109D01*
X198452400Y-82126225D01*
X198444842Y-82135070D01*
X198420280Y-82161227D01*
X198420273Y-82161236D01*
X198414938Y-82166918D01*
X198411182Y-82173749D01*
X198411179Y-82173754D01*
X198405285Y-82184475D01*
X198394609Y-82200727D01*
X198387109Y-82210396D01*
X198387101Y-82210407D01*
X198382327Y-82216564D01*
X198379234Y-82223708D01*
X198379229Y-82223719D01*
X198364974Y-82256660D01*
X198359838Y-82267143D01*
X198342560Y-82298573D01*
X198338803Y-82305408D01*
X198336864Y-82312956D01*
X198336863Y-82312961D01*
X198333822Y-82324807D01*
X198327521Y-82343211D01*
X198322658Y-82354448D01*
X198322656Y-82354452D01*
X198319562Y-82361604D01*
X198318342Y-82369303D01*
X198318342Y-82369305D01*
X198312729Y-82404741D01*
X198310361Y-82416176D01*
X198301438Y-82450928D01*
X198301436Y-82450936D01*
X198299500Y-82458481D01*
X198299500Y-82466277D01*
X198299500Y-82478517D01*
X198297974Y-82497902D01*
X198294840Y-82517696D01*
X198295574Y-82525461D01*
X198295574Y-82525464D01*
X198298950Y-82561176D01*
X198299500Y-82572845D01*
X198299500Y-87249596D01*
X198287747Y-87302289D01*
X198254717Y-87344994D01*
X198206670Y-87369614D01*
X198152716Y-87371484D01*
X198123811Y-87366081D01*
X198107605Y-87363052D01*
X198107602Y-87363051D01*
X198101976Y-87362000D01*
X197898024Y-87362000D01*
X197892398Y-87363051D01*
X197892394Y-87363052D01*
X197703181Y-87398422D01*
X197703178Y-87398422D01*
X197697544Y-87399476D01*
X197692203Y-87401544D01*
X197692196Y-87401547D01*
X197512705Y-87471082D01*
X197512700Y-87471084D01*
X197507363Y-87473152D01*
X197502491Y-87476168D01*
X197502488Y-87476170D01*
X197338830Y-87577502D01*
X197338822Y-87577507D01*
X197333959Y-87580519D01*
X197329728Y-87584375D01*
X197329724Y-87584379D01*
X197187476Y-87714054D01*
X197187466Y-87714064D01*
X197183236Y-87717921D01*
X197179787Y-87722487D01*
X197179778Y-87722498D01*
X197098954Y-87829528D01*
X197055271Y-87865801D01*
X197000000Y-87878801D01*
X196944729Y-87865801D01*
X196901046Y-87829528D01*
X196820221Y-87722498D01*
X196820217Y-87722494D01*
X196816764Y-87717921D01*
X196812527Y-87714058D01*
X196812523Y-87714054D01*
X196670275Y-87584379D01*
X196670276Y-87584379D01*
X196666041Y-87580519D01*
X196661171Y-87577504D01*
X196661169Y-87577502D01*
X196497511Y-87476170D01*
X196497512Y-87476170D01*
X196492637Y-87473152D01*
X196444865Y-87454645D01*
X196307803Y-87401547D01*
X196307798Y-87401545D01*
X196302456Y-87399476D01*
X196296818Y-87398422D01*
X196107605Y-87363052D01*
X196107602Y-87363051D01*
X196101976Y-87362000D01*
X195898024Y-87362000D01*
X195892398Y-87363051D01*
X195892394Y-87363052D01*
X195703181Y-87398422D01*
X195703178Y-87398422D01*
X195697544Y-87399476D01*
X195692203Y-87401544D01*
X195692196Y-87401547D01*
X195512705Y-87471082D01*
X195512700Y-87471084D01*
X195507363Y-87473152D01*
X195502491Y-87476168D01*
X195502488Y-87476170D01*
X195338830Y-87577502D01*
X195338822Y-87577507D01*
X195333959Y-87580519D01*
X195329728Y-87584375D01*
X195329724Y-87584379D01*
X195187476Y-87714054D01*
X195187466Y-87714064D01*
X195183236Y-87717921D01*
X195179783Y-87722493D01*
X195179778Y-87722499D01*
X195088317Y-87843613D01*
X195037985Y-87882956D01*
X194974747Y-87892022D01*
X194956986Y-87884955D01*
X194938579Y-87883675D01*
X194924889Y-87891162D01*
X194365096Y-88450956D01*
X194358431Y-88462500D01*
X194365095Y-88474042D01*
X194924890Y-89033837D01*
X194938580Y-89041325D01*
X194956963Y-89040049D01*
X194974754Y-89032973D01*
X195037987Y-89042042D01*
X195088315Y-89081383D01*
X195179778Y-89202501D01*
X195179783Y-89202506D01*
X195183236Y-89207079D01*
X195187472Y-89210940D01*
X195187476Y-89210945D01*
X195289227Y-89303703D01*
X195333959Y-89344481D01*
X195350997Y-89355030D01*
X195354297Y-89357074D01*
X195397348Y-89402162D01*
X195413018Y-89462500D01*
X195397348Y-89522838D01*
X195354297Y-89567926D01*
X195338832Y-89577502D01*
X195333959Y-89580519D01*
X195329728Y-89584375D01*
X195329724Y-89584379D01*
X195187476Y-89714054D01*
X195187466Y-89714064D01*
X195183236Y-89717921D01*
X195179783Y-89722493D01*
X195179778Y-89722499D01*
X195088317Y-89843613D01*
X195037985Y-89882956D01*
X194974747Y-89892022D01*
X194956986Y-89884955D01*
X194938579Y-89883675D01*
X194924889Y-89891162D01*
X194090372Y-90725681D01*
X194050144Y-90752561D01*
X194002691Y-90762000D01*
X193997309Y-90762000D01*
X193949856Y-90752561D01*
X193909628Y-90725681D01*
X193075112Y-89891165D01*
X193062945Y-89884511D01*
X193056643Y-89889198D01*
X192972445Y-90058291D01*
X192968314Y-90068954D01*
X192915666Y-90253995D01*
X192913568Y-90265217D01*
X192895816Y-90456791D01*
X192895816Y-90468209D01*
X192910489Y-90626559D01*
X192898018Y-90693272D01*
X192852296Y-90743427D01*
X192787018Y-90762000D01*
X191860345Y-90762000D01*
X191856485Y-90762487D01*
X191856478Y-90762488D01*
X191750641Y-90775858D01*
X191750637Y-90775858D01*
X191742903Y-90776836D01*
X191735653Y-90779706D01*
X191735651Y-90779707D01*
X191603212Y-90832143D01*
X191603206Y-90832146D01*
X191595963Y-90835014D01*
X191589658Y-90839594D01*
X191589654Y-90839597D01*
X191474421Y-90923318D01*
X191474414Y-90923323D01*
X191468108Y-90927906D01*
X191463139Y-90933911D01*
X191463133Y-90933918D01*
X191372344Y-91043665D01*
X191372342Y-91043667D01*
X191367371Y-91049677D01*
X191364051Y-91056732D01*
X191364048Y-91056737D01*
X191345821Y-91095472D01*
X191329312Y-91130557D01*
X191324493Y-91140797D01*
X191278737Y-91192697D01*
X191212295Y-91212000D01*
X190452771Y-91212000D01*
X190441718Y-91211479D01*
X190434332Y-91209828D01*
X190426534Y-91210073D01*
X190367144Y-91211939D01*
X190363250Y-91212000D01*
X190335650Y-91212000D01*
X190331799Y-91212486D01*
X190331768Y-91212488D01*
X190331640Y-91212505D01*
X190320029Y-91213418D01*
X190284171Y-91214545D01*
X190284164Y-91214546D01*
X190276372Y-91214791D01*
X190268888Y-91216965D01*
X190268877Y-91216967D01*
X190257128Y-91220381D01*
X190238083Y-91224325D01*
X190225947Y-91225858D01*
X190225944Y-91225858D01*
X190218208Y-91226836D01*
X190210960Y-91229705D01*
X190210950Y-91229708D01*
X190177592Y-91242915D01*
X190166550Y-91246696D01*
X190132097Y-91256707D01*
X190132092Y-91256708D01*
X190124610Y-91258883D01*
X190117902Y-91262849D01*
X190117897Y-91262852D01*
X190107364Y-91269081D01*
X190089900Y-91277636D01*
X190078524Y-91282140D01*
X190078517Y-91282143D01*
X190071268Y-91285014D01*
X190064962Y-91289594D01*
X190064957Y-91289598D01*
X190035927Y-91310689D01*
X190026169Y-91317098D01*
X189995298Y-91335356D01*
X189988579Y-91339330D01*
X189983063Y-91344844D01*
X189983056Y-91344851D01*
X189974407Y-91353500D01*
X189959624Y-91366126D01*
X189949727Y-91373317D01*
X189949720Y-91373323D01*
X189943413Y-91377906D01*
X189938446Y-91383908D01*
X189938435Y-91383920D01*
X189915570Y-91411559D01*
X189907710Y-91420197D01*
X188514929Y-92812980D01*
X188474701Y-92839860D01*
X188427248Y-92849299D01*
X185797153Y-92849299D01*
X185740858Y-92835784D01*
X185696835Y-92798184D01*
X185674680Y-92744697D01*
X185679222Y-92686981D01*
X185709472Y-92637618D01*
X186282253Y-92064838D01*
X186947771Y-91399319D01*
X186988000Y-91372439D01*
X187035453Y-91363000D01*
X187088143Y-91363000D01*
X187094646Y-91363000D01*
X187279803Y-91323644D01*
X187452730Y-91246651D01*
X187605871Y-91135388D01*
X187732533Y-90994716D01*
X187827179Y-90830784D01*
X187885674Y-90650756D01*
X187905460Y-90462500D01*
X187885674Y-90274244D01*
X187827179Y-90094216D01*
X187732533Y-89930284D01*
X187691718Y-89884955D01*
X187610220Y-89794442D01*
X187610219Y-89794441D01*
X187605871Y-89789612D01*
X187600613Y-89785792D01*
X187600611Y-89785790D01*
X187457988Y-89682169D01*
X187457987Y-89682168D01*
X187452730Y-89678349D01*
X187446792Y-89675705D01*
X187285745Y-89604001D01*
X187285740Y-89603999D01*
X187279803Y-89601356D01*
X187273444Y-89600004D01*
X187273440Y-89600003D01*
X187101008Y-89563352D01*
X187101005Y-89563351D01*
X187094646Y-89562000D01*
X186905354Y-89562000D01*
X186898995Y-89563351D01*
X186898991Y-89563352D01*
X186726559Y-89600003D01*
X186726552Y-89600005D01*
X186720197Y-89601356D01*
X186714262Y-89603998D01*
X186714254Y-89604001D01*
X186553207Y-89675705D01*
X186553202Y-89675707D01*
X186547270Y-89678349D01*
X186542016Y-89682165D01*
X186542011Y-89682169D01*
X186399388Y-89785790D01*
X186399381Y-89785795D01*
X186394129Y-89789612D01*
X186389784Y-89794437D01*
X186389779Y-89794442D01*
X186271813Y-89925456D01*
X186271808Y-89925462D01*
X186267467Y-89930284D01*
X186264222Y-89935904D01*
X186264218Y-89935910D01*
X186176069Y-90088589D01*
X186176066Y-90088594D01*
X186172821Y-90094216D01*
X186170815Y-90100388D01*
X186170813Y-90100394D01*
X186116333Y-90268064D01*
X186116331Y-90268073D01*
X186114326Y-90274244D01*
X186113647Y-90280703D01*
X186113647Y-90280704D01*
X186096678Y-90442151D01*
X186085278Y-90482573D01*
X186061038Y-90516870D01*
X180412696Y-96165211D01*
X180404511Y-96172659D01*
X180398123Y-96176714D01*
X180392788Y-96182394D01*
X180392783Y-96182399D01*
X180352096Y-96225725D01*
X180349392Y-96228516D01*
X180332628Y-96245280D01*
X180332621Y-96245287D01*
X180329880Y-96248029D01*
X180327500Y-96251096D01*
X180327489Y-96251109D01*
X180327400Y-96251225D01*
X180319842Y-96260070D01*
X180295280Y-96286227D01*
X180295273Y-96286236D01*
X180289938Y-96291918D01*
X180286182Y-96298749D01*
X180286179Y-96298754D01*
X180280285Y-96309475D01*
X180269609Y-96325727D01*
X180262109Y-96335396D01*
X180262101Y-96335407D01*
X180257327Y-96341564D01*
X180254234Y-96348708D01*
X180254229Y-96348719D01*
X180239974Y-96381660D01*
X180234838Y-96392143D01*
X180231885Y-96397515D01*
X180213803Y-96430408D01*
X180211864Y-96437956D01*
X180211863Y-96437961D01*
X180208822Y-96449807D01*
X180202521Y-96468211D01*
X180197658Y-96479448D01*
X180197656Y-96479452D01*
X180194562Y-96486604D01*
X180193342Y-96494303D01*
X180193342Y-96494305D01*
X180187729Y-96529741D01*
X180185361Y-96541176D01*
X180176438Y-96575928D01*
X180176436Y-96575936D01*
X180174500Y-96583481D01*
X180174500Y-96591277D01*
X180174500Y-96603517D01*
X180172974Y-96622902D01*
X180169840Y-96642696D01*
X180170574Y-96650461D01*
X180170574Y-96650464D01*
X180173950Y-96686176D01*
X180174500Y-96697845D01*
X180174500Y-105184725D01*
X180173978Y-105195780D01*
X180172327Y-105203167D01*
X180172571Y-105210953D01*
X180172571Y-105210961D01*
X180174439Y-105270373D01*
X180174500Y-105274244D01*
X180174500Y-105301850D01*
X180174988Y-105305719D01*
X180174989Y-105305725D01*
X180175004Y-105305843D01*
X180175918Y-105317466D01*
X180177045Y-105353330D01*
X180177046Y-105353337D01*
X180177291Y-105361127D01*
X180179467Y-105368619D01*
X180179468Y-105368621D01*
X180182879Y-105380362D01*
X180186825Y-105399415D01*
X180189336Y-105419292D01*
X180192206Y-105426542D01*
X180192208Y-105426548D01*
X180205414Y-105459904D01*
X180209197Y-105470951D01*
X180221382Y-105512890D01*
X180225353Y-105519605D01*
X180225354Y-105519607D01*
X180231581Y-105530137D01*
X180240136Y-105547599D01*
X180244642Y-105558980D01*
X180244643Y-105558983D01*
X180247514Y-105566232D01*
X180258054Y-105580739D01*
X180273181Y-105601560D01*
X180279593Y-105611322D01*
X180297856Y-105642202D01*
X180297859Y-105642207D01*
X180301830Y-105648920D01*
X180307345Y-105654435D01*
X180315990Y-105663080D01*
X180328626Y-105677874D01*
X180335819Y-105687775D01*
X180335823Y-105687779D01*
X180340406Y-105694087D01*
X180346415Y-105699058D01*
X180346416Y-105699059D01*
X180374058Y-105721926D01*
X180382699Y-105729789D01*
X185061038Y-110408128D01*
X185085278Y-110442426D01*
X185096678Y-110482847D01*
X185112660Y-110634904D01*
X185114326Y-110650756D01*
X185116331Y-110656928D01*
X185116333Y-110656935D01*
X185170813Y-110824605D01*
X185172821Y-110830784D01*
X185267467Y-110994716D01*
X185271811Y-110999541D01*
X185271813Y-110999543D01*
X185274424Y-111002443D01*
X185394129Y-111135388D01*
X185547270Y-111246651D01*
X185720197Y-111323644D01*
X185905354Y-111363000D01*
X186088143Y-111363000D01*
X186094646Y-111363000D01*
X186279803Y-111323644D01*
X186452730Y-111246651D01*
X186605871Y-111135388D01*
X186732533Y-110994716D01*
X186827179Y-110830784D01*
X186885674Y-110650756D01*
X186905460Y-110462500D01*
X186888588Y-110301970D01*
X186886353Y-110280704D01*
X186886352Y-110280703D01*
X186885674Y-110274244D01*
X186827179Y-110094216D01*
X186732533Y-109930284D01*
X186716924Y-109912949D01*
X186610220Y-109794442D01*
X186610219Y-109794441D01*
X186605871Y-109789612D01*
X186600613Y-109785792D01*
X186600611Y-109785790D01*
X186457988Y-109682169D01*
X186457987Y-109682168D01*
X186452730Y-109678349D01*
X186433940Y-109669983D01*
X186285745Y-109604001D01*
X186285740Y-109603999D01*
X186279803Y-109601356D01*
X186273444Y-109600004D01*
X186273440Y-109600003D01*
X186101008Y-109563352D01*
X186101005Y-109563351D01*
X186094646Y-109562000D01*
X186088143Y-109562000D01*
X186035452Y-109562000D01*
X185987999Y-109552561D01*
X185947771Y-109525681D01*
X182996772Y-106574681D01*
X182966522Y-106525318D01*
X182961980Y-106467602D01*
X182984135Y-106414115D01*
X183028158Y-106376515D01*
X183084453Y-106363000D01*
X183088143Y-106363000D01*
X183094646Y-106363000D01*
X183279803Y-106323644D01*
X183452730Y-106246651D01*
X183605871Y-106135388D01*
X183732533Y-105994716D01*
X183827179Y-105830784D01*
X183885674Y-105650756D01*
X183905460Y-105462500D01*
X183888983Y-105305725D01*
X183886353Y-105280704D01*
X183886352Y-105280703D01*
X183885674Y-105274244D01*
X183827179Y-105094216D01*
X183732533Y-104930284D01*
X183727773Y-104924998D01*
X183610220Y-104794442D01*
X183610219Y-104794441D01*
X183605871Y-104789612D01*
X183600613Y-104785792D01*
X183600611Y-104785790D01*
X183457988Y-104682169D01*
X183457987Y-104682168D01*
X183452730Y-104678349D01*
X183446792Y-104675705D01*
X183285738Y-104603998D01*
X183285734Y-104603996D01*
X183279803Y-104601356D01*
X183273450Y-104600005D01*
X183267265Y-104597996D01*
X183267597Y-104596974D01*
X183245642Y-104588856D01*
X183217183Y-104567593D01*
X182611818Y-103962228D01*
X182584938Y-103922000D01*
X182575499Y-103874547D01*
X182575499Y-103538973D01*
X182575499Y-103535824D01*
X182565174Y-103434747D01*
X182510908Y-103270984D01*
X182420340Y-103124150D01*
X182306371Y-103010181D01*
X182274277Y-102954594D01*
X182274277Y-102890406D01*
X182306371Y-102834819D01*
X182347772Y-102793418D01*
X182420340Y-102720850D01*
X182510908Y-102574016D01*
X182565174Y-102410253D01*
X182575500Y-102309177D01*
X182575499Y-101710824D01*
X182565174Y-101609747D01*
X182510908Y-101445984D01*
X182420340Y-101299150D01*
X182298350Y-101177160D01*
X182292204Y-101173369D01*
X182292195Y-101173362D01*
X182284401Y-101168555D01*
X182241222Y-101123449D01*
X182225500Y-101063018D01*
X182225500Y-100781982D01*
X182241222Y-100721551D01*
X182284401Y-100676445D01*
X182292195Y-100671637D01*
X182292198Y-100671634D01*
X182298350Y-100667840D01*
X182420340Y-100545850D01*
X182510908Y-100399016D01*
X182565174Y-100235253D01*
X182575500Y-100134177D01*
X182575499Y-99795450D01*
X182584938Y-99747998D01*
X182611815Y-99707773D01*
X182888131Y-99431458D01*
X182948442Y-99398199D01*
X183017201Y-99402253D01*
X183073188Y-99442373D01*
X183099130Y-99506179D01*
X183112334Y-99631805D01*
X183114326Y-99650756D01*
X183116331Y-99656928D01*
X183116333Y-99656935D01*
X183170813Y-99824605D01*
X183172821Y-99830784D01*
X183176068Y-99836408D01*
X183176069Y-99836410D01*
X183248979Y-99962695D01*
X183267467Y-99994716D01*
X183394129Y-100135388D01*
X183547270Y-100246651D01*
X183720197Y-100323644D01*
X183905354Y-100363000D01*
X184088143Y-100363000D01*
X184094646Y-100363000D01*
X184279803Y-100323644D01*
X184452730Y-100246651D01*
X184605871Y-100135388D01*
X184732533Y-99994716D01*
X184827179Y-99830784D01*
X184885674Y-99650756D01*
X184886211Y-99645644D01*
X184909520Y-99595659D01*
X184952876Y-99560550D01*
X185007234Y-99548000D01*
X185315717Y-99548000D01*
X185373192Y-99562124D01*
X185417573Y-99601279D01*
X185438750Y-99656546D01*
X185431899Y-99715332D01*
X185408621Y-99777744D01*
X185408619Y-99777748D01*
X185405909Y-99785017D01*
X185405079Y-99792727D01*
X185405079Y-99792732D01*
X185399855Y-99841319D01*
X185399854Y-99841331D01*
X185399500Y-99844627D01*
X185399500Y-99847948D01*
X185399500Y-99847949D01*
X185399500Y-100537060D01*
X185399500Y-100537078D01*
X185399501Y-100540372D01*
X185399853Y-100543650D01*
X185399854Y-100543661D01*
X185405079Y-100592268D01*
X185405080Y-100592273D01*
X185405909Y-100599983D01*
X185408619Y-100607249D01*
X185408620Y-100607253D01*
X185427935Y-100659038D01*
X185456204Y-100734831D01*
X185461516Y-100741927D01*
X185461520Y-100741934D01*
X185469948Y-100753192D01*
X185491845Y-100801143D01*
X185491845Y-100853857D01*
X185469948Y-100901808D01*
X185461520Y-100913065D01*
X185461514Y-100913075D01*
X185456204Y-100920169D01*
X185453104Y-100928478D01*
X185453104Y-100928480D01*
X185408620Y-101047747D01*
X185408619Y-101047750D01*
X185405909Y-101055017D01*
X185405079Y-101062727D01*
X185405079Y-101062732D01*
X185399855Y-101111319D01*
X185399854Y-101111331D01*
X185399500Y-101114627D01*
X185399500Y-101117948D01*
X185399500Y-101117949D01*
X185399500Y-101807060D01*
X185399500Y-101807078D01*
X185399501Y-101810372D01*
X185399853Y-101813650D01*
X185399854Y-101813661D01*
X185405079Y-101862268D01*
X185405080Y-101862273D01*
X185405909Y-101869983D01*
X185408619Y-101877249D01*
X185408620Y-101877253D01*
X185433948Y-101945160D01*
X185456204Y-102004831D01*
X185461516Y-102011927D01*
X185461520Y-102011934D01*
X185469948Y-102023192D01*
X185491845Y-102071143D01*
X185491845Y-102123857D01*
X185469948Y-102171808D01*
X185461520Y-102183065D01*
X185461514Y-102183075D01*
X185456204Y-102190169D01*
X185453104Y-102198478D01*
X185453104Y-102198480D01*
X185408620Y-102317747D01*
X185408619Y-102317750D01*
X185405909Y-102325017D01*
X185405079Y-102332727D01*
X185405079Y-102332732D01*
X185399855Y-102381319D01*
X185399854Y-102381331D01*
X185399500Y-102384627D01*
X185399500Y-102387948D01*
X185399500Y-102387949D01*
X185399500Y-103077060D01*
X185399500Y-103077078D01*
X185399501Y-103080372D01*
X185399853Y-103083650D01*
X185399854Y-103083661D01*
X185405079Y-103132268D01*
X185405080Y-103132273D01*
X185405909Y-103139983D01*
X185408619Y-103147249D01*
X185408620Y-103147253D01*
X185442217Y-103237331D01*
X185456204Y-103274831D01*
X185542454Y-103390046D01*
X185657669Y-103476296D01*
X185792517Y-103526591D01*
X185852127Y-103533000D01*
X188147872Y-103532999D01*
X188207483Y-103526591D01*
X188342331Y-103476296D01*
X188457546Y-103390046D01*
X188543796Y-103274831D01*
X188594091Y-103139983D01*
X188600500Y-103080373D01*
X188600499Y-102384628D01*
X188594091Y-102325017D01*
X188543796Y-102190169D01*
X188530052Y-102171810D01*
X188508152Y-102123856D01*
X188508154Y-102071136D01*
X188530055Y-102023186D01*
X188543796Y-102004831D01*
X188594091Y-101869983D01*
X188600500Y-101810373D01*
X188600499Y-101114628D01*
X188594091Y-101055017D01*
X188543796Y-100920169D01*
X188530054Y-100901813D01*
X188508153Y-100853860D01*
X188508153Y-100801140D01*
X188530055Y-100753186D01*
X188531205Y-100751650D01*
X188543796Y-100734831D01*
X188594091Y-100599983D01*
X188600500Y-100540373D01*
X188600499Y-100451326D01*
X188612578Y-100397946D01*
X188646463Y-100354962D01*
X188695551Y-100330754D01*
X188750278Y-100330038D01*
X188905354Y-100363000D01*
X189088143Y-100363000D01*
X189094646Y-100363000D01*
X189279803Y-100323644D01*
X189452730Y-100246651D01*
X189605871Y-100135388D01*
X189732533Y-99994716D01*
X189827179Y-99830784D01*
X189885674Y-99650756D01*
X189905460Y-99462500D01*
X189885674Y-99274244D01*
X189827179Y-99094216D01*
X189732533Y-98930284D01*
X189686375Y-98879021D01*
X189610220Y-98794442D01*
X189610219Y-98794441D01*
X189605871Y-98789612D01*
X189600613Y-98785792D01*
X189600611Y-98785790D01*
X189457988Y-98682169D01*
X189457987Y-98682168D01*
X189452730Y-98678349D01*
X189446792Y-98675705D01*
X189285745Y-98604001D01*
X189285740Y-98603999D01*
X189279803Y-98601356D01*
X189273444Y-98600004D01*
X189273440Y-98600003D01*
X189101008Y-98563352D01*
X189101005Y-98563351D01*
X189094646Y-98562000D01*
X188905354Y-98562000D01*
X188898998Y-98563350D01*
X188898988Y-98563352D01*
X188737180Y-98597745D01*
X188673968Y-98594670D01*
X188620506Y-98560801D01*
X188595753Y-98514396D01*
X188594091Y-98515017D01*
X188543796Y-98380169D01*
X188530054Y-98361812D01*
X188508153Y-98313856D01*
X188508154Y-98261137D01*
X188530055Y-98213185D01*
X188543796Y-98194831D01*
X188594091Y-98059983D01*
X188600500Y-98000373D01*
X188600499Y-97304628D01*
X188594091Y-97245017D01*
X188543796Y-97110169D01*
X188530054Y-97091813D01*
X188508153Y-97043860D01*
X188508153Y-96991140D01*
X188530055Y-96943186D01*
X188543796Y-96924831D01*
X188594091Y-96789983D01*
X188600500Y-96730373D01*
X188600500Y-96507000D01*
X188617113Y-96445000D01*
X188662500Y-96399613D01*
X188724500Y-96383000D01*
X190475501Y-96383000D01*
X190537501Y-96399613D01*
X190582888Y-96445000D01*
X190599501Y-96507000D01*
X190599501Y-96730372D01*
X190599853Y-96733650D01*
X190599854Y-96733661D01*
X190605079Y-96782268D01*
X190605080Y-96782273D01*
X190605909Y-96789983D01*
X190608619Y-96797249D01*
X190608620Y-96797253D01*
X190625971Y-96843772D01*
X190656204Y-96924831D01*
X190661516Y-96931927D01*
X190661520Y-96931934D01*
X190669948Y-96943192D01*
X190691845Y-96991143D01*
X190691845Y-97043857D01*
X190669948Y-97091808D01*
X190661520Y-97103065D01*
X190661514Y-97103075D01*
X190656204Y-97110169D01*
X190653104Y-97118478D01*
X190653104Y-97118480D01*
X190608620Y-97237747D01*
X190608619Y-97237750D01*
X190605909Y-97245017D01*
X190605079Y-97252727D01*
X190605079Y-97252732D01*
X190599855Y-97301319D01*
X190599854Y-97301331D01*
X190599500Y-97304627D01*
X190599500Y-97307948D01*
X190599500Y-97307949D01*
X190599500Y-97997060D01*
X190599500Y-97997078D01*
X190599501Y-98000372D01*
X190599853Y-98003650D01*
X190599854Y-98003661D01*
X190605079Y-98052268D01*
X190605080Y-98052273D01*
X190605909Y-98059983D01*
X190608619Y-98067249D01*
X190608620Y-98067253D01*
X190608621Y-98067255D01*
X190656204Y-98194831D01*
X190661516Y-98201927D01*
X190661520Y-98201934D01*
X190669948Y-98213192D01*
X190691845Y-98261143D01*
X190691845Y-98313857D01*
X190669948Y-98361808D01*
X190661520Y-98373065D01*
X190661514Y-98373075D01*
X190656204Y-98380169D01*
X190653104Y-98388478D01*
X190653104Y-98388480D01*
X190608620Y-98507747D01*
X190608619Y-98507750D01*
X190605909Y-98515017D01*
X190605079Y-98522727D01*
X190605079Y-98522732D01*
X190599855Y-98571319D01*
X190599854Y-98571331D01*
X190599500Y-98574627D01*
X190599500Y-98577948D01*
X190599500Y-98577949D01*
X190599500Y-99267060D01*
X190599500Y-99267078D01*
X190599501Y-99270372D01*
X190599853Y-99273650D01*
X190599854Y-99273661D01*
X190605079Y-99322268D01*
X190605080Y-99322273D01*
X190605909Y-99329983D01*
X190608619Y-99337249D01*
X190608620Y-99337253D01*
X190653104Y-99456521D01*
X190653105Y-99456524D01*
X190656204Y-99464831D01*
X190661518Y-99471929D01*
X190661520Y-99471933D01*
X190669946Y-99483189D01*
X190691845Y-99531139D01*
X190691846Y-99583853D01*
X190669950Y-99631805D01*
X190661520Y-99643066D01*
X190661516Y-99643072D01*
X190656204Y-99650169D01*
X190653104Y-99658478D01*
X190653104Y-99658480D01*
X190608620Y-99777747D01*
X190608619Y-99777750D01*
X190605909Y-99785017D01*
X190605079Y-99792727D01*
X190605079Y-99792732D01*
X190599855Y-99841319D01*
X190599854Y-99841331D01*
X190599500Y-99844627D01*
X190599500Y-99847948D01*
X190599500Y-99847949D01*
X190599500Y-100537060D01*
X190599500Y-100537078D01*
X190599501Y-100540372D01*
X190599853Y-100543650D01*
X190599854Y-100543661D01*
X190605079Y-100592268D01*
X190605080Y-100592273D01*
X190605909Y-100599983D01*
X190608619Y-100607249D01*
X190608620Y-100607253D01*
X190627935Y-100659038D01*
X190656204Y-100734831D01*
X190661516Y-100741927D01*
X190661520Y-100741934D01*
X190669948Y-100753192D01*
X190691845Y-100801143D01*
X190691845Y-100853857D01*
X190669948Y-100901808D01*
X190661520Y-100913065D01*
X190661514Y-100913075D01*
X190656204Y-100920169D01*
X190653104Y-100928478D01*
X190653104Y-100928480D01*
X190608620Y-101047747D01*
X190608619Y-101047750D01*
X190605909Y-101055017D01*
X190605079Y-101062727D01*
X190605079Y-101062732D01*
X190599855Y-101111319D01*
X190599854Y-101111331D01*
X190599500Y-101114627D01*
X190599500Y-101117948D01*
X190599500Y-101117949D01*
X190599500Y-101807060D01*
X190599500Y-101807078D01*
X190599501Y-101810372D01*
X190599853Y-101813650D01*
X190599854Y-101813661D01*
X190605079Y-101862268D01*
X190605080Y-101862273D01*
X190605909Y-101869983D01*
X190608619Y-101877249D01*
X190608620Y-101877253D01*
X190633948Y-101945160D01*
X190656204Y-102004831D01*
X190661516Y-102011927D01*
X190661520Y-102011934D01*
X190669948Y-102023192D01*
X190691845Y-102071143D01*
X190691845Y-102123857D01*
X190669948Y-102171808D01*
X190661520Y-102183065D01*
X190661514Y-102183075D01*
X190656204Y-102190169D01*
X190653104Y-102198478D01*
X190653104Y-102198480D01*
X190608620Y-102317747D01*
X190608619Y-102317750D01*
X190605909Y-102325017D01*
X190605079Y-102332727D01*
X190605079Y-102332732D01*
X190599855Y-102381319D01*
X190599854Y-102381331D01*
X190599500Y-102384627D01*
X190599500Y-102387948D01*
X190599500Y-102387949D01*
X190599500Y-103077060D01*
X190599500Y-103077078D01*
X190599501Y-103080372D01*
X190599853Y-103083650D01*
X190599854Y-103083661D01*
X190605079Y-103132268D01*
X190605080Y-103132273D01*
X190605909Y-103139983D01*
X190608619Y-103147249D01*
X190608620Y-103147253D01*
X190642217Y-103237331D01*
X190656204Y-103274831D01*
X190742454Y-103390046D01*
X190857669Y-103476296D01*
X190992517Y-103526591D01*
X191052127Y-103533000D01*
X193347872Y-103532999D01*
X193407483Y-103526591D01*
X193542331Y-103476296D01*
X193657546Y-103390046D01*
X193743796Y-103274831D01*
X193794091Y-103139983D01*
X193800500Y-103080373D01*
X193800499Y-102384628D01*
X193794091Y-102325017D01*
X193743796Y-102190169D01*
X193730052Y-102171810D01*
X193708152Y-102123856D01*
X193708154Y-102071136D01*
X193730055Y-102023186D01*
X193743796Y-102004831D01*
X193794091Y-101869983D01*
X193800500Y-101810373D01*
X193800500Y-101745997D01*
X194100001Y-101745997D01*
X194100321Y-101752279D01*
X194109630Y-101843412D01*
X194112449Y-101856581D01*
X194162274Y-102006944D01*
X194168340Y-102019952D01*
X194251260Y-102154386D01*
X194260165Y-102165648D01*
X194371851Y-102277334D01*
X194383113Y-102286239D01*
X194517547Y-102369159D01*
X194530555Y-102375225D01*
X194680924Y-102425052D01*
X194694080Y-102427868D01*
X194785223Y-102437180D01*
X194791500Y-102437500D01*
X194821174Y-102437500D01*
X194834049Y-102434049D01*
X194837500Y-102421174D01*
X194837500Y-101728826D01*
X194834049Y-101715950D01*
X194821174Y-101712500D01*
X194116327Y-101712500D01*
X194103451Y-101715950D01*
X194100001Y-101728826D01*
X194100001Y-101745997D01*
X193800500Y-101745997D01*
X193800499Y-101114628D01*
X193794091Y-101055017D01*
X193792611Y-101051051D01*
X193792253Y-100997604D01*
X193816058Y-100947560D01*
X193859285Y-100912883D01*
X193913301Y-100900500D01*
X193996373Y-100900500D01*
X194052829Y-100914098D01*
X194096904Y-100951908D01*
X194118930Y-101005639D01*
X194114078Y-101063507D01*
X194112446Y-101068429D01*
X194109631Y-101081580D01*
X194100319Y-101172723D01*
X194100000Y-101179000D01*
X194100000Y-101196174D01*
X194103450Y-101209049D01*
X194116326Y-101212500D01*
X195213500Y-101212500D01*
X195275500Y-101229113D01*
X195320887Y-101274500D01*
X195337500Y-101336500D01*
X195337500Y-102421173D01*
X195341979Y-102437889D01*
X195365061Y-102472433D01*
X195374500Y-102519886D01*
X195374500Y-103922225D01*
X195373978Y-103933280D01*
X195372327Y-103940667D01*
X195372571Y-103948453D01*
X195372571Y-103948461D01*
X195374439Y-104007873D01*
X195374500Y-104011768D01*
X195374500Y-104039350D01*
X195374988Y-104043219D01*
X195374989Y-104043225D01*
X195375004Y-104043343D01*
X195375918Y-104054966D01*
X195377045Y-104090830D01*
X195377046Y-104090837D01*
X195377291Y-104098627D01*
X195379467Y-104106119D01*
X195379468Y-104106121D01*
X195382879Y-104117862D01*
X195386825Y-104136915D01*
X195389336Y-104156792D01*
X195392206Y-104164042D01*
X195392208Y-104164048D01*
X195405414Y-104197404D01*
X195409197Y-104208451D01*
X195421382Y-104250390D01*
X195425353Y-104257105D01*
X195425354Y-104257107D01*
X195431581Y-104267637D01*
X195440136Y-104285099D01*
X195444642Y-104296480D01*
X195444643Y-104296483D01*
X195447514Y-104303732D01*
X195468010Y-104331942D01*
X195473181Y-104339060D01*
X195479593Y-104348822D01*
X195497856Y-104379702D01*
X195497859Y-104379707D01*
X195501830Y-104386420D01*
X195507345Y-104391934D01*
X195507345Y-104391935D01*
X195515990Y-104400580D01*
X195528626Y-104415374D01*
X195535819Y-104425275D01*
X195535823Y-104425279D01*
X195540406Y-104431587D01*
X195546415Y-104436558D01*
X195546416Y-104436559D01*
X195574058Y-104459426D01*
X195582699Y-104467289D01*
X196965207Y-105849798D01*
X196972659Y-105857987D01*
X196976714Y-105864377D01*
X197019801Y-105904839D01*
X197025723Y-105910400D01*
X197028519Y-105913110D01*
X197048029Y-105932620D01*
X197051209Y-105935087D01*
X197060071Y-105942655D01*
X197068161Y-105950253D01*
X197086232Y-105967223D01*
X197086234Y-105967224D01*
X197091918Y-105972562D01*
X197098751Y-105976318D01*
X197098752Y-105976319D01*
X197109473Y-105982213D01*
X197125734Y-105992894D01*
X197141564Y-106005173D01*
X197181655Y-106022521D01*
X197192135Y-106027655D01*
X197230408Y-106048697D01*
X197249816Y-106053680D01*
X197268219Y-106059981D01*
X197279444Y-106064839D01*
X197279446Y-106064839D01*
X197286604Y-106067937D01*
X197329758Y-106074771D01*
X197341144Y-106077129D01*
X197383481Y-106088000D01*
X197403517Y-106088000D01*
X197422915Y-106089527D01*
X197434986Y-106091439D01*
X197434987Y-106091439D01*
X197442696Y-106092660D01*
X197480776Y-106089060D01*
X197486176Y-106088550D01*
X197497845Y-106088000D01*
X200029548Y-106088000D01*
X200077001Y-106097439D01*
X200117229Y-106124319D01*
X200731675Y-106738765D01*
X200765160Y-106800087D01*
X200760176Y-106869779D01*
X200718306Y-106925712D01*
X200709312Y-106932445D01*
X200661360Y-106954345D01*
X200608644Y-106954346D01*
X200560692Y-106932448D01*
X200549434Y-106924020D01*
X200549427Y-106924016D01*
X200542331Y-106918704D01*
X200407483Y-106868409D01*
X200399770Y-106867579D01*
X200399767Y-106867579D01*
X200351180Y-106862355D01*
X200351169Y-106862354D01*
X200347873Y-106862000D01*
X200344550Y-106862000D01*
X199655439Y-106862000D01*
X199655420Y-106862000D01*
X199652128Y-106862001D01*
X199648850Y-106862353D01*
X199648838Y-106862354D01*
X199600231Y-106867579D01*
X199600225Y-106867580D01*
X199592517Y-106868409D01*
X199585252Y-106871118D01*
X199585246Y-106871120D01*
X199465980Y-106915604D01*
X199465978Y-106915604D01*
X199457669Y-106918704D01*
X199450575Y-106924014D01*
X199450565Y-106924020D01*
X199439308Y-106932448D01*
X199391357Y-106954345D01*
X199338643Y-106954345D01*
X199290692Y-106932448D01*
X199279434Y-106924020D01*
X199279427Y-106924016D01*
X199272331Y-106918704D01*
X199137483Y-106868409D01*
X199129770Y-106867579D01*
X199129767Y-106867579D01*
X199081180Y-106862355D01*
X199081169Y-106862354D01*
X199077873Y-106862000D01*
X199074550Y-106862000D01*
X198385439Y-106862000D01*
X198385420Y-106862000D01*
X198382128Y-106862001D01*
X198378850Y-106862353D01*
X198378838Y-106862354D01*
X198330231Y-106867579D01*
X198330225Y-106867580D01*
X198322517Y-106868409D01*
X198315252Y-106871118D01*
X198315246Y-106871120D01*
X198195980Y-106915604D01*
X198195978Y-106915604D01*
X198187669Y-106918704D01*
X198180572Y-106924016D01*
X198180568Y-106924019D01*
X198079550Y-106999641D01*
X198079546Y-106999644D01*
X198072454Y-107004954D01*
X198067144Y-107012046D01*
X198067141Y-107012050D01*
X197991519Y-107113068D01*
X197991516Y-107113072D01*
X197986204Y-107120169D01*
X197983104Y-107128478D01*
X197983104Y-107128480D01*
X197938620Y-107247747D01*
X197938619Y-107247750D01*
X197935909Y-107255017D01*
X197935079Y-107262727D01*
X197935079Y-107262732D01*
X197929855Y-107311319D01*
X197929854Y-107311331D01*
X197929500Y-107314627D01*
X197929500Y-107317948D01*
X197929500Y-107317949D01*
X197929500Y-109607060D01*
X197929500Y-109607078D01*
X197929501Y-109610372D01*
X197929853Y-109613650D01*
X197929854Y-109613661D01*
X197935079Y-109662268D01*
X197935080Y-109662273D01*
X197935909Y-109669983D01*
X197938619Y-109677249D01*
X197938620Y-109677253D01*
X197939029Y-109678349D01*
X197986204Y-109804831D01*
X197991518Y-109811930D01*
X197991519Y-109811931D01*
X198026011Y-109858007D01*
X198072454Y-109920046D01*
X198187669Y-110006296D01*
X198322517Y-110056591D01*
X198382127Y-110063000D01*
X199077872Y-110062999D01*
X199137483Y-110056591D01*
X199272331Y-110006296D01*
X199290685Y-109992555D01*
X199338637Y-109970654D01*
X199391356Y-109970653D01*
X199439312Y-109992554D01*
X199457669Y-110006296D01*
X199592517Y-110056591D01*
X199652127Y-110063000D01*
X200347872Y-110062999D01*
X200407483Y-110056591D01*
X200542331Y-110006296D01*
X200560685Y-109992555D01*
X200608637Y-109970654D01*
X200661356Y-109970653D01*
X200709312Y-109992554D01*
X200727669Y-110006296D01*
X200862517Y-110056591D01*
X200922127Y-110063000D01*
X201617872Y-110062999D01*
X201677483Y-110056591D01*
X201812331Y-110006296D01*
X201830685Y-109992555D01*
X201878637Y-109970654D01*
X201931356Y-109970653D01*
X201979312Y-109992554D01*
X201997669Y-110006296D01*
X202132517Y-110056591D01*
X202192127Y-110063000D01*
X202887872Y-110062999D01*
X202947483Y-110056591D01*
X203082331Y-110006296D01*
X203100685Y-109992555D01*
X203148637Y-109970654D01*
X203201356Y-109970653D01*
X203249312Y-109992554D01*
X203267669Y-110006296D01*
X203402517Y-110056591D01*
X203462127Y-110063000D01*
X204157872Y-110062999D01*
X204217483Y-110056591D01*
X204352331Y-110006296D01*
X204370685Y-109992555D01*
X204418637Y-109970654D01*
X204471356Y-109970653D01*
X204519312Y-109992554D01*
X204537669Y-110006296D01*
X204672517Y-110056591D01*
X204732127Y-110063000D01*
X205412292Y-110062999D01*
X205468587Y-110076514D01*
X205512610Y-110114113D01*
X205534765Y-110167600D01*
X205530223Y-110225316D01*
X205516334Y-110268061D01*
X205516332Y-110268069D01*
X205514326Y-110274244D01*
X205513648Y-110280694D01*
X205513646Y-110280704D01*
X205496650Y-110442425D01*
X205494540Y-110462500D01*
X205495219Y-110468960D01*
X205513646Y-110644295D01*
X205513647Y-110644303D01*
X205514326Y-110650756D01*
X205516331Y-110656928D01*
X205516333Y-110656935D01*
X205570813Y-110824605D01*
X205572821Y-110830784D01*
X205667467Y-110994716D01*
X205671811Y-110999541D01*
X205671813Y-110999543D01*
X205674424Y-111002443D01*
X205794129Y-111135388D01*
X205947270Y-111246651D01*
X206120197Y-111323644D01*
X206305354Y-111363000D01*
X206488143Y-111363000D01*
X206494646Y-111363000D01*
X206679803Y-111323644D01*
X206852730Y-111246651D01*
X207005871Y-111135388D01*
X207124753Y-111003357D01*
X232695335Y-111003357D01*
X232714343Y-111353958D01*
X232715069Y-111360630D01*
X232771874Y-111707130D01*
X232773317Y-111713684D01*
X232867251Y-112052001D01*
X232869396Y-112058368D01*
X232999360Y-112384552D01*
X233002169Y-112390626D01*
X233166649Y-112700868D01*
X233170102Y-112706606D01*
X233367147Y-112997225D01*
X233371207Y-113002566D01*
X233485320Y-113136910D01*
X233496664Y-113144527D01*
X233508590Y-113137855D01*
X235634904Y-111011542D01*
X235641568Y-110999999D01*
X236358431Y-110999999D01*
X236365095Y-111011542D01*
X238491409Y-113137856D01*
X238503334Y-113144527D01*
X238514679Y-113136910D01*
X238628792Y-113002566D01*
X238632852Y-112997225D01*
X238829897Y-112706606D01*
X238833350Y-112700868D01*
X238997830Y-112390626D01*
X239000639Y-112384552D01*
X239130603Y-112058368D01*
X239132748Y-112052001D01*
X239226682Y-111713684D01*
X239228125Y-111707130D01*
X239284930Y-111360630D01*
X239285656Y-111353958D01*
X239304665Y-111003357D01*
X239304665Y-110996643D01*
X239285656Y-110646041D01*
X239284930Y-110639369D01*
X239228125Y-110292869D01*
X239226682Y-110286315D01*
X239132748Y-109947998D01*
X239130603Y-109941631D01*
X239000639Y-109615447D01*
X238997830Y-109609373D01*
X238833350Y-109299131D01*
X238829897Y-109293393D01*
X238632852Y-109002774D01*
X238628792Y-108997433D01*
X238514678Y-108863088D01*
X238503334Y-108855471D01*
X238491408Y-108862143D01*
X236365095Y-110988457D01*
X236358431Y-110999999D01*
X235641568Y-110999999D01*
X235634904Y-110988457D01*
X233508590Y-108862143D01*
X233496664Y-108855471D01*
X233485320Y-108863088D01*
X233371207Y-108997433D01*
X233367147Y-109002774D01*
X233170102Y-109293393D01*
X233166649Y-109299131D01*
X233002169Y-109609373D01*
X232999360Y-109615447D01*
X232869396Y-109941631D01*
X232867251Y-109947998D01*
X232773317Y-110286315D01*
X232771874Y-110292869D01*
X232715069Y-110639369D01*
X232714343Y-110646041D01*
X232695335Y-110996643D01*
X232695335Y-111003357D01*
X207124753Y-111003357D01*
X207132533Y-110994716D01*
X207227179Y-110830784D01*
X207285674Y-110650756D01*
X207303321Y-110482844D01*
X207314721Y-110442425D01*
X207338958Y-110408130D01*
X207362306Y-110384782D01*
X207370482Y-110377343D01*
X207376877Y-110373286D01*
X207422933Y-110324240D01*
X207425550Y-110321538D01*
X207445120Y-110301970D01*
X207447565Y-110298816D01*
X207455155Y-110289928D01*
X207485062Y-110258082D01*
X207494713Y-110240523D01*
X207505390Y-110224270D01*
X207517673Y-110208436D01*
X207535022Y-110168341D01*
X207540157Y-110157862D01*
X207561197Y-110119592D01*
X207566178Y-110100187D01*
X207572483Y-110081777D01*
X207577339Y-110070556D01*
X207577339Y-110070555D01*
X207580438Y-110063395D01*
X207587269Y-110020256D01*
X207589639Y-110008815D01*
X207591651Y-110000982D01*
X207600500Y-109966519D01*
X207600500Y-109946483D01*
X207602025Y-109927097D01*
X207605160Y-109907304D01*
X207601050Y-109863824D01*
X207600500Y-109852155D01*
X207600500Y-108493771D01*
X233852329Y-108493771D01*
X233859001Y-108505448D01*
X235988457Y-110634904D01*
X236000000Y-110641568D01*
X236011542Y-110634904D01*
X238140998Y-108505447D01*
X238147669Y-108493772D01*
X238140839Y-108482536D01*
X238136842Y-108479141D01*
X237857305Y-108266642D01*
X237851759Y-108262882D01*
X237550900Y-108081862D01*
X237544961Y-108078714D01*
X237226304Y-107931287D01*
X237220062Y-107928800D01*
X236887315Y-107816684D01*
X236880870Y-107814895D01*
X236537946Y-107739411D01*
X236531322Y-107738325D01*
X236182259Y-107700363D01*
X236175563Y-107700000D01*
X235824437Y-107700000D01*
X235817740Y-107700363D01*
X235468677Y-107738325D01*
X235462053Y-107739411D01*
X235119129Y-107814895D01*
X235112684Y-107816684D01*
X234779937Y-107928800D01*
X234773695Y-107931287D01*
X234455038Y-108078714D01*
X234449099Y-108081862D01*
X234148240Y-108262882D01*
X234142694Y-108266642D01*
X233863149Y-108479146D01*
X233859159Y-108482536D01*
X233852329Y-108493771D01*
X207600500Y-108493771D01*
X207600500Y-101915272D01*
X207601020Y-101904219D01*
X207602672Y-101896833D01*
X207600561Y-101829645D01*
X207600500Y-101825751D01*
X207600500Y-101802045D01*
X207600500Y-101798150D01*
X207599998Y-101794181D01*
X207599080Y-101782524D01*
X207599053Y-101781679D01*
X207597709Y-101738873D01*
X207592120Y-101719640D01*
X207588174Y-101700583D01*
X207586641Y-101688444D01*
X207585664Y-101680708D01*
X207569582Y-101640091D01*
X207565803Y-101629051D01*
X207555795Y-101594602D01*
X207555793Y-101594599D01*
X207553618Y-101587110D01*
X207543417Y-101569860D01*
X207534863Y-101552401D01*
X207527486Y-101533768D01*
X207501808Y-101498425D01*
X207495401Y-101488671D01*
X207477142Y-101457796D01*
X207477141Y-101457794D01*
X207473170Y-101451080D01*
X207459005Y-101436915D01*
X207446370Y-101422122D01*
X207434594Y-101405913D01*
X207400932Y-101378065D01*
X207392302Y-101370211D01*
X207097290Y-101075200D01*
X207089841Y-101067015D01*
X207085786Y-101060623D01*
X207036775Y-101014598D01*
X207033978Y-101011887D01*
X207017227Y-100995136D01*
X207014471Y-100992380D01*
X207011290Y-100989912D01*
X207002414Y-100982330D01*
X206976269Y-100957778D01*
X206976267Y-100957776D01*
X206970582Y-100952438D01*
X206963749Y-100948682D01*
X206963743Y-100948677D01*
X206953025Y-100942785D01*
X206936766Y-100932106D01*
X206927095Y-100924604D01*
X206927092Y-100924602D01*
X206920936Y-100919827D01*
X206913779Y-100916729D01*
X206913776Y-100916728D01*
X206880849Y-100902478D01*
X206870374Y-100897348D01*
X206867319Y-100895669D01*
X206820716Y-100850800D01*
X206803053Y-100788567D01*
X206819137Y-100725906D01*
X206864591Y-100679874D01*
X206927041Y-100662999D01*
X207157872Y-100662999D01*
X207217483Y-100656591D01*
X207352331Y-100606296D01*
X207467546Y-100520046D01*
X207553796Y-100404831D01*
X207604091Y-100269983D01*
X207610500Y-100210373D01*
X207610499Y-98386999D01*
X207627112Y-98325000D01*
X207672499Y-98279613D01*
X207734499Y-98263000D01*
X214214548Y-98263000D01*
X214262001Y-98272439D01*
X214302229Y-98299319D01*
X217338181Y-101335272D01*
X217365061Y-101375500D01*
X217374500Y-101422953D01*
X217374500Y-101758526D01*
X217374500Y-101758545D01*
X217374501Y-101761676D01*
X217374820Y-101764808D01*
X217374821Y-101764809D01*
X217384137Y-101856017D01*
X217384138Y-101856025D01*
X217384826Y-101862753D01*
X217386954Y-101869175D01*
X217386955Y-101869179D01*
X217416105Y-101957147D01*
X217419057Y-102024747D01*
X217386080Y-102083832D01*
X216844233Y-102625681D01*
X216804005Y-102652561D01*
X216756552Y-102662000D01*
X215117192Y-102662000D01*
X215056761Y-102646278D01*
X215011654Y-102603098D01*
X214999135Y-102582801D01*
X214999130Y-102582794D01*
X214995340Y-102576650D01*
X214881371Y-102462681D01*
X214849277Y-102407094D01*
X214849277Y-102342906D01*
X214881371Y-102287319D01*
X214912931Y-102255759D01*
X214995340Y-102173350D01*
X215085908Y-102026516D01*
X215140174Y-101862753D01*
X215150500Y-101761677D01*
X215150499Y-101163324D01*
X215140174Y-101062247D01*
X215085908Y-100898484D01*
X214995340Y-100751650D01*
X214873350Y-100629660D01*
X214726516Y-100539092D01*
X214719664Y-100536821D01*
X214719661Y-100536820D01*
X214627088Y-100506144D01*
X214562753Y-100484826D01*
X214556020Y-100484138D01*
X214556015Y-100484137D01*
X214464808Y-100474819D01*
X214464791Y-100474818D01*
X214461677Y-100474500D01*
X214458528Y-100474500D01*
X213891473Y-100474500D01*
X213891453Y-100474500D01*
X213888324Y-100474501D01*
X213885192Y-100474820D01*
X213885190Y-100474821D01*
X213793982Y-100484137D01*
X213793972Y-100484138D01*
X213787247Y-100484826D01*
X213780826Y-100486953D01*
X213780820Y-100486955D01*
X213630338Y-100536820D01*
X213630332Y-100536822D01*
X213623484Y-100539092D01*
X213617340Y-100542881D01*
X213617339Y-100542882D01*
X213483394Y-100625500D01*
X213476650Y-100629660D01*
X213471542Y-100634767D01*
X213471538Y-100634771D01*
X213393129Y-100713181D01*
X213352901Y-100740061D01*
X213305448Y-100749500D01*
X211117192Y-100749500D01*
X211056761Y-100733778D01*
X211011654Y-100690598D01*
X210999135Y-100670301D01*
X210999130Y-100670294D01*
X210995340Y-100664150D01*
X210873350Y-100542160D01*
X210726516Y-100451592D01*
X210710495Y-100446283D01*
X210666170Y-100420404D01*
X210636123Y-100378792D01*
X210625500Y-100328577D01*
X210625500Y-100161187D01*
X210633736Y-100116749D01*
X210657350Y-100078215D01*
X210707379Y-100022652D01*
X210732533Y-99994716D01*
X210827179Y-99830784D01*
X210885674Y-99650756D01*
X210905460Y-99462500D01*
X210885674Y-99274244D01*
X210827179Y-99094216D01*
X210732533Y-98930284D01*
X210686375Y-98879021D01*
X210610220Y-98794442D01*
X210610219Y-98794441D01*
X210605871Y-98789612D01*
X210600613Y-98785792D01*
X210600611Y-98785790D01*
X210457988Y-98682169D01*
X210457987Y-98682168D01*
X210452730Y-98678349D01*
X210446792Y-98675705D01*
X210285745Y-98604001D01*
X210285740Y-98603999D01*
X210279803Y-98601356D01*
X210273444Y-98600004D01*
X210273440Y-98600003D01*
X210101008Y-98563352D01*
X210101005Y-98563351D01*
X210094646Y-98562000D01*
X209905354Y-98562000D01*
X209898995Y-98563351D01*
X209898991Y-98563352D01*
X209726559Y-98600003D01*
X209726552Y-98600005D01*
X209720197Y-98601356D01*
X209714262Y-98603998D01*
X209714254Y-98604001D01*
X209553207Y-98675705D01*
X209553202Y-98675707D01*
X209547270Y-98678349D01*
X209542016Y-98682165D01*
X209542011Y-98682169D01*
X209399388Y-98785790D01*
X209399381Y-98785795D01*
X209394129Y-98789612D01*
X209389784Y-98794437D01*
X209389779Y-98794442D01*
X209271813Y-98925456D01*
X209271808Y-98925462D01*
X209267467Y-98930284D01*
X209264222Y-98935904D01*
X209264218Y-98935910D01*
X209176069Y-99088589D01*
X209176066Y-99088594D01*
X209172821Y-99094216D01*
X209170815Y-99100388D01*
X209170813Y-99100394D01*
X209116333Y-99268064D01*
X209116331Y-99268073D01*
X209114326Y-99274244D01*
X209113648Y-99280694D01*
X209113646Y-99280704D01*
X209101533Y-99395963D01*
X209094540Y-99462500D01*
X209095219Y-99468960D01*
X209113646Y-99644295D01*
X209113647Y-99644303D01*
X209114326Y-99650756D01*
X209116331Y-99656928D01*
X209116333Y-99656935D01*
X209170813Y-99824605D01*
X209172821Y-99830784D01*
X209176068Y-99836408D01*
X209176069Y-99836410D01*
X209248979Y-99962695D01*
X209267467Y-99994716D01*
X209271811Y-99999541D01*
X209271813Y-99999543D01*
X209342650Y-100078215D01*
X209366264Y-100116749D01*
X209374500Y-100161187D01*
X209374500Y-100597309D01*
X209367626Y-100638021D01*
X209353637Y-100663519D01*
X209354660Y-100664150D01*
X209275937Y-100791781D01*
X209264092Y-100810984D01*
X209261822Y-100817832D01*
X209261820Y-100817838D01*
X209215449Y-100957778D01*
X209209826Y-100974747D01*
X209209138Y-100981477D01*
X209209137Y-100981484D01*
X209199819Y-101072691D01*
X209199818Y-101072709D01*
X209199500Y-101075823D01*
X209199500Y-101078970D01*
X209199500Y-101078971D01*
X209199500Y-101671026D01*
X209199500Y-101671045D01*
X209199501Y-101674176D01*
X209199820Y-101677308D01*
X209199821Y-101677309D01*
X209209137Y-101768517D01*
X209209138Y-101768525D01*
X209209826Y-101775253D01*
X209211954Y-101781675D01*
X209211955Y-101781679D01*
X209253333Y-101906550D01*
X209264092Y-101939016D01*
X209354660Y-102085850D01*
X209359771Y-102090961D01*
X209468982Y-102200172D01*
X209501076Y-102255759D01*
X209501076Y-102319946D01*
X209468983Y-102375534D01*
X209360161Y-102484356D01*
X209351260Y-102495613D01*
X209268340Y-102630047D01*
X209262274Y-102643055D01*
X209212447Y-102793424D01*
X209209631Y-102806580D01*
X209200319Y-102897723D01*
X209200000Y-102904000D01*
X209200000Y-102933674D01*
X209203450Y-102946549D01*
X209216326Y-102950000D01*
X211133673Y-102950000D01*
X211146548Y-102946549D01*
X211149999Y-102933674D01*
X211149999Y-102904003D01*
X211149678Y-102897709D01*
X211140369Y-102806587D01*
X211137550Y-102793418D01*
X211087725Y-102643055D01*
X211081659Y-102630047D01*
X210998739Y-102495613D01*
X210989834Y-102484351D01*
X210881017Y-102375534D01*
X210848923Y-102319946D01*
X210848923Y-102255759D01*
X210881014Y-102200175D01*
X210995340Y-102085850D01*
X210999135Y-102079698D01*
X211011654Y-102059402D01*
X211056761Y-102016222D01*
X211117192Y-102000500D01*
X213178838Y-102000500D01*
X213239270Y-102016223D01*
X213284376Y-102059402D01*
X213354660Y-102173350D01*
X213359771Y-102178461D01*
X213468629Y-102287319D01*
X213500723Y-102342906D01*
X213500723Y-102407094D01*
X213468629Y-102462681D01*
X213359771Y-102571538D01*
X213359767Y-102571542D01*
X213354660Y-102576650D01*
X213350868Y-102582797D01*
X213350867Y-102582799D01*
X213280775Y-102696437D01*
X213264092Y-102723484D01*
X213261822Y-102730332D01*
X213261820Y-102730338D01*
X213216392Y-102867433D01*
X213209826Y-102887247D01*
X213209138Y-102893977D01*
X213209137Y-102893984D01*
X213199819Y-102985191D01*
X213199818Y-102985209D01*
X213199500Y-102988323D01*
X213199500Y-102991470D01*
X213199500Y-102991471D01*
X213199500Y-103583526D01*
X213199500Y-103583545D01*
X213199501Y-103586676D01*
X213199820Y-103589808D01*
X213199821Y-103589809D01*
X213209137Y-103681017D01*
X213209138Y-103681025D01*
X213209826Y-103687753D01*
X213211954Y-103694175D01*
X213211955Y-103694179D01*
X213243578Y-103789612D01*
X213264092Y-103851516D01*
X213354660Y-103998350D01*
X213476650Y-104120340D01*
X213623484Y-104210908D01*
X213787247Y-104265174D01*
X213888323Y-104275500D01*
X214265548Y-104275499D01*
X214321842Y-104289014D01*
X214365865Y-104326613D01*
X214388020Y-104380101D01*
X214383478Y-104437817D01*
X214353228Y-104487180D01*
X214314727Y-104525681D01*
X214274499Y-104552561D01*
X214227046Y-104562000D01*
X213891473Y-104562000D01*
X213891453Y-104562000D01*
X213888324Y-104562001D01*
X213885192Y-104562320D01*
X213885190Y-104562321D01*
X213793982Y-104571637D01*
X213793972Y-104571638D01*
X213787247Y-104572326D01*
X213780826Y-104574453D01*
X213780820Y-104574455D01*
X213630338Y-104624320D01*
X213630332Y-104624322D01*
X213623484Y-104626592D01*
X213617340Y-104630381D01*
X213617339Y-104630382D01*
X213483112Y-104713174D01*
X213476650Y-104717160D01*
X213471542Y-104722267D01*
X213471538Y-104722271D01*
X213359771Y-104834038D01*
X213359767Y-104834042D01*
X213354660Y-104839150D01*
X213350868Y-104845297D01*
X213350867Y-104845299D01*
X213285025Y-104952047D01*
X213264092Y-104985984D01*
X213261822Y-104992832D01*
X213261820Y-104992838D01*
X213217783Y-105125735D01*
X213209826Y-105149747D01*
X213209138Y-105156477D01*
X213209137Y-105156484D01*
X213199819Y-105247691D01*
X213199818Y-105247709D01*
X213199500Y-105250823D01*
X213199500Y-105253970D01*
X213199500Y-105253971D01*
X213199500Y-105846026D01*
X213199500Y-105846045D01*
X213199501Y-105849176D01*
X213199820Y-105852308D01*
X213199821Y-105852309D01*
X213209137Y-105943517D01*
X213209138Y-105943525D01*
X213209826Y-105950253D01*
X213211954Y-105956675D01*
X213211955Y-105956679D01*
X213258598Y-106097439D01*
X213264092Y-106114016D01*
X213354660Y-106260850D01*
X213359771Y-106265961D01*
X213468629Y-106374819D01*
X213500723Y-106430406D01*
X213500723Y-106494594D01*
X213468629Y-106550181D01*
X213359771Y-106659038D01*
X213359767Y-106659042D01*
X213354660Y-106664150D01*
X213350873Y-106670289D01*
X213350864Y-106670301D01*
X213338346Y-106690598D01*
X213293239Y-106733778D01*
X213232808Y-106749500D01*
X212222952Y-106749500D01*
X212175499Y-106740061D01*
X212135271Y-106713181D01*
X212024318Y-106602228D01*
X211997438Y-106562000D01*
X211987999Y-106514547D01*
X211987999Y-106178973D01*
X211987999Y-106178971D01*
X211987999Y-106175824D01*
X211977674Y-106074747D01*
X211923408Y-105910984D01*
X211832840Y-105764150D01*
X211710850Y-105642160D01*
X211704706Y-105638370D01*
X211704698Y-105638364D01*
X211684402Y-105625846D01*
X211641222Y-105580739D01*
X211625500Y-105520308D01*
X211625500Y-105161187D01*
X211633736Y-105116749D01*
X211657350Y-105078215D01*
X211715824Y-105013273D01*
X211732533Y-104994716D01*
X211827179Y-104830784D01*
X211885674Y-104650756D01*
X211905460Y-104462500D01*
X211885674Y-104274244D01*
X211827179Y-104094216D01*
X211732533Y-103930284D01*
X211655437Y-103844661D01*
X211610220Y-103794442D01*
X211610219Y-103794441D01*
X211605871Y-103789612D01*
X211600613Y-103785792D01*
X211600611Y-103785790D01*
X211457988Y-103682169D01*
X211457987Y-103682168D01*
X211452730Y-103678349D01*
X211446792Y-103675705D01*
X211285745Y-103604001D01*
X211285740Y-103603999D01*
X211279803Y-103601356D01*
X211248215Y-103594641D01*
X211197659Y-103571067D01*
X211162550Y-103527711D01*
X211150000Y-103473353D01*
X211150000Y-103466326D01*
X211146549Y-103453450D01*
X211133674Y-103450000D01*
X209216327Y-103450000D01*
X209203451Y-103453450D01*
X209200001Y-103466326D01*
X209200001Y-103495997D01*
X209200321Y-103502279D01*
X209209630Y-103593412D01*
X209212449Y-103606581D01*
X209262274Y-103756944D01*
X209268340Y-103769952D01*
X209351260Y-103904386D01*
X209360165Y-103915648D01*
X209369310Y-103924793D01*
X209401061Y-103979128D01*
X209402050Y-104042052D01*
X209372021Y-104097358D01*
X209318710Y-104130800D01*
X209255848Y-104133764D01*
X209101008Y-104100852D01*
X209101005Y-104100851D01*
X209094646Y-104099500D01*
X208905354Y-104099500D01*
X208898995Y-104100851D01*
X208898991Y-104100852D01*
X208726559Y-104137503D01*
X208726552Y-104137505D01*
X208720197Y-104138856D01*
X208714262Y-104141498D01*
X208714254Y-104141501D01*
X208553207Y-104213205D01*
X208553202Y-104213207D01*
X208547270Y-104215849D01*
X208542016Y-104219665D01*
X208542011Y-104219669D01*
X208399388Y-104323290D01*
X208399381Y-104323295D01*
X208394129Y-104327112D01*
X208389784Y-104331937D01*
X208389779Y-104331942D01*
X208271813Y-104462956D01*
X208271808Y-104462962D01*
X208267467Y-104467784D01*
X208264222Y-104473404D01*
X208264218Y-104473410D01*
X208176069Y-104626089D01*
X208176066Y-104626094D01*
X208172821Y-104631716D01*
X208170815Y-104637888D01*
X208170813Y-104637894D01*
X208116333Y-104805564D01*
X208116331Y-104805573D01*
X208114326Y-104811744D01*
X208113648Y-104818194D01*
X208113646Y-104818204D01*
X208099580Y-104952047D01*
X208094540Y-105000000D01*
X208095219Y-105006460D01*
X208113646Y-105181795D01*
X208113647Y-105181803D01*
X208114326Y-105188256D01*
X208116331Y-105194428D01*
X208116333Y-105194435D01*
X208170813Y-105362105D01*
X208172821Y-105368284D01*
X208176068Y-105373908D01*
X208176069Y-105373910D01*
X208247631Y-105497860D01*
X208267467Y-105532216D01*
X208303777Y-105572542D01*
X208335414Y-105607679D01*
X208362913Y-105658092D01*
X208364751Y-105715488D01*
X208342127Y-105764130D01*
X208342160Y-105764150D01*
X208341991Y-105764423D01*
X208341989Y-105764427D01*
X208338373Y-105770288D01*
X208338371Y-105770292D01*
X208262500Y-105893299D01*
X208251592Y-105910984D01*
X208249322Y-105917832D01*
X208249320Y-105917838D01*
X208213864Y-106024839D01*
X208197326Y-106074747D01*
X208196638Y-106081477D01*
X208196637Y-106081484D01*
X208187319Y-106172691D01*
X208187318Y-106172709D01*
X208187000Y-106175823D01*
X208187000Y-106178970D01*
X208187000Y-106178971D01*
X208187000Y-106746026D01*
X208187000Y-106746045D01*
X208187001Y-106749176D01*
X208187320Y-106752308D01*
X208187321Y-106752309D01*
X208196637Y-106843517D01*
X208196638Y-106843525D01*
X208197326Y-106850253D01*
X208199454Y-106856675D01*
X208199455Y-106856679D01*
X208246828Y-106999641D01*
X208251592Y-107014016D01*
X208342160Y-107160850D01*
X208464150Y-107282840D01*
X208610984Y-107373408D01*
X208774747Y-107427674D01*
X208875823Y-107438000D01*
X209474176Y-107437999D01*
X209575253Y-107427674D01*
X209739016Y-107373408D01*
X209885850Y-107282840D01*
X209999819Y-107168871D01*
X210055406Y-107136777D01*
X210119594Y-107136777D01*
X210175181Y-107168870D01*
X210289150Y-107282840D01*
X210435984Y-107373408D01*
X210599747Y-107427674D01*
X210700823Y-107438000D01*
X211039546Y-107437999D01*
X211086999Y-107447438D01*
X211127227Y-107474318D01*
X211415207Y-107762298D01*
X211422659Y-107770487D01*
X211426714Y-107776877D01*
X211467199Y-107814895D01*
X211475723Y-107822900D01*
X211478519Y-107825610D01*
X211498029Y-107845120D01*
X211501209Y-107847587D01*
X211510071Y-107855155D01*
X211523520Y-107867785D01*
X211536232Y-107879723D01*
X211536234Y-107879724D01*
X211541918Y-107885062D01*
X211548751Y-107888818D01*
X211548752Y-107888819D01*
X211559473Y-107894713D01*
X211575734Y-107905394D01*
X211591564Y-107917673D01*
X211631654Y-107935021D01*
X211642131Y-107940154D01*
X211680408Y-107961197D01*
X211697457Y-107965574D01*
X211699805Y-107966177D01*
X211718219Y-107972481D01*
X211736604Y-107980438D01*
X211779765Y-107987273D01*
X211791164Y-107989634D01*
X211833481Y-108000500D01*
X211853517Y-108000500D01*
X211872902Y-108002025D01*
X211892696Y-108005160D01*
X211930776Y-108001560D01*
X211936176Y-108001050D01*
X211947845Y-108000500D01*
X213232808Y-108000500D01*
X213293239Y-108016222D01*
X213338346Y-108059402D01*
X213350864Y-108079698D01*
X213350870Y-108079706D01*
X213354660Y-108085850D01*
X213476650Y-108207840D01*
X213623484Y-108298408D01*
X213787247Y-108352674D01*
X213888323Y-108363000D01*
X214461676Y-108362999D01*
X214562753Y-108352674D01*
X214726516Y-108298408D01*
X214873350Y-108207840D01*
X214995340Y-108085850D01*
X215085908Y-107939016D01*
X215140174Y-107775253D01*
X215150500Y-107674177D01*
X215150499Y-107075824D01*
X215140174Y-106974747D01*
X215085908Y-106810984D01*
X214995340Y-106664150D01*
X214881371Y-106550181D01*
X214849277Y-106494594D01*
X214849277Y-106430406D01*
X214881371Y-106374819D01*
X214935192Y-106320998D01*
X214995340Y-106260850D01*
X215085908Y-106114016D01*
X215140174Y-105950253D01*
X215150500Y-105849177D01*
X215150499Y-105510450D01*
X215159938Y-105462998D01*
X215186815Y-105422773D01*
X215847770Y-104761819D01*
X215887999Y-104734939D01*
X215935452Y-104725500D01*
X217459725Y-104725500D01*
X217470780Y-104726021D01*
X217478167Y-104727673D01*
X217545372Y-104725561D01*
X217549268Y-104725500D01*
X217572948Y-104725500D01*
X217576850Y-104725500D01*
X217580813Y-104724999D01*
X217592463Y-104724080D01*
X217636127Y-104722709D01*
X217655361Y-104717119D01*
X217674417Y-104713174D01*
X217694292Y-104710664D01*
X217734895Y-104694587D01*
X217745950Y-104690802D01*
X217787890Y-104678618D01*
X217805129Y-104668422D01*
X217822603Y-104659862D01*
X217833974Y-104655360D01*
X217833976Y-104655358D01*
X217841232Y-104652486D01*
X217876569Y-104626811D01*
X217886324Y-104620403D01*
X217923920Y-104598170D01*
X217938084Y-104584005D01*
X217952879Y-104571368D01*
X217969087Y-104559594D01*
X217996928Y-104525938D01*
X218004779Y-104517309D01*
X218210271Y-104311817D01*
X218250499Y-104284938D01*
X218297952Y-104275499D01*
X218633527Y-104275499D01*
X218636676Y-104275499D01*
X218737753Y-104265174D01*
X218901516Y-104210908D01*
X219048350Y-104120340D01*
X219170340Y-103998350D01*
X219260908Y-103851516D01*
X219315174Y-103687753D01*
X219325500Y-103586677D01*
X219325499Y-103024499D01*
X219342112Y-102962500D01*
X219387499Y-102917113D01*
X219449499Y-102900500D01*
X226759725Y-102900500D01*
X226770780Y-102901021D01*
X226778167Y-102902673D01*
X226845372Y-102900561D01*
X226849268Y-102900500D01*
X226872948Y-102900500D01*
X226876850Y-102900500D01*
X226880813Y-102899999D01*
X226892463Y-102899080D01*
X226936127Y-102897709D01*
X226955361Y-102892119D01*
X226974417Y-102888174D01*
X226994292Y-102885664D01*
X227034895Y-102869587D01*
X227045950Y-102865802D01*
X227087890Y-102853618D01*
X227105129Y-102843422D01*
X227122603Y-102834862D01*
X227133974Y-102830360D01*
X227133976Y-102830358D01*
X227141232Y-102827486D01*
X227176569Y-102801811D01*
X227186324Y-102795403D01*
X227223920Y-102773170D01*
X227238084Y-102759005D01*
X227252879Y-102746368D01*
X227269087Y-102734594D01*
X227296928Y-102700938D01*
X227304779Y-102692309D01*
X233032311Y-96964778D01*
X233040481Y-96957344D01*
X233046877Y-96953286D01*
X233092918Y-96904256D01*
X233095535Y-96901554D01*
X233115120Y-96881971D01*
X233117585Y-96878792D01*
X233125167Y-96869916D01*
X233130082Y-96864682D01*
X233155062Y-96838082D01*
X233164713Y-96820523D01*
X233175390Y-96804270D01*
X233187673Y-96788436D01*
X233205018Y-96748352D01*
X233210152Y-96737870D01*
X233215989Y-96727253D01*
X233261529Y-96680265D01*
X233324647Y-96662999D01*
X233614561Y-96662999D01*
X233617872Y-96662999D01*
X233677483Y-96656591D01*
X233812331Y-96606296D01*
X233830685Y-96592555D01*
X233878637Y-96570654D01*
X233931356Y-96570653D01*
X233979312Y-96592554D01*
X233997669Y-96606296D01*
X234132517Y-96656591D01*
X234192127Y-96663000D01*
X234887872Y-96662999D01*
X234947483Y-96656591D01*
X235082331Y-96606296D01*
X235100685Y-96592555D01*
X235148637Y-96570654D01*
X235201356Y-96570653D01*
X235249312Y-96592554D01*
X235267669Y-96606296D01*
X235402517Y-96656591D01*
X235462127Y-96663000D01*
X236157872Y-96662999D01*
X236217483Y-96656591D01*
X236352331Y-96606296D01*
X236467546Y-96520046D01*
X236553796Y-96404831D01*
X236604091Y-96269983D01*
X236610500Y-96210373D01*
X236610499Y-93914628D01*
X236604091Y-93855017D01*
X236553796Y-93720169D01*
X236467546Y-93604954D01*
X236352331Y-93518704D01*
X236217483Y-93468409D01*
X236209770Y-93467579D01*
X236209767Y-93467579D01*
X236161180Y-93462355D01*
X236161169Y-93462354D01*
X236157873Y-93462000D01*
X236154550Y-93462000D01*
X235465439Y-93462000D01*
X235465420Y-93462000D01*
X235462128Y-93462001D01*
X235458850Y-93462353D01*
X235458838Y-93462354D01*
X235410231Y-93467579D01*
X235410225Y-93467580D01*
X235402517Y-93468409D01*
X235395252Y-93471118D01*
X235395246Y-93471120D01*
X235275980Y-93515604D01*
X235275978Y-93515604D01*
X235267669Y-93518704D01*
X235260575Y-93524014D01*
X235260565Y-93524020D01*
X235249308Y-93532448D01*
X235201357Y-93554345D01*
X235148643Y-93554345D01*
X235100692Y-93532448D01*
X235089434Y-93524020D01*
X235089427Y-93524016D01*
X235082331Y-93518704D01*
X234947483Y-93468409D01*
X234939770Y-93467579D01*
X234939767Y-93467579D01*
X234891180Y-93462355D01*
X234891169Y-93462354D01*
X234887873Y-93462000D01*
X234884550Y-93462000D01*
X234195439Y-93462000D01*
X234195420Y-93462000D01*
X234192128Y-93462001D01*
X234188850Y-93462353D01*
X234188838Y-93462354D01*
X234140231Y-93467579D01*
X234140225Y-93467580D01*
X234132517Y-93468409D01*
X234125252Y-93471118D01*
X234125246Y-93471120D01*
X234005980Y-93515604D01*
X234005978Y-93515604D01*
X233997669Y-93518704D01*
X233990575Y-93524014D01*
X233990565Y-93524020D01*
X233979308Y-93532448D01*
X233931357Y-93554345D01*
X233878643Y-93554345D01*
X233830692Y-93532448D01*
X233819434Y-93524020D01*
X233819427Y-93524016D01*
X233812331Y-93518704D01*
X233677483Y-93468409D01*
X233669770Y-93467579D01*
X233669767Y-93467579D01*
X233621180Y-93462355D01*
X233621169Y-93462354D01*
X233617873Y-93462000D01*
X233614551Y-93462000D01*
X233394500Y-93462000D01*
X233332500Y-93445387D01*
X233287113Y-93400000D01*
X233270500Y-93338000D01*
X233270500Y-91916953D01*
X233284015Y-91860658D01*
X233321615Y-91816635D01*
X233375102Y-91794480D01*
X233432818Y-91799022D01*
X233482181Y-91829272D01*
X233502707Y-91849798D01*
X233510159Y-91857987D01*
X233514214Y-91864377D01*
X233543867Y-91892223D01*
X233563223Y-91910400D01*
X233566020Y-91913111D01*
X233585529Y-91932620D01*
X233588709Y-91935087D01*
X233597571Y-91942655D01*
X233606407Y-91950953D01*
X233623732Y-91967223D01*
X233623734Y-91967224D01*
X233629418Y-91972562D01*
X233636251Y-91976318D01*
X233636252Y-91976319D01*
X233646973Y-91982213D01*
X233663234Y-91992894D01*
X233664861Y-91994156D01*
X233679064Y-92005173D01*
X233719154Y-92022521D01*
X233729631Y-92027654D01*
X233767908Y-92048697D01*
X233784957Y-92053074D01*
X233787305Y-92053677D01*
X233805719Y-92059981D01*
X233824104Y-92067938D01*
X233867265Y-92074773D01*
X233878664Y-92077134D01*
X233920981Y-92088000D01*
X233941017Y-92088000D01*
X233960402Y-92089525D01*
X233980196Y-92092660D01*
X234018276Y-92089060D01*
X234023676Y-92088550D01*
X234035345Y-92088000D01*
X234932225Y-92088000D01*
X234943280Y-92088521D01*
X234950667Y-92090173D01*
X235017872Y-92088061D01*
X235021768Y-92088000D01*
X235045448Y-92088000D01*
X235049350Y-92088000D01*
X235053313Y-92087499D01*
X235064963Y-92086580D01*
X235108627Y-92085209D01*
X235127861Y-92079619D01*
X235146917Y-92075674D01*
X235166792Y-92073164D01*
X235207395Y-92057087D01*
X235218450Y-92053302D01*
X235260390Y-92041118D01*
X235277629Y-92030922D01*
X235295103Y-92022362D01*
X235306474Y-92017860D01*
X235306476Y-92017858D01*
X235313732Y-92014986D01*
X235349069Y-91989311D01*
X235358824Y-91982903D01*
X235396420Y-91960670D01*
X235410584Y-91946505D01*
X235425379Y-91933868D01*
X235441587Y-91922094D01*
X235469428Y-91888438D01*
X235477279Y-91879809D01*
X235857771Y-91499318D01*
X235898000Y-91472438D01*
X235945453Y-91462999D01*
X236154561Y-91462999D01*
X236157872Y-91462999D01*
X236217483Y-91456591D01*
X236352331Y-91406296D01*
X236467546Y-91320046D01*
X236553796Y-91204831D01*
X236604091Y-91069983D01*
X236610500Y-91010373D01*
X236610499Y-88714628D01*
X236604091Y-88655017D01*
X236553796Y-88520169D01*
X236467546Y-88404954D01*
X236352331Y-88318704D01*
X236217483Y-88268409D01*
X236209770Y-88267579D01*
X236209767Y-88267579D01*
X236161180Y-88262355D01*
X236161169Y-88262354D01*
X236157873Y-88262000D01*
X236154550Y-88262000D01*
X236143978Y-88262000D01*
X235749499Y-88262000D01*
X235687500Y-88245388D01*
X235642113Y-88200001D01*
X235625500Y-88138001D01*
X235625500Y-87540272D01*
X235626020Y-87529219D01*
X235627672Y-87521833D01*
X235625561Y-87454645D01*
X235625500Y-87450751D01*
X235625500Y-87427045D01*
X235625500Y-87423150D01*
X235624998Y-87419181D01*
X235624080Y-87407524D01*
X235623907Y-87402030D01*
X235622709Y-87363873D01*
X235617120Y-87344640D01*
X235613174Y-87325583D01*
X235611641Y-87313444D01*
X235610664Y-87305708D01*
X235594582Y-87265091D01*
X235590803Y-87254051D01*
X235580795Y-87219602D01*
X235580793Y-87219599D01*
X235578618Y-87212110D01*
X235568417Y-87194860D01*
X235559863Y-87177401D01*
X235552486Y-87158768D01*
X235526808Y-87123425D01*
X235520401Y-87113671D01*
X235502142Y-87082796D01*
X235502141Y-87082794D01*
X235498170Y-87076080D01*
X235484005Y-87061915D01*
X235471370Y-87047122D01*
X235459594Y-87030913D01*
X235453583Y-87025940D01*
X235453581Y-87025938D01*
X235425941Y-87003073D01*
X235417300Y-86995210D01*
X231221772Y-82799681D01*
X231191522Y-82750318D01*
X231186980Y-82692602D01*
X231209135Y-82639115D01*
X231253158Y-82601515D01*
X231309453Y-82588000D01*
X235410019Y-82588000D01*
X235468340Y-82602571D01*
X235512955Y-82642860D01*
X235533377Y-82699399D01*
X235534312Y-82708561D01*
X235534313Y-82708569D01*
X235535001Y-82715297D01*
X235537129Y-82721719D01*
X235537130Y-82721723D01*
X235580502Y-82852610D01*
X235590186Y-82881834D01*
X235593977Y-82887980D01*
X235678497Y-83025011D01*
X235678500Y-83025015D01*
X235682288Y-83031156D01*
X235806344Y-83155212D01*
X235812485Y-83159000D01*
X235812488Y-83159002D01*
X235859646Y-83188089D01*
X235955666Y-83247314D01*
X236122203Y-83302499D01*
X236224991Y-83313000D01*
X237775008Y-83312999D01*
X237877797Y-83302499D01*
X238044334Y-83247314D01*
X238193656Y-83155212D01*
X238317712Y-83031156D01*
X238409814Y-82881834D01*
X238464999Y-82715297D01*
X238475500Y-82612509D01*
X238475499Y-81312492D01*
X238464999Y-81209703D01*
X238409814Y-81043166D01*
X238352041Y-80949500D01*
X238321502Y-80899988D01*
X238321500Y-80899985D01*
X238317712Y-80893844D01*
X238193656Y-80769788D01*
X238187515Y-80766000D01*
X238187511Y-80765997D01*
X238044334Y-80677686D01*
X238044878Y-80676803D01*
X238005038Y-80644827D01*
X237981299Y-80590873D01*
X237985154Y-80532054D01*
X238015730Y-80481665D01*
X238163495Y-80333901D01*
X238299035Y-80140330D01*
X238398903Y-79926163D01*
X238460063Y-79697908D01*
X238480659Y-79462500D01*
X238460063Y-79227092D01*
X238398903Y-78998837D01*
X238299035Y-78784671D01*
X238163495Y-78591099D01*
X237996401Y-78424005D01*
X237839403Y-78314074D01*
X237800538Y-78269757D01*
X237786527Y-78212500D01*
X237800538Y-78155243D01*
X237839404Y-78110925D01*
X237847462Y-78105283D01*
X237996401Y-78000995D01*
X238163495Y-77833901D01*
X238299035Y-77640330D01*
X238398903Y-77426163D01*
X238460063Y-77197908D01*
X238480659Y-76962500D01*
X238460063Y-76727092D01*
X238398903Y-76498837D01*
X238299035Y-76284671D01*
X238163495Y-76091099D01*
X237996401Y-75924005D01*
X237839403Y-75814074D01*
X237800538Y-75769757D01*
X237786527Y-75712500D01*
X237800538Y-75655243D01*
X237839404Y-75610925D01*
X237852083Y-75602047D01*
X237996401Y-75500995D01*
X238163495Y-75333901D01*
X238299035Y-75140330D01*
X238398903Y-74926163D01*
X238460063Y-74697908D01*
X238480659Y-74462500D01*
X238460063Y-74227092D01*
X238398903Y-73998837D01*
X238299035Y-73784671D01*
X238163495Y-73591099D01*
X237996401Y-73424005D01*
X237858023Y-73327112D01*
X237839403Y-73314074D01*
X237800537Y-73269755D01*
X237786527Y-73212498D01*
X237800538Y-73155242D01*
X237839401Y-73110926D01*
X237996401Y-73000995D01*
X238163495Y-72833901D01*
X238299035Y-72640330D01*
X238398903Y-72426163D01*
X238460063Y-72197908D01*
X238480659Y-71962500D01*
X238460063Y-71727092D01*
X238411572Y-71546119D01*
X238400305Y-71504069D01*
X238400304Y-71504066D01*
X238398903Y-71498837D01*
X238299035Y-71284671D01*
X238163495Y-71091099D01*
X237996401Y-70924005D01*
X237826272Y-70804880D01*
X237807268Y-70791573D01*
X237807266Y-70791572D01*
X237802829Y-70788465D01*
X237682442Y-70732327D01*
X237593572Y-70690886D01*
X237593570Y-70690885D01*
X237588663Y-70688597D01*
X237583438Y-70687197D01*
X237583430Y-70687194D01*
X237365634Y-70628837D01*
X237365630Y-70628836D01*
X237360408Y-70627437D01*
X237355020Y-70626965D01*
X237355017Y-70626965D01*
X237186664Y-70612236D01*
X237186662Y-70612235D01*
X237183966Y-70612000D01*
X236816034Y-70612000D01*
X236813338Y-70612235D01*
X236813335Y-70612236D01*
X236644982Y-70626965D01*
X236644977Y-70626965D01*
X236639592Y-70627437D01*
X236634371Y-70628835D01*
X236634365Y-70628837D01*
X236416569Y-70687194D01*
X236416557Y-70687198D01*
X236411337Y-70688597D01*
X236406432Y-70690883D01*
X236406427Y-70690886D01*
X236202081Y-70786175D01*
X236202077Y-70786177D01*
X236197171Y-70788465D01*
X236192738Y-70791568D01*
X236192731Y-70791573D01*
X236008034Y-70920899D01*
X236008029Y-70920902D01*
X236003599Y-70924005D01*
X235999775Y-70927828D01*
X235999769Y-70927834D01*
X235840336Y-71087267D01*
X235840330Y-71087273D01*
X235836505Y-71091099D01*
X235833406Y-71095523D01*
X235833399Y-71095533D01*
X235704066Y-71280240D01*
X235704061Y-71280247D01*
X235700965Y-71284670D01*
X235698683Y-71289561D01*
X235698678Y-71289572D01*
X235603386Y-71493927D01*
X235603383Y-71493932D01*
X235601097Y-71498837D01*
X235599698Y-71504056D01*
X235599695Y-71504066D01*
X235594275Y-71524298D01*
X235565922Y-71575977D01*
X235516910Y-71608726D01*
X235458315Y-71615143D01*
X235403377Y-71593779D01*
X235364511Y-71549461D01*
X235350500Y-71492204D01*
X235350500Y-61448267D01*
X235351020Y-61437214D01*
X235352672Y-61429828D01*
X235350561Y-61362640D01*
X235350500Y-61358746D01*
X235350500Y-61335040D01*
X235350500Y-61331145D01*
X235349998Y-61327176D01*
X235349080Y-61315519D01*
X235348434Y-61294962D01*
X235347709Y-61271868D01*
X235342120Y-61252635D01*
X235338174Y-61233578D01*
X235336641Y-61221439D01*
X235335664Y-61213703D01*
X235319582Y-61173086D01*
X235315803Y-61162046D01*
X235305795Y-61127597D01*
X235305793Y-61127594D01*
X235303618Y-61120105D01*
X235293417Y-61102855D01*
X235284863Y-61085396D01*
X235277486Y-61066763D01*
X235251808Y-61031420D01*
X235245401Y-61021666D01*
X235227142Y-60990791D01*
X235227141Y-60990789D01*
X235223170Y-60984075D01*
X235209005Y-60969910D01*
X235196370Y-60955117D01*
X235184594Y-60938908D01*
X235178583Y-60933935D01*
X235178581Y-60933933D01*
X235150941Y-60911068D01*
X235142300Y-60903205D01*
X232652630Y-58413534D01*
X232625750Y-58373306D01*
X232616311Y-58325853D01*
X232616311Y-57616746D01*
X232616311Y-57613435D01*
X232609903Y-57553824D01*
X232559608Y-57418976D01*
X232473358Y-57303761D01*
X232461617Y-57294972D01*
X232365243Y-57222826D01*
X232365242Y-57222825D01*
X232358143Y-57217511D01*
X232223295Y-57167216D01*
X232215582Y-57166386D01*
X232215579Y-57166386D01*
X232166992Y-57161162D01*
X232166981Y-57161161D01*
X232163685Y-57160807D01*
X232160362Y-57160807D01*
X231621251Y-57160807D01*
X231621232Y-57160807D01*
X231617940Y-57160808D01*
X231614665Y-57161159D01*
X231614646Y-57161161D01*
X231579065Y-57164986D01*
X231552561Y-57164986D01*
X231516975Y-57161160D01*
X231516962Y-57161159D01*
X231513685Y-57160807D01*
X231510374Y-57160807D01*
X230971251Y-57160807D01*
X230971232Y-57160807D01*
X230967940Y-57160808D01*
X230964665Y-57161159D01*
X230964646Y-57161161D01*
X230929065Y-57164986D01*
X230902561Y-57164986D01*
X230866975Y-57161160D01*
X230866962Y-57161159D01*
X230863685Y-57160807D01*
X230860375Y-57160807D01*
X230855953Y-57160807D01*
X230690311Y-57160807D01*
X230628312Y-57144195D01*
X230582925Y-57098808D01*
X230566312Y-57036808D01*
X230566312Y-56996759D01*
X230575751Y-56949306D01*
X230602631Y-56909078D01*
X230838584Y-56673126D01*
X230878812Y-56646246D01*
X230926265Y-56636807D01*
X230978955Y-56636807D01*
X230985458Y-56636807D01*
X231170615Y-56597451D01*
X231343542Y-56520458D01*
X231496683Y-56409195D01*
X231623345Y-56268523D01*
X231717991Y-56104591D01*
X231776486Y-55924563D01*
X231796272Y-55736307D01*
X231776486Y-55548051D01*
X231762896Y-55506226D01*
X233852329Y-55506226D01*
X233859159Y-55517462D01*
X233863157Y-55520858D01*
X234142694Y-55733357D01*
X234148240Y-55737117D01*
X234449099Y-55918137D01*
X234455038Y-55921285D01*
X234773695Y-56068712D01*
X234779937Y-56071199D01*
X235112684Y-56183315D01*
X235119129Y-56185104D01*
X235462053Y-56260588D01*
X235468677Y-56261674D01*
X235817740Y-56299636D01*
X235824437Y-56300000D01*
X236175563Y-56300000D01*
X236182259Y-56299636D01*
X236531322Y-56261674D01*
X236537946Y-56260588D01*
X236880870Y-56185104D01*
X236887315Y-56183315D01*
X237220062Y-56071199D01*
X237226304Y-56068712D01*
X237544961Y-55921285D01*
X237550900Y-55918137D01*
X237851759Y-55737117D01*
X237857305Y-55733357D01*
X238136846Y-55520856D01*
X238140841Y-55517462D01*
X238147669Y-55506228D01*
X238140996Y-55494549D01*
X236011542Y-53365095D01*
X236000000Y-53358431D01*
X235988457Y-53365095D01*
X233859000Y-55494551D01*
X233852329Y-55506226D01*
X231762896Y-55506226D01*
X231717991Y-55368023D01*
X231623345Y-55204091D01*
X231496683Y-55063419D01*
X231491425Y-55059599D01*
X231491423Y-55059597D01*
X231348800Y-54955976D01*
X231348799Y-54955975D01*
X231343542Y-54952156D01*
X231337604Y-54949512D01*
X231176557Y-54877808D01*
X231176552Y-54877806D01*
X231170615Y-54875163D01*
X231164256Y-54873811D01*
X231164252Y-54873810D01*
X230991820Y-54837159D01*
X230991817Y-54837158D01*
X230985458Y-54835807D01*
X230796166Y-54835807D01*
X230789807Y-54837158D01*
X230789803Y-54837159D01*
X230617371Y-54873810D01*
X230617364Y-54873812D01*
X230611009Y-54875163D01*
X230605074Y-54877805D01*
X230605066Y-54877808D01*
X230444019Y-54949512D01*
X230444014Y-54949514D01*
X230438082Y-54952156D01*
X230432828Y-54955972D01*
X230432823Y-54955976D01*
X230290200Y-55059597D01*
X230290193Y-55059602D01*
X230284941Y-55063419D01*
X230280596Y-55068244D01*
X230280591Y-55068249D01*
X230162625Y-55199263D01*
X230162620Y-55199269D01*
X230158279Y-55204091D01*
X230155034Y-55209711D01*
X230155030Y-55209717D01*
X230066881Y-55362396D01*
X230066878Y-55362401D01*
X230063633Y-55368023D01*
X230061627Y-55374195D01*
X230061625Y-55374201D01*
X230007145Y-55541871D01*
X230007143Y-55541880D01*
X230005138Y-55548051D01*
X230004459Y-55554510D01*
X230004459Y-55554511D01*
X229987490Y-55715957D01*
X229976090Y-55756379D01*
X229951850Y-55790676D01*
X229553508Y-56189018D01*
X229545317Y-56196470D01*
X229538935Y-56200521D01*
X229538859Y-56200601D01*
X229487893Y-56224906D01*
X229427548Y-56222057D01*
X229375711Y-56191032D01*
X228435839Y-55251160D01*
X227433682Y-54249002D01*
X227426238Y-54240821D01*
X227422182Y-54234430D01*
X227373171Y-54188405D01*
X227370374Y-54185694D01*
X227353623Y-54168943D01*
X227353622Y-54168942D01*
X227350867Y-54166187D01*
X227347686Y-54163719D01*
X227338810Y-54156137D01*
X227312665Y-54131585D01*
X227312663Y-54131583D01*
X227306978Y-54126245D01*
X227300145Y-54122489D01*
X227300139Y-54122484D01*
X227289421Y-54116592D01*
X227273162Y-54105913D01*
X227263491Y-54098411D01*
X227263488Y-54098409D01*
X227257332Y-54093634D01*
X227250175Y-54090536D01*
X227250172Y-54090535D01*
X227217245Y-54076285D01*
X227206759Y-54071148D01*
X227175328Y-54053869D01*
X227175319Y-54053865D01*
X227168488Y-54050110D01*
X227160931Y-54048169D01*
X227160927Y-54048168D01*
X227149084Y-54045127D01*
X227130680Y-54038826D01*
X227119453Y-54033967D01*
X227119446Y-54033965D01*
X227112292Y-54030869D01*
X227104588Y-54029648D01*
X227104586Y-54029648D01*
X227069155Y-54024036D01*
X227057720Y-54021668D01*
X227022967Y-54012745D01*
X227022959Y-54012744D01*
X227015415Y-54010807D01*
X227007619Y-54010807D01*
X226995379Y-54010807D01*
X226975993Y-54009281D01*
X226956200Y-54006147D01*
X226948434Y-54006881D01*
X226948431Y-54006881D01*
X226912720Y-54010257D01*
X226901051Y-54010807D01*
X218903968Y-54010807D01*
X218892912Y-54010285D01*
X218885526Y-54008634D01*
X218877738Y-54008878D01*
X218877731Y-54008878D01*
X218818320Y-54010746D01*
X218814425Y-54010807D01*
X218786843Y-54010807D01*
X218782998Y-54011292D01*
X218782973Y-54011294D01*
X218782846Y-54011311D01*
X218771227Y-54012225D01*
X218735365Y-54013352D01*
X218735358Y-54013353D01*
X218727566Y-54013598D01*
X218720081Y-54015772D01*
X218720065Y-54015775D01*
X218708319Y-54019188D01*
X218689276Y-54023132D01*
X218677142Y-54024665D01*
X218677141Y-54024665D01*
X218669401Y-54025643D01*
X218662151Y-54028512D01*
X218662144Y-54028515D01*
X218628791Y-54041720D01*
X218617747Y-54045501D01*
X218583294Y-54055511D01*
X218583283Y-54055515D01*
X218575803Y-54057689D01*
X218569091Y-54061658D01*
X218569089Y-54061659D01*
X218558557Y-54067887D01*
X218541097Y-54076441D01*
X218529712Y-54080949D01*
X218529706Y-54080951D01*
X218522461Y-54083821D01*
X218516156Y-54088401D01*
X218516148Y-54088406D01*
X218487125Y-54109492D01*
X218477367Y-54115902D01*
X218446489Y-54134164D01*
X218446483Y-54134168D01*
X218439773Y-54138137D01*
X218434260Y-54143648D01*
X218434253Y-54143655D01*
X218425603Y-54152305D01*
X218410820Y-54164931D01*
X218400919Y-54172124D01*
X218400909Y-54172133D01*
X218394606Y-54176713D01*
X218389637Y-54182718D01*
X218389634Y-54182722D01*
X218366765Y-54210366D01*
X218358904Y-54219004D01*
X213109255Y-59468652D01*
X213048940Y-59501913D01*
X212980182Y-59497858D01*
X212924194Y-59457738D01*
X212898253Y-59393932D01*
X212897453Y-59386319D01*
X212885674Y-59274244D01*
X212827179Y-59094216D01*
X212732533Y-58930284D01*
X212722910Y-58919597D01*
X212610220Y-58794442D01*
X212610219Y-58794441D01*
X212605871Y-58789612D01*
X212600613Y-58785792D01*
X212600611Y-58785790D01*
X212457988Y-58682169D01*
X212457987Y-58682168D01*
X212452730Y-58678349D01*
X212446792Y-58675705D01*
X212285745Y-58604001D01*
X212285740Y-58603999D01*
X212279803Y-58601356D01*
X212273444Y-58600004D01*
X212273440Y-58600003D01*
X212101008Y-58563352D01*
X212101005Y-58563351D01*
X212094646Y-58562000D01*
X212088143Y-58562000D01*
X212035452Y-58562000D01*
X211987999Y-58552561D01*
X211947771Y-58525681D01*
X206425448Y-53003357D01*
X232695335Y-53003357D01*
X232714343Y-53353958D01*
X232715069Y-53360630D01*
X232771874Y-53707130D01*
X232773317Y-53713684D01*
X232867251Y-54052001D01*
X232869396Y-54058368D01*
X232999360Y-54384552D01*
X233002169Y-54390626D01*
X233166649Y-54700868D01*
X233170102Y-54706606D01*
X233367147Y-54997225D01*
X233371207Y-55002566D01*
X233485320Y-55136910D01*
X233496664Y-55144527D01*
X233508590Y-55137855D01*
X235634904Y-53011542D01*
X235641568Y-52999999D01*
X236358431Y-52999999D01*
X236365095Y-53011542D01*
X238491409Y-55137856D01*
X238503334Y-55144527D01*
X238514679Y-55136910D01*
X238628792Y-55002566D01*
X238632852Y-54997225D01*
X238829897Y-54706606D01*
X238833350Y-54700868D01*
X238997830Y-54390626D01*
X239000639Y-54384552D01*
X239130603Y-54058368D01*
X239132748Y-54052001D01*
X239226682Y-53713684D01*
X239228125Y-53707130D01*
X239284930Y-53360630D01*
X239285656Y-53353958D01*
X239304665Y-53003357D01*
X239304665Y-52996643D01*
X239285656Y-52646041D01*
X239284930Y-52639369D01*
X239228125Y-52292869D01*
X239226682Y-52286315D01*
X239132748Y-51947998D01*
X239130603Y-51941631D01*
X239000639Y-51615447D01*
X238997830Y-51609373D01*
X238833350Y-51299131D01*
X238829897Y-51293393D01*
X238632852Y-51002774D01*
X238628792Y-50997433D01*
X238514678Y-50863088D01*
X238503334Y-50855471D01*
X238491408Y-50862143D01*
X236365095Y-52988457D01*
X236358431Y-52999999D01*
X235641568Y-52999999D01*
X235634904Y-52988457D01*
X233508590Y-50862143D01*
X233496664Y-50855471D01*
X233485320Y-50863088D01*
X233371207Y-50997433D01*
X233367147Y-51002774D01*
X233170102Y-51293393D01*
X233166649Y-51299131D01*
X233002169Y-51609373D01*
X232999360Y-51615447D01*
X232869396Y-51941631D01*
X232867251Y-51947998D01*
X232773317Y-52286315D01*
X232771874Y-52292869D01*
X232715069Y-52639369D01*
X232714343Y-52646041D01*
X232695335Y-52996643D01*
X232695335Y-53003357D01*
X206425448Y-53003357D01*
X206080843Y-52658752D01*
X206073399Y-52650571D01*
X206069343Y-52644180D01*
X206020332Y-52598155D01*
X206017535Y-52595444D01*
X206000784Y-52578693D01*
X206000783Y-52578692D01*
X205998028Y-52575937D01*
X205994847Y-52573469D01*
X205985971Y-52565887D01*
X205959826Y-52541335D01*
X205959824Y-52541333D01*
X205954139Y-52535995D01*
X205947306Y-52532239D01*
X205947300Y-52532234D01*
X205936582Y-52526342D01*
X205920323Y-52515663D01*
X205910652Y-52508161D01*
X205910649Y-52508159D01*
X205904493Y-52503384D01*
X205897336Y-52500286D01*
X205897333Y-52500285D01*
X205864406Y-52486035D01*
X205853920Y-52480898D01*
X205822489Y-52463619D01*
X205822480Y-52463615D01*
X205815649Y-52459860D01*
X205808092Y-52457919D01*
X205808088Y-52457918D01*
X205796245Y-52454877D01*
X205777841Y-52448576D01*
X205766614Y-52443717D01*
X205766607Y-52443715D01*
X205759453Y-52440619D01*
X205751749Y-52439398D01*
X205751747Y-52439398D01*
X205716316Y-52433786D01*
X205704881Y-52431418D01*
X205670128Y-52422495D01*
X205670120Y-52422494D01*
X205662576Y-52420557D01*
X205654780Y-52420557D01*
X205642540Y-52420557D01*
X205623154Y-52419031D01*
X205603361Y-52415897D01*
X205595595Y-52416631D01*
X205595592Y-52416631D01*
X205559881Y-52420007D01*
X205548212Y-52420557D01*
X197468913Y-52420557D01*
X197457857Y-52420035D01*
X197450471Y-52418384D01*
X197442683Y-52418628D01*
X197442676Y-52418628D01*
X197383251Y-52420496D01*
X197379357Y-52420557D01*
X197351788Y-52420557D01*
X197347932Y-52421043D01*
X197347929Y-52421044D01*
X197347873Y-52421051D01*
X197347800Y-52421060D01*
X197336182Y-52421974D01*
X197300303Y-52423102D01*
X197300302Y-52423102D01*
X197292511Y-52423347D01*
X197285026Y-52425521D01*
X197285022Y-52425522D01*
X197273263Y-52428938D01*
X197254225Y-52432880D01*
X197242087Y-52434414D01*
X197242079Y-52434415D01*
X197234346Y-52435393D01*
X197227098Y-52438262D01*
X197227092Y-52438264D01*
X197193735Y-52451470D01*
X197182692Y-52455251D01*
X197148238Y-52465262D01*
X197148232Y-52465264D01*
X197140748Y-52467439D01*
X197134036Y-52471408D01*
X197134034Y-52471409D01*
X197123502Y-52477637D01*
X197106042Y-52486191D01*
X197094657Y-52490699D01*
X197094651Y-52490701D01*
X197087406Y-52493571D01*
X197081101Y-52498151D01*
X197081093Y-52498156D01*
X197052070Y-52519242D01*
X197042312Y-52525652D01*
X197011434Y-52543914D01*
X197011428Y-52543918D01*
X197004718Y-52547887D01*
X196999205Y-52553398D01*
X196999198Y-52553405D01*
X196990548Y-52562055D01*
X196975765Y-52574681D01*
X196965864Y-52581874D01*
X196965854Y-52581883D01*
X196959551Y-52586463D01*
X196954582Y-52592468D01*
X196954579Y-52592472D01*
X196931710Y-52620116D01*
X196923849Y-52628754D01*
X191887696Y-57664906D01*
X191879511Y-57672354D01*
X191873123Y-57676409D01*
X191867788Y-57682089D01*
X191867783Y-57682094D01*
X191827096Y-57725420D01*
X191824392Y-57728211D01*
X191807628Y-57744975D01*
X191807621Y-57744982D01*
X191804880Y-57747724D01*
X191802500Y-57750791D01*
X191802489Y-57750804D01*
X191802400Y-57750920D01*
X191794842Y-57759765D01*
X191770280Y-57785922D01*
X191770273Y-57785931D01*
X191764938Y-57791613D01*
X191761182Y-57798444D01*
X191761179Y-57798449D01*
X191755285Y-57809170D01*
X191744609Y-57825422D01*
X191737109Y-57835091D01*
X191737101Y-57835102D01*
X191732327Y-57841259D01*
X191729234Y-57848403D01*
X191729229Y-57848414D01*
X191714974Y-57881355D01*
X191709838Y-57891838D01*
X191694727Y-57919326D01*
X191688803Y-57930103D01*
X191686864Y-57937651D01*
X191686863Y-57937656D01*
X191683822Y-57949502D01*
X191677521Y-57967906D01*
X191672658Y-57979143D01*
X191672656Y-57979147D01*
X191669562Y-57986299D01*
X191668342Y-57993998D01*
X191668342Y-57994000D01*
X191662729Y-58029436D01*
X191660361Y-58040871D01*
X191651438Y-58075623D01*
X191651436Y-58075631D01*
X191649500Y-58083176D01*
X191649500Y-58090972D01*
X191649500Y-58103212D01*
X191647974Y-58122597D01*
X191644840Y-58142391D01*
X191645574Y-58150156D01*
X191645574Y-58150159D01*
X191648950Y-58185871D01*
X191649500Y-58197540D01*
X191649500Y-58685030D01*
X191648978Y-58696085D01*
X191647327Y-58703472D01*
X191647571Y-58711258D01*
X191647571Y-58711266D01*
X191649439Y-58770678D01*
X191649500Y-58774573D01*
X191649500Y-58802155D01*
X191649988Y-58806024D01*
X191649989Y-58806030D01*
X191650004Y-58806148D01*
X191650918Y-58817771D01*
X191652045Y-58853635D01*
X191652046Y-58853642D01*
X191652291Y-58861432D01*
X191654467Y-58868924D01*
X191654468Y-58868926D01*
X191657879Y-58880667D01*
X191661825Y-58899720D01*
X191664336Y-58919597D01*
X191667206Y-58926847D01*
X191667208Y-58926853D01*
X191680414Y-58960209D01*
X191684197Y-58971256D01*
X191696382Y-59013195D01*
X191700353Y-59019910D01*
X191700354Y-59019912D01*
X191706581Y-59030442D01*
X191715136Y-59047904D01*
X191719642Y-59059285D01*
X191719643Y-59059288D01*
X191722514Y-59066537D01*
X191738108Y-59088000D01*
X191748181Y-59101865D01*
X191754593Y-59111627D01*
X191772856Y-59142507D01*
X191772859Y-59142512D01*
X191776830Y-59149225D01*
X191782344Y-59154739D01*
X191782345Y-59154740D01*
X191790990Y-59163385D01*
X191803626Y-59178179D01*
X191810819Y-59188080D01*
X191810823Y-59188084D01*
X191815406Y-59194392D01*
X191821415Y-59199363D01*
X191821416Y-59199364D01*
X191849058Y-59222231D01*
X191857699Y-59230094D01*
X192877023Y-60249418D01*
X192909117Y-60305005D01*
X192909117Y-60369193D01*
X192877023Y-60424780D01*
X184236592Y-69065211D01*
X184228407Y-69072659D01*
X184222019Y-69076714D01*
X184216684Y-69082394D01*
X184216679Y-69082399D01*
X184175992Y-69125725D01*
X184173288Y-69128516D01*
X184156524Y-69145280D01*
X184156517Y-69145287D01*
X184153776Y-69148029D01*
X184151396Y-69151096D01*
X184151385Y-69151109D01*
X184151296Y-69151225D01*
X184143738Y-69160070D01*
X184119176Y-69186227D01*
X184119169Y-69186236D01*
X184113834Y-69191918D01*
X184110078Y-69198749D01*
X184110075Y-69198754D01*
X184104181Y-69209475D01*
X184093505Y-69225727D01*
X184086005Y-69235396D01*
X184085997Y-69235407D01*
X184081223Y-69241564D01*
X184078130Y-69248708D01*
X184078125Y-69248719D01*
X184063870Y-69281660D01*
X184058734Y-69292143D01*
X184043790Y-69319328D01*
X184037699Y-69330408D01*
X184035760Y-69337956D01*
X184035759Y-69337961D01*
X184032718Y-69349807D01*
X184026417Y-69368211D01*
X184021554Y-69379448D01*
X184021552Y-69379452D01*
X184018458Y-69386604D01*
X184017238Y-69394303D01*
X184017238Y-69394305D01*
X184011625Y-69429741D01*
X184009257Y-69441176D01*
X184000334Y-69475928D01*
X184000332Y-69475936D01*
X183998396Y-69483481D01*
X183998396Y-69491277D01*
X183998396Y-69503517D01*
X183996870Y-69522902D01*
X183993736Y-69542696D01*
X183994470Y-69550461D01*
X183994470Y-69550464D01*
X183997846Y-69586176D01*
X183998396Y-69597845D01*
X183998396Y-72696061D01*
X183992050Y-72735222D01*
X183973661Y-72770374D01*
X183960980Y-72787313D01*
X183917218Y-72823885D01*
X183861715Y-72837000D01*
X179810453Y-72837000D01*
X179763000Y-72827561D01*
X179722772Y-72800681D01*
X179511818Y-72589727D01*
X179484938Y-72549499D01*
X179475499Y-72502046D01*
X179475499Y-71315641D01*
X179475499Y-71315639D01*
X179475499Y-71312492D01*
X179464999Y-71209703D01*
X179409814Y-71043166D01*
X179344265Y-70936893D01*
X179321502Y-70899988D01*
X179321500Y-70899985D01*
X179317712Y-70893844D01*
X179193656Y-70769788D01*
X179187515Y-70766000D01*
X179187511Y-70765997D01*
X179050480Y-70681477D01*
X179044334Y-70677686D01*
X179017898Y-70668926D01*
X178884225Y-70624631D01*
X178884224Y-70624630D01*
X178877797Y-70622501D01*
X178871064Y-70621813D01*
X178871059Y-70621812D01*
X178778140Y-70612319D01*
X178778123Y-70612318D01*
X178775009Y-70612000D01*
X178771860Y-70612000D01*
X177228140Y-70612000D01*
X177228120Y-70612000D01*
X177224992Y-70612001D01*
X177221860Y-70612320D01*
X177221858Y-70612321D01*
X177128938Y-70621812D01*
X177128928Y-70621813D01*
X177122203Y-70622501D01*
X177115781Y-70624628D01*
X177115776Y-70624630D01*
X176962521Y-70675414D01*
X176962517Y-70675415D01*
X176955666Y-70677686D01*
X176949522Y-70681475D01*
X176949519Y-70681477D01*
X176812488Y-70765997D01*
X176812480Y-70766003D01*
X176806344Y-70769788D01*
X176801242Y-70774889D01*
X176801238Y-70774893D01*
X176687393Y-70888738D01*
X176687389Y-70888742D01*
X176682288Y-70893844D01*
X176678503Y-70899980D01*
X176678497Y-70899988D01*
X176593977Y-71037019D01*
X176590186Y-71043166D01*
X176587915Y-71050017D01*
X176587914Y-71050021D01*
X176539872Y-71195003D01*
X176535001Y-71209703D01*
X176534313Y-71216433D01*
X176534312Y-71216440D01*
X176524819Y-71309359D01*
X176524818Y-71309377D01*
X176524500Y-71312491D01*
X176524500Y-71315638D01*
X176524500Y-71315639D01*
X176524500Y-72609359D01*
X176524500Y-72609378D01*
X172000500Y-72609378D01*
X172000500Y-55506226D01*
X175852329Y-55506226D01*
X175859159Y-55517462D01*
X175863157Y-55520858D01*
X176142694Y-55733357D01*
X176148240Y-55737117D01*
X176449099Y-55918137D01*
X176455038Y-55921285D01*
X176773695Y-56068712D01*
X176779937Y-56071199D01*
X177112684Y-56183315D01*
X177119129Y-56185104D01*
X177462053Y-56260588D01*
X177468677Y-56261674D01*
X177817740Y-56299636D01*
X177824437Y-56300000D01*
X178175563Y-56300000D01*
X178182259Y-56299636D01*
X178531322Y-56261674D01*
X178537946Y-56260588D01*
X178880870Y-56185104D01*
X178887315Y-56183315D01*
X179220062Y-56071199D01*
X179226304Y-56068712D01*
X179544961Y-55921285D01*
X179550900Y-55918137D01*
X179851759Y-55737117D01*
X179857305Y-55733357D01*
X180136846Y-55520856D01*
X180140841Y-55517462D01*
X180147669Y-55506228D01*
X180140996Y-55494549D01*
X178011542Y-53365095D01*
X178000000Y-53358431D01*
X177988457Y-53365095D01*
X175859000Y-55494551D01*
X175852329Y-55506226D01*
X172000500Y-55506226D01*
X172000500Y-53003357D01*
X174695335Y-53003357D01*
X174714343Y-53353958D01*
X174715069Y-53360630D01*
X174771874Y-53707130D01*
X174773317Y-53713684D01*
X174867251Y-54052001D01*
X174869396Y-54058368D01*
X174999360Y-54384552D01*
X175002169Y-54390626D01*
X175166649Y-54700868D01*
X175170102Y-54706606D01*
X175367147Y-54997225D01*
X175371207Y-55002566D01*
X175485320Y-55136910D01*
X175496664Y-55144527D01*
X175508590Y-55137855D01*
X177634904Y-53011542D01*
X177641568Y-52999999D01*
X178358431Y-52999999D01*
X178365095Y-53011542D01*
X180491409Y-55137856D01*
X180503334Y-55144527D01*
X180514679Y-55136910D01*
X180628792Y-55002566D01*
X180632852Y-54997225D01*
X180829897Y-54706606D01*
X180833350Y-54700868D01*
X180997830Y-54390626D01*
X181000639Y-54384552D01*
X181130603Y-54058368D01*
X181132748Y-54052001D01*
X181226682Y-53713684D01*
X181228125Y-53707130D01*
X181284930Y-53360630D01*
X181285656Y-53353958D01*
X181304665Y-53003357D01*
X181304665Y-52996643D01*
X181285656Y-52646041D01*
X181284930Y-52639369D01*
X181228125Y-52292869D01*
X181226682Y-52286315D01*
X181132748Y-51947998D01*
X181130603Y-51941631D01*
X181000639Y-51615447D01*
X180997830Y-51609373D01*
X180833350Y-51299131D01*
X180829897Y-51293393D01*
X180632852Y-51002774D01*
X180628792Y-50997433D01*
X180514678Y-50863088D01*
X180503334Y-50855471D01*
X180491408Y-50862143D01*
X178365095Y-52988457D01*
X178358431Y-52999999D01*
X177641568Y-52999999D01*
X177634904Y-52988457D01*
X175508590Y-50862143D01*
X175496664Y-50855471D01*
X175485320Y-50863088D01*
X175371207Y-50997433D01*
X175367147Y-51002774D01*
X175170102Y-51293393D01*
X175166649Y-51299131D01*
X175002169Y-51609373D01*
X174999360Y-51615447D01*
X174869396Y-51941631D01*
X174867251Y-51947998D01*
X174773317Y-52286315D01*
X174771874Y-52292869D01*
X174715069Y-52639369D01*
X174714343Y-52646041D01*
X174695335Y-52996643D01*
X174695335Y-53003357D01*
X172000500Y-53003357D01*
X172000500Y-53002424D01*
X172000596Y-52997556D01*
X172000632Y-52996643D01*
X172009991Y-52758428D01*
X172019529Y-52527822D01*
X172020278Y-52518432D01*
X172048869Y-52276868D01*
X172077442Y-52047650D01*
X172078868Y-52038825D01*
X172126313Y-51800302D01*
X172126430Y-51799730D01*
X172173826Y-51573687D01*
X172175820Y-51565569D01*
X172241770Y-51331727D01*
X172242178Y-51330318D01*
X172308043Y-51109085D01*
X172310529Y-51101617D01*
X172394623Y-50873669D01*
X172395334Y-50871799D01*
X172479215Y-50656830D01*
X172482093Y-50650059D01*
X172554143Y-50493771D01*
X175852329Y-50493771D01*
X175859001Y-50505448D01*
X177988457Y-52634904D01*
X178000000Y-52641568D01*
X178011542Y-52634904D01*
X180140998Y-50505447D01*
X180147669Y-50493772D01*
X180147668Y-50493771D01*
X233852329Y-50493771D01*
X233859001Y-50505448D01*
X235988457Y-52634904D01*
X236000000Y-52641568D01*
X236011542Y-52634904D01*
X238140998Y-50505447D01*
X238147669Y-50493772D01*
X238140839Y-50482536D01*
X238136842Y-50479141D01*
X237857305Y-50266642D01*
X237851759Y-50262882D01*
X237550900Y-50081862D01*
X237544961Y-50078714D01*
X237226304Y-49931287D01*
X237220062Y-49928800D01*
X236887315Y-49816684D01*
X236880870Y-49814895D01*
X236537946Y-49739411D01*
X236531322Y-49738325D01*
X236182259Y-49700363D01*
X236175563Y-49700000D01*
X235824437Y-49700000D01*
X235817740Y-49700363D01*
X235468677Y-49738325D01*
X235462053Y-49739411D01*
X235119129Y-49814895D01*
X235112684Y-49816684D01*
X234779937Y-49928800D01*
X234773695Y-49931287D01*
X234455038Y-50078714D01*
X234449099Y-50081862D01*
X234148240Y-50262882D01*
X234142694Y-50266642D01*
X233863149Y-50479146D01*
X233859159Y-50482536D01*
X233852329Y-50493771D01*
X180147668Y-50493771D01*
X180140839Y-50482536D01*
X180136842Y-50479141D01*
X179857305Y-50266642D01*
X179851759Y-50262882D01*
X179550900Y-50081862D01*
X179544961Y-50078714D01*
X179226304Y-49931287D01*
X179220062Y-49928800D01*
X178887315Y-49816684D01*
X178880870Y-49814895D01*
X178537946Y-49739411D01*
X178531322Y-49738325D01*
X178182259Y-49700363D01*
X178175563Y-49700000D01*
X177824437Y-49700000D01*
X177817740Y-49700363D01*
X177468677Y-49738325D01*
X177462053Y-49739411D01*
X177119129Y-49814895D01*
X177112684Y-49816684D01*
X176779937Y-49928800D01*
X176773695Y-49931287D01*
X176455038Y-50078714D01*
X176449099Y-50081862D01*
X176148240Y-50262882D01*
X176142694Y-50266642D01*
X175863149Y-50479146D01*
X175859159Y-50482536D01*
X175852329Y-50493771D01*
X172554143Y-50493771D01*
X172583790Y-50429461D01*
X172584881Y-50427162D01*
X172686260Y-50219789D01*
X172689405Y-50213788D01*
X172808082Y-50001874D01*
X172809621Y-49999209D01*
X172927774Y-49800923D01*
X172931127Y-49795613D01*
X173066073Y-49593654D01*
X173068123Y-49590686D01*
X173202228Y-49402860D01*
X173205673Y-49398271D01*
X173356004Y-49207576D01*
X173358676Y-49204305D01*
X173507835Y-49028194D01*
X173511302Y-49024277D01*
X173676126Y-48845971D01*
X173679400Y-48842567D01*
X173842567Y-48679400D01*
X173845971Y-48676126D01*
X174024277Y-48511302D01*
X174028194Y-48507835D01*
X174204305Y-48358676D01*
X174207576Y-48356004D01*
X174398271Y-48205673D01*
X174402860Y-48202228D01*
X174590686Y-48068123D01*
X174593654Y-48066073D01*
X174795613Y-47931127D01*
X174800923Y-47927774D01*
X174999209Y-47809621D01*
X175001874Y-47808082D01*
X175213788Y-47689405D01*
X175219789Y-47686260D01*
X175427162Y-47584881D01*
X175429461Y-47583790D01*
X175650059Y-47482093D01*
X175656830Y-47479215D01*
X175871799Y-47395334D01*
X175873669Y-47394623D01*
X176101617Y-47310529D01*
X176109085Y-47308043D01*
X176330318Y-47242178D01*
X176331727Y-47241770D01*
X176565569Y-47175820D01*
X176573687Y-47173826D01*
X176799730Y-47126430D01*
X176800302Y-47126313D01*
X177038825Y-47078868D01*
X177047650Y-47077442D01*
X177276868Y-47048869D01*
X177518432Y-47020278D01*
X177527822Y-47019529D01*
X177758428Y-47009991D01*
X177758577Y-47009985D01*
X177758579Y-47010044D01*
X177758823Y-47009975D01*
X177997556Y-47000596D01*
X178002424Y-47000500D01*
X235997575Y-47000500D01*
X236002442Y-47000596D01*
G37*
%TD.AperFunction*%
%TD*%
M02*
