%TF.GenerationSoftware,KiCad,Pcbnew,(7.0.0)*%
%TF.CreationDate,2024-03-19T12:14:35-03:00*%
%TF.ProjectId,pcb_peau_v1,7063625f-7065-4617-955f-76312e6b6963,rev?*%
%TF.SameCoordinates,Original*%
%TF.FileFunction,Paste,Top*%
%TF.FilePolarity,Positive*%
%FSLAX46Y46*%
G04 Gerber Fmt 4.6, Leading zero omitted, Abs format (unit mm)*
G04 Created by KiCad (PCBNEW (7.0.0)) date 2024-03-19 12:14:35*
%MOMM*%
%LPD*%
G01*
G04 APERTURE LIST*
G04 Aperture macros list*
%AMRoundRect*
0 Rectangle with rounded corners*
0 $1 Rounding radius*
0 $2 $3 $4 $5 $6 $7 $8 $9 X,Y pos of 4 corners*
0 Add a 4 corners polygon primitive as box body*
4,1,4,$2,$3,$4,$5,$6,$7,$8,$9,$2,$3,0*
0 Add four circle primitives for the rounded corners*
1,1,$1+$1,$2,$3*
1,1,$1+$1,$4,$5*
1,1,$1+$1,$6,$7*
1,1,$1+$1,$8,$9*
0 Add four rect primitives between the rounded corners*
20,1,$1+$1,$2,$3,$4,$5,0*
20,1,$1+$1,$4,$5,$6,$7,0*
20,1,$1+$1,$6,$7,$8,$9,0*
20,1,$1+$1,$8,$9,$2,$3,0*%
G04 Aperture macros list end*
%ADD10RoundRect,0.250000X-0.450000X0.350000X-0.450000X-0.350000X0.450000X-0.350000X0.450000X0.350000X0*%
%ADD11RoundRect,0.250000X0.350000X0.450000X-0.350000X0.450000X-0.350000X-0.450000X0.350000X-0.450000X0*%
%ADD12RoundRect,0.250000X-0.350000X-0.450000X0.350000X-0.450000X0.350000X0.450000X-0.350000X0.450000X0*%
%ADD13RoundRect,0.250000X0.450000X-0.350000X0.450000X0.350000X-0.450000X0.350000X-0.450000X-0.350000X0*%
%ADD14R,0.250000X1.750000*%
%ADD15R,0.050000X1.550000*%
%ADD16R,0.600000X2.200000*%
G04 APERTURE END LIST*
D10*
%TO.C,R10*%
X187940000Y-117317000D03*
X187940000Y-119317000D03*
%TD*%
D11*
%TO.C,R22*%
X206720000Y-119991500D03*
X204720000Y-119991500D03*
%TD*%
D12*
%TO.C,R4*%
X211070000Y-119991500D03*
X213070000Y-119991500D03*
%TD*%
D10*
%TO.C,R9*%
X211054000Y-115435500D03*
X211054000Y-117435500D03*
%TD*%
%TO.C,R8*%
X192512000Y-118333000D03*
X192512000Y-120333000D03*
%TD*%
%TO.C,R21*%
X217625000Y-115350000D03*
X217625000Y-117350000D03*
%TD*%
D13*
%TO.C,R23*%
X214610000Y-117435500D03*
X214610000Y-115435500D03*
%TD*%
%TO.C,R11*%
X206736000Y-117482500D03*
X206736000Y-115482500D03*
%TD*%
D12*
%TO.C,R20*%
X199132000Y-117959500D03*
X201132000Y-117959500D03*
%TD*%
D11*
%TO.C,R25*%
X201100000Y-119925000D03*
X199100000Y-119925000D03*
%TD*%
D14*
%TO.C,U3*%
X224612999Y-51065999D03*
X225262999Y-51065999D03*
X225912999Y-51065999D03*
X226562999Y-51065999D03*
X227212999Y-51065999D03*
X227862999Y-51065999D03*
X228512999Y-51065999D03*
X229162999Y-51065999D03*
X229812999Y-51065999D03*
X230462999Y-51065999D03*
X231112999Y-51065999D03*
X231762999Y-51065999D03*
X231762999Y-43865999D03*
X231112999Y-43865999D03*
X230462999Y-43865999D03*
X229812999Y-43865999D03*
X229162999Y-43865999D03*
X228512999Y-43865999D03*
X227862999Y-43865999D03*
X227212999Y-43865999D03*
X226562999Y-43865999D03*
X225912999Y-43865999D03*
X225262999Y-43865999D03*
X224612999Y-43865999D03*
%TD*%
%TO.C,U5*%
X226644999Y-89673999D03*
X227294999Y-89673999D03*
X227944999Y-89673999D03*
X228594999Y-89673999D03*
X229244999Y-89673999D03*
X229894999Y-89673999D03*
X230544999Y-89673999D03*
X231194999Y-89673999D03*
X231844999Y-89673999D03*
X232494999Y-89673999D03*
X233144999Y-89673999D03*
X233794999Y-89673999D03*
X233794999Y-82473999D03*
X233144999Y-82473999D03*
X232494999Y-82473999D03*
X231844999Y-82473999D03*
X231194999Y-82473999D03*
X230544999Y-82473999D03*
X229894999Y-82473999D03*
X229244999Y-82473999D03*
X228594999Y-82473999D03*
X227944999Y-82473999D03*
X227294999Y-82473999D03*
X226644999Y-82473999D03*
%TD*%
%TO.C,U4*%
X186015999Y-43655999D03*
X186665999Y-43655999D03*
X187315999Y-43655999D03*
X187965999Y-43655999D03*
X188615999Y-43655999D03*
X189265999Y-43655999D03*
X189915999Y-43655999D03*
X190565999Y-43655999D03*
X191215999Y-43655999D03*
X191865999Y-43655999D03*
X192515999Y-43655999D03*
X193165999Y-43655999D03*
X193165999Y-50855999D03*
X192515999Y-50855999D03*
X191865999Y-50855999D03*
X191215999Y-50855999D03*
X190565999Y-50855999D03*
X189915999Y-50855999D03*
X189265999Y-50855999D03*
X188615999Y-50855999D03*
X187965999Y-50855999D03*
X187315999Y-50855999D03*
X186665999Y-50855999D03*
X186015999Y-50855999D03*
%TD*%
D15*
%TO.C,U6*%
X180162999Y-89673999D03*
X180812999Y-89673999D03*
X181462999Y-89673999D03*
X182112999Y-89673999D03*
X182762999Y-89673999D03*
X183412999Y-89673999D03*
X184062999Y-89673999D03*
X184712999Y-89673999D03*
X185362999Y-89673999D03*
X186012999Y-89673999D03*
X186662999Y-89673999D03*
X187312999Y-89673999D03*
X187312999Y-82473999D03*
X186662999Y-82473999D03*
X186012999Y-82473999D03*
X185362999Y-82473999D03*
X184712999Y-82473999D03*
X184062999Y-82473999D03*
X183412999Y-82473999D03*
X182762999Y-82473999D03*
X182112999Y-82473999D03*
X181462999Y-82473999D03*
X180812999Y-82473999D03*
X180162999Y-82473999D03*
%TD*%
D16*
%TO.C,U7*%
X178307999Y-103317999D03*
X177037999Y-103317999D03*
X175767999Y-103317999D03*
X174497999Y-103317999D03*
X173227999Y-103317999D03*
X171957999Y-103317999D03*
X170687999Y-103317999D03*
X170687999Y-108517999D03*
X171957999Y-108517999D03*
X173227999Y-108517999D03*
X174497999Y-108517999D03*
X175767999Y-108517999D03*
X177037999Y-108517999D03*
X178307999Y-108517999D03*
%TD*%
%TO.C,U8*%
X191515999Y-105155999D03*
X192785999Y-105155999D03*
X194055999Y-105155999D03*
X195325999Y-105155999D03*
X196595999Y-105155999D03*
X197865999Y-105155999D03*
X199135999Y-105155999D03*
X199135999Y-99955999D03*
X197865999Y-99955999D03*
X196595999Y-99955999D03*
X195325999Y-99955999D03*
X194055999Y-99955999D03*
X192785999Y-99955999D03*
X191515999Y-99955999D03*
%TD*%
%TO.C,U2*%
X216153999Y-105917999D03*
X217423999Y-105917999D03*
X218693999Y-105917999D03*
X219963999Y-105917999D03*
X221233999Y-105917999D03*
X222503999Y-105917999D03*
X223773999Y-105917999D03*
X223773999Y-100717999D03*
X222503999Y-100717999D03*
X221233999Y-100717999D03*
X219963999Y-100717999D03*
X218693999Y-100717999D03*
X217423999Y-100717999D03*
X216153999Y-100717999D03*
%TD*%
%TO.C,U9*%
X243839999Y-103571999D03*
X242569999Y-103571999D03*
X241299999Y-103571999D03*
X240029999Y-103571999D03*
X238759999Y-103571999D03*
X237489999Y-103571999D03*
X236219999Y-103571999D03*
X236219999Y-108771999D03*
X237489999Y-108771999D03*
X238759999Y-108771999D03*
X240029999Y-108771999D03*
X241299999Y-108771999D03*
X242569999Y-108771999D03*
X243839999Y-108771999D03*
%TD*%
M02*
