M48
; DRILL file {KiCad (7.0.0)} date Tue Mar 19 12:14:33 2024
; FORMAT={-:-/ absolute / inch / decimal}
; #@! TF.CreationDate,2024-03-19T12:14:33-03:00
; #@! TF.GenerationSoftware,Kicad,Pcbnew,(7.0.0)
; #@! TF.FileFunction,Plated,1,2,PTH
FMAT,2
INCH
; #@! TA.AperFunction,Plated,PTH,ViaDrill
T1C0.0157
; #@! TA.AperFunction,Plated,PTH,ComponentDrill
T2C0.0276
; #@! TA.AperFunction,Plated,PTH,ComponentDrill
T3C0.0315
; #@! TA.AperFunction,Plated,PTH,ComponentDrill
T4C0.0374
; #@! TA.AperFunction,Plated,PTH,ComponentDrill
T5C0.0394
; #@! TA.AperFunction,Plated,PTH,ComponentDrill
T6C0.1260
%
G90
G05
T1
X6.6518Y-2.9657
X6.8291Y-4.1913
X6.86Y-2.49
X6.9701Y-3.1014
X6.9866Y-3.4047
X7.0177Y-3.1839
X7.0496Y-3.4871
X7.05Y-2.55
X7.085Y-3.6709
X7.1203Y-2.2189
X7.1587Y-1.998
X7.1633Y-3.3244
X7.1654Y-3.0318
X7.1959Y-3.3983
X7.2121Y-3.6025
X7.239Y-3.1147
X7.24Y-1.95
X7.2465Y-3.0492
X7.2525Y-3.4187
X7.2534Y-3.3335
X7.2763Y-2.0419
X7.28Y-2.59
X7.3294Y-3.4506
X7.3298Y-3.0272
X7.3299Y-3.0767
X7.33Y-2.26
X7.3306Y-3.1259
X7.3316Y-1.9146
X7.3318Y-3.3443
X7.37Y-1.86
X7.3709Y-2.1736
X7.3825Y-1.6154
X7.3858Y-3.7114
X7.4124Y-3.2884
X7.4141Y-1.7839
X7.42Y-4.26
X7.4257Y-2.0899
X7.4301Y-3.178
X7.4365Y-1.8277
X7.4375Y-2.608
X7.4398Y-1.9357
X7.4472Y-3.0654
X7.4654Y-3.7638
X7.4709Y-2.9443
X7.4764Y-2.8772
X7.4785Y-1.636
X7.4942Y-1.9315
X7.4967Y-2.1007
X7.507Y-3.223
X7.5085Y-2.5934
X7.5179Y-3.1414
X7.52Y-1.89
X7.5429Y-2.0948
X7.56Y-3.43
X7.5603Y-2.5443
X7.5887Y-2.7787
X7.59Y-4.2809
X7.5953Y-4.4059
X7.5977Y-1.8734
X7.6169Y-3.2583
X7.6187Y-3.5256
X7.639Y-2.8413
X7.6567Y-2.6254
X7.6667Y-4.0282
X7.6765Y-2.976
X7.71Y-3.43
X7.7119Y-3.1794
X7.7146Y-2.4331
X7.7258Y-3.3135
X7.7386Y-2.8157
X7.74Y-2.01
X7.7721Y-3.3192
X7.7833Y-3.8615
X7.7863Y-1.8711
X7.8047Y-2.9992
X7.8095Y-1.9677
X7.8202Y-2.0388
X7.83Y-2.24
X7.8724Y-3.403
X7.88Y-3.5
X7.8978Y-2.0149
X7.9Y-2.4
X7.9112Y-3.0506
X7.9122Y-4.7817
X7.9189Y-4.5209
X7.9374Y-3.8531
X7.9406Y-2.8449
X8.0Y-3.92
X8.0007Y-3.4748
X8.0126Y-3.7284
X8.0579Y-3.5315
X8.1535Y-2.9017
X8.1635Y-3.5239
X8.1843Y-3.6299
X8.21Y-1.99
X8.2152Y-2.3535
X8.2172Y-2.9726
X8.22Y-3.98
X8.2323Y-3.1463
X8.24Y-2.24
X8.2608Y-4.62
X8.2625Y-3.5778
X8.2913Y-4.2274
X8.3092Y-4.4548
X8.3118Y-2.9882
X8.319Y-3.6216
X8.32Y-3.86
X8.33Y-3.72
X8.3557Y-2.7919
X8.36Y-1.65
X8.38Y-2.4
X8.39Y-3.6128
X8.4007Y-3.4336
X8.4304Y-2.9436
X8.4829Y-2.3423
X8.4921Y-4.385
X8.4992Y-2.9811
X8.5028Y-3.609
X8.5077Y-4.5334
X8.5114Y-3.3921
X8.5239Y-3.2029
X8.5244Y-3.6839
X8.5285Y-2.0832
X8.5384Y-2.7136
X8.5543Y-2.4366
X8.5577Y-3.2391
X8.5661Y-3.5357
X8.57Y-1.91
X8.5764Y-3.3436
X8.5837Y-2.322
X8.5854Y-2.8874
X8.6078Y-3.2505
X8.6094Y-2.2051
X8.6244Y-2.4014
X8.6344Y-4.0388
X8.6364Y-2.251
X8.6382Y-2.0469
X8.6591Y-2.6432
X8.6614Y-4.3173
X8.6637Y-3.4104
X8.6751Y-3.242
X8.68Y-1.96
X8.7Y-3.7524
X8.7141Y-2.1809
X8.7185Y-2.6863
X8.7398Y-3.063
X8.7469Y-3.2354
X8.7543Y-3.1524
X8.7722Y-2.0177
X8.7945Y-2.4465
X8.8166Y-1.8578
X8.819Y-3.0206
X8.8211Y-1.6444
X8.8248Y-2.913
X8.8264Y-2.8055
X8.836Y-3.1617
X8.8364Y-2.7267
X8.8417Y-2.5433
X8.8512Y-3.3425
X8.8559Y-3.213
X8.8599Y-1.8219
X8.8611Y-2.427
X8.888Y-3.5487
X8.8965Y-3.1615
X8.9075Y-2.1858
X8.9188Y-2.1139
X8.9227Y-2.2538
X8.9296Y-1.7934
X8.9322Y-2.8444
X8.937Y-2.9449
X8.9441Y-3.063
X8.9486Y-3.1783
X8.9544Y-2.1425
X8.9696Y-2.3508
X8.9753Y-3.6634
X8.9843Y-3.4623
X8.985Y-2.6193
X8.989Y-3.1471
X8.9894Y-3.7311
X8.99Y-4.31
X8.9994Y-3.8175
X9.0075Y-1.9421
X9.0106Y-3.3119
X9.0195Y-1.662
X9.0207Y-2.6685
X9.0219Y-3.3557
X9.0252Y-1.8098
X9.0254Y-3.1068
X9.0358Y-3.4031
X9.0385Y-2.2315
X9.0449Y-3.675
X9.0575Y-2.6126
X9.0587Y-2.548
X9.0597Y-1.8414
X9.0644Y-3.0447
X9.0766Y-3.1821
X9.0781Y-2.371
X9.0961Y-2.7445
X9.0984Y-3.31
X9.0989Y-1.8188
X9.1002Y-2.8971
X9.1305Y-3.173
X9.1382Y-3.4658
X9.1391Y-2.1618
X9.1437Y-3.3117
X9.1476Y-2.1039
X9.1483Y-1.7934
X9.1512Y-3.9522
X9.1512Y-4.1027
X9.1524Y-2.4472
X9.1755Y-1.8546
X9.1917Y-3.4169
X9.1933Y-2.8787
X9.2008Y-2.2831
X9.2047Y-1.639
X9.2063Y-3.1772
X9.2067Y-3.0456
X9.2074Y-2.1963
X9.2197Y-1.7718
X9.2725Y-2.7444
X9.28Y-2.56
X9.2961Y-1.9898
X9.304Y-3.1865
X9.3634Y-3.2732
X9.41Y-3.71
X9.42Y-3.0
X9.42Y-3.0
X9.4497Y-2.7444
X9.4844Y-4.1505
X9.726Y-2.4355
T2
X8.4238Y-3.2587
X8.4238Y-3.3375
X8.5962Y-2.6387
T3
X7.7301Y-2.56
X7.7301Y-2.6387
X7.8088Y-2.56
X7.8088Y-2.6387
X7.8726Y-3.2587
X7.8726Y-3.3375
X7.8876Y-2.56
X7.8876Y-2.6387
X7.9513Y-3.2587
X7.9513Y-3.3375
X7.9663Y-2.56
X7.9663Y-2.6387
X8.0301Y-3.2587
X8.0301Y-3.3375
X8.045Y-2.56
X8.045Y-2.6387
X8.1088Y-3.2587
X8.1088Y-3.3375
X8.1238Y-2.56
X8.1238Y-2.6387
X8.1876Y-3.2587
X8.1876Y-3.3375
X8.2025Y-2.56
X8.2025Y-2.6387
X8.2663Y-3.2587
X8.2663Y-3.3375
X8.2813Y-2.56
X8.2813Y-2.6387
X8.345Y-3.2587
X8.345Y-3.3375
X8.36Y-2.56
X8.36Y-2.6387
X8.4387Y-2.56
X8.4387Y-2.6387
X8.5175Y-2.56
X8.5175Y-2.6387
X8.5962Y-2.56
T4
X6.7238Y-2.495
X6.7238Y-2.5935
X6.7238Y-2.6919
X6.7238Y-2.7903
X6.7238Y-2.8887
X9.6138Y-2.495
X9.6138Y-2.5935
X9.6138Y-2.6919
X9.6138Y-2.7903
X9.6138Y-2.8887
T5
X8.8408Y-4.5841
X8.9392Y-4.5841
T6
X6.57Y-1.54
X6.58Y-4.88
X9.75Y-1.54
X9.75Y-4.89
T0
M30
