%TF.GenerationSoftware,KiCad,Pcbnew,(7.0.0)*%
%TF.CreationDate,2024-03-19T12:14:35-03:00*%
%TF.ProjectId,pcb_peau_v1,7063625f-7065-4617-955f-76312e6b6963,rev?*%
%TF.SameCoordinates,Original*%
%TF.FileFunction,Soldermask,Bot*%
%TF.FilePolarity,Negative*%
%FSLAX46Y46*%
G04 Gerber Fmt 4.6, Leading zero omitted, Abs format (unit mm)*
G04 Created by KiCad (PCBNEW (7.0.0)) date 2024-03-19 12:14:35*
%MOMM*%
%LPD*%
G01*
G04 APERTURE LIST*
G04 Aperture macros list*
%AMRoundRect*
0 Rectangle with rounded corners*
0 $1 Rounding radius*
0 $2 $3 $4 $5 $6 $7 $8 $9 X,Y pos of 4 corners*
0 Add a 4 corners polygon primitive as box body*
4,1,4,$2,$3,$4,$5,$6,$7,$8,$9,$2,$3,0*
0 Add four circle primitives for the rounded corners*
1,1,$1+$1,$2,$3*
1,1,$1+$1,$4,$5*
1,1,$1+$1,$6,$7*
1,1,$1+$1,$8,$9*
0 Add four rect primitives between the rounded corners*
20,1,$1+$1,$2,$3,$4,$5,0*
20,1,$1+$1,$4,$5,$6,$7,0*
20,1,$1+$1,$6,$7,$8,$9,0*
20,1,$1+$1,$8,$9,$2,$3,0*%
G04 Aperture macros list end*
%ADD10C,5.600000*%
%ADD11RoundRect,0.250000X-0.600000X-0.750000X0.600000X-0.750000X0.600000X0.750000X-0.600000X0.750000X0*%
%ADD12O,1.700000X2.000000*%
%ADD13RoundRect,0.250000X0.725000X-0.600000X0.725000X0.600000X-0.725000X0.600000X-0.725000X-0.600000X0*%
%ADD14O,1.950000X1.700000*%
%ADD15RoundRect,0.291667X0.408333X0.408333X-0.408333X0.408333X-0.408333X-0.408333X0.408333X-0.408333X0*%
%ADD16C,1.320000*%
%ADD17C,1.600000*%
%ADD18RoundRect,0.250000X-0.725000X0.600000X-0.725000X-0.600000X0.725000X-0.600000X0.725000X0.600000X0*%
G04 APERTURE END LIST*
D10*
%TO.C,H1*%
X166878000Y-39116000D03*
%TD*%
D11*
%TO.C,J3*%
X224556000Y-116435500D03*
D12*
X227055999Y-116435499D03*
%TD*%
D10*
%TO.C,H3*%
X247650000Y-124206000D03*
%TD*%
%TO.C,H4*%
X167132000Y-123952000D03*
%TD*%
%TO.C,H2*%
X247650000Y-39116000D03*
%TD*%
D13*
%TO.C,J2*%
X244190000Y-73374000D03*
D14*
X244189999Y-70873999D03*
X244189999Y-68373999D03*
X244189999Y-65873999D03*
X244189999Y-63373999D03*
%TD*%
D15*
%TO.C,J4*%
X213964000Y-84772000D03*
D16*
X213964000Y-82772000D03*
D17*
X211964000Y-84772000D03*
X211964000Y-82772000D03*
X209964000Y-84772000D03*
X209964000Y-82772000D03*
X207964000Y-84772000D03*
X207964000Y-82772000D03*
X205964000Y-84772000D03*
X205964000Y-82772000D03*
X203964000Y-84772000D03*
X203964000Y-82772000D03*
X201964000Y-84772000D03*
X201964000Y-82772000D03*
X199964000Y-84772000D03*
X199964000Y-82772000D03*
%TD*%
D18*
%TO.C,J1*%
X170784000Y-63374000D03*
D14*
X170783999Y-65873999D03*
X170783999Y-68373999D03*
X170783999Y-70873999D03*
X170783999Y-73373999D03*
%TD*%
D17*
%TO.C,J5*%
X196344000Y-65024000D03*
X198344000Y-65024000D03*
X198344000Y-67024000D03*
X200344000Y-65024000D03*
X200344000Y-67024000D03*
X202344000Y-65024000D03*
X202344000Y-67024000D03*
X204344000Y-65024000D03*
X204344000Y-67024000D03*
X206344000Y-65024000D03*
X206344000Y-67024000D03*
X208344000Y-65024000D03*
X208344000Y-67024000D03*
X210344000Y-65024000D03*
X210344000Y-67024000D03*
X212344000Y-65024000D03*
X212344000Y-67024000D03*
X214344000Y-65024000D03*
X214344000Y-67024000D03*
X216344000Y-65024000D03*
X216344000Y-67024000D03*
X218344000Y-65024000D03*
D15*
X218344000Y-67024000D03*
%TD*%
M02*
