%TF.GenerationSoftware,KiCad,Pcbnew,(7.0.0)*%
%TF.CreationDate,2024-03-19T12:14:35-03:00*%
%TF.ProjectId,pcb_peau_v1,7063625f-7065-4617-955f-76312e6b6963,rev?*%
%TF.SameCoordinates,Original*%
%TF.FileFunction,Legend,Top*%
%TF.FilePolarity,Positive*%
%FSLAX46Y46*%
G04 Gerber Fmt 4.6, Leading zero omitted, Abs format (unit mm)*
G04 Created by KiCad (PCBNEW (7.0.0)) date 2024-03-19 12:14:35*
%MOMM*%
%LPD*%
G01*
G04 APERTURE LIST*
%ADD10C,0.150000*%
%ADD11C,0.120000*%
G04 APERTURE END LIST*
D10*
%TO.C,R10*%
X189957380Y-118959857D02*
X189481190Y-119293190D01*
X189957380Y-119531285D02*
X188957380Y-119531285D01*
X188957380Y-119531285D02*
X188957380Y-119150333D01*
X188957380Y-119150333D02*
X189005000Y-119055095D01*
X189005000Y-119055095D02*
X189052619Y-119007476D01*
X189052619Y-119007476D02*
X189147857Y-118959857D01*
X189147857Y-118959857D02*
X189290714Y-118959857D01*
X189290714Y-118959857D02*
X189385952Y-119007476D01*
X189385952Y-119007476D02*
X189433571Y-119055095D01*
X189433571Y-119055095D02*
X189481190Y-119150333D01*
X189481190Y-119150333D02*
X189481190Y-119531285D01*
X189957380Y-118007476D02*
X189957380Y-118578904D01*
X189957380Y-118293190D02*
X188957380Y-118293190D01*
X188957380Y-118293190D02*
X189100238Y-118388428D01*
X189100238Y-118388428D02*
X189195476Y-118483666D01*
X189195476Y-118483666D02*
X189243095Y-118578904D01*
X188957380Y-117388428D02*
X188957380Y-117293190D01*
X188957380Y-117293190D02*
X189005000Y-117197952D01*
X189005000Y-117197952D02*
X189052619Y-117150333D01*
X189052619Y-117150333D02*
X189147857Y-117102714D01*
X189147857Y-117102714D02*
X189338333Y-117055095D01*
X189338333Y-117055095D02*
X189576428Y-117055095D01*
X189576428Y-117055095D02*
X189766904Y-117102714D01*
X189766904Y-117102714D02*
X189862142Y-117150333D01*
X189862142Y-117150333D02*
X189909761Y-117197952D01*
X189909761Y-117197952D02*
X189957380Y-117293190D01*
X189957380Y-117293190D02*
X189957380Y-117388428D01*
X189957380Y-117388428D02*
X189909761Y-117483666D01*
X189909761Y-117483666D02*
X189862142Y-117531285D01*
X189862142Y-117531285D02*
X189766904Y-117578904D01*
X189766904Y-117578904D02*
X189576428Y-117626523D01*
X189576428Y-117626523D02*
X189338333Y-117626523D01*
X189338333Y-117626523D02*
X189147857Y-117578904D01*
X189147857Y-117578904D02*
X189052619Y-117531285D01*
X189052619Y-117531285D02*
X189005000Y-117483666D01*
X189005000Y-117483666D02*
X188957380Y-117388428D01*
%TO.C,R22*%
X205077142Y-122008880D02*
X204743809Y-121532690D01*
X204505714Y-122008880D02*
X204505714Y-121008880D01*
X204505714Y-121008880D02*
X204886666Y-121008880D01*
X204886666Y-121008880D02*
X204981904Y-121056500D01*
X204981904Y-121056500D02*
X205029523Y-121104119D01*
X205029523Y-121104119D02*
X205077142Y-121199357D01*
X205077142Y-121199357D02*
X205077142Y-121342214D01*
X205077142Y-121342214D02*
X205029523Y-121437452D01*
X205029523Y-121437452D02*
X204981904Y-121485071D01*
X204981904Y-121485071D02*
X204886666Y-121532690D01*
X204886666Y-121532690D02*
X204505714Y-121532690D01*
X205458095Y-121104119D02*
X205505714Y-121056500D01*
X205505714Y-121056500D02*
X205600952Y-121008880D01*
X205600952Y-121008880D02*
X205839047Y-121008880D01*
X205839047Y-121008880D02*
X205934285Y-121056500D01*
X205934285Y-121056500D02*
X205981904Y-121104119D01*
X205981904Y-121104119D02*
X206029523Y-121199357D01*
X206029523Y-121199357D02*
X206029523Y-121294595D01*
X206029523Y-121294595D02*
X205981904Y-121437452D01*
X205981904Y-121437452D02*
X205410476Y-122008880D01*
X205410476Y-122008880D02*
X206029523Y-122008880D01*
X206410476Y-121104119D02*
X206458095Y-121056500D01*
X206458095Y-121056500D02*
X206553333Y-121008880D01*
X206553333Y-121008880D02*
X206791428Y-121008880D01*
X206791428Y-121008880D02*
X206886666Y-121056500D01*
X206886666Y-121056500D02*
X206934285Y-121104119D01*
X206934285Y-121104119D02*
X206981904Y-121199357D01*
X206981904Y-121199357D02*
X206981904Y-121294595D01*
X206981904Y-121294595D02*
X206934285Y-121437452D01*
X206934285Y-121437452D02*
X206362857Y-122008880D01*
X206362857Y-122008880D02*
X206981904Y-122008880D01*
%TO.C,R4*%
X211903333Y-118708880D02*
X211570000Y-118232690D01*
X211331905Y-118708880D02*
X211331905Y-117708880D01*
X211331905Y-117708880D02*
X211712857Y-117708880D01*
X211712857Y-117708880D02*
X211808095Y-117756500D01*
X211808095Y-117756500D02*
X211855714Y-117804119D01*
X211855714Y-117804119D02*
X211903333Y-117899357D01*
X211903333Y-117899357D02*
X211903333Y-118042214D01*
X211903333Y-118042214D02*
X211855714Y-118137452D01*
X211855714Y-118137452D02*
X211808095Y-118185071D01*
X211808095Y-118185071D02*
X211712857Y-118232690D01*
X211712857Y-118232690D02*
X211331905Y-118232690D01*
X212760476Y-118042214D02*
X212760476Y-118708880D01*
X212522381Y-117661261D02*
X212284286Y-118375547D01*
X212284286Y-118375547D02*
X212903333Y-118375547D01*
%TO.C,R9*%
X213071380Y-116602166D02*
X212595190Y-116935499D01*
X213071380Y-117173594D02*
X212071380Y-117173594D01*
X212071380Y-117173594D02*
X212071380Y-116792642D01*
X212071380Y-116792642D02*
X212119000Y-116697404D01*
X212119000Y-116697404D02*
X212166619Y-116649785D01*
X212166619Y-116649785D02*
X212261857Y-116602166D01*
X212261857Y-116602166D02*
X212404714Y-116602166D01*
X212404714Y-116602166D02*
X212499952Y-116649785D01*
X212499952Y-116649785D02*
X212547571Y-116697404D01*
X212547571Y-116697404D02*
X212595190Y-116792642D01*
X212595190Y-116792642D02*
X212595190Y-117173594D01*
X213071380Y-116125975D02*
X213071380Y-115935499D01*
X213071380Y-115935499D02*
X213023761Y-115840261D01*
X213023761Y-115840261D02*
X212976142Y-115792642D01*
X212976142Y-115792642D02*
X212833285Y-115697404D01*
X212833285Y-115697404D02*
X212642809Y-115649785D01*
X212642809Y-115649785D02*
X212261857Y-115649785D01*
X212261857Y-115649785D02*
X212166619Y-115697404D01*
X212166619Y-115697404D02*
X212119000Y-115745023D01*
X212119000Y-115745023D02*
X212071380Y-115840261D01*
X212071380Y-115840261D02*
X212071380Y-116030737D01*
X212071380Y-116030737D02*
X212119000Y-116125975D01*
X212119000Y-116125975D02*
X212166619Y-116173594D01*
X212166619Y-116173594D02*
X212261857Y-116221213D01*
X212261857Y-116221213D02*
X212499952Y-116221213D01*
X212499952Y-116221213D02*
X212595190Y-116173594D01*
X212595190Y-116173594D02*
X212642809Y-116125975D01*
X212642809Y-116125975D02*
X212690428Y-116030737D01*
X212690428Y-116030737D02*
X212690428Y-115840261D01*
X212690428Y-115840261D02*
X212642809Y-115745023D01*
X212642809Y-115745023D02*
X212595190Y-115697404D01*
X212595190Y-115697404D02*
X212499952Y-115649785D01*
%TO.C,R8*%
X194529380Y-119499666D02*
X194053190Y-119832999D01*
X194529380Y-120071094D02*
X193529380Y-120071094D01*
X193529380Y-120071094D02*
X193529380Y-119690142D01*
X193529380Y-119690142D02*
X193577000Y-119594904D01*
X193577000Y-119594904D02*
X193624619Y-119547285D01*
X193624619Y-119547285D02*
X193719857Y-119499666D01*
X193719857Y-119499666D02*
X193862714Y-119499666D01*
X193862714Y-119499666D02*
X193957952Y-119547285D01*
X193957952Y-119547285D02*
X194005571Y-119594904D01*
X194005571Y-119594904D02*
X194053190Y-119690142D01*
X194053190Y-119690142D02*
X194053190Y-120071094D01*
X193957952Y-118928237D02*
X193910333Y-119023475D01*
X193910333Y-119023475D02*
X193862714Y-119071094D01*
X193862714Y-119071094D02*
X193767476Y-119118713D01*
X193767476Y-119118713D02*
X193719857Y-119118713D01*
X193719857Y-119118713D02*
X193624619Y-119071094D01*
X193624619Y-119071094D02*
X193577000Y-119023475D01*
X193577000Y-119023475D02*
X193529380Y-118928237D01*
X193529380Y-118928237D02*
X193529380Y-118737761D01*
X193529380Y-118737761D02*
X193577000Y-118642523D01*
X193577000Y-118642523D02*
X193624619Y-118594904D01*
X193624619Y-118594904D02*
X193719857Y-118547285D01*
X193719857Y-118547285D02*
X193767476Y-118547285D01*
X193767476Y-118547285D02*
X193862714Y-118594904D01*
X193862714Y-118594904D02*
X193910333Y-118642523D01*
X193910333Y-118642523D02*
X193957952Y-118737761D01*
X193957952Y-118737761D02*
X193957952Y-118928237D01*
X193957952Y-118928237D02*
X194005571Y-119023475D01*
X194005571Y-119023475D02*
X194053190Y-119071094D01*
X194053190Y-119071094D02*
X194148428Y-119118713D01*
X194148428Y-119118713D02*
X194338904Y-119118713D01*
X194338904Y-119118713D02*
X194434142Y-119071094D01*
X194434142Y-119071094D02*
X194481761Y-119023475D01*
X194481761Y-119023475D02*
X194529380Y-118928237D01*
X194529380Y-118928237D02*
X194529380Y-118737761D01*
X194529380Y-118737761D02*
X194481761Y-118642523D01*
X194481761Y-118642523D02*
X194434142Y-118594904D01*
X194434142Y-118594904D02*
X194338904Y-118547285D01*
X194338904Y-118547285D02*
X194148428Y-118547285D01*
X194148428Y-118547285D02*
X194053190Y-118594904D01*
X194053190Y-118594904D02*
X194005571Y-118642523D01*
X194005571Y-118642523D02*
X193957952Y-118737761D01*
%TO.C,R21*%
X219642380Y-116992857D02*
X219166190Y-117326190D01*
X219642380Y-117564285D02*
X218642380Y-117564285D01*
X218642380Y-117564285D02*
X218642380Y-117183333D01*
X218642380Y-117183333D02*
X218690000Y-117088095D01*
X218690000Y-117088095D02*
X218737619Y-117040476D01*
X218737619Y-117040476D02*
X218832857Y-116992857D01*
X218832857Y-116992857D02*
X218975714Y-116992857D01*
X218975714Y-116992857D02*
X219070952Y-117040476D01*
X219070952Y-117040476D02*
X219118571Y-117088095D01*
X219118571Y-117088095D02*
X219166190Y-117183333D01*
X219166190Y-117183333D02*
X219166190Y-117564285D01*
X218737619Y-116611904D02*
X218690000Y-116564285D01*
X218690000Y-116564285D02*
X218642380Y-116469047D01*
X218642380Y-116469047D02*
X218642380Y-116230952D01*
X218642380Y-116230952D02*
X218690000Y-116135714D01*
X218690000Y-116135714D02*
X218737619Y-116088095D01*
X218737619Y-116088095D02*
X218832857Y-116040476D01*
X218832857Y-116040476D02*
X218928095Y-116040476D01*
X218928095Y-116040476D02*
X219070952Y-116088095D01*
X219070952Y-116088095D02*
X219642380Y-116659523D01*
X219642380Y-116659523D02*
X219642380Y-116040476D01*
X219642380Y-115088095D02*
X219642380Y-115659523D01*
X219642380Y-115373809D02*
X218642380Y-115373809D01*
X218642380Y-115373809D02*
X218785238Y-115469047D01*
X218785238Y-115469047D02*
X218880476Y-115564285D01*
X218880476Y-115564285D02*
X218928095Y-115659523D01*
%TO.C,R23*%
X213327380Y-117078357D02*
X212851190Y-117411690D01*
X213327380Y-117649785D02*
X212327380Y-117649785D01*
X212327380Y-117649785D02*
X212327380Y-117268833D01*
X212327380Y-117268833D02*
X212375000Y-117173595D01*
X212375000Y-117173595D02*
X212422619Y-117125976D01*
X212422619Y-117125976D02*
X212517857Y-117078357D01*
X212517857Y-117078357D02*
X212660714Y-117078357D01*
X212660714Y-117078357D02*
X212755952Y-117125976D01*
X212755952Y-117125976D02*
X212803571Y-117173595D01*
X212803571Y-117173595D02*
X212851190Y-117268833D01*
X212851190Y-117268833D02*
X212851190Y-117649785D01*
X212422619Y-116697404D02*
X212375000Y-116649785D01*
X212375000Y-116649785D02*
X212327380Y-116554547D01*
X212327380Y-116554547D02*
X212327380Y-116316452D01*
X212327380Y-116316452D02*
X212375000Y-116221214D01*
X212375000Y-116221214D02*
X212422619Y-116173595D01*
X212422619Y-116173595D02*
X212517857Y-116125976D01*
X212517857Y-116125976D02*
X212613095Y-116125976D01*
X212613095Y-116125976D02*
X212755952Y-116173595D01*
X212755952Y-116173595D02*
X213327380Y-116745023D01*
X213327380Y-116745023D02*
X213327380Y-116125976D01*
X212327380Y-115792642D02*
X212327380Y-115173595D01*
X212327380Y-115173595D02*
X212708333Y-115506928D01*
X212708333Y-115506928D02*
X212708333Y-115364071D01*
X212708333Y-115364071D02*
X212755952Y-115268833D01*
X212755952Y-115268833D02*
X212803571Y-115221214D01*
X212803571Y-115221214D02*
X212898809Y-115173595D01*
X212898809Y-115173595D02*
X213136904Y-115173595D01*
X213136904Y-115173595D02*
X213232142Y-115221214D01*
X213232142Y-115221214D02*
X213279761Y-115268833D01*
X213279761Y-115268833D02*
X213327380Y-115364071D01*
X213327380Y-115364071D02*
X213327380Y-115649785D01*
X213327380Y-115649785D02*
X213279761Y-115745023D01*
X213279761Y-115745023D02*
X213232142Y-115792642D01*
%TO.C,R11*%
X205453380Y-117125357D02*
X204977190Y-117458690D01*
X205453380Y-117696785D02*
X204453380Y-117696785D01*
X204453380Y-117696785D02*
X204453380Y-117315833D01*
X204453380Y-117315833D02*
X204501000Y-117220595D01*
X204501000Y-117220595D02*
X204548619Y-117172976D01*
X204548619Y-117172976D02*
X204643857Y-117125357D01*
X204643857Y-117125357D02*
X204786714Y-117125357D01*
X204786714Y-117125357D02*
X204881952Y-117172976D01*
X204881952Y-117172976D02*
X204929571Y-117220595D01*
X204929571Y-117220595D02*
X204977190Y-117315833D01*
X204977190Y-117315833D02*
X204977190Y-117696785D01*
X205453380Y-116172976D02*
X205453380Y-116744404D01*
X205453380Y-116458690D02*
X204453380Y-116458690D01*
X204453380Y-116458690D02*
X204596238Y-116553928D01*
X204596238Y-116553928D02*
X204691476Y-116649166D01*
X204691476Y-116649166D02*
X204739095Y-116744404D01*
X205453380Y-115220595D02*
X205453380Y-115792023D01*
X205453380Y-115506309D02*
X204453380Y-115506309D01*
X204453380Y-115506309D02*
X204596238Y-115601547D01*
X204596238Y-115601547D02*
X204691476Y-115696785D01*
X204691476Y-115696785D02*
X204739095Y-115792023D01*
%TO.C,R20*%
X199489142Y-116676880D02*
X199155809Y-116200690D01*
X198917714Y-116676880D02*
X198917714Y-115676880D01*
X198917714Y-115676880D02*
X199298666Y-115676880D01*
X199298666Y-115676880D02*
X199393904Y-115724500D01*
X199393904Y-115724500D02*
X199441523Y-115772119D01*
X199441523Y-115772119D02*
X199489142Y-115867357D01*
X199489142Y-115867357D02*
X199489142Y-116010214D01*
X199489142Y-116010214D02*
X199441523Y-116105452D01*
X199441523Y-116105452D02*
X199393904Y-116153071D01*
X199393904Y-116153071D02*
X199298666Y-116200690D01*
X199298666Y-116200690D02*
X198917714Y-116200690D01*
X199870095Y-115772119D02*
X199917714Y-115724500D01*
X199917714Y-115724500D02*
X200012952Y-115676880D01*
X200012952Y-115676880D02*
X200251047Y-115676880D01*
X200251047Y-115676880D02*
X200346285Y-115724500D01*
X200346285Y-115724500D02*
X200393904Y-115772119D01*
X200393904Y-115772119D02*
X200441523Y-115867357D01*
X200441523Y-115867357D02*
X200441523Y-115962595D01*
X200441523Y-115962595D02*
X200393904Y-116105452D01*
X200393904Y-116105452D02*
X199822476Y-116676880D01*
X199822476Y-116676880D02*
X200441523Y-116676880D01*
X201060571Y-115676880D02*
X201155809Y-115676880D01*
X201155809Y-115676880D02*
X201251047Y-115724500D01*
X201251047Y-115724500D02*
X201298666Y-115772119D01*
X201298666Y-115772119D02*
X201346285Y-115867357D01*
X201346285Y-115867357D02*
X201393904Y-116057833D01*
X201393904Y-116057833D02*
X201393904Y-116295928D01*
X201393904Y-116295928D02*
X201346285Y-116486404D01*
X201346285Y-116486404D02*
X201298666Y-116581642D01*
X201298666Y-116581642D02*
X201251047Y-116629261D01*
X201251047Y-116629261D02*
X201155809Y-116676880D01*
X201155809Y-116676880D02*
X201060571Y-116676880D01*
X201060571Y-116676880D02*
X200965333Y-116629261D01*
X200965333Y-116629261D02*
X200917714Y-116581642D01*
X200917714Y-116581642D02*
X200870095Y-116486404D01*
X200870095Y-116486404D02*
X200822476Y-116295928D01*
X200822476Y-116295928D02*
X200822476Y-116057833D01*
X200822476Y-116057833D02*
X200870095Y-115867357D01*
X200870095Y-115867357D02*
X200917714Y-115772119D01*
X200917714Y-115772119D02*
X200965333Y-115724500D01*
X200965333Y-115724500D02*
X201060571Y-115676880D01*
%TO.C,R25*%
X199457142Y-122457880D02*
X199123809Y-121981690D01*
X198885714Y-122457880D02*
X198885714Y-121457880D01*
X198885714Y-121457880D02*
X199266666Y-121457880D01*
X199266666Y-121457880D02*
X199361904Y-121505500D01*
X199361904Y-121505500D02*
X199409523Y-121553119D01*
X199409523Y-121553119D02*
X199457142Y-121648357D01*
X199457142Y-121648357D02*
X199457142Y-121791214D01*
X199457142Y-121791214D02*
X199409523Y-121886452D01*
X199409523Y-121886452D02*
X199361904Y-121934071D01*
X199361904Y-121934071D02*
X199266666Y-121981690D01*
X199266666Y-121981690D02*
X198885714Y-121981690D01*
X199838095Y-121553119D02*
X199885714Y-121505500D01*
X199885714Y-121505500D02*
X199980952Y-121457880D01*
X199980952Y-121457880D02*
X200219047Y-121457880D01*
X200219047Y-121457880D02*
X200314285Y-121505500D01*
X200314285Y-121505500D02*
X200361904Y-121553119D01*
X200361904Y-121553119D02*
X200409523Y-121648357D01*
X200409523Y-121648357D02*
X200409523Y-121743595D01*
X200409523Y-121743595D02*
X200361904Y-121886452D01*
X200361904Y-121886452D02*
X199790476Y-122457880D01*
X199790476Y-122457880D02*
X200409523Y-122457880D01*
X201314285Y-121457880D02*
X200838095Y-121457880D01*
X200838095Y-121457880D02*
X200790476Y-121934071D01*
X200790476Y-121934071D02*
X200838095Y-121886452D01*
X200838095Y-121886452D02*
X200933333Y-121838833D01*
X200933333Y-121838833D02*
X201171428Y-121838833D01*
X201171428Y-121838833D02*
X201266666Y-121886452D01*
X201266666Y-121886452D02*
X201314285Y-121934071D01*
X201314285Y-121934071D02*
X201361904Y-122029309D01*
X201361904Y-122029309D02*
X201361904Y-122267404D01*
X201361904Y-122267404D02*
X201314285Y-122362642D01*
X201314285Y-122362642D02*
X201266666Y-122410261D01*
X201266666Y-122410261D02*
X201171428Y-122457880D01*
X201171428Y-122457880D02*
X200933333Y-122457880D01*
X200933333Y-122457880D02*
X200838095Y-122410261D01*
X200838095Y-122410261D02*
X200790476Y-122362642D01*
%TO.C,U3*%
X222305380Y-48227904D02*
X223114904Y-48227904D01*
X223114904Y-48227904D02*
X223210142Y-48180285D01*
X223210142Y-48180285D02*
X223257761Y-48132666D01*
X223257761Y-48132666D02*
X223305380Y-48037428D01*
X223305380Y-48037428D02*
X223305380Y-47846952D01*
X223305380Y-47846952D02*
X223257761Y-47751714D01*
X223257761Y-47751714D02*
X223210142Y-47704095D01*
X223210142Y-47704095D02*
X223114904Y-47656476D01*
X223114904Y-47656476D02*
X222305380Y-47656476D01*
X222305380Y-47275523D02*
X222305380Y-46656476D01*
X222305380Y-46656476D02*
X222686333Y-46989809D01*
X222686333Y-46989809D02*
X222686333Y-46846952D01*
X222686333Y-46846952D02*
X222733952Y-46751714D01*
X222733952Y-46751714D02*
X222781571Y-46704095D01*
X222781571Y-46704095D02*
X222876809Y-46656476D01*
X222876809Y-46656476D02*
X223114904Y-46656476D01*
X223114904Y-46656476D02*
X223210142Y-46704095D01*
X223210142Y-46704095D02*
X223257761Y-46751714D01*
X223257761Y-46751714D02*
X223305380Y-46846952D01*
X223305380Y-46846952D02*
X223305380Y-47132666D01*
X223305380Y-47132666D02*
X223257761Y-47227904D01*
X223257761Y-47227904D02*
X223210142Y-47275523D01*
%TO.C,U4*%
X183708380Y-48017904D02*
X184517904Y-48017904D01*
X184517904Y-48017904D02*
X184613142Y-47970285D01*
X184613142Y-47970285D02*
X184660761Y-47922666D01*
X184660761Y-47922666D02*
X184708380Y-47827428D01*
X184708380Y-47827428D02*
X184708380Y-47636952D01*
X184708380Y-47636952D02*
X184660761Y-47541714D01*
X184660761Y-47541714D02*
X184613142Y-47494095D01*
X184613142Y-47494095D02*
X184517904Y-47446476D01*
X184517904Y-47446476D02*
X183708380Y-47446476D01*
X184041714Y-46541714D02*
X184708380Y-46541714D01*
X183660761Y-46779809D02*
X184375047Y-47017904D01*
X184375047Y-47017904D02*
X184375047Y-46398857D01*
%TO.C,U6*%
X177855380Y-86835904D02*
X178664904Y-86835904D01*
X178664904Y-86835904D02*
X178760142Y-86788285D01*
X178760142Y-86788285D02*
X178807761Y-86740666D01*
X178807761Y-86740666D02*
X178855380Y-86645428D01*
X178855380Y-86645428D02*
X178855380Y-86454952D01*
X178855380Y-86454952D02*
X178807761Y-86359714D01*
X178807761Y-86359714D02*
X178760142Y-86312095D01*
X178760142Y-86312095D02*
X178664904Y-86264476D01*
X178664904Y-86264476D02*
X177855380Y-86264476D01*
X177855380Y-85359714D02*
X177855380Y-85550190D01*
X177855380Y-85550190D02*
X177903000Y-85645428D01*
X177903000Y-85645428D02*
X177950619Y-85693047D01*
X177950619Y-85693047D02*
X178093476Y-85788285D01*
X178093476Y-85788285D02*
X178283952Y-85835904D01*
X178283952Y-85835904D02*
X178664904Y-85835904D01*
X178664904Y-85835904D02*
X178760142Y-85788285D01*
X178760142Y-85788285D02*
X178807761Y-85740666D01*
X178807761Y-85740666D02*
X178855380Y-85645428D01*
X178855380Y-85645428D02*
X178855380Y-85454952D01*
X178855380Y-85454952D02*
X178807761Y-85359714D01*
X178807761Y-85359714D02*
X178760142Y-85312095D01*
X178760142Y-85312095D02*
X178664904Y-85264476D01*
X178664904Y-85264476D02*
X178426809Y-85264476D01*
X178426809Y-85264476D02*
X178331571Y-85312095D01*
X178331571Y-85312095D02*
X178283952Y-85359714D01*
X178283952Y-85359714D02*
X178236333Y-85454952D01*
X178236333Y-85454952D02*
X178236333Y-85645428D01*
X178236333Y-85645428D02*
X178283952Y-85740666D01*
X178283952Y-85740666D02*
X178331571Y-85788285D01*
X178331571Y-85788285D02*
X178426809Y-85835904D01*
%TO.C,U7*%
X178943095Y-106555380D02*
X178943095Y-107364904D01*
X178943095Y-107364904D02*
X178990714Y-107460142D01*
X178990714Y-107460142D02*
X179038333Y-107507761D01*
X179038333Y-107507761D02*
X179133571Y-107555380D01*
X179133571Y-107555380D02*
X179324047Y-107555380D01*
X179324047Y-107555380D02*
X179419285Y-107507761D01*
X179419285Y-107507761D02*
X179466904Y-107460142D01*
X179466904Y-107460142D02*
X179514523Y-107364904D01*
X179514523Y-107364904D02*
X179514523Y-106555380D01*
X179895476Y-106555380D02*
X180562142Y-106555380D01*
X180562142Y-106555380D02*
X180133571Y-107555380D01*
%TO.C,U8*%
X189357095Y-100653380D02*
X189357095Y-101462904D01*
X189357095Y-101462904D02*
X189404714Y-101558142D01*
X189404714Y-101558142D02*
X189452333Y-101605761D01*
X189452333Y-101605761D02*
X189547571Y-101653380D01*
X189547571Y-101653380D02*
X189738047Y-101653380D01*
X189738047Y-101653380D02*
X189833285Y-101605761D01*
X189833285Y-101605761D02*
X189880904Y-101558142D01*
X189880904Y-101558142D02*
X189928523Y-101462904D01*
X189928523Y-101462904D02*
X189928523Y-100653380D01*
X190547571Y-101081952D02*
X190452333Y-101034333D01*
X190452333Y-101034333D02*
X190404714Y-100986714D01*
X190404714Y-100986714D02*
X190357095Y-100891476D01*
X190357095Y-100891476D02*
X190357095Y-100843857D01*
X190357095Y-100843857D02*
X190404714Y-100748619D01*
X190404714Y-100748619D02*
X190452333Y-100701000D01*
X190452333Y-100701000D02*
X190547571Y-100653380D01*
X190547571Y-100653380D02*
X190738047Y-100653380D01*
X190738047Y-100653380D02*
X190833285Y-100701000D01*
X190833285Y-100701000D02*
X190880904Y-100748619D01*
X190880904Y-100748619D02*
X190928523Y-100843857D01*
X190928523Y-100843857D02*
X190928523Y-100891476D01*
X190928523Y-100891476D02*
X190880904Y-100986714D01*
X190880904Y-100986714D02*
X190833285Y-101034333D01*
X190833285Y-101034333D02*
X190738047Y-101081952D01*
X190738047Y-101081952D02*
X190547571Y-101081952D01*
X190547571Y-101081952D02*
X190452333Y-101129571D01*
X190452333Y-101129571D02*
X190404714Y-101177190D01*
X190404714Y-101177190D02*
X190357095Y-101272428D01*
X190357095Y-101272428D02*
X190357095Y-101462904D01*
X190357095Y-101462904D02*
X190404714Y-101558142D01*
X190404714Y-101558142D02*
X190452333Y-101605761D01*
X190452333Y-101605761D02*
X190547571Y-101653380D01*
X190547571Y-101653380D02*
X190738047Y-101653380D01*
X190738047Y-101653380D02*
X190833285Y-101605761D01*
X190833285Y-101605761D02*
X190880904Y-101558142D01*
X190880904Y-101558142D02*
X190928523Y-101462904D01*
X190928523Y-101462904D02*
X190928523Y-101272428D01*
X190928523Y-101272428D02*
X190880904Y-101177190D01*
X190880904Y-101177190D02*
X190833285Y-101129571D01*
X190833285Y-101129571D02*
X190738047Y-101081952D01*
%TO.C,H1*%
X166116095Y-35683380D02*
X166116095Y-34683380D01*
X166116095Y-35159571D02*
X166687523Y-35159571D01*
X166687523Y-35683380D02*
X166687523Y-34683380D01*
X167687523Y-35683380D02*
X167116095Y-35683380D01*
X167401809Y-35683380D02*
X167401809Y-34683380D01*
X167401809Y-34683380D02*
X167306571Y-34826238D01*
X167306571Y-34826238D02*
X167211333Y-34921476D01*
X167211333Y-34921476D02*
X167116095Y-34969095D01*
%TO.C,J3*%
X225472666Y-113002880D02*
X225472666Y-113717166D01*
X225472666Y-113717166D02*
X225425047Y-113860023D01*
X225425047Y-113860023D02*
X225329809Y-113955261D01*
X225329809Y-113955261D02*
X225186952Y-114002880D01*
X225186952Y-114002880D02*
X225091714Y-114002880D01*
X225853619Y-113002880D02*
X226472666Y-113002880D01*
X226472666Y-113002880D02*
X226139333Y-113383833D01*
X226139333Y-113383833D02*
X226282190Y-113383833D01*
X226282190Y-113383833D02*
X226377428Y-113431452D01*
X226377428Y-113431452D02*
X226425047Y-113479071D01*
X226425047Y-113479071D02*
X226472666Y-113574309D01*
X226472666Y-113574309D02*
X226472666Y-113812404D01*
X226472666Y-113812404D02*
X226425047Y-113907642D01*
X226425047Y-113907642D02*
X226377428Y-113955261D01*
X226377428Y-113955261D02*
X226282190Y-114002880D01*
X226282190Y-114002880D02*
X225996476Y-114002880D01*
X225996476Y-114002880D02*
X225901238Y-113955261D01*
X225901238Y-113955261D02*
X225853619Y-113907642D01*
%TO.C,H3*%
X246888095Y-121235880D02*
X246888095Y-120235880D01*
X246888095Y-120712071D02*
X247459523Y-120712071D01*
X247459523Y-121235880D02*
X247459523Y-120235880D01*
X247840476Y-120235880D02*
X248459523Y-120235880D01*
X248459523Y-120235880D02*
X248126190Y-120616833D01*
X248126190Y-120616833D02*
X248269047Y-120616833D01*
X248269047Y-120616833D02*
X248364285Y-120664452D01*
X248364285Y-120664452D02*
X248411904Y-120712071D01*
X248411904Y-120712071D02*
X248459523Y-120807309D01*
X248459523Y-120807309D02*
X248459523Y-121045404D01*
X248459523Y-121045404D02*
X248411904Y-121140642D01*
X248411904Y-121140642D02*
X248364285Y-121188261D01*
X248364285Y-121188261D02*
X248269047Y-121235880D01*
X248269047Y-121235880D02*
X247983333Y-121235880D01*
X247983333Y-121235880D02*
X247888095Y-121188261D01*
X247888095Y-121188261D02*
X247840476Y-121140642D01*
%TO.C,U2*%
X213995095Y-101415380D02*
X213995095Y-102224904D01*
X213995095Y-102224904D02*
X214042714Y-102320142D01*
X214042714Y-102320142D02*
X214090333Y-102367761D01*
X214090333Y-102367761D02*
X214185571Y-102415380D01*
X214185571Y-102415380D02*
X214376047Y-102415380D01*
X214376047Y-102415380D02*
X214471285Y-102367761D01*
X214471285Y-102367761D02*
X214518904Y-102320142D01*
X214518904Y-102320142D02*
X214566523Y-102224904D01*
X214566523Y-102224904D02*
X214566523Y-101415380D01*
X214995095Y-101510619D02*
X215042714Y-101463000D01*
X215042714Y-101463000D02*
X215137952Y-101415380D01*
X215137952Y-101415380D02*
X215376047Y-101415380D01*
X215376047Y-101415380D02*
X215471285Y-101463000D01*
X215471285Y-101463000D02*
X215518904Y-101510619D01*
X215518904Y-101510619D02*
X215566523Y-101605857D01*
X215566523Y-101605857D02*
X215566523Y-101701095D01*
X215566523Y-101701095D02*
X215518904Y-101843952D01*
X215518904Y-101843952D02*
X214947476Y-102415380D01*
X214947476Y-102415380D02*
X215566523Y-102415380D01*
%TO.C,H4*%
X171504095Y-126095380D02*
X171504095Y-125095380D01*
X171504095Y-125571571D02*
X172075523Y-125571571D01*
X172075523Y-126095380D02*
X172075523Y-125095380D01*
X172980285Y-125428714D02*
X172980285Y-126095380D01*
X172742190Y-125047761D02*
X172504095Y-125762047D01*
X172504095Y-125762047D02*
X173123142Y-125762047D01*
%TO.C,U9*%
X244475095Y-106809380D02*
X244475095Y-107618904D01*
X244475095Y-107618904D02*
X244522714Y-107714142D01*
X244522714Y-107714142D02*
X244570333Y-107761761D01*
X244570333Y-107761761D02*
X244665571Y-107809380D01*
X244665571Y-107809380D02*
X244856047Y-107809380D01*
X244856047Y-107809380D02*
X244951285Y-107761761D01*
X244951285Y-107761761D02*
X244998904Y-107714142D01*
X244998904Y-107714142D02*
X245046523Y-107618904D01*
X245046523Y-107618904D02*
X245046523Y-106809380D01*
X245570333Y-107809380D02*
X245760809Y-107809380D01*
X245760809Y-107809380D02*
X245856047Y-107761761D01*
X245856047Y-107761761D02*
X245903666Y-107714142D01*
X245903666Y-107714142D02*
X245998904Y-107571285D01*
X245998904Y-107571285D02*
X246046523Y-107380809D01*
X246046523Y-107380809D02*
X246046523Y-106999857D01*
X246046523Y-106999857D02*
X245998904Y-106904619D01*
X245998904Y-106904619D02*
X245951285Y-106857000D01*
X245951285Y-106857000D02*
X245856047Y-106809380D01*
X245856047Y-106809380D02*
X245665571Y-106809380D01*
X245665571Y-106809380D02*
X245570333Y-106857000D01*
X245570333Y-106857000D02*
X245522714Y-106904619D01*
X245522714Y-106904619D02*
X245475095Y-106999857D01*
X245475095Y-106999857D02*
X245475095Y-107237952D01*
X245475095Y-107237952D02*
X245522714Y-107333190D01*
X245522714Y-107333190D02*
X245570333Y-107380809D01*
X245570333Y-107380809D02*
X245665571Y-107428428D01*
X245665571Y-107428428D02*
X245856047Y-107428428D01*
X245856047Y-107428428D02*
X245951285Y-107380809D01*
X245951285Y-107380809D02*
X245998904Y-107333190D01*
X245998904Y-107333190D02*
X246046523Y-107237952D01*
%TO.C,H2*%
X246888095Y-35683380D02*
X246888095Y-34683380D01*
X246888095Y-35159571D02*
X247459523Y-35159571D01*
X247459523Y-35683380D02*
X247459523Y-34683380D01*
X247888095Y-34778619D02*
X247935714Y-34731000D01*
X247935714Y-34731000D02*
X248030952Y-34683380D01*
X248030952Y-34683380D02*
X248269047Y-34683380D01*
X248269047Y-34683380D02*
X248364285Y-34731000D01*
X248364285Y-34731000D02*
X248411904Y-34778619D01*
X248411904Y-34778619D02*
X248459523Y-34873857D01*
X248459523Y-34873857D02*
X248459523Y-34969095D01*
X248459523Y-34969095D02*
X248411904Y-35111952D01*
X248411904Y-35111952D02*
X247840476Y-35683380D01*
X247840476Y-35683380D02*
X248459523Y-35683380D01*
%TO.C,J2*%
X240757380Y-68707333D02*
X241471666Y-68707333D01*
X241471666Y-68707333D02*
X241614523Y-68754952D01*
X241614523Y-68754952D02*
X241709761Y-68850190D01*
X241709761Y-68850190D02*
X241757380Y-68993047D01*
X241757380Y-68993047D02*
X241757380Y-69088285D01*
X240852619Y-68278761D02*
X240805000Y-68231142D01*
X240805000Y-68231142D02*
X240757380Y-68135904D01*
X240757380Y-68135904D02*
X240757380Y-67897809D01*
X240757380Y-67897809D02*
X240805000Y-67802571D01*
X240805000Y-67802571D02*
X240852619Y-67754952D01*
X240852619Y-67754952D02*
X240947857Y-67707333D01*
X240947857Y-67707333D02*
X241043095Y-67707333D01*
X241043095Y-67707333D02*
X241185952Y-67754952D01*
X241185952Y-67754952D02*
X241757380Y-68326380D01*
X241757380Y-68326380D02*
X241757380Y-67707333D01*
%TO.C,J4*%
X206630666Y-86839380D02*
X206630666Y-87553666D01*
X206630666Y-87553666D02*
X206583047Y-87696523D01*
X206583047Y-87696523D02*
X206487809Y-87791761D01*
X206487809Y-87791761D02*
X206344952Y-87839380D01*
X206344952Y-87839380D02*
X206249714Y-87839380D01*
X207535428Y-87172714D02*
X207535428Y-87839380D01*
X207297333Y-86791761D02*
X207059238Y-87506047D01*
X207059238Y-87506047D02*
X207678285Y-87506047D01*
%TO.C,J1*%
X172951380Y-68707333D02*
X173665666Y-68707333D01*
X173665666Y-68707333D02*
X173808523Y-68754952D01*
X173808523Y-68754952D02*
X173903761Y-68850190D01*
X173903761Y-68850190D02*
X173951380Y-68993047D01*
X173951380Y-68993047D02*
X173951380Y-69088285D01*
X173951380Y-67707333D02*
X173951380Y-68278761D01*
X173951380Y-67993047D02*
X172951380Y-67993047D01*
X172951380Y-67993047D02*
X173094238Y-68088285D01*
X173094238Y-68088285D02*
X173189476Y-68183523D01*
X173189476Y-68183523D02*
X173237095Y-68278761D01*
%TO.C,J5*%
X207010666Y-69091380D02*
X207010666Y-69805666D01*
X207010666Y-69805666D02*
X206963047Y-69948523D01*
X206963047Y-69948523D02*
X206867809Y-70043761D01*
X206867809Y-70043761D02*
X206724952Y-70091380D01*
X206724952Y-70091380D02*
X206629714Y-70091380D01*
X207963047Y-69091380D02*
X207486857Y-69091380D01*
X207486857Y-69091380D02*
X207439238Y-69567571D01*
X207439238Y-69567571D02*
X207486857Y-69519952D01*
X207486857Y-69519952D02*
X207582095Y-69472333D01*
X207582095Y-69472333D02*
X207820190Y-69472333D01*
X207820190Y-69472333D02*
X207915428Y-69519952D01*
X207915428Y-69519952D02*
X207963047Y-69567571D01*
X207963047Y-69567571D02*
X208010666Y-69662809D01*
X208010666Y-69662809D02*
X208010666Y-69900904D01*
X208010666Y-69900904D02*
X207963047Y-69996142D01*
X207963047Y-69996142D02*
X207915428Y-70043761D01*
X207915428Y-70043761D02*
X207820190Y-70091380D01*
X207820190Y-70091380D02*
X207582095Y-70091380D01*
X207582095Y-70091380D02*
X207486857Y-70043761D01*
X207486857Y-70043761D02*
X207439238Y-69996142D01*
D11*
%TO.C,R10*%
X188675000Y-118089936D02*
X188675000Y-118544064D01*
X187205000Y-118089936D02*
X187205000Y-118544064D01*
%TO.C,R22*%
X205947064Y-120726500D02*
X205492936Y-120726500D01*
X205947064Y-119256500D02*
X205492936Y-119256500D01*
%TO.C,R4*%
X211842936Y-119256500D02*
X212297064Y-119256500D01*
X211842936Y-120726500D02*
X212297064Y-120726500D01*
%TO.C,R9*%
X211789000Y-116208436D02*
X211789000Y-116662564D01*
X210319000Y-116208436D02*
X210319000Y-116662564D01*
%TO.C,R8*%
X193247000Y-119105936D02*
X193247000Y-119560064D01*
X191777000Y-119105936D02*
X191777000Y-119560064D01*
%TO.C,R21*%
X218360000Y-116122936D02*
X218360000Y-116577064D01*
X216890000Y-116122936D02*
X216890000Y-116577064D01*
%TO.C,R23*%
X213875000Y-116662564D02*
X213875000Y-116208436D01*
X215345000Y-116662564D02*
X215345000Y-116208436D01*
%TO.C,R11*%
X206001000Y-116709564D02*
X206001000Y-116255436D01*
X207471000Y-116709564D02*
X207471000Y-116255436D01*
%TO.C,R20*%
X199904936Y-117224500D02*
X200359064Y-117224500D01*
X199904936Y-118694500D02*
X200359064Y-118694500D01*
%TO.C,R25*%
X200327064Y-120660000D02*
X199872936Y-120660000D01*
X200327064Y-119190000D02*
X199872936Y-119190000D01*
D10*
%TO.C,U3*%
X223863000Y-50341000D02*
X224088000Y-50341000D01*
X223863000Y-50341000D02*
X223863000Y-44591000D01*
X224088000Y-50341000D02*
X224088000Y-51941000D01*
X232513000Y-50341000D02*
X232213000Y-50341000D01*
X232513000Y-50341000D02*
X232513000Y-44591000D01*
X223863000Y-44591000D02*
X224163000Y-44591000D01*
X232513000Y-44591000D02*
X232213000Y-44591000D01*
%TO.C,U5*%
X225895000Y-88949000D02*
X226120000Y-88949000D01*
X225895000Y-88949000D02*
X225895000Y-83199000D01*
X226120000Y-88949000D02*
X226120000Y-90549000D01*
X234545000Y-88949000D02*
X234245000Y-88949000D01*
X234545000Y-88949000D02*
X234545000Y-83199000D01*
X225895000Y-83199000D02*
X226195000Y-83199000D01*
X234545000Y-83199000D02*
X234245000Y-83199000D01*
%TO.C,U4*%
X193916000Y-44381000D02*
X193616000Y-44381000D01*
X185266000Y-44381000D02*
X185566000Y-44381000D01*
X193916000Y-50131000D02*
X193916000Y-44381000D01*
X193916000Y-50131000D02*
X193616000Y-50131000D01*
X185491000Y-50131000D02*
X185491000Y-51731000D01*
X185266000Y-50131000D02*
X185266000Y-44381000D01*
X185266000Y-50131000D02*
X185491000Y-50131000D01*
%TO.C,U6*%
X179413000Y-88949000D02*
X179638000Y-88949000D01*
X179413000Y-88949000D02*
X179413000Y-83199000D01*
X179638000Y-88949000D02*
X179638000Y-90549000D01*
X188063000Y-88949000D02*
X187763000Y-88949000D01*
X188063000Y-88949000D02*
X188063000Y-83199000D01*
X179413000Y-83199000D02*
X179713000Y-83199000D01*
X188063000Y-83199000D02*
X187763000Y-83199000D01*
D11*
%TO.C,J3*%
X221646000Y-116545500D02*
X221646000Y-119045500D01*
X221646000Y-119045500D02*
X224146000Y-119045500D01*
X221946000Y-114725500D02*
X221946000Y-118745500D01*
X221946000Y-116435500D02*
X222446000Y-116435500D01*
X221946000Y-117245500D02*
X222946000Y-117245500D01*
X221946000Y-118745500D02*
X229666000Y-118745500D01*
X222446000Y-115225500D02*
X229166000Y-115225500D01*
X222446000Y-116435500D02*
X222446000Y-115225500D01*
X222946000Y-117245500D02*
X222946000Y-118745500D01*
X228666000Y-117245500D02*
X228666000Y-118745500D01*
X229166000Y-115225500D02*
X229166000Y-116435500D01*
X229166000Y-116435500D02*
X229666000Y-116435500D01*
X229666000Y-114725500D02*
X221946000Y-114725500D01*
X229666000Y-117245500D02*
X228666000Y-117245500D01*
X229666000Y-118745500D02*
X229666000Y-114725500D01*
%TO.C,J2*%
X244300000Y-76284000D02*
X246800000Y-76284000D01*
X246800000Y-76284000D02*
X246800000Y-73784000D01*
X242480000Y-75984000D02*
X246500000Y-75984000D01*
X244190000Y-75984000D02*
X244190000Y-75484000D01*
X245000000Y-75984000D02*
X245000000Y-74984000D01*
X246500000Y-75984000D02*
X246500000Y-60764000D01*
X242980000Y-75484000D02*
X242980000Y-61264000D01*
X244190000Y-75484000D02*
X242980000Y-75484000D01*
X245000000Y-74984000D02*
X246500000Y-74984000D01*
X245000000Y-61764000D02*
X246500000Y-61764000D01*
X242980000Y-61264000D02*
X244190000Y-61264000D01*
X244190000Y-61264000D02*
X244190000Y-60764000D01*
X242480000Y-60764000D02*
X242480000Y-75984000D01*
X245000000Y-60764000D02*
X245000000Y-61764000D01*
X246500000Y-60764000D02*
X242480000Y-60764000D01*
%TO.C,J4*%
X216824000Y-85072000D02*
X216224000Y-84772000D01*
X216824000Y-84472000D02*
X216824000Y-85072000D01*
X216224000Y-84772000D02*
X216824000Y-84472000D01*
X216024000Y-86382000D02*
X216024000Y-81162000D01*
X216024000Y-83672000D02*
X215164000Y-83672000D01*
X216024000Y-82872000D02*
X215164000Y-82872000D01*
X216024000Y-81162000D02*
X197904000Y-81162000D01*
X215164000Y-85872000D02*
X215164000Y-81672000D01*
X215164000Y-81672000D02*
X198764000Y-81672000D01*
X213994000Y-81162000D02*
X213994000Y-81672000D01*
X213434000Y-86382000D02*
X213434000Y-85872000D01*
X212494000Y-86382000D02*
X212494000Y-85872000D01*
X212494000Y-81162000D02*
X212494000Y-81672000D01*
X201434000Y-86382000D02*
X201434000Y-85872000D01*
X201434000Y-81162000D02*
X201434000Y-81672000D01*
X200494000Y-86382000D02*
X200494000Y-85872000D01*
X199934000Y-81162000D02*
X199934000Y-81672000D01*
X198764000Y-85872000D02*
X215164000Y-85872000D01*
X198764000Y-81672000D02*
X198764000Y-85872000D01*
X197904000Y-86382000D02*
X216024000Y-86382000D01*
X197904000Y-83672000D02*
X198764000Y-83672000D01*
X197904000Y-82872000D02*
X198764000Y-82872000D01*
X197904000Y-81162000D02*
X197904000Y-86382000D01*
%TO.C,J1*%
X170674000Y-60464000D02*
X168174000Y-60464000D01*
X168174000Y-60464000D02*
X168174000Y-62964000D01*
X172494000Y-60764000D02*
X168474000Y-60764000D01*
X170784000Y-60764000D02*
X170784000Y-61264000D01*
X169974000Y-60764000D02*
X169974000Y-61764000D01*
X168474000Y-60764000D02*
X168474000Y-75984000D01*
X171994000Y-61264000D02*
X171994000Y-75484000D01*
X170784000Y-61264000D02*
X171994000Y-61264000D01*
X169974000Y-61764000D02*
X168474000Y-61764000D01*
X169974000Y-74984000D02*
X168474000Y-74984000D01*
X171994000Y-75484000D02*
X170784000Y-75484000D01*
X170784000Y-75484000D02*
X170784000Y-75984000D01*
X172494000Y-75984000D02*
X172494000Y-60764000D01*
X169974000Y-75984000D02*
X169974000Y-74984000D01*
X168474000Y-75984000D02*
X172494000Y-75984000D01*
%TO.C,J5*%
X194284000Y-63414000D02*
X194284000Y-68634000D01*
X194284000Y-65124000D02*
X195144000Y-65124000D01*
X194284000Y-65924000D02*
X195144000Y-65924000D01*
X194284000Y-68634000D02*
X220404000Y-68634000D01*
X195144000Y-63924000D02*
X195144000Y-68124000D01*
X195144000Y-68124000D02*
X219544000Y-68124000D01*
X196314000Y-63414000D02*
X196314000Y-63924000D01*
X196874000Y-68634000D02*
X196874000Y-68124000D01*
X197814000Y-63414000D02*
X197814000Y-63924000D01*
X197814000Y-68634000D02*
X197814000Y-68124000D01*
X216874000Y-63414000D02*
X216874000Y-63924000D01*
X216874000Y-68634000D02*
X216874000Y-68124000D01*
X217814000Y-68634000D02*
X217814000Y-68124000D01*
X218374000Y-63414000D02*
X218374000Y-63924000D01*
X219544000Y-63924000D02*
X195144000Y-63924000D01*
X219544000Y-68124000D02*
X219544000Y-63924000D01*
X220404000Y-63414000D02*
X194284000Y-63414000D01*
X220404000Y-65124000D02*
X219544000Y-65124000D01*
X220404000Y-65924000D02*
X219544000Y-65924000D01*
X220404000Y-68634000D02*
X220404000Y-63414000D01*
X220604000Y-67024000D02*
X221204000Y-66724000D01*
X221204000Y-66724000D02*
X221204000Y-67324000D01*
X221204000Y-67324000D02*
X220604000Y-67024000D01*
%TD*%
M02*
