%TF.GenerationSoftware,KiCad,Pcbnew,(7.0.0)*%
%TF.CreationDate,2024-02-29T14:00:03-03:00*%
%TF.ProjectId,pcb_peau_v1,7063625f-7065-4617-955f-76312e6b6963,rev?*%
%TF.SameCoordinates,Original*%
%TF.FileFunction,Soldermask,Top*%
%TF.FilePolarity,Negative*%
%FSLAX46Y46*%
G04 Gerber Fmt 4.6, Leading zero omitted, Abs format (unit mm)*
G04 Created by KiCad (PCBNEW (7.0.0)) date 2024-02-29 14:00:03*
%MOMM*%
%LPD*%
G01*
G04 APERTURE LIST*
G04 Aperture macros list*
%AMRoundRect*
0 Rectangle with rounded corners*
0 $1 Rounding radius*
0 $2 $3 $4 $5 $6 $7 $8 $9 X,Y pos of 4 corners*
0 Add a 4 corners polygon primitive as box body*
4,1,4,$2,$3,$4,$5,$6,$7,$8,$9,$2,$3,0*
0 Add four circle primitives for the rounded corners*
1,1,$1+$1,$2,$3*
1,1,$1+$1,$4,$5*
1,1,$1+$1,$6,$7*
1,1,$1+$1,$8,$9*
0 Add four rect primitives between the rounded corners*
20,1,$1+$1,$2,$3,$4,$5,0*
20,1,$1+$1,$4,$5,$6,$7,0*
20,1,$1+$1,$6,$7,$8,$9,0*
20,1,$1+$1,$8,$9,$2,$3,0*%
G04 Aperture macros list end*
%ADD10RoundRect,0.250000X-0.600000X-0.750000X0.600000X-0.750000X0.600000X0.750000X-0.600000X0.750000X0*%
%ADD11O,1.700000X2.000000*%
%ADD12R,0.450000X1.750000*%
%ADD13RoundRect,0.237500X-0.237500X0.250000X-0.237500X-0.250000X0.237500X-0.250000X0.237500X0.250000X0*%
%ADD14RoundRect,0.102000X0.300000X1.100000X-0.300000X1.100000X-0.300000X-1.100000X0.300000X-1.100000X0*%
%ADD15RoundRect,0.102000X-0.300000X-1.100000X0.300000X-1.100000X0.300000X1.100000X-0.300000X1.100000X0*%
%ADD16C,5.600000*%
%ADD17RoundRect,0.237500X0.250000X0.237500X-0.250000X0.237500X-0.250000X-0.237500X0.250000X-0.237500X0*%
%ADD18RoundRect,0.237500X-0.250000X-0.237500X0.250000X-0.237500X0.250000X0.237500X-0.250000X0.237500X0*%
%ADD19RoundRect,0.250000X0.725000X-0.600000X0.725000X0.600000X-0.725000X0.600000X-0.725000X-0.600000X0*%
%ADD20O,1.950000X1.700000*%
%ADD21RoundRect,0.250000X0.350000X0.350000X-0.350000X0.350000X-0.350000X-0.350000X0.350000X-0.350000X0*%
%ADD22C,1.200000*%
%ADD23RoundRect,0.250000X-0.725000X0.600000X-0.725000X-0.600000X0.725000X-0.600000X0.725000X0.600000X0*%
%ADD24RoundRect,0.237500X0.237500X-0.250000X0.237500X0.250000X-0.237500X0.250000X-0.237500X-0.250000X0*%
G04 APERTURE END LIST*
D10*
%TO.C,J3*%
X225084000Y-110236000D03*
D11*
X227583999Y-110235999D03*
%TD*%
D12*
%TO.C,U5*%
X222719999Y-87121999D03*
X223369999Y-87121999D03*
X224019999Y-87121999D03*
X224669999Y-87121999D03*
X225319999Y-87121999D03*
X225969999Y-87121999D03*
X226619999Y-87121999D03*
X227269999Y-87121999D03*
X227919999Y-87121999D03*
X228569999Y-87121999D03*
X229219999Y-87121999D03*
X229869999Y-87121999D03*
X229869999Y-79921999D03*
X229219999Y-79921999D03*
X228569999Y-79921999D03*
X227919999Y-79921999D03*
X227269999Y-79921999D03*
X226619999Y-79921999D03*
X225969999Y-79921999D03*
X225319999Y-79921999D03*
X224669999Y-79921999D03*
X224019999Y-79921999D03*
X223369999Y-79921999D03*
X222719999Y-79921999D03*
%TD*%
%TO.C,U6*%
X184384999Y-88435999D03*
X185034999Y-88435999D03*
X185684999Y-88435999D03*
X186334999Y-88435999D03*
X186984999Y-88435999D03*
X187634999Y-88435999D03*
X188284999Y-88435999D03*
X188934999Y-88435999D03*
X189584999Y-88435999D03*
X190234999Y-88435999D03*
X190884999Y-88435999D03*
X191534999Y-88435999D03*
X191534999Y-81235999D03*
X190884999Y-81235999D03*
X190234999Y-81235999D03*
X189584999Y-81235999D03*
X188934999Y-81235999D03*
X188284999Y-81235999D03*
X187634999Y-81235999D03*
X186984999Y-81235999D03*
X186334999Y-81235999D03*
X185684999Y-81235999D03*
X185034999Y-81235999D03*
X184384999Y-81235999D03*
%TD*%
D13*
%TO.C,R10*%
X188468000Y-113030000D03*
X188468000Y-111205000D03*
%TD*%
D12*
%TO.C,U3*%
X222099999Y-55879999D03*
X222749999Y-55879999D03*
X223399999Y-55879999D03*
X224049999Y-55879999D03*
X224699999Y-55879999D03*
X225349999Y-55879999D03*
X225999999Y-55879999D03*
X226649999Y-55879999D03*
X227299999Y-55879999D03*
X227949999Y-55879999D03*
X228599999Y-55879999D03*
X229249999Y-55879999D03*
X229249999Y-63079999D03*
X228599999Y-63079999D03*
X227949999Y-63079999D03*
X227299999Y-63079999D03*
X226649999Y-63079999D03*
X225999999Y-63079999D03*
X225349999Y-63079999D03*
X224699999Y-63079999D03*
X224049999Y-63079999D03*
X223399999Y-63079999D03*
X222749999Y-63079999D03*
X222099999Y-63079999D03*
%TD*%
D14*
%TO.C,U7*%
X188468000Y-98746000D03*
X187198000Y-98746000D03*
X185928000Y-98746000D03*
X184658000Y-98746000D03*
X183388000Y-98746000D03*
X182118000Y-98746000D03*
X180848000Y-98746000D03*
X180848000Y-103946000D03*
X182118000Y-103946000D03*
X183388000Y-103946000D03*
X184658000Y-103946000D03*
X185928000Y-103946000D03*
X187198000Y-103946000D03*
X188468000Y-103946000D03*
%TD*%
D15*
%TO.C,U8*%
X197104000Y-103692000D03*
X198374000Y-103692000D03*
X199644000Y-103692000D03*
X200914000Y-103692000D03*
X202184000Y-103692000D03*
X203454000Y-103692000D03*
X204724000Y-103692000D03*
X204724000Y-98492000D03*
X203454000Y-98492000D03*
X202184000Y-98492000D03*
X200914000Y-98492000D03*
X199644000Y-98492000D03*
X198374000Y-98492000D03*
X197104000Y-98492000D03*
%TD*%
D16*
%TO.C,H1*%
X178000000Y-53000000D03*
%TD*%
%TO.C,H3*%
X236000000Y-111000000D03*
%TD*%
D17*
%TO.C,R22*%
X207160500Y-113792000D03*
X205335500Y-113792000D03*
%TD*%
D15*
%TO.C,U2*%
X213106000Y-103886000D03*
X214376000Y-103886000D03*
X215646000Y-103886000D03*
X216916000Y-103886000D03*
X218186000Y-103886000D03*
X219456000Y-103886000D03*
X220726000Y-103886000D03*
X220726000Y-98686000D03*
X219456000Y-98686000D03*
X218186000Y-98686000D03*
X216916000Y-98686000D03*
X215646000Y-98686000D03*
X214376000Y-98686000D03*
X213106000Y-98686000D03*
%TD*%
D16*
%TO.C,H4*%
X178000000Y-111000000D03*
%TD*%
D18*
%TO.C,R4*%
X211685500Y-113792000D03*
X213510500Y-113792000D03*
%TD*%
D14*
%TO.C,U9*%
X236474000Y-98746000D03*
X235204000Y-98746000D03*
X233934000Y-98746000D03*
X232664000Y-98746000D03*
X231394000Y-98746000D03*
X230124000Y-98746000D03*
X228854000Y-98746000D03*
X228854000Y-103946000D03*
X230124000Y-103946000D03*
X231394000Y-103946000D03*
X232664000Y-103946000D03*
X233934000Y-103946000D03*
X235204000Y-103946000D03*
X236474000Y-103946000D03*
%TD*%
D16*
%TO.C,H2*%
X236000000Y-53000000D03*
%TD*%
D13*
%TO.C,R9*%
X211582000Y-109323500D03*
X211582000Y-111148500D03*
%TD*%
%TO.C,R8*%
X193040000Y-112221000D03*
X193040000Y-114046000D03*
%TD*%
%TO.C,R21*%
X217932000Y-109220000D03*
X217932000Y-111045000D03*
%TD*%
D19*
%TO.C,J2*%
X237000000Y-81962500D03*
D20*
X236999999Y-79462499D03*
X236999999Y-76962499D03*
X236999999Y-74462499D03*
X236999999Y-71962499D03*
%TD*%
D21*
%TO.C,J4*%
X214090000Y-86106000D03*
D22*
X214090000Y-84106000D03*
X212090000Y-86106000D03*
X212090000Y-84106000D03*
X210090000Y-86106000D03*
X210090000Y-84106000D03*
X208090000Y-86106000D03*
X208090000Y-84106000D03*
X206090000Y-86106000D03*
X206090000Y-84106000D03*
X204090000Y-86106000D03*
X204090000Y-84106000D03*
X202090000Y-86106000D03*
X202090000Y-84106000D03*
X200090000Y-86106000D03*
X200090000Y-84106000D03*
%TD*%
D23*
%TO.C,J1*%
X178000000Y-71962500D03*
D20*
X177999999Y-74462499D03*
X177999999Y-76962499D03*
X177999999Y-79462499D03*
X177999999Y-81962499D03*
%TD*%
D24*
%TO.C,R23*%
X215138000Y-111148500D03*
X215138000Y-109323500D03*
%TD*%
D12*
%TO.C,U4*%
X186924999Y-56089999D03*
X187574999Y-56089999D03*
X188224999Y-56089999D03*
X188874999Y-56089999D03*
X189524999Y-56089999D03*
X190174999Y-56089999D03*
X190824999Y-56089999D03*
X191474999Y-56089999D03*
X192124999Y-56089999D03*
X192774999Y-56089999D03*
X193424999Y-56089999D03*
X194074999Y-56089999D03*
X194074999Y-63289999D03*
X193424999Y-63289999D03*
X192774999Y-63289999D03*
X192124999Y-63289999D03*
X191474999Y-63289999D03*
X190824999Y-63289999D03*
X190174999Y-63289999D03*
X189524999Y-63289999D03*
X188874999Y-63289999D03*
X188224999Y-63289999D03*
X187574999Y-63289999D03*
X186924999Y-63289999D03*
%TD*%
D24*
%TO.C,R11*%
X207264000Y-111195500D03*
X207264000Y-109370500D03*
%TD*%
D22*
%TO.C,J5*%
X196724000Y-71660000D03*
X196724000Y-73660000D03*
X198724000Y-71660000D03*
X198724000Y-73660000D03*
X200724000Y-71660000D03*
X200724000Y-73660000D03*
X202724000Y-71660000D03*
X202724000Y-73660000D03*
X204724000Y-71660000D03*
X204724000Y-73660000D03*
X206724000Y-71660000D03*
X206724000Y-73660000D03*
X208724000Y-71660000D03*
X208724000Y-73660000D03*
X210724000Y-71660000D03*
X210724000Y-73660000D03*
X212724000Y-71660000D03*
X212724000Y-73660000D03*
X214724000Y-71660000D03*
X214724000Y-73660000D03*
X216724000Y-71660000D03*
X216724000Y-73660000D03*
X218724000Y-71660000D03*
D21*
X218724000Y-73660000D03*
%TD*%
D18*
%TO.C,R20*%
X199747500Y-111760000D03*
X201572500Y-111760000D03*
%TD*%
D17*
%TO.C,R25*%
X201485000Y-113222500D03*
X199660000Y-113222500D03*
%TD*%
M02*
