%TF.GenerationSoftware,KiCad,Pcbnew,(7.0.0)*%
%TF.CreationDate,2024-02-29T14:00:02-03:00*%
%TF.ProjectId,pcb_peau_v1,7063625f-7065-4617-955f-76312e6b6963,rev?*%
%TF.SameCoordinates,Original*%
%TF.FileFunction,Paste,Top*%
%TF.FilePolarity,Positive*%
%FSLAX46Y46*%
G04 Gerber Fmt 4.6, Leading zero omitted, Abs format (unit mm)*
G04 Created by KiCad (PCBNEW (7.0.0)) date 2024-02-29 14:00:02*
%MOMM*%
%LPD*%
G01*
G04 APERTURE LIST*
G04 Aperture macros list*
%AMRoundRect*
0 Rectangle with rounded corners*
0 $1 Rounding radius*
0 $2 $3 $4 $5 $6 $7 $8 $9 X,Y pos of 4 corners*
0 Add a 4 corners polygon primitive as box body*
4,1,4,$2,$3,$4,$5,$6,$7,$8,$9,$2,$3,0*
0 Add four circle primitives for the rounded corners*
1,1,$1+$1,$2,$3*
1,1,$1+$1,$4,$5*
1,1,$1+$1,$6,$7*
1,1,$1+$1,$8,$9*
0 Add four rect primitives between the rounded corners*
20,1,$1+$1,$2,$3,$4,$5,0*
20,1,$1+$1,$4,$5,$6,$7,0*
20,1,$1+$1,$6,$7,$8,$9,0*
20,1,$1+$1,$8,$9,$2,$3,0*%
G04 Aperture macros list end*
%ADD10R,0.450000X1.750000*%
%ADD11RoundRect,0.237500X-0.237500X0.250000X-0.237500X-0.250000X0.237500X-0.250000X0.237500X0.250000X0*%
%ADD12R,0.600000X2.200000*%
%ADD13RoundRect,0.237500X0.250000X0.237500X-0.250000X0.237500X-0.250000X-0.237500X0.250000X-0.237500X0*%
%ADD14RoundRect,0.237500X-0.250000X-0.237500X0.250000X-0.237500X0.250000X0.237500X-0.250000X0.237500X0*%
%ADD15RoundRect,0.237500X0.237500X-0.250000X0.237500X0.250000X-0.237500X0.250000X-0.237500X-0.250000X0*%
G04 APERTURE END LIST*
D10*
%TO.C,U5*%
X222719999Y-87121999D03*
X223369999Y-87121999D03*
X224019999Y-87121999D03*
X224669999Y-87121999D03*
X225319999Y-87121999D03*
X225969999Y-87121999D03*
X226619999Y-87121999D03*
X227269999Y-87121999D03*
X227919999Y-87121999D03*
X228569999Y-87121999D03*
X229219999Y-87121999D03*
X229869999Y-87121999D03*
X229869999Y-79921999D03*
X229219999Y-79921999D03*
X228569999Y-79921999D03*
X227919999Y-79921999D03*
X227269999Y-79921999D03*
X226619999Y-79921999D03*
X225969999Y-79921999D03*
X225319999Y-79921999D03*
X224669999Y-79921999D03*
X224019999Y-79921999D03*
X223369999Y-79921999D03*
X222719999Y-79921999D03*
%TD*%
%TO.C,U6*%
X184384999Y-88435999D03*
X185034999Y-88435999D03*
X185684999Y-88435999D03*
X186334999Y-88435999D03*
X186984999Y-88435999D03*
X187634999Y-88435999D03*
X188284999Y-88435999D03*
X188934999Y-88435999D03*
X189584999Y-88435999D03*
X190234999Y-88435999D03*
X190884999Y-88435999D03*
X191534999Y-88435999D03*
X191534999Y-81235999D03*
X190884999Y-81235999D03*
X190234999Y-81235999D03*
X189584999Y-81235999D03*
X188934999Y-81235999D03*
X188284999Y-81235999D03*
X187634999Y-81235999D03*
X186984999Y-81235999D03*
X186334999Y-81235999D03*
X185684999Y-81235999D03*
X185034999Y-81235999D03*
X184384999Y-81235999D03*
%TD*%
D11*
%TO.C,R10*%
X188468000Y-113030000D03*
X188468000Y-111205000D03*
%TD*%
D10*
%TO.C,U3*%
X222099999Y-55879999D03*
X222749999Y-55879999D03*
X223399999Y-55879999D03*
X224049999Y-55879999D03*
X224699999Y-55879999D03*
X225349999Y-55879999D03*
X225999999Y-55879999D03*
X226649999Y-55879999D03*
X227299999Y-55879999D03*
X227949999Y-55879999D03*
X228599999Y-55879999D03*
X229249999Y-55879999D03*
X229249999Y-63079999D03*
X228599999Y-63079999D03*
X227949999Y-63079999D03*
X227299999Y-63079999D03*
X226649999Y-63079999D03*
X225999999Y-63079999D03*
X225349999Y-63079999D03*
X224699999Y-63079999D03*
X224049999Y-63079999D03*
X223399999Y-63079999D03*
X222749999Y-63079999D03*
X222099999Y-63079999D03*
%TD*%
D12*
%TO.C,U7*%
X188467999Y-98745999D03*
X187197999Y-98745999D03*
X185927999Y-98745999D03*
X184657999Y-98745999D03*
X183387999Y-98745999D03*
X182117999Y-98745999D03*
X180847999Y-98745999D03*
X180847999Y-103945999D03*
X182117999Y-103945999D03*
X183387999Y-103945999D03*
X184657999Y-103945999D03*
X185927999Y-103945999D03*
X187197999Y-103945999D03*
X188467999Y-103945999D03*
%TD*%
%TO.C,U8*%
X197103999Y-103691999D03*
X198373999Y-103691999D03*
X199643999Y-103691999D03*
X200913999Y-103691999D03*
X202183999Y-103691999D03*
X203453999Y-103691999D03*
X204723999Y-103691999D03*
X204723999Y-98491999D03*
X203453999Y-98491999D03*
X202183999Y-98491999D03*
X200913999Y-98491999D03*
X199643999Y-98491999D03*
X198373999Y-98491999D03*
X197103999Y-98491999D03*
%TD*%
D13*
%TO.C,R22*%
X207160500Y-113792000D03*
X205335500Y-113792000D03*
%TD*%
D12*
%TO.C,U2*%
X213105999Y-103885999D03*
X214375999Y-103885999D03*
X215645999Y-103885999D03*
X216915999Y-103885999D03*
X218185999Y-103885999D03*
X219455999Y-103885999D03*
X220725999Y-103885999D03*
X220725999Y-98685999D03*
X219455999Y-98685999D03*
X218185999Y-98685999D03*
X216915999Y-98685999D03*
X215645999Y-98685999D03*
X214375999Y-98685999D03*
X213105999Y-98685999D03*
%TD*%
D14*
%TO.C,R4*%
X211685500Y-113792000D03*
X213510500Y-113792000D03*
%TD*%
D12*
%TO.C,U9*%
X236473999Y-98745999D03*
X235203999Y-98745999D03*
X233933999Y-98745999D03*
X232663999Y-98745999D03*
X231393999Y-98745999D03*
X230123999Y-98745999D03*
X228853999Y-98745999D03*
X228853999Y-103945999D03*
X230123999Y-103945999D03*
X231393999Y-103945999D03*
X232663999Y-103945999D03*
X233933999Y-103945999D03*
X235203999Y-103945999D03*
X236473999Y-103945999D03*
%TD*%
D11*
%TO.C,R9*%
X211582000Y-109323500D03*
X211582000Y-111148500D03*
%TD*%
%TO.C,R8*%
X193040000Y-112221000D03*
X193040000Y-114046000D03*
%TD*%
%TO.C,R21*%
X217932000Y-109220000D03*
X217932000Y-111045000D03*
%TD*%
D15*
%TO.C,R23*%
X215138000Y-111148500D03*
X215138000Y-109323500D03*
%TD*%
D10*
%TO.C,U4*%
X186924999Y-56089999D03*
X187574999Y-56089999D03*
X188224999Y-56089999D03*
X188874999Y-56089999D03*
X189524999Y-56089999D03*
X190174999Y-56089999D03*
X190824999Y-56089999D03*
X191474999Y-56089999D03*
X192124999Y-56089999D03*
X192774999Y-56089999D03*
X193424999Y-56089999D03*
X194074999Y-56089999D03*
X194074999Y-63289999D03*
X193424999Y-63289999D03*
X192774999Y-63289999D03*
X192124999Y-63289999D03*
X191474999Y-63289999D03*
X190824999Y-63289999D03*
X190174999Y-63289999D03*
X189524999Y-63289999D03*
X188874999Y-63289999D03*
X188224999Y-63289999D03*
X187574999Y-63289999D03*
X186924999Y-63289999D03*
%TD*%
D15*
%TO.C,R11*%
X207264000Y-111195500D03*
X207264000Y-109370500D03*
%TD*%
D14*
%TO.C,R20*%
X199747500Y-111760000D03*
X201572500Y-111760000D03*
%TD*%
D13*
%TO.C,R25*%
X201485000Y-113222500D03*
X199660000Y-113222500D03*
%TD*%
M02*
