M48
; DRILL file {KiCad (7.0.0)} date Thu Feb 29 14:00:10 2024
; FORMAT={-:-/ absolute / inch / decimal}
; #@! TF.CreationDate,2024-02-29T14:00:10-03:00
; #@! TF.GenerationSoftware,Kicad,Pcbnew,(7.0.0)
; #@! TF.FileFunction,Plated,1,2,PTH
FMAT,2
INCH
; #@! TA.AperFunction,Plated,PTH,ViaDrill
T1C0.0157
; #@! TA.AperFunction,Plated,PTH,ComponentDrill
T2C0.0295
; #@! TA.AperFunction,Plated,PTH,ComponentDrill
T3C0.0374
; #@! TA.AperFunction,Plated,PTH,ComponentDrill
T4C0.0394
; #@! TA.AperFunction,Plated,PTH,ComponentDrill
T5C0.1260
%
G90
G05
T1
X7.14Y-3.99
X7.15Y-3.19
X7.17Y-2.99
X7.23Y-4.22
X7.2307Y-3.9635
X7.24Y-2.84
X7.2503Y-2.6509
X7.2525Y-3.334
X7.2693Y-3.4146
X7.2869Y-3.0551
X7.2932Y-2.4946
X7.31Y-3.9703
X7.31Y-4.18
X7.3144Y-3.4169
X7.3342Y-3.2858
X7.3479Y-3.3252
X7.3564Y-3.4271
X7.36Y-3.1288
X7.3629Y-3.2542
X7.3794Y-3.5471
X7.39Y-3.74
X7.4087Y-3.9847
X7.4088Y-3.1198
X7.4175Y-4.2699
X7.4195Y-3.4156
X7.4214Y-2.276
X7.4426Y-3.0081
X7.4444Y-3.6303
X7.4483Y-2.1449
X7.4587Y-3.7829
X7.4735Y-2.0637
X7.4741Y-3.4207
X7.4843Y-2.1222
X7.4881Y-2.8699
X7.4909Y-2.6245
X7.4917Y-3.5366
X7.5128Y-2.4363
X7.5171Y-2.1538
X7.5233Y-2.2638
X7.5264Y-2.5644
X7.5299Y-3.3435
X7.5602Y-2.5461
X7.57Y-4.01
X7.5791Y-2.2629
X7.5898Y-2.8744
X7.6Y-4.36
X7.6121Y-2.0265
X7.6151Y-2.2814
X7.6293Y-3.7853
X7.6293Y-3.2689
X7.63Y-3.48
X7.63Y-3.85
X7.657Y-2.5917
X7.6604Y-3.0651
X7.6606Y-2.2787
X7.69Y-4.21
X7.7157Y-4.0018
X7.7184Y-3.5306
X7.7445Y-3.4711
X7.7722Y-3.6489
X7.7733Y-3.2198
X7.775Y-2.5614
X7.7958Y-3.2547
X7.8196Y-3.3572
X7.83Y-2.41
X7.83Y-2.71
X7.8436Y-3.2546
X7.87Y-4.34
X7.8746Y-2.9809
X7.89Y-2.25
X7.9193Y-4.2007
X7.9339Y-3.7897
X8.02Y-4.44
X8.03Y-4.38
X8.04Y-3.63
X8.09Y-3.55
X8.164Y-3.5645
X8.18Y-2.6
X8.18Y-4.12
X8.1959Y-3.5018
X8.219Y-2.4169
X8.22Y-3.63
X8.27Y-4.38
X8.3Y-3.85
X8.32Y-3.51
X8.3703Y-3.4383
X8.39Y-2.6
X8.46Y-3.64
X8.49Y-2.55
X8.49Y-4.19
X8.5031Y-3.3668
X8.5128Y-4.4013
X8.5173Y-3.4421
X8.5174Y-3.1254
X8.5193Y-3.2438
X8.5335Y-2.124
X8.561Y-3.4442
X8.57Y-2.26
X8.5722Y-3.1347
X8.584Y-2.338
X8.6144Y-3.0666
X8.6204Y-4.3501
X8.6601Y-2.1429
X8.6665Y-3.3155
X8.6667Y-3.2323
X8.6723Y-2.0876
X8.6723Y-2.2333
X8.681Y-2.6762
X8.685Y-3.0237
X8.687Y-3.6203
X8.708Y-2.2356
X8.713Y-3.5681
X8.7186Y-2.3883
X8.7383Y-3.432
X8.7434Y-2.1428
X8.7484Y-2.6196
X8.7522Y-2.8597
X8.7672Y-2.7188
X8.7679Y-2.4242
X8.7686Y-2.8949
X8.77Y-3.57
X8.7725Y-3.2883
X8.7767Y-2.3322
X8.7905Y-2.9569
X8.7906Y-3.3648
X8.7919Y-2.5788
X8.7997Y-2.2628
X8.8024Y-2.9979
X8.808Y-3.2836
X8.8144Y-2.3925
X8.8197Y-3.0575
X8.8261Y-3.3439
X8.8286Y-3.022
X8.8446Y-2.4148
X8.8486Y-2.0887
X8.85Y-4.1
X8.8687Y-3.2682
X8.8809Y-3.3721
X8.8818Y-2.5957
X8.8842Y-2.3579
X8.9071Y-2.0562
X8.908Y-2.6198
X8.933Y-2.7031
X8.933Y-2.8445
X8.9331Y-2.6449
X8.9488Y-2.1441
X8.949Y-3.2638
X8.96Y-2.3
X8.9657Y-2.066
X8.97Y-4.51
X8.9874Y-3.2074
X8.99Y-4.18
X8.9985Y-2.1409
X9.0092Y-3.4997
X9.01Y-2.3
X9.0133Y-3.0794
X9.0366Y-2.1441
X9.0526Y-3.0637
X9.062Y-2.93
X9.1Y-2.4
X9.1466Y-2.46
X9.1514Y-2.2266
X9.16Y-3.16
X9.18Y-3.07
X9.21Y-4.0
X9.2122Y-2.8645
X9.27Y-2.61
X9.28Y-4.01
T2
X7.745Y-2.8213
X7.745Y-2.9
X7.8238Y-2.8213
X7.8238Y-2.9
X7.8776Y-3.3113
X7.8776Y-3.39
X7.9025Y-2.8213
X7.9025Y-2.9
X7.9563Y-3.3113
X7.9563Y-3.39
X7.9813Y-2.8213
X7.9813Y-2.9
X8.035Y-3.3113
X8.035Y-3.39
X8.06Y-2.8213
X8.06Y-2.9
X8.1138Y-3.3113
X8.1138Y-3.39
X8.1387Y-2.8213
X8.1387Y-2.9
X8.1925Y-3.3113
X8.1925Y-3.39
X8.2175Y-2.8213
X8.2175Y-2.9
X8.2713Y-3.3113
X8.2713Y-3.39
X8.2962Y-2.8213
X8.2962Y-2.9
X8.35Y-3.3113
X8.35Y-3.39
X8.375Y-2.8213
X8.375Y-2.9
X8.4287Y-3.3113
X8.4287Y-3.39
X8.4537Y-2.8213
X8.4537Y-2.9
X8.5324Y-2.8213
X8.5324Y-2.9
X8.6112Y-2.8213
X8.6112Y-2.9
T3
X7.0079Y-2.8332
X7.0079Y-2.9316
X7.0079Y-3.03
X7.0079Y-3.1284
X7.0079Y-3.2269
X9.3307Y-2.8332
X9.3307Y-2.9316
X9.3307Y-3.03
X9.3307Y-3.1284
X9.3307Y-3.2269
T4
X8.8616Y-4.34
X8.96Y-4.34
T5
X7.0079Y-2.0866
X7.0079Y-4.3701
X9.2913Y-2.0866
X9.2913Y-4.3701
T0
M30
