M48
; DRILL file {KiCad (7.0.0)} date Thu Mar  7 06:24:05 2024
; FORMAT={-:-/ absolute / inch / decimal}
; #@! TF.CreationDate,2024-03-07T06:24:05-03:00
; #@! TF.GenerationSoftware,Kicad,Pcbnew,(7.0.0)
; #@! TF.FileFunction,Plated,1,2,PTH
FMAT,2
INCH
; #@! TA.AperFunction,Plated,PTH,ViaDrill
T1C0.0157
; #@! TA.AperFunction,Plated,PTH,ComponentDrill
T2C0.0295
; #@! TA.AperFunction,Plated,PTH,ComponentDrill
T3C0.0374
; #@! TA.AperFunction,Plated,PTH,ComponentDrill
T4C0.0394
; #@! TA.AperFunction,Plated,PTH,ComponentDrill
T5C0.1260
%
G90
G05
T1
X7.1111Y-3.4372
X7.13Y-3.59
X7.1447Y-3.35
X7.16Y-2.43
X7.1994Y-3.7982
X7.2093Y-2.59
X7.2093Y-2.92
X7.2485Y-3.0592
X7.2487Y-2.55
X7.2487Y-2.85
X7.2755Y-2.3866
X7.294Y-2.9316
X7.2949Y-2.9763
X7.3012Y-2.3418
X7.3242Y-2.218
X7.33Y-3.63
X7.33Y-3.69
X7.3519Y-3.522
X7.3564Y-2.2773
X7.36Y-3.77
X7.38Y-2.48
X7.3843Y-3.5714
X7.39Y-4.12
X7.4141Y-3.3879
X7.4149Y-2.1613
X7.4225Y-3.321
X7.43Y-4.21
X7.4423Y-3.5345
X7.4589Y-3.3675
X7.4627Y-2.1147
X7.4746Y-3.5668
X7.48Y-3.84
X7.4863Y-2.5923
X7.5001Y-2.4062
X7.5001Y-2.45
X7.5168Y-2.365
X7.519Y-3.721
X7.5236Y-2.2301
X7.5334Y-2.487
X7.5452Y-2.7067
X7.5452Y-2.7523
X7.5528Y-2.6034
X7.5644Y-2.0976
X7.586Y-3.166
X7.5885Y-4.0405
X7.5896Y-3.3743
X7.59Y-3.0
X7.6069Y-2.0966
X7.6255Y-2.5698
X7.632Y-2.1345
X7.64Y-3.47
X7.661Y-2.104
X7.67Y-3.61
X7.67Y-3.7
X7.69Y-4.42
X7.7033Y-2.6211
X7.7134Y-2.0443
X7.72Y-3.21
X7.7356Y-2.383
X7.74Y-2.32
X7.74Y-3.37
X7.7584Y-3.5259
X7.7604Y-2.0218
X7.7615Y-2.064
X7.7823Y-2.6709
X7.7913Y-2.5222
X7.81Y-2.07
X7.82Y-2.6
X7.82Y-3.21
X7.85Y-2.36
X7.86Y-2.24
X7.92Y-2.51
X7.92Y-3.594
X7.94Y-2.2
X7.9597Y-3.7046
X7.96Y-2.6
X7.98Y-1.8784
X7.9887Y-2.2332
X7.9989Y-2.4054
X8.0Y-3.62
X8.0084Y-2.507
X8.01Y-4.5
X8.02Y-2.97
X8.02Y-3.7
X8.023Y-1.881
X8.0468Y-3.6266
X8.05Y-2.02
X8.0603Y-1.8438
X8.0759Y-2.3202
X8.0899Y-3.1632
X8.09Y-2.59
X8.0912Y-2.4277
X8.0965Y-2.2556
X8.1027Y-2.3559
X8.12Y-3.23
X8.13Y-3.55
X8.1317Y-3.6417
X8.14Y-4.14
X8.17Y-2.37
X8.18Y-3.72
X8.19Y-3.1
X8.2Y-2.59
X8.21Y-3.87
X8.215Y-2.4676
X8.22Y-3.54
X8.2294Y-4.631
X8.26Y-3.5774
X8.262Y-2.8832
X8.27Y-2.16
X8.27Y-2.25
X8.27Y-3.97
X8.29Y-2.37
X8.33Y-2.59
X8.3367Y-3.4963
X8.3486Y-3.2443
X8.356Y-4.4217
X8.3978Y-2.6382
X8.411Y-3.5296
X8.4389Y-4.5548
X8.44Y-1.91
X8.442Y-2.4027
X8.4554Y-4.1438
X8.46Y-3.57
X8.4742Y-2.5124
X8.49Y-3.16
X8.5012Y-1.9691
X8.5196Y-2.6575
X8.5208Y-3.5411
X8.5247Y-3.336
X8.53Y-2.37
X8.54Y-3.42
X8.552Y-1.8629
X8.5609Y-2.2977
X8.5697Y-3.4928
X8.57Y-3.69
X8.58Y-3.61
X8.5868Y-3.9405
X8.59Y-2.53
X8.59Y-4.25
X8.5939Y-2.6672
X8.6024Y-1.8553
X8.6071Y-3.4735
X8.61Y-3.38
X8.64Y-2.63
X8.65Y-3.21
X8.6543Y-2.3061
X8.6591Y-2.402
X8.66Y-3.46
X8.6601Y-2.2571
X8.69Y-3.6283
X8.6944Y-2.1027
X8.6986Y-3.976
X8.7019Y-2.6128
X8.7037Y-3.2105
X8.7037Y-3.1521
X8.7107Y-3.4758
X8.7339Y-3.3435
X8.7369Y-2.8277
X8.7403Y-4.0934
X8.7511Y-2.402
X8.7544Y-1.9465
X8.76Y-3.59
X8.77Y-2.22
X8.78Y-3.86
X8.79Y-2.77
X8.7999Y-2.3697
X8.8026Y-1.9471
X8.804Y-3.092
X8.8117Y-2.1339
X8.8146Y-2.4352
X8.8197Y-3.3584
X8.8295Y-2.6894
X8.839Y-3.2174
X8.85Y-2.52
X8.8561Y-3.5985
X8.8747Y-2.228
X8.8828Y-3.5028
X8.8842Y-2.6914
X8.89Y-2.07
X8.8962Y-3.6842
X8.8965Y-1.9186
X8.9Y-2.62
X8.9001Y-2.9842
X8.9005Y-2.1351
X8.9069Y-3.0687
X8.91Y-4.15
X8.913Y-2.7896
X8.9263Y-3.2942
X8.9448Y-3.6247
X8.9492Y-2.1674
X8.9535Y-2.388
X8.96Y-2.73
X8.9886Y-3.2173
X9.0035Y-3.3325
X9.0087Y-3.0942
X9.0226Y-3.6012
X9.03Y-3.89
X9.05Y-2.85
X9.0546Y-2.6916
X9.0717Y-3.3144
X9.077Y-3.51
X9.12Y-3.68
X9.18Y-3.33
X9.26Y-3.22
X9.27Y-3.58
X9.33Y-3.98
T2
X7.7339Y-2.7487
X7.7339Y-2.8275
X7.8126Y-2.7487
X7.8126Y-2.8275
X7.8788Y-3.32
X7.8788Y-3.3987
X7.8913Y-2.7487
X7.8913Y-2.8275
X7.9576Y-3.32
X7.9576Y-3.3987
X7.9701Y-2.7487
X7.9701Y-2.8275
X8.0363Y-3.32
X8.0363Y-3.3987
X8.0488Y-2.7487
X8.0488Y-2.8275
X8.115Y-3.32
X8.115Y-3.3987
X8.1276Y-2.7487
X8.1276Y-2.8275
X8.1938Y-3.32
X8.1938Y-3.3987
X8.2063Y-2.7487
X8.2063Y-2.8275
X8.2725Y-3.32
X8.2725Y-3.3987
X8.285Y-2.7487
X8.285Y-2.8275
X8.3513Y-3.32
X8.3513Y-3.3987
X8.3638Y-2.7487
X8.3638Y-2.8275
X8.43Y-3.32
X8.43Y-3.3987
X8.4425Y-2.7487
X8.4425Y-2.8275
X8.5213Y-2.7487
X8.5213Y-2.8275
X8.6Y-2.7487
X8.6Y-2.8275
T3
X6.9013Y-2.915
X6.9013Y-3.0135
X6.9013Y-3.1119
X6.9013Y-3.2103
X6.9013Y-3.3087
X9.4513Y-2.8703
X9.4513Y-2.9687
X9.4513Y-3.0672
X9.4513Y-3.1656
X9.4513Y-3.264
T4
X8.8408Y-4.4382
X8.9392Y-4.4382
T5
X6.9Y-1.99
X6.9Y-4.48
X9.39Y-1.99
X9.39Y-4.48
T0
M30
