%TF.GenerationSoftware,KiCad,Pcbnew,(7.0.0)*%
%TF.CreationDate,2024-03-07T06:24:16-03:00*%
%TF.ProjectId,pcb_peau_v1,7063625f-7065-4617-955f-76312e6b6963,rev?*%
%TF.SameCoordinates,Original*%
%TF.FileFunction,Soldermask,Bot*%
%TF.FilePolarity,Negative*%
%FSLAX46Y46*%
G04 Gerber Fmt 4.6, Leading zero omitted, Abs format (unit mm)*
G04 Created by KiCad (PCBNEW (7.0.0)) date 2024-03-07 06:24:16*
%MOMM*%
%LPD*%
G01*
G04 APERTURE LIST*
G04 Aperture macros list*
%AMRoundRect*
0 Rectangle with rounded corners*
0 $1 Rounding radius*
0 $2 $3 $4 $5 $6 $7 $8 $9 X,Y pos of 4 corners*
0 Add a 4 corners polygon primitive as box body*
4,1,4,$2,$3,$4,$5,$6,$7,$8,$9,$2,$3,0*
0 Add four circle primitives for the rounded corners*
1,1,$1+$1,$2,$3*
1,1,$1+$1,$4,$5*
1,1,$1+$1,$6,$7*
1,1,$1+$1,$8,$9*
0 Add four rect primitives between the rounded corners*
20,1,$1+$1,$2,$3,$4,$5,0*
20,1,$1+$1,$4,$5,$6,$7,0*
20,1,$1+$1,$6,$7,$8,$9,0*
20,1,$1+$1,$8,$9,$2,$3,0*%
G04 Aperture macros list end*
%ADD10C,5.600000*%
%ADD11RoundRect,0.250000X-0.600000X-0.750000X0.600000X-0.750000X0.600000X0.750000X-0.600000X0.750000X0*%
%ADD12O,1.700000X2.000000*%
%ADD13RoundRect,0.250000X0.725000X-0.600000X0.725000X0.600000X-0.725000X0.600000X-0.725000X-0.600000X0*%
%ADD14O,1.950000X1.700000*%
%ADD15RoundRect,0.250000X0.350000X0.350000X-0.350000X0.350000X-0.350000X-0.350000X0.350000X-0.350000X0*%
%ADD16C,1.200000*%
%ADD17RoundRect,0.250000X-0.725000X0.600000X-0.725000X-0.600000X0.725000X-0.600000X0.725000X0.600000X0*%
G04 APERTURE END LIST*
D10*
%TO.C,H1*%
X175260000Y-50546000D03*
%TD*%
D11*
%TO.C,J3*%
X224556000Y-112730000D03*
D12*
X227055999Y-112729999D03*
%TD*%
D10*
%TO.C,H3*%
X238506000Y-113792000D03*
%TD*%
%TO.C,H4*%
X175260000Y-113792000D03*
%TD*%
%TO.C,H2*%
X238506000Y-50546000D03*
%TD*%
D13*
%TO.C,J2*%
X240062000Y-82906000D03*
D14*
X240061999Y-80405999D03*
X240061999Y-77905999D03*
X240061999Y-75405999D03*
X240061999Y-72905999D03*
%TD*%
D15*
%TO.C,J4*%
X214122000Y-86328000D03*
D16*
X214122000Y-84328000D03*
X212122000Y-86328000D03*
X212122000Y-84328000D03*
X210122000Y-86328000D03*
X210122000Y-84328000D03*
X208122000Y-86328000D03*
X208122000Y-84328000D03*
X206122000Y-86328000D03*
X206122000Y-84328000D03*
X204122000Y-86328000D03*
X204122000Y-84328000D03*
X202122000Y-86328000D03*
X202122000Y-84328000D03*
X200122000Y-86328000D03*
X200122000Y-84328000D03*
%TD*%
D17*
%TO.C,J1*%
X175292000Y-74042000D03*
D14*
X175291999Y-76541999D03*
X175291999Y-79041999D03*
X175291999Y-81541999D03*
X175291999Y-84041999D03*
%TD*%
D15*
%TO.C,J5*%
X218440000Y-71818000D03*
D16*
X218440000Y-69818000D03*
X216440000Y-71818000D03*
X216440000Y-69818000D03*
X214440000Y-71818000D03*
X214440000Y-69818000D03*
X212440000Y-71818000D03*
X212440000Y-69818000D03*
X210440000Y-71818000D03*
X210440000Y-69818000D03*
X208440000Y-71818000D03*
X208440000Y-69818000D03*
X206440000Y-71818000D03*
X206440000Y-69818000D03*
X204440000Y-71818000D03*
X204440000Y-69818000D03*
X202440000Y-71818000D03*
X202440000Y-69818000D03*
X200440000Y-71818000D03*
X200440000Y-69818000D03*
X198440000Y-71818000D03*
X198440000Y-69818000D03*
X196440000Y-71818000D03*
X196440000Y-69818000D03*
%TD*%
M02*
